%TF.GenerationSoftware,KiCad,Pcbnew,9.0.7-9.0.7~ubuntu25.10.1*%
%TF.CreationDate,2026-02-16T20:53:07-05:00*%
%TF.ProjectId,QFN_Practice,51464e5f-5072-4616-9374-6963652e6b69,rev?*%
%TF.SameCoordinates,Original*%
%TF.FileFunction,Copper,L1,Top*%
%TF.FilePolarity,Positive*%
%FSLAX46Y46*%
G04 Gerber Fmt 4.6, Leading zero omitted, Abs format (unit mm)*
G04 Created by KiCad (PCBNEW 9.0.7-9.0.7~ubuntu25.10.1) date 2026-02-16 20:53:07*
%MOMM*%
%LPD*%
G01*
G04 APERTURE LIST*
G04 Aperture macros list*
%AMRoundRect*
0 Rectangle with rounded corners*
0 $1 Rounding radius*
0 $2 $3 $4 $5 $6 $7 $8 $9 X,Y pos of 4 corners*
0 Add a 4 corners polygon primitive as box body*
4,1,4,$2,$3,$4,$5,$6,$7,$8,$9,$2,$3,0*
0 Add four circle primitives for the rounded corners*
1,1,$1+$1,$2,$3*
1,1,$1+$1,$4,$5*
1,1,$1+$1,$6,$7*
1,1,$1+$1,$8,$9*
0 Add four rect primitives between the rounded corners*
20,1,$1+$1,$2,$3,$4,$5,0*
20,1,$1+$1,$4,$5,$6,$7,0*
20,1,$1+$1,$6,$7,$8,$9,0*
20,1,$1+$1,$8,$9,$2,$3,0*%
%AMFreePoly0*
4,1,23,0.500000,-0.750000,0.000000,-0.750000,0.000000,-0.745722,-0.065263,-0.745722,-0.191342,-0.711940,-0.304381,-0.646677,-0.396677,-0.554381,-0.461940,-0.441342,-0.495722,-0.315263,-0.495722,-0.250000,-0.500000,-0.250000,-0.500000,0.250000,-0.495722,0.250000,-0.495722,0.315263,-0.461940,0.441342,-0.396677,0.554381,-0.304381,0.646677,-0.191342,0.711940,-0.065263,0.745722,0.000000,0.745722,
0.000000,0.750000,0.500000,0.750000,0.500000,-0.750000,0.500000,-0.750000,$1*%
%AMFreePoly1*
4,1,23,0.000000,0.745722,0.065263,0.745722,0.191342,0.711940,0.304381,0.646677,0.396677,0.554381,0.461940,0.441342,0.495722,0.315263,0.495722,0.250000,0.500000,0.250000,0.500000,-0.250000,0.495722,-0.250000,0.495722,-0.315263,0.461940,-0.441342,0.396677,-0.554381,0.304381,-0.646677,0.191342,-0.711940,0.065263,-0.745722,0.000000,-0.745722,0.000000,-0.750000,-0.500000,-0.750000,
-0.500000,0.750000,0.000000,0.750000,0.000000,0.745722,0.000000,0.745722,$1*%
G04 Aperture macros list end*
%TA.AperFunction,SMDPad,CuDef*%
%ADD10R,2.794000X0.736600*%
%TD*%
%TA.AperFunction,SMDPad,CuDef*%
%ADD11FreePoly0,270.000000*%
%TD*%
%TA.AperFunction,SMDPad,CuDef*%
%ADD12FreePoly1,270.000000*%
%TD*%
%TA.AperFunction,SMDPad,CuDef*%
%ADD13RoundRect,0.200000X0.275000X-0.200000X0.275000X0.200000X-0.275000X0.200000X-0.275000X-0.200000X0*%
%TD*%
%TA.AperFunction,SMDPad,CuDef*%
%ADD14RoundRect,0.225000X0.225000X0.250000X-0.225000X0.250000X-0.225000X-0.250000X0.225000X-0.250000X0*%
%TD*%
%TA.AperFunction,SMDPad,CuDef*%
%ADD15RoundRect,0.250000X0.750000X-0.275000X0.750000X0.275000X-0.750000X0.275000X-0.750000X-0.275000X0*%
%TD*%
%TA.AperFunction,SMDPad,CuDef*%
%ADD16RoundRect,0.225000X-0.250000X0.225000X-0.250000X-0.225000X0.250000X-0.225000X0.250000X0.225000X0*%
%TD*%
%TA.AperFunction,SMDPad,CuDef*%
%ADD17RoundRect,0.200000X-0.275000X0.200000X-0.275000X-0.200000X0.275000X-0.200000X0.275000X0.200000X0*%
%TD*%
%TA.AperFunction,ComponentPad*%
%ADD18R,1.700000X1.700000*%
%TD*%
%TA.AperFunction,ComponentPad*%
%ADD19C,1.700000*%
%TD*%
%TA.AperFunction,SMDPad,CuDef*%
%ADD20RoundRect,0.243750X0.456250X-0.243750X0.456250X0.243750X-0.456250X0.243750X-0.456250X-0.243750X0*%
%TD*%
%TA.AperFunction,SMDPad,CuDef*%
%ADD21RoundRect,0.200000X-0.200000X-0.275000X0.200000X-0.275000X0.200000X0.275000X-0.200000X0.275000X0*%
%TD*%
%TA.AperFunction,SMDPad,CuDef*%
%ADD22RoundRect,0.062500X0.375000X0.062500X-0.375000X0.062500X-0.375000X-0.062500X0.375000X-0.062500X0*%
%TD*%
%TA.AperFunction,SMDPad,CuDef*%
%ADD23RoundRect,0.062500X0.062500X0.375000X-0.062500X0.375000X-0.062500X-0.375000X0.062500X-0.375000X0*%
%TD*%
%TA.AperFunction,HeatsinkPad*%
%ADD24R,3.450000X3.450000*%
%TD*%
%TA.AperFunction,SMDPad,CuDef*%
%ADD25RoundRect,0.150000X0.512500X0.150000X-0.512500X0.150000X-0.512500X-0.150000X0.512500X-0.150000X0*%
%TD*%
%TA.AperFunction,SMDPad,CuDef*%
%ADD26R,0.600000X1.240000*%
%TD*%
%TA.AperFunction,SMDPad,CuDef*%
%ADD27R,0.300000X1.240000*%
%TD*%
%TA.AperFunction,HeatsinkPad*%
%ADD28O,1.000000X2.100000*%
%TD*%
%TA.AperFunction,HeatsinkPad*%
%ADD29O,1.000000X1.800000*%
%TD*%
%TA.AperFunction,SMDPad,CuDef*%
%ADD30R,0.300000X0.300000*%
%TD*%
%TA.AperFunction,SMDPad,CuDef*%
%ADD31R,0.300000X0.900000*%
%TD*%
%TA.AperFunction,SMDPad,CuDef*%
%ADD32R,0.900000X0.300000*%
%TD*%
%TA.AperFunction,SMDPad,CuDef*%
%ADD33R,1.800000X1.800000*%
%TD*%
%TA.AperFunction,ViaPad*%
%ADD34C,0.600000*%
%TD*%
%TA.AperFunction,Conductor*%
%ADD35C,0.500000*%
%TD*%
%TA.AperFunction,Conductor*%
%ADD36C,0.250000*%
%TD*%
%TA.AperFunction,Conductor*%
%ADD37C,0.300000*%
%TD*%
%TA.AperFunction,Conductor*%
%ADD38C,0.200000*%
%TD*%
G04 APERTURE END LIST*
D10*
%TO.P,J2,01,01*%
%TO.N,+3V3*%
X65282000Y-65290000D03*
%TO.P,J2,02,02*%
%TO.N,/SWCLK*%
X61218000Y-65290000D03*
%TO.P,J2,03,03*%
%TO.N,GND*%
X65282000Y-64020000D03*
%TO.P,J2,04,04*%
%TO.N,/SWDIO*%
X61218000Y-64020000D03*
%TO.P,J2,05,05*%
%TO.N,GND*%
X65282000Y-62750000D03*
%TO.P,J2,06,06*%
%TO.N,unconnected-(J2-Pad06)*%
X61218000Y-62750000D03*
%TO.P,J2,07,07*%
%TO.N,unconnected-(J2-Pad07)*%
X65282000Y-61480000D03*
%TO.P,J2,08,08*%
%TO.N,unconnected-(J2-Pad08)*%
X61218000Y-61480000D03*
%TO.P,J2,09,09*%
%TO.N,GND*%
X65282000Y-60210000D03*
%TO.P,J2,10,10*%
%TO.N,/nRST*%
X61218000Y-60210000D03*
%TD*%
D11*
%TO.P,JP1,1,A*%
%TO.N,Net-(JP1-A)*%
X66600000Y-73750000D03*
D12*
%TO.P,JP1,2,B*%
%TO.N,+3V3*%
X66600000Y-75050000D03*
%TD*%
D11*
%TO.P,JP2,1,A*%
%TO.N,Net-(JP2-A)*%
X66600000Y-79300000D03*
D12*
%TO.P,JP2,2,B*%
%TO.N,+3V3*%
X66600000Y-80600000D03*
%TD*%
D13*
%TO.P,R2,1*%
%TO.N,+3V3*%
X63250000Y-71825000D03*
%TO.P,R2,2*%
%TO.N,/nRST*%
X63250000Y-70175000D03*
%TD*%
D14*
%TO.P,C4,1*%
%TO.N,+5V*%
X48775000Y-57400000D03*
%TO.P,C4,2*%
%TO.N,GND*%
X47225000Y-57400000D03*
%TD*%
D13*
%TO.P,R11,1*%
%TO.N,Net-(JP2-A)*%
X67800000Y-71625000D03*
%TO.P,R11,2*%
%TO.N,/SCL*%
X67800000Y-69975000D03*
%TD*%
D15*
%TO.P,SW3,1,1*%
%TO.N,GND*%
X60500000Y-74725000D03*
%TO.P,SW3,2,2*%
%TO.N,/nRST*%
X60500000Y-70275000D03*
%TD*%
D14*
%TO.P,C6,1*%
%TO.N,/3v3_CP*%
X48775000Y-59000000D03*
%TO.P,C6,2*%
%TO.N,GND*%
X47225000Y-59000000D03*
%TD*%
D16*
%TO.P,C3,1*%
%TO.N,+3V3*%
X48400000Y-70025000D03*
%TO.P,C3,2*%
%TO.N,GND*%
X48400000Y-71575000D03*
%TD*%
D17*
%TO.P,R8,1*%
%TO.N,/3v3_CP*%
X62600000Y-51175000D03*
%TO.P,R8,2*%
%TO.N,Net-(D2-A)*%
X62600000Y-52825000D03*
%TD*%
D18*
%TO.P,J3,1,Pin_1*%
%TO.N,/P15*%
X40640000Y-50220000D03*
D19*
%TO.P,J3,2,Pin_2*%
%TO.N,/P16*%
X40640000Y-52760000D03*
%TO.P,J3,3,Pin_3*%
%TO.N,/P9*%
X40640000Y-55300000D03*
%TO.P,J3,4,Pin_4*%
%TO.N,/P8*%
X40640000Y-57840000D03*
%TO.P,J3,5,Pin_5*%
%TO.N,/P7*%
X40640000Y-60380000D03*
%TO.P,J3,6,Pin_6*%
%TO.N,/P6*%
X40640000Y-62920000D03*
%TO.P,J3,7,Pin_7*%
%TO.N,/P1*%
X40640000Y-65460000D03*
%TO.P,J3,8,Pin_8*%
%TO.N,/P14*%
X40640000Y-68000000D03*
%TO.P,J3,9,Pin_9*%
%TO.N,/P23*%
X40640000Y-70540000D03*
%TO.P,J3,10,Pin_10*%
%TO.N,/P22*%
X40640000Y-73080000D03*
%TO.P,J3,11,Pin_11*%
%TO.N,/P25*%
X40640000Y-75620000D03*
%TO.P,J3,12,Pin_12*%
%TO.N,/P26*%
X40640000Y-78160000D03*
%TO.P,J3,13,Pin_13*%
%TO.N,/P27*%
X40640000Y-80700000D03*
%TO.P,J3,14,Pin_14*%
%TO.N,/P28*%
X40640000Y-83240000D03*
%TD*%
D20*
%TO.P,D3,1,K*%
%TO.N,Net-(D3-K)*%
X60200000Y-56537500D03*
%TO.P,D3,2,A*%
%TO.N,Net-(D3-A)*%
X60200000Y-54662500D03*
%TD*%
D14*
%TO.P,C1,1*%
%TO.N,+3V3*%
X48175000Y-64800000D03*
%TO.P,C1,2*%
%TO.N,GND*%
X46625000Y-64800000D03*
%TD*%
%TO.P,C5,1*%
%TO.N,+5V*%
X48775000Y-55800000D03*
%TO.P,C5,2*%
%TO.N,GND*%
X47225000Y-55800000D03*
%TD*%
D16*
%TO.P,C2,1*%
%TO.N,+5V*%
X43400000Y-72625000D03*
%TO.P,C2,2*%
%TO.N,GND*%
X43400000Y-74175000D03*
%TD*%
D21*
%TO.P,R6,1*%
%TO.N,GND*%
X47200000Y-54000000D03*
%TO.P,R6,2*%
%TO.N,/VBUS_CP*%
X48850000Y-54000000D03*
%TD*%
D22*
%TO.P,U1,1,PIO0_13*%
%TO.N,Net-(D4-A)*%
X55437500Y-67750000D03*
%TO.P,U1,2,PIO0_12*%
%TO.N,/nRST*%
X55437500Y-67250000D03*
%TO.P,U1,3,PIO0_5*%
%TO.N,/ISP*%
X55437500Y-66750000D03*
%TO.P,U1,4,PIO0_4*%
%TO.N,/TXD_MCU*%
X55437500Y-66250000D03*
%TO.P,U1,5,PIO0_28*%
%TO.N,/P28*%
X55437500Y-65750000D03*
%TO.P,U1,6,PIO0_3*%
%TO.N,/SWDIO*%
X55437500Y-65250000D03*
%TO.P,U1,7,PIO0_2*%
%TO.N,/SWCLK*%
X55437500Y-64750000D03*
%TO.P,U1,8,PIO0_11*%
%TO.N,/SDA*%
X55437500Y-64250000D03*
D23*
%TO.P,U1,9,PIO0_10*%
%TO.N,/SCL*%
X54750000Y-63562500D03*
%TO.P,U1,10,PIO0_16*%
%TO.N,/P16*%
X54250000Y-63562500D03*
%TO.P,U1,11,PIO0_27*%
%TO.N,/P27*%
X53750000Y-63562500D03*
%TO.P,U1,12,PIO0_26*%
%TO.N,/P26*%
X53250000Y-63562500D03*
%TO.P,U1,13,PIO0_25*%
%TO.N,/P25*%
X52750000Y-63562500D03*
%TO.P,U1,14,PIO0_24*%
%TO.N,/RXD_MCU*%
X52250000Y-63562500D03*
%TO.P,U1,15,PIO0_15*%
%TO.N,/P15*%
X51750000Y-63562500D03*
%TO.P,U1,16,PIO0_1*%
%TO.N,/P2*%
X51250000Y-63562500D03*
D22*
%TO.P,U1,17,PIO0_9*%
%TO.N,/P9*%
X50562500Y-64250000D03*
%TO.P,U1,18,PIO0_8*%
%TO.N,/P8*%
X50562500Y-64750000D03*
%TO.P,U1,19,VDD*%
%TO.N,+3V3*%
X50562500Y-65250000D03*
%TO.P,U1,20,VREFN*%
%TO.N,GND*%
X50562500Y-65750000D03*
%TO.P,U1,21,VREFP*%
%TO.N,+3V3*%
X50562500Y-66250000D03*
%TO.P,U1,22,PIO0_7*%
%TO.N,/P7*%
X50562500Y-66750000D03*
%TO.P,U1,23,PIO0_6*%
%TO.N,/P6*%
X50562500Y-67250000D03*
%TO.P,U1,24,PIO0_0*%
%TO.N,/P1*%
X50562500Y-67750000D03*
D23*
%TO.P,U1,25,PIO0_14*%
%TO.N,/P14*%
X51250000Y-68437500D03*
%TO.P,U1,26,PIO0_23*%
%TO.N,/P23*%
X51750000Y-68437500D03*
%TO.P,U1,27,PIO0_22*%
%TO.N,/P22*%
X52250000Y-68437500D03*
%TO.P,U1,28,PIO0_21*%
%TO.N,/P21*%
X52750000Y-68437500D03*
%TO.P,U1,29,PIO0_20*%
%TO.N,/P20*%
X53250000Y-68437500D03*
%TO.P,U1,30,PIO0_19*%
%TO.N,/P19*%
X53750000Y-68437500D03*
%TO.P,U1,31,PIO0_18*%
%TO.N,/P18*%
X54250000Y-68437500D03*
%TO.P,U1,32,PIO0_17*%
%TO.N,/P17*%
X54750000Y-68437500D03*
D24*
%TO.P,U1,33,VSS*%
%TO.N,GND*%
X53000000Y-66000000D03*
%TD*%
D13*
%TO.P,R10,1*%
%TO.N,Net-(JP1-A)*%
X66200000Y-71625000D03*
%TO.P,R10,2*%
%TO.N,/SDA*%
X66200000Y-69975000D03*
%TD*%
D14*
%TO.P,C7,1*%
%TO.N,/3v3_CP*%
X48775000Y-60600000D03*
%TO.P,C7,2*%
%TO.N,GND*%
X47225000Y-60600000D03*
%TD*%
%TO.P,C8,1*%
%TO.N,+3V3*%
X48175000Y-66600000D03*
%TO.P,C8,2*%
%TO.N,GND*%
X46625000Y-66600000D03*
%TD*%
D20*
%TO.P,D4,1,K*%
%TO.N,Net-(D4-K)*%
X56200000Y-71937500D03*
%TO.P,D4,2,A*%
%TO.N,Net-(D4-A)*%
X56200000Y-70062500D03*
%TD*%
%TO.P,D2,1,K*%
%TO.N,Net-(D2-K)*%
X62600000Y-56475000D03*
%TO.P,D2,2,A*%
%TO.N,Net-(D2-A)*%
X62600000Y-54600000D03*
%TD*%
D13*
%TO.P,R1,1*%
%TO.N,+3V3*%
X63250000Y-78325000D03*
%TO.P,R1,2*%
%TO.N,/ISP*%
X63250000Y-76675000D03*
%TD*%
D21*
%TO.P,R5,1*%
%TO.N,+5V*%
X47200000Y-52200000D03*
%TO.P,R5,2*%
%TO.N,/VBUS_CP*%
X48850000Y-52200000D03*
%TD*%
D17*
%TO.P,R4,1*%
%TO.N,Net-(J1-CC2)*%
X51000000Y-51375000D03*
%TO.P,R4,2*%
%TO.N,GND*%
X51000000Y-53025000D03*
%TD*%
D25*
%TO.P,U3,1,GND*%
%TO.N,GND*%
X46537500Y-71750000D03*
%TO.P,U3,2,VO*%
%TO.N,+3V3*%
X46537500Y-69850000D03*
%TO.P,U3,3,VI*%
%TO.N,+5V*%
X44262500Y-70800000D03*
%TD*%
D26*
%TO.P,J1,A1,GND*%
%TO.N,GND*%
X56200000Y-49225000D03*
%TO.P,J1,A4,VBUS*%
%TO.N,+5V*%
X55400000Y-49225000D03*
D27*
%TO.P,J1,A5,CC1*%
%TO.N,Net-(J1-CC1)*%
X54250000Y-49225000D03*
%TO.P,J1,A6,D+*%
%TO.N,/D+*%
X53250000Y-49225000D03*
%TO.P,J1,A7,D-*%
%TO.N,/D-*%
X52750000Y-49225000D03*
%TO.P,J1,A8,SBU1*%
%TO.N,unconnected-(J1-SBU1-PadA8)*%
X51750000Y-49225000D03*
D26*
%TO.P,J1,A9,VBUS*%
%TO.N,+5V*%
X50600000Y-49225000D03*
%TO.P,J1,A12,GND*%
%TO.N,GND*%
X49800000Y-49225000D03*
%TO.P,J1,B1,GND*%
X49800000Y-49225000D03*
%TO.P,J1,B4,VBUS*%
%TO.N,+5V*%
X50600000Y-49225000D03*
D27*
%TO.P,J1,B5,CC2*%
%TO.N,Net-(J1-CC2)*%
X51250000Y-49225000D03*
%TO.P,J1,B6,D+*%
%TO.N,/D+*%
X52250000Y-49225000D03*
%TO.P,J1,B7,D-*%
%TO.N,/D-*%
X53750000Y-49225000D03*
%TO.P,J1,B8,SBU2*%
%TO.N,unconnected-(J1-SBU2-PadB8)*%
X54750000Y-49225000D03*
D26*
%TO.P,J1,B9,VBUS*%
%TO.N,+5V*%
X55400000Y-49225000D03*
%TO.P,J1,B12,GND*%
%TO.N,GND*%
X56200000Y-49225000D03*
D28*
%TO.P,J1,S1,SHIELD*%
X57320000Y-48625000D03*
D29*
X57320000Y-44425000D03*
D28*
X48680000Y-48625000D03*
D29*
X48680000Y-44425000D03*
%TD*%
D15*
%TO.P,SW1,1,1*%
%TO.N,GND*%
X60500000Y-81225000D03*
%TO.P,SW1,2,2*%
%TO.N,/ISP*%
X60500000Y-76775000D03*
%TD*%
D17*
%TO.P,R3,1*%
%TO.N,Net-(J1-CC1)*%
X54200000Y-51375000D03*
%TO.P,R3,2*%
%TO.N,GND*%
X54200000Y-53025000D03*
%TD*%
%TO.P,R9,1*%
%TO.N,Net-(D4-K)*%
X56200000Y-73575000D03*
%TO.P,R9,2*%
%TO.N,GND*%
X56200000Y-75225000D03*
%TD*%
%TO.P,R7,1*%
%TO.N,/3v3_CP*%
X60200000Y-51175000D03*
%TO.P,R7,2*%
%TO.N,Net-(D3-A)*%
X60200000Y-52825000D03*
%TD*%
D18*
%TO.P,J4,1,Pin_1*%
%TO.N,+5V*%
X71120000Y-50340000D03*
D19*
%TO.P,J4,2,Pin_2*%
%TO.N,GND*%
X71120000Y-52880000D03*
%TO.P,J4,3,Pin_3*%
X71120000Y-55420000D03*
%TO.P,J4,4,Pin_4*%
%TO.N,/P2*%
X71120000Y-57960000D03*
%TO.P,J4,5,Pin_5*%
%TO.N,unconnected-(J4-Pin_5-Pad5)*%
X71120000Y-60500000D03*
%TO.P,J4,6,Pin_6*%
%TO.N,/P17*%
X71120000Y-63040000D03*
%TO.P,J4,7,Pin_7*%
%TO.N,/SCL*%
X71120000Y-65580000D03*
%TO.P,J4,8,Pin_8*%
%TO.N,/SDA*%
X71120000Y-68120000D03*
%TO.P,J4,9,Pin_9*%
%TO.N,/P18*%
X71120000Y-70660000D03*
%TO.P,J4,10,Pin_10*%
%TO.N,/TXD_MCU*%
X71120000Y-73200000D03*
%TO.P,J4,11,Pin_11*%
%TO.N,/RXD_MCU*%
X71120000Y-75740000D03*
%TO.P,J4,12,Pin_12*%
%TO.N,/P19*%
X71120000Y-78280000D03*
%TO.P,J4,13,Pin_13*%
%TO.N,/P20*%
X71120000Y-80820000D03*
%TO.P,J4,14,Pin_14*%
%TO.N,/P21*%
X71120000Y-83360000D03*
%TD*%
D30*
%TO.P,U2,1,RS485/GPIO.1*%
%TO.N,unconnected-(U2-RS485{slash}GPIO.1-Pad1)*%
X54200000Y-56800000D03*
D31*
%TO.P,U2,2,CLK/GPIO.0*%
%TO.N,unconnected-(U2-CLK{slash}GPIO.0-Pad2)*%
X53700000Y-56500000D03*
%TO.P,U2,3,GND*%
%TO.N,GND*%
X53200000Y-56500000D03*
%TO.P,U2,4,D+*%
%TO.N,/D+*%
X52700000Y-56500000D03*
%TO.P,U2,5,D-*%
%TO.N,/D-*%
X52200000Y-56500000D03*
D30*
%TO.P,U2,6,VDD*%
%TO.N,/3v3_CP*%
X51700000Y-56800000D03*
D32*
%TO.P,U2,7,VREGIN*%
%TO.N,+5V*%
X51400000Y-57300000D03*
%TO.P,U2,8,VBUS*%
%TO.N,/VBUS_CP*%
X51400000Y-57800000D03*
%TO.P,U2,9,~{RST}*%
%TO.N,/3v3_CP*%
X51400000Y-58300000D03*
%TO.P,U2,10,NC*%
%TO.N,unconnected-(U2-NC-Pad10)*%
X51400000Y-58800000D03*
D30*
%TO.P,U2,11,~{SUSPEND}*%
%TO.N,unconnected-(U2-~{SUSPEND}-Pad11)*%
X51700000Y-59300000D03*
D31*
%TO.P,U2,12,GND*%
%TO.N,GND*%
X52200000Y-59600000D03*
%TO.P,U2,13,~{WAKEUP}*%
%TO.N,unconnected-(U2-~{WAKEUP}-Pad13)*%
X52700000Y-59600000D03*
%TO.P,U2,14,SUSPEND*%
%TO.N,unconnected-(U2-SUSPEND-Pad14)*%
X53200000Y-59600000D03*
%TO.P,U2,15,~{CTS}*%
%TO.N,unconnected-(U2-~{CTS}-Pad15)*%
X53700000Y-59600000D03*
D30*
%TO.P,U2,16,~{RTS}*%
%TO.N,unconnected-(U2-~{RTS}-Pad16)*%
X54200000Y-59300000D03*
D32*
%TO.P,U2,17,RXD*%
%TO.N,/TXD_MCU*%
X54500000Y-58800000D03*
%TO.P,U2,18,TXD*%
%TO.N,/RXD_MCU*%
X54500000Y-58300000D03*
%TO.P,U2,19,~{RXT}/GPIO.3*%
%TO.N,Net-(D2-K)*%
X54500000Y-57800000D03*
%TO.P,U2,20,~{TXT}/GPIO.2*%
%TO.N,Net-(D3-K)*%
X54500000Y-57300000D03*
D33*
%TO.P,U2,21,GND*%
%TO.N,GND*%
X52950000Y-58050000D03*
%TD*%
D34*
%TO.N,+5V*%
X57600000Y-51650000D03*
X56750000Y-51650000D03*
X55950000Y-51650000D03*
%TO.N,GND*%
X53450000Y-55350000D03*
X50454199Y-59377685D03*
X54025000Y-66850000D03*
X52000000Y-66775000D03*
X54050000Y-65075000D03*
X51950000Y-65050000D03*
X52950000Y-58050000D03*
X56200000Y-76300000D03*
X57900000Y-81400000D03*
X58000000Y-80600000D03*
X57000000Y-80500000D03*
X69100000Y-60900000D03*
X69100000Y-60200000D03*
X69100000Y-59500000D03*
X45600000Y-63700000D03*
X44900000Y-72000000D03*
X44900000Y-73300000D03*
X44900000Y-74000000D03*
X61300000Y-72900000D03*
X60500000Y-72800000D03*
X59700000Y-72800000D03*
X61300000Y-71900000D03*
X60500000Y-71900000D03*
X59700000Y-71900000D03*
X41400000Y-47200000D03*
X42200000Y-47200000D03*
X43000000Y-47200000D03*
X43800000Y-47200000D03*
X44600000Y-47200000D03*
X45400000Y-47200000D03*
X45800000Y-46400000D03*
X45000000Y-46400000D03*
X44200000Y-46400000D03*
X43400000Y-46400000D03*
X42600000Y-46400000D03*
X41800000Y-46400000D03*
X41000000Y-46400000D03*
X40200000Y-46400000D03*
X40800000Y-45600000D03*
X41600000Y-45600000D03*
X42400000Y-45600000D03*
X43200000Y-45600000D03*
X44000000Y-45600000D03*
X44800000Y-45600000D03*
X45600000Y-45600000D03*
X46000000Y-44800000D03*
X45200000Y-44800000D03*
X44400000Y-44800000D03*
X43600000Y-44800000D03*
X42800000Y-44800000D03*
X42000000Y-44800000D03*
X41200000Y-44800000D03*
X40200000Y-44800000D03*
X60000000Y-48400000D03*
X60800000Y-48400000D03*
X61600000Y-48400000D03*
X62400000Y-48400000D03*
X62400000Y-47600000D03*
X61600000Y-47600000D03*
X60800000Y-47600000D03*
X60000000Y-47600000D03*
%TO.N,/P17*%
X63386183Y-66423001D03*
X55450000Y-68950000D03*
%TO.N,/P18*%
X69350000Y-74050000D03*
X54825000Y-69800000D03*
%TO.N,/P19*%
X56091942Y-78491942D03*
X55383058Y-77433058D03*
%TO.N,/P20*%
X55350000Y-79300000D03*
X54649999Y-78166117D03*
%TO.N,/P21*%
X54741942Y-79841942D03*
X54050000Y-78700000D03*
%TO.N,/P2*%
X57200000Y-61550000D03*
X55757233Y-60625001D03*
%TO.N,/TXD_MCU*%
X59021577Y-67650000D03*
X65008058Y-68691942D03*
%TO.N,/P26*%
X52648289Y-71148290D03*
%TO.N,/P27*%
X53396889Y-71430429D03*
%TO.N,/P28*%
X57800000Y-69400000D03*
%TO.N,/P25*%
X51950000Y-71600000D03*
%TO.N,/P23*%
X51243761Y-70265642D03*
%TO.N,/P14*%
X50800000Y-69600000D03*
%TO.N,/P7*%
X47639067Y-67696560D03*
X49400000Y-67000000D03*
%TO.N,/P8*%
X49400000Y-64600000D03*
X48100000Y-63500000D03*
%TO.N,+3V3*%
X64300000Y-79900000D03*
X49700000Y-74000000D03*
X67500000Y-65300000D03*
X46400000Y-73000000D03*
X48600000Y-73000000D03*
X64200000Y-73500000D03*
X47500000Y-73000000D03*
X47500000Y-74000000D03*
X46400000Y-74000000D03*
X48800000Y-68000000D03*
X49700000Y-73000000D03*
X50000000Y-69400000D03*
X50000000Y-72000000D03*
X49000000Y-63500000D03*
X48600000Y-74000000D03*
%TO.N,GND*%
X67400000Y-64000000D03*
X67400000Y-62800000D03*
X67300000Y-60200000D03*
X46000000Y-54000000D03*
X46000000Y-60600000D03*
X51000000Y-54100000D03*
X45900000Y-57400000D03*
X45300000Y-65800000D03*
X54200000Y-54200000D03*
%TO.N,+5V*%
X43500000Y-50300000D03*
X43800000Y-69800000D03*
X42900000Y-69800000D03*
X42900000Y-69100000D03*
X44300000Y-50300000D03*
X44300000Y-52200000D03*
X43800000Y-69100000D03*
X44300000Y-51250000D03*
X45100000Y-51300000D03*
X43500000Y-52200000D03*
X43500000Y-51250000D03*
X42900000Y-71300000D03*
X42900000Y-70500000D03*
%TO.N,/3v3_CP*%
X50200000Y-60800000D03*
X61400000Y-50800000D03*
X50400000Y-56600000D03*
X61400000Y-52000000D03*
%TO.N,/P28*%
X57843005Y-66144495D03*
%TO.N,/P16*%
X49505630Y-59824373D03*
%TO.N,/P27*%
X54200000Y-61800000D03*
%TO.N,/P26*%
X53300000Y-61800000D03*
%TO.N,/P25*%
X52400000Y-61800000D03*
%TO.N,/P2*%
X50596135Y-62803865D03*
X57600000Y-58425000D03*
%TO.N,/SDA*%
X56875000Y-63225000D03*
X59600000Y-66825000D03*
%TO.N,/SCL*%
X60400000Y-66825000D03*
X67400000Y-66800000D03*
X57600121Y-62575092D03*
X67400000Y-68800000D03*
%TO.N,/RXD_MCU*%
X68774120Y-69725646D03*
X51400000Y-61800000D03*
X61300000Y-66825000D03*
X56249129Y-58465244D03*
X59000000Y-62200000D03*
X66599997Y-66800000D03*
%TO.N,/TXD_MCU*%
X58250000Y-64000094D03*
X57670751Y-66985067D03*
%TO.N,/VBUS_CP*%
X49932058Y-58132058D03*
X50000000Y-55000000D03*
%TO.N,/ISP*%
X57525000Y-68450000D03*
X56832248Y-66917752D03*
%TO.N,/SWCLK*%
X57658883Y-64625001D03*
X58664264Y-65937500D03*
%TO.N,/D+*%
X52825000Y-52500000D03*
X52250000Y-50922238D03*
%TO.N,GND*%
X69100000Y-61600000D03*
X69100000Y-62300000D03*
X69100000Y-63000000D03*
%TD*%
D35*
%TO.N,Net-(D4-K)*%
X56200000Y-71937500D02*
X56200000Y-73575000D01*
%TO.N,+5V*%
X56750000Y-51650000D02*
X57600000Y-51650000D01*
X55950000Y-51650000D02*
X56750000Y-51650000D01*
X55400000Y-49225000D02*
X55400000Y-51250000D01*
X55400000Y-51250000D02*
X55800000Y-51650000D01*
X55800000Y-51650000D02*
X55950000Y-51650000D01*
%TO.N,GND*%
X56200000Y-49225000D02*
X56200000Y-50300000D01*
X56200000Y-50300000D02*
X56750000Y-50850000D01*
X58550000Y-50850000D02*
X60000000Y-49400000D01*
X56750000Y-50850000D02*
X58550000Y-50850000D01*
X60000000Y-49400000D02*
X60000000Y-48400000D01*
D36*
%TO.N,+5V*%
X47200000Y-52200000D02*
X46000000Y-52200000D01*
X46000000Y-52200000D02*
X45100000Y-51300000D01*
%TO.N,GND*%
X53200000Y-55600000D02*
X53450000Y-55350000D01*
X53200000Y-56500000D02*
X53200000Y-55600000D01*
X50852514Y-59776000D02*
X50454199Y-59377685D01*
X52024000Y-59776000D02*
X50852514Y-59776000D01*
X52200000Y-59600000D02*
X52024000Y-59776000D01*
%TO.N,/P16*%
X49505630Y-59824373D02*
X49673906Y-59992649D01*
X49673906Y-59992649D02*
X50342649Y-59992649D01*
X54900000Y-60600000D02*
X55100000Y-60800000D01*
X50342649Y-59992649D02*
X50800000Y-60450000D01*
X50800000Y-60450000D02*
X50800000Y-60514702D01*
X50800000Y-60514702D02*
X50826000Y-60540702D01*
X50826000Y-60540702D02*
X50826000Y-60600000D01*
X50826000Y-60600000D02*
X54900000Y-60600000D01*
X55100000Y-60800000D02*
X55100000Y-61785298D01*
X55100000Y-61785298D02*
X54250000Y-62635298D01*
X54250000Y-62635298D02*
X54250000Y-63562500D01*
D37*
%TO.N,+3V3*%
X48400000Y-70025000D02*
X49375000Y-70025000D01*
X49375000Y-70025000D02*
X50000000Y-69400000D01*
D36*
%TO.N,/P9*%
X50562500Y-64250000D02*
X50562500Y-64125001D01*
X50562500Y-64125001D02*
X48737499Y-62300000D01*
X48737499Y-62300000D02*
X46062190Y-62300000D01*
X46062190Y-62300000D02*
X44326000Y-60563810D01*
X44326000Y-60563810D02*
X44326000Y-57783919D01*
X44326000Y-57783919D02*
X41842081Y-55300000D01*
X41842081Y-55300000D02*
X40640000Y-55300000D01*
D38*
%TO.N,/P8*%
X48100000Y-63500000D02*
X46250000Y-63500000D01*
X46250000Y-63500000D02*
X43900000Y-61150000D01*
X43900000Y-61150000D02*
X43900000Y-59100000D01*
X43900000Y-59100000D02*
X42640000Y-57840000D01*
X42640000Y-57840000D02*
X40640000Y-57840000D01*
D36*
%TO.N,/P28*%
X57843005Y-66144495D02*
X57448510Y-65750000D01*
X57448510Y-65750000D02*
X55437500Y-65750000D01*
D38*
%TO.N,/SWDIO*%
X55437500Y-65250000D02*
X55512500Y-65325000D01*
X55512500Y-65325000D02*
X58225000Y-65325000D01*
X58225000Y-65325000D02*
X59530000Y-64020000D01*
X59530000Y-64020000D02*
X61218000Y-64020000D01*
D36*
%TO.N,/TXD_MCU*%
X57670751Y-66985067D02*
X57670751Y-66856126D01*
X57670751Y-66856126D02*
X57064625Y-66250000D01*
X57064625Y-66250000D02*
X55437500Y-66250000D01*
%TO.N,/SWCLK*%
X57658883Y-64625001D02*
X57533884Y-64750000D01*
X57533884Y-64750000D02*
X55437500Y-64750000D01*
%TO.N,/D+*%
X52250000Y-50922238D02*
X52250000Y-49225000D01*
X52825000Y-52500000D02*
X52700000Y-52625000D01*
X52700000Y-52625000D02*
X52700000Y-56500000D01*
%TO.N,/D-*%
X52900000Y-50300000D02*
X53025000Y-50425000D01*
X53025000Y-50425000D02*
X53025000Y-51275000D01*
X53025000Y-51275000D02*
X52200000Y-52100000D01*
X52200000Y-52100000D02*
X52200000Y-56500000D01*
%TO.N,/ISP*%
X59275000Y-76775000D02*
X60500000Y-76775000D01*
X57525000Y-68450000D02*
X57575000Y-68400000D01*
X57575000Y-68400000D02*
X57811826Y-68400000D01*
X58500000Y-76000000D02*
X59275000Y-76775000D01*
X57811826Y-68400000D02*
X58500000Y-69088174D01*
X58500000Y-69088174D02*
X58500000Y-76000000D01*
D35*
%TO.N,+5V*%
X42900000Y-70500000D02*
X43962500Y-70500000D01*
X43962500Y-70500000D02*
X44262500Y-70800000D01*
D36*
%TO.N,/SDA*%
X56875000Y-64099662D02*
X56724662Y-64250000D01*
X56875000Y-63225000D02*
X56875000Y-64099662D01*
X56724662Y-64250000D02*
X55437500Y-64250000D01*
%TO.N,/TXD_MCU*%
X58250000Y-61350000D02*
X55700000Y-58800000D01*
X55700000Y-58800000D02*
X54500000Y-58800000D01*
X58250000Y-64000094D02*
X58250000Y-61350000D01*
%TO.N,/SWCLK*%
X58664264Y-65937500D02*
X58712500Y-65937500D01*
X58712500Y-65937500D02*
X59050000Y-65600000D01*
X60908000Y-65600000D02*
X61218000Y-65290000D01*
X59050000Y-65600000D02*
X60908000Y-65600000D01*
%TO.N,/TXD_MCU*%
X59021577Y-67650000D02*
X60063519Y-68691942D01*
X60063519Y-68691942D02*
X65008058Y-68691942D01*
%TO.N,/ISP*%
X56725000Y-66800000D02*
X56675000Y-66750000D01*
X56832248Y-66917752D02*
X56725000Y-66810504D01*
X56725000Y-66810504D02*
X56725000Y-66800000D01*
X56675000Y-66750000D02*
X55437500Y-66750000D01*
%TO.N,GND*%
X43400000Y-74175000D02*
X44725000Y-74175000D01*
X44725000Y-74175000D02*
X44900000Y-74000000D01*
X46537500Y-71750000D02*
X45150000Y-71750000D01*
X45150000Y-71750000D02*
X44900000Y-72000000D01*
X48400000Y-71575000D02*
X46712500Y-71575000D01*
X46712500Y-71575000D02*
X46537500Y-71750000D01*
D35*
X56200000Y-75225000D02*
X56200000Y-76300000D01*
D36*
%TO.N,/P2*%
X57600000Y-58425000D02*
X70655000Y-58425000D01*
X70655000Y-58425000D02*
X71120000Y-57960000D01*
%TO.N,/P15*%
X51750000Y-63562500D02*
X51750000Y-63073846D01*
X51750000Y-63073846D02*
X50476154Y-61800000D01*
X39300000Y-53800000D02*
X39300000Y-51500000D01*
X50476154Y-61800000D02*
X46200000Y-61800000D01*
X46200000Y-61800000D02*
X44823000Y-60423000D01*
X44823000Y-60423000D02*
X44823000Y-57600000D01*
X44823000Y-57600000D02*
X41159000Y-53936000D01*
X41159000Y-53936000D02*
X39436000Y-53936000D01*
X39436000Y-53936000D02*
X39300000Y-53800000D01*
X39300000Y-51500000D02*
X40580000Y-50220000D01*
X40580000Y-50220000D02*
X40640000Y-50220000D01*
D35*
%TO.N,GND*%
X49800000Y-49225000D02*
X49800000Y-50000000D01*
X49355000Y-50445000D02*
X46645000Y-50445000D01*
X49800000Y-50000000D02*
X49355000Y-50445000D01*
X46645000Y-50445000D02*
X44800000Y-48600000D01*
X44800000Y-48600000D02*
X44800000Y-47400000D01*
X44800000Y-47400000D02*
X44600000Y-47200000D01*
X56200000Y-49225000D02*
X56720000Y-49225000D01*
X56720000Y-49225000D02*
X57320000Y-48625000D01*
D37*
%TO.N,/RXD_MCU*%
X61300000Y-66825000D02*
X61548000Y-67073000D01*
X61548000Y-67073000D02*
X66326997Y-67073000D01*
X66326997Y-67073000D02*
X66599997Y-66800000D01*
D36*
%TO.N,/P17*%
X54937500Y-68437500D02*
X55450000Y-68950000D01*
X54750000Y-68437500D02*
X54937500Y-68437500D01*
%TO.N,/P18*%
X69350000Y-74050000D02*
X69350000Y-72430000D01*
X69350000Y-72430000D02*
X71120000Y-70660000D01*
D37*
%TO.N,/RXD_MCU*%
X68774120Y-69725646D02*
X68700000Y-69799766D01*
X68700000Y-69799766D02*
X68700000Y-74600000D01*
X68700000Y-74600000D02*
X69840000Y-75740000D01*
X69840000Y-75740000D02*
X71120000Y-75740000D01*
D36*
%TO.N,/P18*%
X54250000Y-68437500D02*
X54250000Y-69225000D01*
X54250000Y-69225000D02*
X54825000Y-69800000D01*
%TO.N,/P28*%
X57800000Y-69400000D02*
X58049000Y-69649000D01*
X58049000Y-69649000D02*
X58049000Y-75651000D01*
X58049000Y-75651000D02*
X50460000Y-83240000D01*
X50460000Y-83240000D02*
X40640000Y-83240000D01*
D38*
%TO.N,/P19*%
X56091942Y-78491942D02*
X60441942Y-78491942D01*
X60441942Y-78491942D02*
X63900000Y-81950000D01*
X63900000Y-81950000D02*
X67850000Y-81950000D01*
X67850000Y-81950000D02*
X71120000Y-78680000D01*
X71120000Y-78680000D02*
X71120000Y-78280000D01*
%TO.N,/P20*%
X55350000Y-79300000D02*
X60386160Y-79300000D01*
X60386160Y-79300000D02*
X63686160Y-82600000D01*
X63686160Y-82600000D02*
X69340000Y-82600000D01*
X69340000Y-82600000D02*
X71120000Y-80820000D01*
%TO.N,/P21*%
X54741942Y-79841942D02*
X58260000Y-83360000D01*
X58260000Y-83360000D02*
X71120000Y-83360000D01*
D36*
%TO.N,/P2*%
X56275001Y-60625001D02*
X57200000Y-61550000D01*
X55757233Y-60625001D02*
X56275001Y-60625001D01*
%TO.N,/P25*%
X51950000Y-71600000D02*
X51950000Y-74752454D01*
X51950000Y-74752454D02*
X50232454Y-76470000D01*
X50232454Y-76470000D02*
X41490000Y-76470000D01*
X41490000Y-76470000D02*
X40640000Y-75620000D01*
D38*
%TO.N,/P22*%
X52250000Y-68437500D02*
X52250000Y-70150000D01*
X50900000Y-75200000D02*
X42300000Y-75200000D01*
X52250000Y-70150000D02*
X51899000Y-70501000D01*
X41500000Y-73940000D02*
X40640000Y-73080000D01*
X51899000Y-70501000D02*
X51899000Y-70514585D01*
X51899000Y-70514585D02*
X51885415Y-70514585D01*
X42300000Y-75200000D02*
X41500000Y-74400000D01*
X51885415Y-70514585D02*
X51350000Y-71050000D01*
X51350000Y-71050000D02*
X51350000Y-74750000D01*
X41500000Y-74400000D02*
X41500000Y-73940000D01*
X51350000Y-74750000D02*
X50900000Y-75200000D01*
%TO.N,/P23*%
X51750000Y-69759403D02*
X51243761Y-70265642D01*
X51750000Y-68437500D02*
X51750000Y-69759403D01*
%TO.N,/P14*%
X51250000Y-68437500D02*
X51250000Y-69150000D01*
X51250000Y-69150000D02*
X50800000Y-69600000D01*
%TO.N,/P1*%
X50562500Y-67750000D02*
X50150000Y-67750000D01*
X50150000Y-67750000D02*
X49802000Y-68098000D01*
X48384957Y-69002000D02*
X48282957Y-68900000D01*
X49802000Y-68098000D02*
X49802000Y-68415043D01*
X45282081Y-68900000D02*
X41842081Y-65460000D01*
X49802000Y-68415043D02*
X49215043Y-69002000D01*
X49215043Y-69002000D02*
X48384957Y-69002000D01*
X48282957Y-68900000D02*
X45282081Y-68900000D01*
X41842081Y-65460000D02*
X40640000Y-65460000D01*
%TO.N,/P6*%
X43900000Y-66367100D02*
X43900000Y-64800000D01*
X45800000Y-68100000D02*
X45632900Y-68100000D01*
X45632900Y-68100000D02*
X43900000Y-66367100D01*
X45802440Y-68097560D02*
X45800000Y-68100000D01*
X47492564Y-68400000D02*
X47190124Y-68097560D01*
X48551057Y-68601000D02*
X48350057Y-68400000D01*
X49048943Y-68601000D02*
X48551057Y-68601000D01*
X49401000Y-68248943D02*
X49048943Y-68601000D01*
X48350057Y-68400000D02*
X47492564Y-68400000D01*
X49401000Y-67899000D02*
X49401000Y-68248943D01*
X50050000Y-67250000D02*
X49401000Y-67899000D01*
X47190124Y-68097560D02*
X45802440Y-68097560D01*
X50562500Y-67250000D02*
X50050000Y-67250000D01*
X43900000Y-64800000D02*
X42020000Y-62920000D01*
X42020000Y-62920000D02*
X40640000Y-62920000D01*
%TO.N,/P7*%
X47639067Y-67696560D02*
X45796560Y-67696560D01*
X42280000Y-60380000D02*
X40640000Y-60380000D01*
X45796560Y-67696560D02*
X44700000Y-66600000D01*
X44700000Y-66600000D02*
X44700000Y-62800000D01*
X44700000Y-62800000D02*
X42280000Y-60380000D01*
X49650000Y-66750000D02*
X49400000Y-67000000D01*
X50562500Y-66750000D02*
X49650000Y-66750000D01*
%TO.N,/P8*%
X49550000Y-64750000D02*
X49400000Y-64600000D01*
X50562500Y-64750000D02*
X49550000Y-64750000D01*
D37*
%TO.N,+3V3*%
X46712500Y-70025000D02*
X46537500Y-69850000D01*
D36*
X63250000Y-78850000D02*
X64300000Y-79900000D01*
X48525000Y-66250000D02*
X48175000Y-66600000D01*
X65000000Y-80600000D02*
X64300000Y-79900000D01*
X48175000Y-67375000D02*
X48800000Y-68000000D01*
X65282000Y-65290000D02*
X67490000Y-65290000D01*
X66600000Y-80600000D02*
X65000000Y-80600000D01*
X63250000Y-78325000D02*
X63250000Y-78850000D01*
X63250000Y-71825000D02*
X63250000Y-72550000D01*
X67490000Y-65290000D02*
X67500000Y-65300000D01*
X48175000Y-64800000D02*
X48175000Y-64325000D01*
X65750000Y-75050000D02*
X66600000Y-75050000D01*
D37*
X48400000Y-70025000D02*
X46712500Y-70025000D01*
D36*
X50562500Y-66250000D02*
X48525000Y-66250000D01*
X63250000Y-72550000D02*
X64200000Y-73500000D01*
X48625000Y-65250000D02*
X48175000Y-64800000D01*
X64200000Y-73500000D02*
X65750000Y-75050000D01*
X48175000Y-64325000D02*
X49000000Y-63500000D01*
X50562500Y-65250000D02*
X48625000Y-65250000D01*
X48175000Y-66600000D02*
X48175000Y-67375000D01*
D35*
%TO.N,GND*%
X47200000Y-55775000D02*
X47225000Y-55800000D01*
D36*
X65282000Y-62750000D02*
X67350000Y-62750000D01*
X65282000Y-64020000D02*
X67380000Y-64020000D01*
X65282000Y-60210000D02*
X67290000Y-60210000D01*
X67380000Y-64020000D02*
X67400000Y-64000000D01*
D37*
X51000000Y-53025000D02*
X51000000Y-54100000D01*
X46625000Y-66600000D02*
X46600000Y-66600000D01*
D35*
X47200000Y-54000000D02*
X47200000Y-55775000D01*
D36*
X67290000Y-60210000D02*
X67300000Y-60200000D01*
X65282000Y-62750000D02*
X65282000Y-64020000D01*
X50562500Y-65750000D02*
X45350000Y-65750000D01*
X45350000Y-65750000D02*
X45300000Y-65800000D01*
D35*
X49280000Y-49225000D02*
X48680000Y-48625000D01*
X47225000Y-55800000D02*
X47225000Y-57400000D01*
X47225000Y-57400000D02*
X45900000Y-57400000D01*
D37*
X54200000Y-53025000D02*
X54200000Y-54200000D01*
D35*
X47225000Y-59000000D02*
X47225000Y-60600000D01*
D37*
X46000000Y-66000000D02*
X46000000Y-65800000D01*
D35*
X47200000Y-54000000D02*
X46000000Y-54000000D01*
X49800000Y-49225000D02*
X49280000Y-49225000D01*
D37*
X46000000Y-65800000D02*
X45300000Y-65800000D01*
D36*
X67350000Y-62750000D02*
X67400000Y-62800000D01*
D37*
X46625000Y-64975000D02*
X46625000Y-64800000D01*
D35*
X47225000Y-57400000D02*
X47225000Y-59000000D01*
X47225000Y-60600000D02*
X46000000Y-60600000D01*
D37*
X46000000Y-65800000D02*
X46000000Y-65600000D01*
X46000000Y-65600000D02*
X46625000Y-64975000D01*
X46600000Y-66600000D02*
X46000000Y-66000000D01*
D36*
%TO.N,+5V*%
X48124000Y-55149000D02*
X48124000Y-53124000D01*
X48775000Y-55800000D02*
X48775000Y-57400000D01*
D35*
X48254000Y-51146000D02*
X47200000Y-52200000D01*
X50600000Y-49225000D02*
X50600000Y-50247000D01*
D37*
X43400000Y-71662500D02*
X44262500Y-70800000D01*
X43400000Y-72625000D02*
X43400000Y-71662500D01*
D36*
X48775000Y-57400000D02*
X48875000Y-57300000D01*
D35*
X50600000Y-50247000D02*
X49701000Y-51146000D01*
D36*
X48124000Y-53124000D02*
X47200000Y-52200000D01*
X48775000Y-55800000D02*
X48124000Y-55149000D01*
X48875000Y-57300000D02*
X51400000Y-57300000D01*
D35*
X49701000Y-51146000D02*
X48254000Y-51146000D01*
D36*
%TO.N,/3v3_CP*%
X49948000Y-59000000D02*
X48775000Y-59000000D01*
X50200000Y-60800000D02*
X48975000Y-60800000D01*
X48775000Y-60600000D02*
X48775000Y-59000000D01*
X50648000Y-58300000D02*
X49948000Y-59000000D01*
X51400000Y-58300000D02*
X50648000Y-58300000D01*
D37*
X62600000Y-51175000D02*
X62225000Y-51175000D01*
D36*
X50800000Y-56800000D02*
X51700000Y-56800000D01*
X50600000Y-56600000D02*
X50800000Y-56800000D01*
D37*
X60200000Y-51175000D02*
X61025000Y-51175000D01*
X61025000Y-51175000D02*
X61400000Y-50800000D01*
X62225000Y-51175000D02*
X61400000Y-52000000D01*
D36*
X48975000Y-60800000D02*
X48775000Y-60600000D01*
X50400000Y-56600000D02*
X50600000Y-56600000D01*
%TO.N,Net-(D2-K)*%
X61275000Y-57800000D02*
X62600000Y-56475000D01*
X54500000Y-57800000D02*
X61275000Y-57800000D01*
%TO.N,Net-(D2-A)*%
X62600000Y-54600000D02*
X62600000Y-52825000D01*
%TO.N,Net-(D3-A)*%
X60200000Y-54662500D02*
X60200000Y-52825000D01*
%TO.N,Net-(D3-K)*%
X54500000Y-57300000D02*
X59437500Y-57300000D01*
X59437500Y-57300000D02*
X60200000Y-56537500D01*
D37*
%TO.N,Net-(J1-CC2)*%
X51250000Y-49225000D02*
X51250000Y-51125000D01*
X51250000Y-51125000D02*
X51000000Y-51375000D01*
%TO.N,Net-(J1-CC1)*%
X54250000Y-49225000D02*
X54250000Y-51325000D01*
X54250000Y-51325000D02*
X54200000Y-51375000D01*
D36*
%TO.N,/P27*%
X53750000Y-62350000D02*
X53750000Y-63562500D01*
X54200000Y-61800000D02*
X54200000Y-61900000D01*
X54200000Y-61900000D02*
X53750000Y-62350000D01*
%TO.N,/P26*%
X53250000Y-63562500D02*
X53250000Y-61850000D01*
X53250000Y-61850000D02*
X53300000Y-61800000D01*
%TO.N,/P25*%
X52750000Y-63562500D02*
X52750000Y-62150000D01*
X52750000Y-62150000D02*
X52400000Y-61800000D01*
%TO.N,/P2*%
X51250000Y-63562500D02*
X51250000Y-63457730D01*
X51250000Y-63457730D02*
X50596135Y-62803865D01*
%TO.N,/SDA*%
X59600000Y-66825000D02*
X59600000Y-67400000D01*
X66200000Y-69975000D02*
X66200000Y-69000000D01*
X71000000Y-68000000D02*
X71120000Y-68120000D01*
X65200000Y-68000000D02*
X71000000Y-68000000D01*
X60200000Y-68000000D02*
X65200000Y-68000000D01*
X66200000Y-69000000D02*
X65200000Y-68000000D01*
X59600000Y-67400000D02*
X60200000Y-68000000D01*
%TO.N,/SCL*%
X69151000Y-67549000D02*
X71120000Y-65580000D01*
X67400000Y-66800000D02*
X67451000Y-66800000D01*
X67451000Y-66800000D02*
X68200000Y-67549000D01*
X67800000Y-69975000D02*
X67800000Y-69200000D01*
X67800000Y-69200000D02*
X67400000Y-68800000D01*
X55737408Y-62575092D02*
X57600121Y-62575092D01*
X54750000Y-63562500D02*
X55737408Y-62575092D01*
X68200000Y-67549000D02*
X69151000Y-67549000D01*
X60400000Y-66825000D02*
X61124000Y-67549000D01*
X61124000Y-67549000D02*
X68200000Y-67549000D01*
D37*
%TO.N,/RXD_MCU*%
X56200000Y-58500000D02*
X56234756Y-58465244D01*
D36*
X51400000Y-61839962D02*
X52250000Y-62689962D01*
X52250000Y-62689962D02*
X52250000Y-63562500D01*
D37*
X56234756Y-58465244D02*
X56249129Y-58465244D01*
X56000000Y-58300000D02*
X56200000Y-58500000D01*
X54500000Y-58300000D02*
X56000000Y-58300000D01*
X59000000Y-61216115D02*
X59000000Y-62200000D01*
X56249129Y-58465244D02*
X59000000Y-61216115D01*
D36*
X51400000Y-61800000D02*
X51400000Y-61839962D01*
%TO.N,Net-(JP1-A)*%
X66600000Y-72025000D02*
X66200000Y-71625000D01*
X66600000Y-73750000D02*
X66600000Y-72025000D01*
%TO.N,Net-(JP2-A)*%
X67800000Y-78100000D02*
X67800000Y-71625000D01*
X66600000Y-79300000D02*
X67800000Y-78100000D01*
%TO.N,/VBUS_CP*%
X48850000Y-54000000D02*
X48850000Y-52200000D01*
X49850000Y-55000000D02*
X48850000Y-54000000D01*
X51400000Y-57800000D02*
X50264116Y-57800000D01*
X50264116Y-57800000D02*
X49932058Y-58132058D01*
X50000000Y-55000000D02*
X49850000Y-55000000D01*
%TO.N,/ISP*%
X60600000Y-76675000D02*
X60500000Y-76775000D01*
X63250000Y-76675000D02*
X60600000Y-76675000D01*
%TO.N,/nRST*%
X58025000Y-67800000D02*
X58025000Y-67514702D01*
D37*
X55437500Y-67250000D02*
X56050000Y-67250000D01*
D36*
X58025000Y-67800000D02*
X60500000Y-70275000D01*
X62725300Y-66200000D02*
X63300000Y-65625300D01*
X60500000Y-70275000D02*
X63150000Y-70275000D01*
D37*
X56050000Y-67250000D02*
X56600000Y-67800000D01*
D36*
X63300000Y-65625300D02*
X63300000Y-61263300D01*
X63300000Y-61263300D02*
X62246700Y-60210000D01*
X58025000Y-67514702D02*
X59339702Y-66200000D01*
X59339702Y-66200000D02*
X62725300Y-66200000D01*
D37*
X56600000Y-67800000D02*
X58025000Y-67800000D01*
D36*
X63150000Y-70275000D02*
X63250000Y-70175000D01*
X62246700Y-60210000D02*
X61218000Y-60210000D01*
%TO.N,/D+*%
X53250000Y-48303000D02*
X53147000Y-48200000D01*
X52250000Y-48303000D02*
X52353000Y-48200000D01*
X53250000Y-49225000D02*
X53250000Y-48303000D01*
X52700000Y-48200000D02*
X53000000Y-48200000D01*
X53000000Y-48200000D02*
X53100000Y-48200000D01*
X52250000Y-49225000D02*
X52250000Y-48303000D01*
X52353000Y-48200000D02*
X52700000Y-48200000D01*
X53147000Y-48200000D02*
X52700000Y-48200000D01*
X52724000Y-56476000D02*
X52700000Y-56500000D01*
%TO.N,/D-*%
X53600000Y-50300000D02*
X53750000Y-50150000D01*
X52750000Y-50150000D02*
X52900000Y-50300000D01*
X52900000Y-50300000D02*
X53600000Y-50300000D01*
X52750000Y-49225000D02*
X52750000Y-50150000D01*
X53750000Y-50150000D02*
X53750000Y-49225000D01*
%TO.N,/P27*%
X53396889Y-71430429D02*
X53400000Y-71433540D01*
X53400000Y-71433540D02*
X53400000Y-74578074D01*
X53400000Y-74578074D02*
X47278074Y-80700000D01*
X47278074Y-80700000D02*
X40640000Y-80700000D01*
%TO.N,/P26*%
X52648289Y-71148290D02*
X52650000Y-71150001D01*
X49180264Y-78160000D02*
X40640000Y-78160000D01*
X52650000Y-71150001D02*
X52650000Y-74690264D01*
X52650000Y-74690264D02*
X49180264Y-78160000D01*
D38*
%TO.N,/P19*%
X53750000Y-68437500D02*
X53750000Y-69700000D01*
X53750000Y-69700000D02*
X55199000Y-71149000D01*
X55199000Y-71149000D02*
X55199000Y-77249000D01*
X55199000Y-77249000D02*
X55383058Y-77433058D01*
%TO.N,/P20*%
X53250000Y-68437500D02*
X53250000Y-69866497D01*
X53250000Y-69866497D02*
X54649999Y-71266496D01*
X54649999Y-71266496D02*
X54649999Y-78166117D01*
%TO.N,/P21*%
X52750000Y-68437500D02*
X52750000Y-69933597D01*
X52750000Y-69933597D02*
X54050000Y-71233597D01*
X54050000Y-71233597D02*
X54050000Y-78700000D01*
%TO.N,Net-(D4-A)*%
X56200000Y-68512500D02*
X56200000Y-70062500D01*
X55437500Y-67750000D02*
X56200000Y-68512500D01*
D36*
%TO.N,/P17*%
X63386183Y-66423001D02*
X63824884Y-65984300D01*
X63824884Y-65984300D02*
X68175700Y-65984300D01*
X68175700Y-65984300D02*
X71120000Y-63040000D01*
%TD*%
%TA.AperFunction,Conductor*%
%TO.N,GND*%
G36*
X47696322Y-43520185D02*
G01*
X47742077Y-43572989D01*
X47752021Y-43642147D01*
X47743844Y-43671952D01*
X47718430Y-43733306D01*
X47718427Y-43733318D01*
X47680000Y-43926504D01*
X47680000Y-44175000D01*
X48380000Y-44175000D01*
X48380000Y-44675000D01*
X47680000Y-44675000D01*
X47680000Y-44923495D01*
X47718427Y-45116681D01*
X47718430Y-45116693D01*
X47793807Y-45298671D01*
X47793814Y-45298684D01*
X47903248Y-45462462D01*
X47903251Y-45462466D01*
X48042533Y-45601748D01*
X48042537Y-45601751D01*
X48206315Y-45711185D01*
X48206328Y-45711192D01*
X48388308Y-45786569D01*
X48430000Y-45794862D01*
X48430000Y-44991988D01*
X48439940Y-45009205D01*
X48495795Y-45065060D01*
X48564204Y-45104556D01*
X48640504Y-45125000D01*
X48719496Y-45125000D01*
X48795796Y-45104556D01*
X48864205Y-45065060D01*
X48920060Y-45009205D01*
X48930000Y-44991988D01*
X48930000Y-45794862D01*
X48971690Y-45786569D01*
X48971692Y-45786569D01*
X49153671Y-45711192D01*
X49153684Y-45711185D01*
X49317462Y-45601751D01*
X49317466Y-45601748D01*
X49456748Y-45462466D01*
X49456751Y-45462462D01*
X49566185Y-45298684D01*
X49566192Y-45298671D01*
X49641569Y-45116693D01*
X49641572Y-45116681D01*
X49679999Y-44923495D01*
X49680000Y-44923492D01*
X49680000Y-44675000D01*
X48980000Y-44675000D01*
X48980000Y-44175000D01*
X49680000Y-44175000D01*
X49680000Y-43926508D01*
X49679999Y-43926504D01*
X49641572Y-43733318D01*
X49641569Y-43733306D01*
X49616156Y-43671952D01*
X49608687Y-43602483D01*
X49639963Y-43540004D01*
X49700052Y-43504352D01*
X49730717Y-43500500D01*
X56269283Y-43500500D01*
X56336322Y-43520185D01*
X56382077Y-43572989D01*
X56392021Y-43642147D01*
X56383844Y-43671952D01*
X56358430Y-43733306D01*
X56358427Y-43733318D01*
X56320000Y-43926504D01*
X56320000Y-44175000D01*
X57020000Y-44175000D01*
X57020000Y-44675000D01*
X56320000Y-44675000D01*
X56320000Y-44923495D01*
X56358427Y-45116681D01*
X56358430Y-45116693D01*
X56433807Y-45298671D01*
X56433814Y-45298684D01*
X56543248Y-45462462D01*
X56543251Y-45462466D01*
X56682533Y-45601748D01*
X56682537Y-45601751D01*
X56846315Y-45711185D01*
X56846328Y-45711192D01*
X57028308Y-45786569D01*
X57070000Y-45794862D01*
X57070000Y-44991988D01*
X57079940Y-45009205D01*
X57135795Y-45065060D01*
X57204204Y-45104556D01*
X57280504Y-45125000D01*
X57359496Y-45125000D01*
X57435796Y-45104556D01*
X57504205Y-45065060D01*
X57560060Y-45009205D01*
X57570000Y-44991988D01*
X57570000Y-45794862D01*
X57611690Y-45786569D01*
X57611692Y-45786569D01*
X57793671Y-45711192D01*
X57793684Y-45711185D01*
X57957462Y-45601751D01*
X57957466Y-45601748D01*
X58096748Y-45462466D01*
X58096751Y-45462462D01*
X58206185Y-45298684D01*
X58206192Y-45298671D01*
X58281569Y-45116693D01*
X58281572Y-45116681D01*
X58319999Y-44923495D01*
X58320000Y-44923492D01*
X58320000Y-44675000D01*
X57620000Y-44675000D01*
X57620000Y-44175000D01*
X58320000Y-44175000D01*
X58320000Y-43926508D01*
X58319999Y-43926504D01*
X58281572Y-43733318D01*
X58281569Y-43733306D01*
X58256156Y-43671952D01*
X58248687Y-43602483D01*
X58279963Y-43540004D01*
X58340052Y-43504352D01*
X58370717Y-43500500D01*
X72875500Y-43500500D01*
X72942539Y-43520185D01*
X72988294Y-43572989D01*
X72999500Y-43624500D01*
X72999500Y-84875500D01*
X72979815Y-84942539D01*
X72927011Y-84988294D01*
X72875500Y-84999500D01*
X38624500Y-84999500D01*
X38557461Y-84979815D01*
X38511706Y-84927011D01*
X38500500Y-84875500D01*
X38500500Y-54127739D01*
X38501221Y-54125280D01*
X38500599Y-54122797D01*
X38511011Y-54091941D01*
X38520185Y-54060700D01*
X38522119Y-54059023D01*
X38522939Y-54056596D01*
X38548394Y-54036256D01*
X38572989Y-54014945D01*
X38575521Y-54014580D01*
X38577524Y-54012981D01*
X38609923Y-54009634D01*
X38642147Y-54005001D01*
X38644477Y-54006065D01*
X38647024Y-54005802D01*
X38676082Y-54020498D01*
X38705703Y-54034026D01*
X38707792Y-54036536D01*
X38709373Y-54037336D01*
X38713861Y-54043829D01*
X38731404Y-54064910D01*
X38735766Y-54072333D01*
X38745688Y-54096286D01*
X38778205Y-54144949D01*
X38780186Y-54147913D01*
X38780192Y-54147924D01*
X38814143Y-54198735D01*
X38905586Y-54290178D01*
X38905608Y-54290198D01*
X38947016Y-54331606D01*
X38947045Y-54331637D01*
X39037264Y-54421856D01*
X39037267Y-54421858D01*
X39072933Y-54445689D01*
X39139714Y-54490312D01*
X39218296Y-54522861D01*
X39253548Y-54537463D01*
X39253552Y-54537463D01*
X39253553Y-54537464D01*
X39304143Y-54547527D01*
X39304158Y-54547529D01*
X39304195Y-54547537D01*
X39328310Y-54552333D01*
X39390219Y-54584716D01*
X39424794Y-54645432D01*
X39421055Y-54715201D01*
X39414603Y-54730244D01*
X39388445Y-54781582D01*
X39322753Y-54983760D01*
X39302285Y-55112993D01*
X39289500Y-55193713D01*
X39289500Y-55406287D01*
X39293498Y-55431528D01*
X39322499Y-55614638D01*
X39322754Y-55616243D01*
X39384952Y-55807669D01*
X39388444Y-55818414D01*
X39484951Y-56007820D01*
X39609890Y-56179786D01*
X39760213Y-56330109D01*
X39932182Y-56455050D01*
X39940946Y-56459516D01*
X39991742Y-56507491D01*
X40008536Y-56575312D01*
X39985998Y-56641447D01*
X39940946Y-56680484D01*
X39932182Y-56684949D01*
X39760213Y-56809890D01*
X39609890Y-56960213D01*
X39484951Y-57132179D01*
X39388444Y-57321585D01*
X39322753Y-57523760D01*
X39289500Y-57733713D01*
X39289500Y-57946287D01*
X39299534Y-58009644D01*
X39314278Y-58102732D01*
X39322754Y-58156243D01*
X39361743Y-58276239D01*
X39388444Y-58358414D01*
X39484951Y-58547820D01*
X39609890Y-58719786D01*
X39760213Y-58870109D01*
X39932182Y-58995050D01*
X39940946Y-58999516D01*
X39991742Y-59047491D01*
X40008536Y-59115312D01*
X39985998Y-59181447D01*
X39940946Y-59220484D01*
X39932182Y-59224949D01*
X39760213Y-59349890D01*
X39609890Y-59500213D01*
X39484951Y-59672179D01*
X39388444Y-59861585D01*
X39322753Y-60063760D01*
X39289500Y-60273713D01*
X39289500Y-60486286D01*
X39321079Y-60685672D01*
X39322754Y-60696243D01*
X39384935Y-60887617D01*
X39388444Y-60898414D01*
X39484951Y-61087820D01*
X39609890Y-61259786D01*
X39760213Y-61410109D01*
X39932182Y-61535050D01*
X39940946Y-61539516D01*
X39991742Y-61587491D01*
X40008536Y-61655312D01*
X39985998Y-61721447D01*
X39940946Y-61760484D01*
X39932182Y-61764949D01*
X39760213Y-61889890D01*
X39609890Y-62040213D01*
X39484951Y-62212179D01*
X39388444Y-62401585D01*
X39388443Y-62401587D01*
X39388443Y-62401588D01*
X39376133Y-62439475D01*
X39322753Y-62603760D01*
X39303748Y-62723757D01*
X39289500Y-62813713D01*
X39289500Y-63026287D01*
X39294438Y-63057461D01*
X39321079Y-63225672D01*
X39322754Y-63236243D01*
X39385168Y-63428334D01*
X39388444Y-63438414D01*
X39484951Y-63627820D01*
X39609890Y-63799786D01*
X39760213Y-63950109D01*
X39932182Y-64075050D01*
X39940946Y-64079516D01*
X39991742Y-64127491D01*
X40008536Y-64195312D01*
X39985998Y-64261447D01*
X39940946Y-64300484D01*
X39932182Y-64304949D01*
X39760213Y-64429890D01*
X39609890Y-64580213D01*
X39484951Y-64752179D01*
X39388444Y-64941585D01*
X39322753Y-65143760D01*
X39289500Y-65353713D01*
X39289500Y-65566286D01*
X39320227Y-65760292D01*
X39322754Y-65776243D01*
X39388108Y-65977382D01*
X39388444Y-65978414D01*
X39484951Y-66167820D01*
X39609890Y-66339786D01*
X39760213Y-66490109D01*
X39932182Y-66615050D01*
X39940946Y-66619516D01*
X39991742Y-66667491D01*
X40008536Y-66735312D01*
X39985998Y-66801447D01*
X39940946Y-66840484D01*
X39932182Y-66844949D01*
X39760213Y-66969890D01*
X39609890Y-67120213D01*
X39484951Y-67292179D01*
X39388444Y-67481585D01*
X39322753Y-67683760D01*
X39289500Y-67893713D01*
X39289500Y-68106286D01*
X39320808Y-68303961D01*
X39322754Y-68316243D01*
X39375381Y-68478213D01*
X39388444Y-68518414D01*
X39484951Y-68707820D01*
X39609890Y-68879786D01*
X39760213Y-69030109D01*
X39932182Y-69155050D01*
X39940946Y-69159516D01*
X39991742Y-69207491D01*
X40008536Y-69275312D01*
X39985998Y-69341447D01*
X39940946Y-69380484D01*
X39932182Y-69384949D01*
X39760213Y-69509890D01*
X39609890Y-69660213D01*
X39484951Y-69832179D01*
X39388444Y-70021585D01*
X39322753Y-70223760D01*
X39289833Y-70431613D01*
X39289500Y-70433713D01*
X39289500Y-70646287D01*
X39299534Y-70709644D01*
X39318076Y-70826711D01*
X39322754Y-70856243D01*
X39386544Y-71052569D01*
X39388444Y-71058414D01*
X39484951Y-71247820D01*
X39609890Y-71419786D01*
X39760213Y-71570109D01*
X39932182Y-71695050D01*
X39940946Y-71699516D01*
X39991742Y-71747491D01*
X40008536Y-71815312D01*
X39985998Y-71881447D01*
X39940946Y-71920484D01*
X39932182Y-71924949D01*
X39760213Y-72049890D01*
X39609890Y-72200213D01*
X39484951Y-72372179D01*
X39388444Y-72561585D01*
X39322753Y-72763760D01*
X39289500Y-72973713D01*
X39289500Y-73186286D01*
X39322753Y-73396239D01*
X39322753Y-73396241D01*
X39322754Y-73396243D01*
X39385566Y-73589559D01*
X39388444Y-73598414D01*
X39484951Y-73787820D01*
X39609890Y-73959786D01*
X39760213Y-74110109D01*
X39932182Y-74235050D01*
X39940946Y-74239516D01*
X39991742Y-74287491D01*
X40008536Y-74355312D01*
X39985998Y-74421447D01*
X39940946Y-74460484D01*
X39932182Y-74464949D01*
X39760213Y-74589890D01*
X39609890Y-74740213D01*
X39484951Y-74912179D01*
X39388444Y-75101585D01*
X39322753Y-75303760D01*
X39289500Y-75513713D01*
X39289500Y-75726286D01*
X39320106Y-75919528D01*
X39322754Y-75936243D01*
X39361743Y-76056239D01*
X39388444Y-76138414D01*
X39484951Y-76327820D01*
X39609890Y-76499786D01*
X39760213Y-76650109D01*
X39932182Y-76775050D01*
X39940946Y-76779516D01*
X39991742Y-76827491D01*
X40008536Y-76895312D01*
X39985998Y-76961447D01*
X39940946Y-77000484D01*
X39932182Y-77004949D01*
X39760213Y-77129890D01*
X39609890Y-77280213D01*
X39484951Y-77452179D01*
X39388444Y-77641585D01*
X39322753Y-77843760D01*
X39289500Y-78053713D01*
X39289500Y-78266286D01*
X39321210Y-78466498D01*
X39322754Y-78476243D01*
X39369838Y-78621153D01*
X39388444Y-78678414D01*
X39484951Y-78867820D01*
X39609890Y-79039786D01*
X39760213Y-79190109D01*
X39932182Y-79315050D01*
X39940946Y-79319516D01*
X39991742Y-79367491D01*
X40008536Y-79435312D01*
X39985998Y-79501447D01*
X39940946Y-79540484D01*
X39932182Y-79544949D01*
X39760213Y-79669890D01*
X39609890Y-79820213D01*
X39484951Y-79992179D01*
X39388444Y-80181585D01*
X39322753Y-80383760D01*
X39289500Y-80593713D01*
X39289500Y-80806286D01*
X39319980Y-80998733D01*
X39322754Y-81016243D01*
X39377865Y-81185857D01*
X39388444Y-81218414D01*
X39484951Y-81407820D01*
X39609890Y-81579786D01*
X39760213Y-81730109D01*
X39932182Y-81855050D01*
X39940946Y-81859516D01*
X39991742Y-81907491D01*
X40008536Y-81975312D01*
X39985998Y-82041447D01*
X39940946Y-82080484D01*
X39932182Y-82084949D01*
X39760213Y-82209890D01*
X39609890Y-82360213D01*
X39484951Y-82532179D01*
X39388444Y-82721585D01*
X39322753Y-82923760D01*
X39303748Y-83043757D01*
X39289500Y-83133713D01*
X39289500Y-83346287D01*
X39322754Y-83556243D01*
X39378793Y-83728713D01*
X39388444Y-83758414D01*
X39484951Y-83947820D01*
X39609890Y-84119786D01*
X39760213Y-84270109D01*
X39932179Y-84395048D01*
X39932181Y-84395049D01*
X39932184Y-84395051D01*
X40121588Y-84491557D01*
X40323757Y-84557246D01*
X40533713Y-84590500D01*
X40533714Y-84590500D01*
X40746286Y-84590500D01*
X40746287Y-84590500D01*
X40956243Y-84557246D01*
X41158412Y-84491557D01*
X41347816Y-84395051D01*
X41369789Y-84379086D01*
X41519786Y-84270109D01*
X41519788Y-84270106D01*
X41519792Y-84270104D01*
X41670104Y-84119792D01*
X41670106Y-84119788D01*
X41670109Y-84119786D01*
X41795049Y-83947819D01*
X41795052Y-83947815D01*
X41802497Y-83933203D01*
X41850473Y-83882408D01*
X41912981Y-83865500D01*
X50521607Y-83865500D01*
X50582029Y-83853481D01*
X50642452Y-83841463D01*
X50675792Y-83827652D01*
X50756286Y-83794312D01*
X50807509Y-83760084D01*
X50810009Y-83758414D01*
X50820271Y-83751556D01*
X50858733Y-83725858D01*
X50945858Y-83638733D01*
X50945858Y-83638731D01*
X50956066Y-83628524D01*
X50956067Y-83628521D01*
X54093280Y-80491309D01*
X54154601Y-80457826D01*
X54224293Y-80462810D01*
X54249850Y-80475890D01*
X54362756Y-80551332D01*
X54362769Y-80551339D01*
X54502919Y-80609390D01*
X54508445Y-80611679D01*
X54573089Y-80624537D01*
X54663791Y-80642580D01*
X54725702Y-80674965D01*
X54727281Y-80676516D01*
X57775139Y-83724374D01*
X57775149Y-83724385D01*
X57779479Y-83728715D01*
X57779480Y-83728716D01*
X57891284Y-83840520D01*
X57891286Y-83840521D01*
X57891290Y-83840524D01*
X58028209Y-83919573D01*
X58028216Y-83919577D01*
X58133606Y-83947816D01*
X58180942Y-83960500D01*
X58180943Y-83960500D01*
X69834281Y-83960500D01*
X69901320Y-83980185D01*
X69944765Y-84028205D01*
X69964947Y-84067814D01*
X69964948Y-84067815D01*
X70089890Y-84239786D01*
X70240213Y-84390109D01*
X70412179Y-84515048D01*
X70412181Y-84515049D01*
X70412184Y-84515051D01*
X70601588Y-84611557D01*
X70803757Y-84677246D01*
X71013713Y-84710500D01*
X71013714Y-84710500D01*
X71226286Y-84710500D01*
X71226287Y-84710500D01*
X71436243Y-84677246D01*
X71638412Y-84611557D01*
X71827816Y-84515051D01*
X71860156Y-84491555D01*
X71999786Y-84390109D01*
X71999788Y-84390106D01*
X71999792Y-84390104D01*
X72150104Y-84239792D01*
X72150106Y-84239788D01*
X72150109Y-84239786D01*
X72275048Y-84067820D01*
X72275047Y-84067820D01*
X72275051Y-84067816D01*
X72371557Y-83878412D01*
X72437246Y-83676243D01*
X72470500Y-83466287D01*
X72470500Y-83253713D01*
X72437246Y-83043757D01*
X72371557Y-82841588D01*
X72275051Y-82652184D01*
X72275049Y-82652181D01*
X72275048Y-82652179D01*
X72150109Y-82480213D01*
X71999786Y-82329890D01*
X71827820Y-82204951D01*
X71827115Y-82204591D01*
X71819054Y-82200485D01*
X71768259Y-82152512D01*
X71751463Y-82084692D01*
X71773999Y-82018556D01*
X71819054Y-81979515D01*
X71827816Y-81975051D01*
X71920805Y-81907491D01*
X71999786Y-81850109D01*
X71999788Y-81850106D01*
X71999792Y-81850104D01*
X72150104Y-81699792D01*
X72150106Y-81699788D01*
X72150109Y-81699786D01*
X72275048Y-81527820D01*
X72275047Y-81527820D01*
X72275051Y-81527816D01*
X72371557Y-81338412D01*
X72437246Y-81136243D01*
X72470500Y-80926287D01*
X72470500Y-80713713D01*
X72437246Y-80503757D01*
X72371557Y-80301588D01*
X72275051Y-80112184D01*
X72275049Y-80112181D01*
X72275048Y-80112179D01*
X72150109Y-79940213D01*
X71999786Y-79789890D01*
X71827820Y-79664951D01*
X71827115Y-79664591D01*
X71819054Y-79660485D01*
X71768259Y-79612512D01*
X71751463Y-79544692D01*
X71773999Y-79478556D01*
X71819054Y-79439515D01*
X71827816Y-79435051D01*
X71920805Y-79367491D01*
X71999786Y-79310109D01*
X71999788Y-79310106D01*
X71999792Y-79310104D01*
X72150104Y-79159792D01*
X72150106Y-79159788D01*
X72150109Y-79159786D01*
X72275048Y-78987820D01*
X72275047Y-78987820D01*
X72275051Y-78987816D01*
X72371557Y-78798412D01*
X72437246Y-78596243D01*
X72470500Y-78386287D01*
X72470500Y-78173713D01*
X72437246Y-77963757D01*
X72371557Y-77761588D01*
X72275051Y-77572184D01*
X72275049Y-77572181D01*
X72275048Y-77572179D01*
X72150109Y-77400213D01*
X71999786Y-77249890D01*
X71827820Y-77124951D01*
X71827115Y-77124591D01*
X71819054Y-77120485D01*
X71768259Y-77072512D01*
X71751463Y-77004692D01*
X71773999Y-76938556D01*
X71819054Y-76899515D01*
X71827816Y-76895051D01*
X71943133Y-76811269D01*
X71999786Y-76770109D01*
X71999788Y-76770106D01*
X71999792Y-76770104D01*
X72150104Y-76619792D01*
X72150106Y-76619788D01*
X72150109Y-76619786D01*
X72275048Y-76447820D01*
X72275047Y-76447820D01*
X72275051Y-76447816D01*
X72371557Y-76258412D01*
X72437246Y-76056243D01*
X72470500Y-75846287D01*
X72470500Y-75633713D01*
X72437246Y-75423757D01*
X72371557Y-75221588D01*
X72275051Y-75032184D01*
X72275049Y-75032181D01*
X72275048Y-75032179D01*
X72150109Y-74860213D01*
X71999786Y-74709890D01*
X71827820Y-74584951D01*
X71822181Y-74582078D01*
X71819054Y-74580485D01*
X71768259Y-74532512D01*
X71751463Y-74464692D01*
X71773999Y-74398556D01*
X71819054Y-74359515D01*
X71827816Y-74355051D01*
X71861646Y-74330472D01*
X71999786Y-74230109D01*
X71999788Y-74230106D01*
X71999792Y-74230104D01*
X72150104Y-74079792D01*
X72150106Y-74079788D01*
X72150109Y-74079786D01*
X72275048Y-73907820D01*
X72275047Y-73907820D01*
X72275051Y-73907816D01*
X72371557Y-73718412D01*
X72437246Y-73516243D01*
X72470500Y-73306287D01*
X72470500Y-73093713D01*
X72437246Y-72883757D01*
X72371557Y-72681588D01*
X72275051Y-72492184D01*
X72275049Y-72492181D01*
X72275048Y-72492179D01*
X72150109Y-72320213D01*
X71999786Y-72169890D01*
X71827820Y-72044951D01*
X71827115Y-72044591D01*
X71819054Y-72040485D01*
X71768259Y-71992512D01*
X71751463Y-71924692D01*
X71773999Y-71858556D01*
X71819054Y-71819515D01*
X71827816Y-71815051D01*
X71920805Y-71747491D01*
X71999786Y-71690109D01*
X71999788Y-71690106D01*
X71999792Y-71690104D01*
X72150104Y-71539792D01*
X72150106Y-71539788D01*
X72150109Y-71539786D01*
X72275048Y-71367820D01*
X72275047Y-71367820D01*
X72275051Y-71367816D01*
X72371557Y-71178412D01*
X72437246Y-70976243D01*
X72470500Y-70766287D01*
X72470500Y-70553713D01*
X72437246Y-70343757D01*
X72371557Y-70141588D01*
X72275051Y-69952184D01*
X72275049Y-69952181D01*
X72275048Y-69952179D01*
X72150109Y-69780213D01*
X71999786Y-69629890D01*
X71827820Y-69504951D01*
X71827115Y-69504591D01*
X71819054Y-69500485D01*
X71768259Y-69452512D01*
X71751463Y-69384692D01*
X71773999Y-69318556D01*
X71819054Y-69279515D01*
X71827816Y-69275051D01*
X71880093Y-69237070D01*
X71999786Y-69150109D01*
X71999788Y-69150106D01*
X71999792Y-69150104D01*
X72150104Y-68999792D01*
X72150106Y-68999788D01*
X72150109Y-68999786D01*
X72259086Y-68849789D01*
X72275051Y-68827816D01*
X72371557Y-68638412D01*
X72437246Y-68436243D01*
X72470500Y-68226287D01*
X72470500Y-68013713D01*
X72437246Y-67803757D01*
X72371557Y-67601588D01*
X72275051Y-67412184D01*
X72275049Y-67412181D01*
X72275048Y-67412179D01*
X72150109Y-67240213D01*
X71999786Y-67089890D01*
X71827820Y-66964951D01*
X71827115Y-66964591D01*
X71819054Y-66960485D01*
X71768259Y-66912512D01*
X71751463Y-66844692D01*
X71773999Y-66778556D01*
X71819054Y-66739515D01*
X71827816Y-66735051D01*
X71920805Y-66667491D01*
X71999786Y-66610109D01*
X71999788Y-66610106D01*
X71999792Y-66610104D01*
X72150104Y-66459792D01*
X72150106Y-66459788D01*
X72150109Y-66459786D01*
X72275048Y-66287820D01*
X72275047Y-66287820D01*
X72275051Y-66287816D01*
X72371557Y-66098412D01*
X72437246Y-65896243D01*
X72470500Y-65686287D01*
X72470500Y-65473713D01*
X72437246Y-65263757D01*
X72371557Y-65061588D01*
X72275051Y-64872184D01*
X72275049Y-64872181D01*
X72275048Y-64872179D01*
X72150109Y-64700213D01*
X71999786Y-64549890D01*
X71827820Y-64424951D01*
X71827115Y-64424591D01*
X71819054Y-64420485D01*
X71768259Y-64372512D01*
X71751463Y-64304692D01*
X71773999Y-64238556D01*
X71819054Y-64199515D01*
X71827816Y-64195051D01*
X71889459Y-64150265D01*
X71999786Y-64070109D01*
X71999788Y-64070106D01*
X71999792Y-64070104D01*
X72150104Y-63919792D01*
X72150106Y-63919788D01*
X72150109Y-63919786D01*
X72275048Y-63747820D01*
X72275047Y-63747820D01*
X72275051Y-63747816D01*
X72371557Y-63558412D01*
X72437246Y-63356243D01*
X72470500Y-63146287D01*
X72470500Y-62933713D01*
X72437246Y-62723757D01*
X72371557Y-62521588D01*
X72275051Y-62332184D01*
X72275049Y-62332181D01*
X72275048Y-62332179D01*
X72150109Y-62160213D01*
X71999786Y-62009890D01*
X71827820Y-61884951D01*
X71827115Y-61884591D01*
X71819054Y-61880485D01*
X71768259Y-61832512D01*
X71751463Y-61764692D01*
X71773999Y-61698556D01*
X71819054Y-61659515D01*
X71827816Y-61655051D01*
X71869335Y-61624886D01*
X71999786Y-61530109D01*
X71999788Y-61530106D01*
X71999792Y-61530104D01*
X72150104Y-61379792D01*
X72150106Y-61379788D01*
X72150109Y-61379786D01*
X72275048Y-61207820D01*
X72275047Y-61207820D01*
X72275051Y-61207816D01*
X72371557Y-61018412D01*
X72437246Y-60816243D01*
X72470500Y-60606287D01*
X72470500Y-60393713D01*
X72437246Y-60183757D01*
X72371557Y-59981588D01*
X72275051Y-59792184D01*
X72275049Y-59792181D01*
X72275048Y-59792179D01*
X72150109Y-59620213D01*
X71999786Y-59469890D01*
X71827820Y-59344951D01*
X71821439Y-59341700D01*
X71819054Y-59340485D01*
X71768259Y-59292512D01*
X71751463Y-59224692D01*
X71773999Y-59158556D01*
X71819054Y-59119515D01*
X71827816Y-59115051D01*
X71860153Y-59091557D01*
X71999786Y-58990109D01*
X71999788Y-58990106D01*
X71999792Y-58990104D01*
X72150104Y-58839792D01*
X72150106Y-58839788D01*
X72150109Y-58839786D01*
X72275048Y-58667820D01*
X72275047Y-58667820D01*
X72275051Y-58667816D01*
X72371557Y-58478412D01*
X72437246Y-58276243D01*
X72470500Y-58066287D01*
X72470500Y-57853713D01*
X72437246Y-57643757D01*
X72371557Y-57441588D01*
X72275051Y-57252184D01*
X72275049Y-57252181D01*
X72275048Y-57252179D01*
X72150109Y-57080213D01*
X71999786Y-56929890D01*
X71827817Y-56804949D01*
X71818504Y-56800204D01*
X71767707Y-56752230D01*
X71750912Y-56684409D01*
X71773449Y-56618274D01*
X71818507Y-56579232D01*
X71827555Y-56574622D01*
X71881716Y-56535270D01*
X71881717Y-56535270D01*
X71249408Y-55902962D01*
X71312993Y-55885925D01*
X71427007Y-55820099D01*
X71520099Y-55727007D01*
X71585925Y-55612993D01*
X71602962Y-55549408D01*
X72235270Y-56181717D01*
X72235270Y-56181716D01*
X72274622Y-56127554D01*
X72371095Y-55938217D01*
X72436757Y-55736130D01*
X72436757Y-55736127D01*
X72470000Y-55526246D01*
X72470000Y-55313753D01*
X72436757Y-55103872D01*
X72436757Y-55103869D01*
X72371095Y-54901782D01*
X72274624Y-54712449D01*
X72235270Y-54658282D01*
X72235269Y-54658282D01*
X71602962Y-55290590D01*
X71585925Y-55227007D01*
X71520099Y-55112993D01*
X71427007Y-55019901D01*
X71312993Y-54954075D01*
X71249409Y-54937037D01*
X71881716Y-54304728D01*
X71827550Y-54265375D01*
X71817954Y-54260486D01*
X71767157Y-54212512D01*
X71750361Y-54144692D01*
X71772897Y-54078556D01*
X71817954Y-54039514D01*
X71827554Y-54034622D01*
X71881716Y-53995270D01*
X71881717Y-53995270D01*
X71249408Y-53362962D01*
X71312993Y-53345925D01*
X71427007Y-53280099D01*
X71520099Y-53187007D01*
X71585925Y-53072993D01*
X71602962Y-53009408D01*
X72235270Y-53641717D01*
X72235270Y-53641716D01*
X72274622Y-53587554D01*
X72371095Y-53398217D01*
X72436757Y-53196130D01*
X72436757Y-53196127D01*
X72470000Y-52986246D01*
X72470000Y-52773753D01*
X72436757Y-52563872D01*
X72436757Y-52563869D01*
X72371095Y-52361782D01*
X72274624Y-52172449D01*
X72235270Y-52118282D01*
X72235269Y-52118282D01*
X71602962Y-52750590D01*
X71585925Y-52687007D01*
X71520099Y-52572993D01*
X71427007Y-52479901D01*
X71312993Y-52414075D01*
X71249409Y-52397037D01*
X71919627Y-51726818D01*
X71980950Y-51693333D01*
X72007307Y-51690499D01*
X72017872Y-51690499D01*
X72077483Y-51684091D01*
X72212331Y-51633796D01*
X72327546Y-51547546D01*
X72413796Y-51432331D01*
X72464091Y-51297483D01*
X72470500Y-51237873D01*
X72470499Y-49442128D01*
X72464091Y-49382517D01*
X72455396Y-49359205D01*
X72413797Y-49247671D01*
X72413793Y-49247664D01*
X72327547Y-49132455D01*
X72327544Y-49132452D01*
X72212335Y-49046206D01*
X72212328Y-49046202D01*
X72077482Y-48995908D01*
X72077483Y-48995908D01*
X72017883Y-48989501D01*
X72017881Y-48989500D01*
X72017873Y-48989500D01*
X72017864Y-48989500D01*
X70222129Y-48989500D01*
X70222123Y-48989501D01*
X70162516Y-48995908D01*
X70027671Y-49046202D01*
X70027664Y-49046206D01*
X69912455Y-49132452D01*
X69912452Y-49132455D01*
X69826206Y-49247664D01*
X69826202Y-49247671D01*
X69775908Y-49382517D01*
X69772410Y-49415060D01*
X69769501Y-49442123D01*
X69769500Y-49442135D01*
X69769500Y-51237870D01*
X69769501Y-51237876D01*
X69775908Y-51297483D01*
X69826202Y-51432328D01*
X69826206Y-51432335D01*
X69912452Y-51547544D01*
X69912455Y-51547547D01*
X70027664Y-51633793D01*
X70027671Y-51633797D01*
X70032661Y-51635658D01*
X70162517Y-51684091D01*
X70222127Y-51690500D01*
X70232685Y-51690499D01*
X70299723Y-51710179D01*
X70320372Y-51726818D01*
X70990591Y-52397037D01*
X70927007Y-52414075D01*
X70812993Y-52479901D01*
X70719901Y-52572993D01*
X70654075Y-52687007D01*
X70637037Y-52750591D01*
X70004728Y-52118282D01*
X70004727Y-52118282D01*
X69965380Y-52172439D01*
X69868904Y-52361782D01*
X69803242Y-52563869D01*
X69803242Y-52563872D01*
X69770000Y-52773753D01*
X69770000Y-52986246D01*
X69803242Y-53196127D01*
X69803242Y-53196130D01*
X69868904Y-53398217D01*
X69965375Y-53587550D01*
X70004728Y-53641716D01*
X70637037Y-53009408D01*
X70654075Y-53072993D01*
X70719901Y-53187007D01*
X70812993Y-53280099D01*
X70927007Y-53345925D01*
X70990591Y-53362962D01*
X70389971Y-53963581D01*
X70468711Y-54080895D01*
X70469920Y-54084729D01*
X70472844Y-54087491D01*
X70480343Y-54117778D01*
X70489727Y-54147529D01*
X70488671Y-54151408D01*
X70489638Y-54155312D01*
X70479573Y-54184844D01*
X70471383Y-54214947D01*
X70468397Y-54217640D01*
X70467100Y-54221447D01*
X70422051Y-54260483D01*
X70412440Y-54265380D01*
X70358282Y-54304727D01*
X70358282Y-54304728D01*
X70990591Y-54937037D01*
X70927007Y-54954075D01*
X70812993Y-55019901D01*
X70719901Y-55112993D01*
X70654075Y-55227007D01*
X70637037Y-55290591D01*
X70004728Y-54658282D01*
X70004727Y-54658282D01*
X69965380Y-54712439D01*
X69868904Y-54901782D01*
X69803242Y-55103869D01*
X69803242Y-55103872D01*
X69770000Y-55313753D01*
X69770000Y-55526246D01*
X69803242Y-55736127D01*
X69803242Y-55736130D01*
X69868904Y-55938217D01*
X69965375Y-56127550D01*
X70004728Y-56181716D01*
X70637037Y-55549408D01*
X70654075Y-55612993D01*
X70719901Y-55727007D01*
X70812993Y-55820099D01*
X70927007Y-55885925D01*
X70990590Y-55902962D01*
X70358282Y-56535269D01*
X70358282Y-56535270D01*
X70412452Y-56574626D01*
X70412451Y-56574626D01*
X70421495Y-56579234D01*
X70472292Y-56627208D01*
X70489087Y-56695029D01*
X70466550Y-56761164D01*
X70421499Y-56800202D01*
X70412182Y-56804949D01*
X70240213Y-56929890D01*
X70089890Y-57080213D01*
X69964951Y-57252179D01*
X69868444Y-57441583D01*
X69802754Y-57643756D01*
X69794654Y-57694898D01*
X69764725Y-57758032D01*
X69705414Y-57794964D01*
X69672181Y-57799500D01*
X65224000Y-57799500D01*
X65156961Y-57779815D01*
X65111206Y-57727011D01*
X65100000Y-57675500D01*
X65100000Y-56699999D01*
X63933631Y-57060201D01*
X63863768Y-57061174D01*
X63804469Y-57024222D01*
X63774562Y-56961077D01*
X63779337Y-56902716D01*
X63790086Y-56870277D01*
X63790087Y-56870275D01*
X63800500Y-56768348D01*
X63800500Y-56181652D01*
X63790087Y-56079725D01*
X63735362Y-55914575D01*
X63735358Y-55914569D01*
X63735357Y-55914566D01*
X63644028Y-55766500D01*
X63644025Y-55766496D01*
X63521004Y-55643475D01*
X63521003Y-55643474D01*
X63520301Y-55643041D01*
X63519921Y-55642618D01*
X63515336Y-55638993D01*
X63515955Y-55638209D01*
X63473575Y-55591098D01*
X63462349Y-55522136D01*
X63490188Y-55458052D01*
X63515455Y-55436157D01*
X63515336Y-55436007D01*
X63518687Y-55433356D01*
X63520299Y-55431959D01*
X63521003Y-55431526D01*
X63644026Y-55308503D01*
X63735362Y-55160425D01*
X63790087Y-54995275D01*
X63800500Y-54893348D01*
X63800500Y-54306652D01*
X63790087Y-54204725D01*
X63735362Y-54039575D01*
X63644026Y-53891497D01*
X63521003Y-53768474D01*
X63520999Y-53768471D01*
X63407807Y-53698653D01*
X63361082Y-53646705D01*
X63349861Y-53577743D01*
X63377704Y-53513661D01*
X63385224Y-53505433D01*
X63430469Y-53460188D01*
X63430472Y-53460185D01*
X63518478Y-53314606D01*
X63569086Y-53152196D01*
X63575500Y-53081616D01*
X63575500Y-52568384D01*
X63569086Y-52497804D01*
X63518478Y-52335394D01*
X63430472Y-52189815D01*
X63430470Y-52189813D01*
X63430469Y-52189811D01*
X63328339Y-52087681D01*
X63294854Y-52026358D01*
X63299838Y-51956666D01*
X63328339Y-51912319D01*
X63430468Y-51810189D01*
X63430469Y-51810188D01*
X63430472Y-51810185D01*
X63518478Y-51664606D01*
X63569086Y-51502196D01*
X63575500Y-51431616D01*
X63575500Y-50918384D01*
X63569086Y-50847804D01*
X63518478Y-50685394D01*
X63430472Y-50539815D01*
X63430470Y-50539813D01*
X63430469Y-50539811D01*
X63310188Y-50419530D01*
X63164606Y-50331522D01*
X63071533Y-50302520D01*
X63002196Y-50280914D01*
X63002194Y-50280913D01*
X63002192Y-50280913D01*
X62952778Y-50276423D01*
X62931616Y-50274500D01*
X62268384Y-50274500D01*
X62238135Y-50277248D01*
X62197800Y-50280914D01*
X62128464Y-50302520D01*
X62058604Y-50303670D01*
X62003894Y-50271815D01*
X61910292Y-50178213D01*
X61910288Y-50178210D01*
X61779185Y-50090609D01*
X61779172Y-50090602D01*
X61633501Y-50030264D01*
X61633489Y-50030261D01*
X61478845Y-49999500D01*
X61478842Y-49999500D01*
X61321158Y-49999500D01*
X61321155Y-49999500D01*
X61166510Y-50030261D01*
X61166498Y-50030264D01*
X61020827Y-50090602D01*
X61020814Y-50090609D01*
X60889711Y-50178210D01*
X60796105Y-50271816D01*
X60734781Y-50305300D01*
X60671536Y-50302520D01*
X60602196Y-50280914D01*
X60602185Y-50280913D01*
X60531616Y-50274500D01*
X59868384Y-50274500D01*
X59849145Y-50276248D01*
X59797807Y-50280913D01*
X59635393Y-50331522D01*
X59489811Y-50419530D01*
X59369530Y-50539811D01*
X59281522Y-50685393D01*
X59230913Y-50847807D01*
X59226216Y-50899500D01*
X59224500Y-50918384D01*
X59224500Y-51431616D01*
X59225116Y-51438394D01*
X59230913Y-51502192D01*
X59230913Y-51502194D01*
X59230914Y-51502196D01*
X59271921Y-51633796D01*
X59281522Y-51664606D01*
X59369530Y-51810188D01*
X59471661Y-51912319D01*
X59505146Y-51973642D01*
X59500162Y-52043334D01*
X59471661Y-52087681D01*
X59369531Y-52189810D01*
X59369530Y-52189811D01*
X59281522Y-52335393D01*
X59230913Y-52497807D01*
X59227841Y-52531616D01*
X59224500Y-52568384D01*
X59224500Y-53081616D01*
X59226423Y-53102778D01*
X59230913Y-53152192D01*
X59230913Y-53152194D01*
X59230914Y-53152196D01*
X59242082Y-53188035D01*
X59281522Y-53314606D01*
X59369530Y-53460188D01*
X59453432Y-53544090D01*
X59486917Y-53605413D01*
X59481933Y-53675105D01*
X59440061Y-53731038D01*
X59430849Y-53737309D01*
X59278997Y-53830973D01*
X59155974Y-53953996D01*
X59155971Y-53954000D01*
X59064642Y-54102066D01*
X59064637Y-54102077D01*
X59009913Y-54267223D01*
X58999500Y-54369144D01*
X58999500Y-54955855D01*
X59009913Y-55057776D01*
X59064637Y-55222922D01*
X59064642Y-55222933D01*
X59155971Y-55370999D01*
X59155974Y-55371003D01*
X59278996Y-55494025D01*
X59279000Y-55494028D01*
X59279703Y-55494462D01*
X59280083Y-55494885D01*
X59284664Y-55498507D01*
X59284045Y-55499289D01*
X59326428Y-55546410D01*
X59337649Y-55615372D01*
X59309806Y-55679454D01*
X59284544Y-55701342D01*
X59284664Y-55701493D01*
X59281315Y-55704140D01*
X59279703Y-55705538D01*
X59279000Y-55705971D01*
X59278996Y-55705974D01*
X59155974Y-55828996D01*
X59155971Y-55829000D01*
X59064642Y-55977066D01*
X59064637Y-55977077D01*
X59009913Y-56142223D01*
X58999500Y-56244144D01*
X58999500Y-56550500D01*
X58979815Y-56617539D01*
X58927011Y-56663294D01*
X58875500Y-56674500D01*
X55129700Y-56674500D01*
X55110870Y-56673062D01*
X55098291Y-56671129D01*
X55057483Y-56655909D01*
X54997873Y-56649500D01*
X54957507Y-56649500D01*
X54948147Y-56648062D01*
X54924735Y-56637096D01*
X54899938Y-56629815D01*
X54893618Y-56622521D01*
X54884874Y-56618426D01*
X54871106Y-56596542D01*
X54854183Y-56577011D01*
X54850595Y-56563938D01*
X54847669Y-56559286D01*
X54847724Y-56553476D01*
X54846733Y-56549865D01*
X54845876Y-56550068D01*
X54844092Y-56542520D01*
X54793797Y-56407671D01*
X54793793Y-56407664D01*
X54707547Y-56292455D01*
X54707544Y-56292452D01*
X54592335Y-56206206D01*
X54592328Y-56206202D01*
X54457482Y-56155908D01*
X54449938Y-56154126D01*
X54450474Y-56151853D01*
X54396690Y-56129573D01*
X54356843Y-56072180D01*
X54350499Y-56033024D01*
X54350499Y-56002129D01*
X54350498Y-56002123D01*
X54344091Y-55942516D01*
X54293797Y-55807671D01*
X54293793Y-55807664D01*
X54207547Y-55692455D01*
X54207544Y-55692452D01*
X54092335Y-55606206D01*
X54092328Y-55606202D01*
X53957486Y-55555910D01*
X53957485Y-55555909D01*
X53957483Y-55555909D01*
X53897873Y-55549500D01*
X53897863Y-55549500D01*
X53502132Y-55549500D01*
X53502119Y-55549501D01*
X53462751Y-55553733D01*
X53393992Y-55541325D01*
X53342856Y-55493713D01*
X53325500Y-55430443D01*
X53325500Y-53900412D01*
X53345185Y-53833373D01*
X53397989Y-53787618D01*
X53467147Y-53777674D01*
X53513650Y-53794295D01*
X53635604Y-53868019D01*
X53635603Y-53868019D01*
X53797894Y-53918590D01*
X53797892Y-53918590D01*
X53868418Y-53924999D01*
X54450000Y-53924999D01*
X54531581Y-53924999D01*
X54602102Y-53918591D01*
X54602107Y-53918590D01*
X54764396Y-53868018D01*
X54909877Y-53780072D01*
X55030072Y-53659877D01*
X55118019Y-53514395D01*
X55168590Y-53352106D01*
X55175000Y-53281572D01*
X55175000Y-53275000D01*
X54450000Y-53275000D01*
X54450000Y-53924999D01*
X53868418Y-53924999D01*
X53949999Y-53924998D01*
X53950000Y-53924998D01*
X53950000Y-53149000D01*
X53969685Y-53081961D01*
X54022489Y-53036206D01*
X54074000Y-53025000D01*
X54200000Y-53025000D01*
X54200000Y-52899000D01*
X54219685Y-52831961D01*
X54272489Y-52786206D01*
X54324000Y-52775000D01*
X55174999Y-52775000D01*
X55174999Y-52768417D01*
X55168591Y-52697897D01*
X55168590Y-52697892D01*
X55118018Y-52535603D01*
X55030072Y-52390122D01*
X54927984Y-52288034D01*
X54923645Y-52280088D01*
X54916398Y-52274663D01*
X54907163Y-52249903D01*
X54894499Y-52226711D01*
X54895144Y-52217681D01*
X54891981Y-52209199D01*
X54897597Y-52183378D01*
X54899483Y-52157019D01*
X54905301Y-52147965D01*
X54906833Y-52140926D01*
X54927981Y-52112675D01*
X54976965Y-52063691D01*
X55038286Y-52030208D01*
X55107978Y-52035192D01*
X55152325Y-52063693D01*
X55217033Y-52128401D01*
X55217048Y-52128415D01*
X55217049Y-52128416D01*
X55272011Y-52183378D01*
X55321585Y-52232952D01*
X55444498Y-52315080D01*
X55444511Y-52315087D01*
X55493617Y-52335427D01*
X55581087Y-52371658D01*
X55606324Y-52376677D01*
X55629580Y-52383732D01*
X55716503Y-52419737D01*
X55837259Y-52443757D01*
X55871153Y-52450499D01*
X55871156Y-52450500D01*
X55871158Y-52450500D01*
X56028844Y-52450500D01*
X56028845Y-52450499D01*
X56114331Y-52433495D01*
X56183488Y-52419739D01*
X56183489Y-52419738D01*
X56183497Y-52419737D01*
X56207155Y-52409937D01*
X56215329Y-52408311D01*
X56219669Y-52405523D01*
X56254604Y-52400500D01*
X56445396Y-52400500D01*
X56492844Y-52409937D01*
X56516503Y-52419737D01*
X56516508Y-52419738D01*
X56516511Y-52419739D01*
X56671153Y-52450499D01*
X56671156Y-52450500D01*
X56671158Y-52450500D01*
X56828844Y-52450500D01*
X56828845Y-52450499D01*
X56914331Y-52433495D01*
X56983488Y-52419739D01*
X56983489Y-52419738D01*
X56983497Y-52419737D01*
X57007155Y-52409937D01*
X57015329Y-52408311D01*
X57019669Y-52405523D01*
X57054604Y-52400500D01*
X57295396Y-52400500D01*
X57342844Y-52409937D01*
X57366503Y-52419737D01*
X57366508Y-52419738D01*
X57366511Y-52419739D01*
X57521153Y-52450499D01*
X57521156Y-52450500D01*
X57521158Y-52450500D01*
X57678844Y-52450500D01*
X57678845Y-52450499D01*
X57833497Y-52419737D01*
X57979179Y-52359394D01*
X58110289Y-52271789D01*
X58221789Y-52160289D01*
X58309394Y-52029179D01*
X58310563Y-52026358D01*
X58350279Y-51930472D01*
X58369737Y-51883497D01*
X58400500Y-51728842D01*
X58400500Y-51571158D01*
X58400500Y-51571155D01*
X58400499Y-51571153D01*
X58389089Y-51513793D01*
X58369737Y-51416503D01*
X58369735Y-51416498D01*
X58309397Y-51270827D01*
X58309390Y-51270814D01*
X58221789Y-51139711D01*
X58221786Y-51139707D01*
X58110292Y-51028213D01*
X58110288Y-51028210D01*
X57979185Y-50940609D01*
X57979172Y-50940602D01*
X57833501Y-50880264D01*
X57833489Y-50880261D01*
X57678845Y-50849500D01*
X57678842Y-50849500D01*
X57521158Y-50849500D01*
X57521155Y-50849500D01*
X57366511Y-50880260D01*
X57366506Y-50880262D01*
X57366504Y-50880262D01*
X57366503Y-50880263D01*
X57342844Y-50890062D01*
X57334670Y-50891688D01*
X57330331Y-50894477D01*
X57295396Y-50899500D01*
X57054604Y-50899500D01*
X57007155Y-50890062D01*
X56983497Y-50880263D01*
X56983493Y-50880262D01*
X56983488Y-50880260D01*
X56828845Y-50849500D01*
X56828842Y-50849500D01*
X56671158Y-50849500D01*
X56671155Y-50849500D01*
X56516511Y-50880260D01*
X56516506Y-50880262D01*
X56516504Y-50880262D01*
X56516503Y-50880263D01*
X56492844Y-50890062D01*
X56445396Y-50899500D01*
X56274500Y-50899500D01*
X56207461Y-50879815D01*
X56161706Y-50827011D01*
X56150500Y-50775500D01*
X56150500Y-50091728D01*
X56158318Y-50048394D01*
X56165080Y-50030264D01*
X56194091Y-49952483D01*
X56200500Y-49892873D01*
X56200499Y-49348998D01*
X56203049Y-49340313D01*
X56201761Y-49331353D01*
X56212738Y-49307316D01*
X56220183Y-49281961D01*
X56227025Y-49276032D01*
X56230786Y-49267797D01*
X56253017Y-49253510D01*
X56272987Y-49236206D01*
X56283502Y-49233918D01*
X56289564Y-49230023D01*
X56324499Y-49225000D01*
X56326000Y-49225000D01*
X56393039Y-49244685D01*
X56438794Y-49297489D01*
X56450000Y-49349000D01*
X56450000Y-50345000D01*
X56547828Y-50345000D01*
X56547844Y-50344999D01*
X56607372Y-50338598D01*
X56607379Y-50338596D01*
X56742086Y-50288354D01*
X56742088Y-50288352D01*
X56857189Y-50202188D01*
X56877458Y-50175112D01*
X56933391Y-50133239D01*
X57003083Y-50128253D01*
X57024187Y-50134862D01*
X57028309Y-50136570D01*
X57070000Y-50144862D01*
X57070000Y-49341988D01*
X57079940Y-49359205D01*
X57135795Y-49415060D01*
X57204204Y-49454556D01*
X57280504Y-49475000D01*
X57359496Y-49475000D01*
X57435796Y-49454556D01*
X57504205Y-49415060D01*
X57560060Y-49359205D01*
X57570000Y-49341988D01*
X57570000Y-50144862D01*
X57611690Y-50136569D01*
X57611692Y-50136569D01*
X57793671Y-50061192D01*
X57793684Y-50061185D01*
X57957462Y-49951751D01*
X57957466Y-49951748D01*
X58096748Y-49812466D01*
X58096751Y-49812462D01*
X58206185Y-49648684D01*
X58206192Y-49648671D01*
X58281569Y-49466693D01*
X58281572Y-49466683D01*
X58291924Y-49414643D01*
X58291929Y-49414615D01*
X58320000Y-49273488D01*
X58320000Y-48875000D01*
X57620000Y-48875000D01*
X57620000Y-48375000D01*
X58320000Y-48375000D01*
X58320000Y-47976508D01*
X58319999Y-47976504D01*
X58281572Y-47783318D01*
X58281569Y-47783306D01*
X58206192Y-47601328D01*
X58206185Y-47601315D01*
X58096751Y-47437537D01*
X58096748Y-47437533D01*
X57957466Y-47298251D01*
X57957462Y-47298248D01*
X57793684Y-47188814D01*
X57793671Y-47188807D01*
X57611691Y-47113429D01*
X57611683Y-47113427D01*
X57570000Y-47105135D01*
X57570000Y-47908011D01*
X57560060Y-47890795D01*
X57504205Y-47834940D01*
X57435796Y-47795444D01*
X57359496Y-47775000D01*
X57280504Y-47775000D01*
X57204204Y-47795444D01*
X57135795Y-47834940D01*
X57079940Y-47890795D01*
X57070000Y-47908011D01*
X57070000Y-47105136D01*
X57069999Y-47105135D01*
X57028316Y-47113427D01*
X57028308Y-47113429D01*
X56846328Y-47188807D01*
X56846315Y-47188814D01*
X56682537Y-47298248D01*
X56682533Y-47298251D01*
X56543248Y-47437536D01*
X56433811Y-47601321D01*
X56430949Y-47606676D01*
X56381982Y-47656516D01*
X56313843Y-47671971D01*
X56248165Y-47648134D01*
X56246112Y-47646592D01*
X56243371Y-47644489D01*
X56243366Y-47644486D01*
X56243365Y-47644485D01*
X56163781Y-47598537D01*
X56112136Y-47568719D01*
X56038950Y-47549109D01*
X55965766Y-47529500D01*
X55814234Y-47529500D01*
X55667863Y-47568719D01*
X55536635Y-47644485D01*
X55536632Y-47644487D01*
X55429487Y-47751632D01*
X55429485Y-47751635D01*
X55353719Y-47882863D01*
X55318959Y-48012593D01*
X55305228Y-48035120D01*
X55294861Y-48059379D01*
X55287329Y-48064484D01*
X55282594Y-48072254D01*
X55258864Y-48083780D01*
X55237028Y-48098584D01*
X55224292Y-48100574D01*
X55219747Y-48102783D01*
X55202227Y-48104463D01*
X55200701Y-48104500D01*
X55052128Y-48104501D01*
X55008165Y-48109226D01*
X55003045Y-48109352D01*
X55000526Y-48108679D01*
X54986748Y-48108679D01*
X54947874Y-48104500D01*
X54552130Y-48104500D01*
X54552119Y-48104501D01*
X54513253Y-48108679D01*
X54486748Y-48108679D01*
X54447874Y-48104500D01*
X54052130Y-48104500D01*
X54052119Y-48104501D01*
X54013253Y-48108679D01*
X53991640Y-48109107D01*
X53989178Y-48108940D01*
X53947873Y-48104500D01*
X53923480Y-48104500D01*
X53919308Y-48104218D01*
X53890290Y-48093523D01*
X53860631Y-48084815D01*
X53857803Y-48081551D01*
X53853748Y-48080057D01*
X53835116Y-48055369D01*
X53814876Y-48032011D01*
X53813109Y-48027952D01*
X53804313Y-48006716D01*
X53804312Y-48006714D01*
X53784128Y-47976508D01*
X53770084Y-47955490D01*
X53735858Y-47904267D01*
X53735856Y-47904264D01*
X53645637Y-47814045D01*
X53645606Y-47814016D01*
X53637198Y-47805608D01*
X53637178Y-47805586D01*
X53545733Y-47714141D01*
X53500325Y-47683801D01*
X53500324Y-47683800D01*
X53494509Y-47679915D01*
X53443286Y-47645688D01*
X53362792Y-47612347D01*
X53347457Y-47605995D01*
X53329453Y-47598537D01*
X53319427Y-47596543D01*
X53269029Y-47586518D01*
X53208610Y-47574500D01*
X53208607Y-47574500D01*
X53208606Y-47574500D01*
X52761606Y-47574500D01*
X52414607Y-47574500D01*
X52291393Y-47574500D01*
X52291389Y-47574500D01*
X52230971Y-47586518D01*
X52193259Y-47594019D01*
X52170550Y-47598536D01*
X52170548Y-47598537D01*
X52137207Y-47612347D01*
X52056719Y-47645684D01*
X52056705Y-47645692D01*
X51954272Y-47714138D01*
X51954264Y-47714144D01*
X51764144Y-47904264D01*
X51764138Y-47904272D01*
X51695692Y-48006705D01*
X51695688Y-48006714D01*
X51686890Y-48027954D01*
X51676917Y-48040329D01*
X51671305Y-48055198D01*
X51655444Y-48066974D01*
X51643048Y-48082357D01*
X51627283Y-48087883D01*
X51615208Y-48096850D01*
X51587716Y-48101755D01*
X51580692Y-48104218D01*
X51576508Y-48104500D01*
X51552128Y-48104501D01*
X51510818Y-48108941D01*
X51508365Y-48109107D01*
X51506434Y-48108679D01*
X51486748Y-48108679D01*
X51447874Y-48104500D01*
X51052130Y-48104500D01*
X51052119Y-48104501D01*
X51013253Y-48108679D01*
X50996959Y-48109352D01*
X50991835Y-48109226D01*
X50947873Y-48104500D01*
X50799280Y-48104500D01*
X50797773Y-48104463D01*
X50765876Y-48094240D01*
X50733777Y-48084815D01*
X50732742Y-48083621D01*
X50731237Y-48083139D01*
X50709932Y-48057297D01*
X50688022Y-48032011D01*
X50687198Y-48029721D01*
X50686792Y-48029228D01*
X50686678Y-48028274D01*
X50681041Y-48012593D01*
X50671371Y-47976504D01*
X50646281Y-47882865D01*
X50570515Y-47751635D01*
X50463365Y-47644485D01*
X50383781Y-47598537D01*
X50332136Y-47568719D01*
X50258950Y-47549109D01*
X50185766Y-47529500D01*
X50034234Y-47529500D01*
X49887863Y-47568719D01*
X49756626Y-47644490D01*
X49753882Y-47646596D01*
X49751152Y-47647651D01*
X49749597Y-47648549D01*
X49749456Y-47648306D01*
X49688710Y-47671785D01*
X49620267Y-47657741D01*
X49570281Y-47608922D01*
X49569042Y-47606660D01*
X49566187Y-47601318D01*
X49456751Y-47437537D01*
X49456748Y-47437533D01*
X49317466Y-47298251D01*
X49317462Y-47298248D01*
X49153684Y-47188814D01*
X49153671Y-47188807D01*
X48971691Y-47113429D01*
X48971683Y-47113427D01*
X48930000Y-47105135D01*
X48930000Y-47908011D01*
X48920060Y-47890795D01*
X48864205Y-47834940D01*
X48795796Y-47795444D01*
X48719496Y-47775000D01*
X48640504Y-47775000D01*
X48564204Y-47795444D01*
X48495795Y-47834940D01*
X48439940Y-47890795D01*
X48430000Y-47908011D01*
X48430000Y-47105136D01*
X48429999Y-47105135D01*
X48388316Y-47113427D01*
X48388308Y-47113429D01*
X48206328Y-47188807D01*
X48206315Y-47188814D01*
X48042537Y-47298248D01*
X48042533Y-47298251D01*
X47903251Y-47437533D01*
X47903248Y-47437537D01*
X47793814Y-47601315D01*
X47793807Y-47601328D01*
X47718430Y-47783306D01*
X47718427Y-47783318D01*
X47680000Y-47976504D01*
X47680000Y-48375000D01*
X48380000Y-48375000D01*
X48380000Y-48875000D01*
X47680000Y-48875000D01*
X47680000Y-49273495D01*
X47718427Y-49466681D01*
X47718430Y-49466693D01*
X47793807Y-49648671D01*
X47793814Y-49648684D01*
X47903248Y-49812462D01*
X47903251Y-49812466D01*
X48042533Y-49951748D01*
X48042537Y-49951751D01*
X48206315Y-50061185D01*
X48206328Y-50061192D01*
X48388306Y-50136569D01*
X48388318Y-50136572D01*
X48455233Y-50149883D01*
X48517144Y-50182268D01*
X48551718Y-50242983D01*
X48547979Y-50312753D01*
X48507113Y-50369425D01*
X48442094Y-50395006D01*
X48431042Y-50395500D01*
X48180080Y-50395500D01*
X48035092Y-50424340D01*
X48035082Y-50424343D01*
X47898507Y-50480914D01*
X47795863Y-50549499D01*
X47795862Y-50549500D01*
X47775581Y-50563050D01*
X47775580Y-50563051D01*
X47150451Y-51188181D01*
X47089128Y-51221666D01*
X47062770Y-51224500D01*
X46943384Y-51224500D01*
X46924145Y-51226248D01*
X46872807Y-51230913D01*
X46710393Y-51281522D01*
X46564811Y-51369530D01*
X46444531Y-51489810D01*
X46444528Y-51489814D01*
X46429514Y-51514651D01*
X46421580Y-51521916D01*
X46417111Y-51531703D01*
X46396261Y-51545101D01*
X46377986Y-51561838D01*
X46365833Y-51564656D01*
X46358333Y-51569477D01*
X46323398Y-51574500D01*
X46310452Y-51574500D01*
X46243413Y-51554815D01*
X46222771Y-51538181D01*
X45925793Y-51241203D01*
X45892308Y-51179880D01*
X45891887Y-51177864D01*
X45869737Y-51066503D01*
X45845599Y-51008230D01*
X45809397Y-50920827D01*
X45809390Y-50920814D01*
X45721789Y-50789711D01*
X45721786Y-50789707D01*
X45610292Y-50678213D01*
X45610288Y-50678210D01*
X45479185Y-50590609D01*
X45479172Y-50590602D01*
X45333501Y-50530264D01*
X45333491Y-50530261D01*
X45200308Y-50503769D01*
X45138397Y-50471384D01*
X45103823Y-50410668D01*
X45100500Y-50382152D01*
X45100500Y-50221155D01*
X45100499Y-50221153D01*
X45086322Y-50149883D01*
X45069737Y-50066503D01*
X45062236Y-50048394D01*
X45009397Y-49920827D01*
X45009390Y-49920814D01*
X44921789Y-49789711D01*
X44921786Y-49789707D01*
X44810292Y-49678213D01*
X44810288Y-49678210D01*
X44679185Y-49590609D01*
X44679172Y-49590602D01*
X44533501Y-49530264D01*
X44533489Y-49530261D01*
X44378845Y-49499500D01*
X44378842Y-49499500D01*
X44221158Y-49499500D01*
X44221155Y-49499500D01*
X44066510Y-49530261D01*
X44066498Y-49530264D01*
X43947452Y-49579574D01*
X43877982Y-49587043D01*
X43852548Y-49579574D01*
X43733501Y-49530264D01*
X43733489Y-49530261D01*
X43578845Y-49499500D01*
X43578842Y-49499500D01*
X43421158Y-49499500D01*
X43421155Y-49499500D01*
X43266510Y-49530261D01*
X43266498Y-49530264D01*
X43120827Y-49590602D01*
X43120814Y-49590609D01*
X42989711Y-49678210D01*
X42989707Y-49678213D01*
X42878213Y-49789707D01*
X42878210Y-49789711D01*
X42790609Y-49920814D01*
X42790602Y-49920827D01*
X42730264Y-50066498D01*
X42730261Y-50066510D01*
X42699500Y-50221153D01*
X42699500Y-50378846D01*
X42730261Y-50533489D01*
X42730264Y-50533501D01*
X42790602Y-50679171D01*
X42790604Y-50679175D01*
X42790606Y-50679179D01*
X42790609Y-50679184D01*
X42790610Y-50679185D01*
X42808601Y-50706112D01*
X42829477Y-50772790D01*
X42810991Y-50840169D01*
X42808601Y-50843888D01*
X42790610Y-50870814D01*
X42790602Y-50870828D01*
X42730264Y-51016498D01*
X42730261Y-51016510D01*
X42699500Y-51171153D01*
X42699500Y-51328846D01*
X42730261Y-51483489D01*
X42730264Y-51483501D01*
X42790602Y-51629171D01*
X42790604Y-51629175D01*
X42790606Y-51629179D01*
X42790609Y-51629184D01*
X42790610Y-51629185D01*
X42808601Y-51656112D01*
X42829477Y-51722790D01*
X42810991Y-51790169D01*
X42808601Y-51793888D01*
X42790610Y-51820814D01*
X42790602Y-51820828D01*
X42730264Y-51966498D01*
X42730261Y-51966510D01*
X42699500Y-52121153D01*
X42699500Y-52278846D01*
X42730261Y-52433489D01*
X42730264Y-52433501D01*
X42790602Y-52579172D01*
X42790609Y-52579185D01*
X42878210Y-52710288D01*
X42878213Y-52710292D01*
X42989707Y-52821786D01*
X42989711Y-52821789D01*
X43120814Y-52909390D01*
X43120827Y-52909397D01*
X43208776Y-52945826D01*
X43266503Y-52969737D01*
X43421153Y-53000499D01*
X43421156Y-53000500D01*
X43421158Y-53000500D01*
X43578844Y-53000500D01*
X43578845Y-53000499D01*
X43733497Y-52969737D01*
X43852548Y-52920425D01*
X43922017Y-52912956D01*
X43947453Y-52920425D01*
X44066503Y-52969737D01*
X44221153Y-53000499D01*
X44221156Y-53000500D01*
X44221158Y-53000500D01*
X44378844Y-53000500D01*
X44378845Y-53000499D01*
X44533497Y-52969737D01*
X44677267Y-52910186D01*
X44679172Y-52909397D01*
X44679172Y-52909396D01*
X44679179Y-52909394D01*
X44810289Y-52821789D01*
X44921789Y-52710289D01*
X45009394Y-52579179D01*
X45069737Y-52433497D01*
X45070795Y-52428176D01*
X45103178Y-52366265D01*
X45163893Y-52331689D01*
X45233663Y-52335427D01*
X45280094Y-52364684D01*
X45511016Y-52595606D01*
X45511045Y-52595637D01*
X45601263Y-52685855D01*
X45601267Y-52685858D01*
X45703707Y-52754307D01*
X45703713Y-52754310D01*
X45703714Y-52754311D01*
X45817548Y-52801463D01*
X45877971Y-52813481D01*
X45938393Y-52825500D01*
X45938394Y-52825500D01*
X46323398Y-52825500D01*
X46390437Y-52845185D01*
X46415516Y-52866492D01*
X46423411Y-52875253D01*
X46444528Y-52910185D01*
X46549292Y-53014949D01*
X46551452Y-53017346D01*
X46565243Y-53046056D01*
X46580500Y-53073996D01*
X46580262Y-53077320D01*
X46581706Y-53080326D01*
X46577787Y-53111928D01*
X46575516Y-53143688D01*
X46573450Y-53146901D01*
X46573108Y-53149664D01*
X46566838Y-53157189D01*
X46547015Y-53188035D01*
X46444928Y-53290121D01*
X46444927Y-53290122D01*
X46356980Y-53435604D01*
X46306409Y-53597893D01*
X46300000Y-53668427D01*
X46300000Y-53750000D01*
X47076000Y-53750000D01*
X47143039Y-53769685D01*
X47188794Y-53822489D01*
X47200000Y-53874000D01*
X47200000Y-54000000D01*
X47326000Y-54000000D01*
X47393039Y-54019685D01*
X47438794Y-54072489D01*
X47450000Y-54124000D01*
X47450000Y-54704410D01*
X47472166Y-54745004D01*
X47475000Y-54771362D01*
X47475000Y-60476000D01*
X47455315Y-60543039D01*
X47402511Y-60588794D01*
X47351000Y-60600000D01*
X47225000Y-60600000D01*
X47225000Y-60726000D01*
X47205315Y-60793039D01*
X47152511Y-60838794D01*
X47101000Y-60850000D01*
X46260472Y-60850000D01*
X46231150Y-60866010D01*
X46161458Y-60861024D01*
X46117114Y-60832524D01*
X45586267Y-60301677D01*
X46275000Y-60301677D01*
X46275000Y-60350000D01*
X46975000Y-60350000D01*
X46975000Y-59250000D01*
X46275001Y-59250000D01*
X46275001Y-59298322D01*
X46285144Y-59397607D01*
X46338452Y-59558481D01*
X46338457Y-59558492D01*
X46427424Y-59702728D01*
X46427427Y-59702732D01*
X46437014Y-59712319D01*
X46470499Y-59773642D01*
X46465515Y-59843334D01*
X46437014Y-59887681D01*
X46427427Y-59897267D01*
X46427424Y-59897271D01*
X46338457Y-60041507D01*
X46338452Y-60041518D01*
X46285144Y-60202393D01*
X46275000Y-60301677D01*
X45586267Y-60301677D01*
X45484819Y-60200229D01*
X45451334Y-60138906D01*
X45448500Y-60112548D01*
X45448500Y-58701677D01*
X46275000Y-58701677D01*
X46275000Y-58750000D01*
X46975000Y-58750000D01*
X46975000Y-57650000D01*
X46275001Y-57650000D01*
X46275001Y-57698322D01*
X46285144Y-57797607D01*
X46338452Y-57958481D01*
X46338457Y-57958492D01*
X46427424Y-58102728D01*
X46427427Y-58102732D01*
X46437014Y-58112319D01*
X46470499Y-58173642D01*
X46465515Y-58243334D01*
X46437014Y-58287681D01*
X46427427Y-58297267D01*
X46427424Y-58297271D01*
X46338457Y-58441507D01*
X46338452Y-58441518D01*
X46285144Y-58602393D01*
X46275000Y-58701677D01*
X45448500Y-58701677D01*
X45448500Y-57538395D01*
X45448500Y-57538394D01*
X45442167Y-57506557D01*
X45424463Y-57417548D01*
X45384715Y-57321588D01*
X45377312Y-57303716D01*
X45343910Y-57253726D01*
X45343906Y-57253721D01*
X45341754Y-57250500D01*
X45308858Y-57201267D01*
X45221733Y-57114142D01*
X45221732Y-57114141D01*
X45209268Y-57101677D01*
X46275000Y-57101677D01*
X46275000Y-57150000D01*
X46975000Y-57150000D01*
X46975000Y-56050000D01*
X46275001Y-56050000D01*
X46275001Y-56098322D01*
X46285144Y-56197607D01*
X46338452Y-56358481D01*
X46338457Y-56358492D01*
X46427424Y-56502728D01*
X46427427Y-56502732D01*
X46437014Y-56512319D01*
X46470499Y-56573642D01*
X46465515Y-56643334D01*
X46437014Y-56687681D01*
X46427427Y-56697267D01*
X46427424Y-56697271D01*
X46338457Y-56841507D01*
X46338452Y-56841518D01*
X46285144Y-57002393D01*
X46275000Y-57101677D01*
X45209268Y-57101677D01*
X43609267Y-55501677D01*
X46275000Y-55501677D01*
X46275000Y-55550000D01*
X46975000Y-55550000D01*
X46975000Y-55095589D01*
X46952834Y-55054996D01*
X46950000Y-55028638D01*
X46950000Y-54250000D01*
X46300001Y-54250000D01*
X46300001Y-54331582D01*
X46306408Y-54402102D01*
X46306409Y-54402107D01*
X46356981Y-54564396D01*
X46444926Y-54709875D01*
X46542191Y-54807139D01*
X46575676Y-54868462D01*
X46570692Y-54938154D01*
X46542192Y-54982502D01*
X46427424Y-55097271D01*
X46338457Y-55241507D01*
X46338452Y-55241518D01*
X46285144Y-55402393D01*
X46275000Y-55501677D01*
X43609267Y-55501677D01*
X43461764Y-55354174D01*
X41777509Y-53669919D01*
X41744024Y-53608596D01*
X41749008Y-53538904D01*
X41764869Y-53509357D01*
X41795051Y-53467816D01*
X41891557Y-53278412D01*
X41957246Y-53076243D01*
X41990500Y-52866287D01*
X41990500Y-52653713D01*
X41957246Y-52443757D01*
X41891557Y-52241588D01*
X41795051Y-52052184D01*
X41795049Y-52052181D01*
X41795048Y-52052179D01*
X41670109Y-51880213D01*
X41556569Y-51766673D01*
X41523084Y-51705350D01*
X41528068Y-51635658D01*
X41569940Y-51579725D01*
X41600915Y-51562810D01*
X41732331Y-51513796D01*
X41847546Y-51427546D01*
X41933796Y-51312331D01*
X41984091Y-51177483D01*
X41990500Y-51117873D01*
X41990499Y-49322128D01*
X41984091Y-49262517D01*
X41978551Y-49247664D01*
X41933797Y-49127671D01*
X41933793Y-49127664D01*
X41847547Y-49012455D01*
X41847544Y-49012452D01*
X41732335Y-48926206D01*
X41732328Y-48926202D01*
X41597482Y-48875908D01*
X41597483Y-48875908D01*
X41537883Y-48869501D01*
X41537881Y-48869500D01*
X41537873Y-48869500D01*
X41537864Y-48869500D01*
X39742129Y-48869500D01*
X39742123Y-48869501D01*
X39682516Y-48875908D01*
X39547671Y-48926202D01*
X39547664Y-48926206D01*
X39432455Y-49012452D01*
X39432452Y-49012455D01*
X39346206Y-49127664D01*
X39346202Y-49127671D01*
X39295908Y-49262517D01*
X39291092Y-49307316D01*
X39289501Y-49322123D01*
X39289500Y-49322135D01*
X39289500Y-50574546D01*
X39269815Y-50641585D01*
X39253181Y-50662227D01*
X39075240Y-50840169D01*
X38901269Y-51014140D01*
X38901267Y-51014142D01*
X38857704Y-51057704D01*
X38814142Y-51101266D01*
X38790130Y-51137202D01*
X38790117Y-51137222D01*
X38788455Y-51139711D01*
X38745688Y-51203714D01*
X38735553Y-51228181D01*
X38730834Y-51236049D01*
X38711621Y-51253763D01*
X38695221Y-51274116D01*
X38686343Y-51277070D01*
X38679467Y-51283411D01*
X38653727Y-51287926D01*
X38628927Y-51296181D01*
X38619862Y-51293867D01*
X38610649Y-51295484D01*
X38586551Y-51285365D01*
X38561227Y-51278902D01*
X38554852Y-51272055D01*
X38546228Y-51268434D01*
X38531428Y-51246896D01*
X38513616Y-51227765D01*
X38511170Y-51217415D01*
X38506658Y-51210849D01*
X38506213Y-51196436D01*
X38500500Y-51172260D01*
X38500500Y-43624500D01*
X38520185Y-43557461D01*
X38572989Y-43511706D01*
X38624500Y-43500500D01*
X47629283Y-43500500D01*
X47696322Y-43520185D01*
G37*
%TD.AperFunction*%
%TA.AperFunction,Conductor*%
G36*
X60153102Y-79920185D02*
G01*
X60173744Y-79936819D01*
X60225244Y-79988319D01*
X60258729Y-80049642D01*
X60253745Y-80119334D01*
X60211873Y-80175267D01*
X60146409Y-80199684D01*
X60137563Y-80200000D01*
X59700028Y-80200000D01*
X59700012Y-80200001D01*
X59597302Y-80210494D01*
X59430880Y-80265641D01*
X59430875Y-80265643D01*
X59281654Y-80357684D01*
X59157684Y-80481654D01*
X59065643Y-80630875D01*
X59065641Y-80630880D01*
X59010494Y-80797302D01*
X59010493Y-80797309D01*
X59000000Y-80900013D01*
X59000000Y-80975000D01*
X60376000Y-80975000D01*
X60443039Y-80994685D01*
X60488794Y-81047489D01*
X60500000Y-81099000D01*
X60500000Y-81225000D01*
X60626000Y-81225000D01*
X60693039Y-81244685D01*
X60738794Y-81297489D01*
X60750000Y-81349000D01*
X60750000Y-82249999D01*
X61299972Y-82249999D01*
X61299986Y-82249998D01*
X61402697Y-82239505D01*
X61569119Y-82184358D01*
X61569124Y-82184356D01*
X61718345Y-82092315D01*
X61842315Y-81968345D01*
X61898453Y-81877332D01*
X61950401Y-81830608D01*
X62019364Y-81819385D01*
X62083446Y-81847229D01*
X62091665Y-81854740D01*
X62441873Y-82204949D01*
X62784743Y-82547819D01*
X62818228Y-82609142D01*
X62813244Y-82678834D01*
X62771372Y-82734767D01*
X62705908Y-82759184D01*
X62697062Y-82759500D01*
X58560097Y-82759500D01*
X58493058Y-82739815D01*
X58472416Y-82723181D01*
X57299221Y-81549986D01*
X59000001Y-81549986D01*
X59010494Y-81652697D01*
X59065641Y-81819119D01*
X59065643Y-81819124D01*
X59157684Y-81968345D01*
X59281654Y-82092315D01*
X59430875Y-82184356D01*
X59430880Y-82184358D01*
X59597302Y-82239505D01*
X59597309Y-82239506D01*
X59700019Y-82249999D01*
X60249999Y-82249999D01*
X60250000Y-82249998D01*
X60250000Y-81475000D01*
X59000001Y-81475000D01*
X59000001Y-81549986D01*
X57299221Y-81549986D01*
X55861416Y-80112181D01*
X55827931Y-80050858D01*
X55832915Y-79981166D01*
X55874787Y-79925233D01*
X55940251Y-79900816D01*
X55949097Y-79900500D01*
X60086063Y-79900500D01*
X60153102Y-79920185D01*
G37*
%TD.AperFunction*%
%TA.AperFunction,Conductor*%
G36*
X62430725Y-70906738D02*
G01*
X62452814Y-70908318D01*
X62463597Y-70916390D01*
X62476519Y-70920185D01*
X62491018Y-70936918D01*
X62508747Y-70950190D01*
X62513454Y-70962810D01*
X62522274Y-70972989D01*
X62525425Y-70994906D01*
X62533164Y-71015654D01*
X62530301Y-71028814D01*
X62532218Y-71042147D01*
X62523018Y-71062290D01*
X62518312Y-71083927D01*
X62505043Y-71101652D01*
X62503193Y-71105703D01*
X62497161Y-71112181D01*
X62419531Y-71189810D01*
X62419530Y-71189811D01*
X62331522Y-71335393D01*
X62280913Y-71497807D01*
X62280714Y-71500000D01*
X62274500Y-71568384D01*
X62274500Y-72081616D01*
X62275801Y-72095927D01*
X62280913Y-72152192D01*
X62280913Y-72152194D01*
X62280914Y-72152196D01*
X62331522Y-72314606D01*
X62419528Y-72460185D01*
X62539815Y-72580472D01*
X62582236Y-72606116D01*
X62601365Y-72627004D01*
X62622688Y-72645641D01*
X62626007Y-72653911D01*
X62629423Y-72657642D01*
X62637212Y-72677808D01*
X62638674Y-72682869D01*
X62648537Y-72732452D01*
X62660662Y-72761725D01*
X62663307Y-72768111D01*
X62663309Y-72768117D01*
X62695685Y-72846281D01*
X62695688Y-72846287D01*
X62708163Y-72864955D01*
X62720724Y-72883754D01*
X62720725Y-72883757D01*
X62720726Y-72883757D01*
X62764141Y-72948732D01*
X62764144Y-72948736D01*
X62855586Y-73040178D01*
X62855608Y-73040198D01*
X63374205Y-73558795D01*
X63407690Y-73620118D01*
X63408141Y-73622285D01*
X63430261Y-73733489D01*
X63430264Y-73733501D01*
X63490602Y-73879172D01*
X63490609Y-73879185D01*
X63578210Y-74010288D01*
X63578213Y-74010292D01*
X63689707Y-74121786D01*
X63689711Y-74121789D01*
X63820814Y-74209390D01*
X63820827Y-74209397D01*
X63882763Y-74235051D01*
X63966503Y-74269737D01*
X64077716Y-74291858D01*
X64139623Y-74324241D01*
X64141203Y-74325793D01*
X65264139Y-75448729D01*
X65264142Y-75448733D01*
X65351267Y-75535858D01*
X65384993Y-75558393D01*
X65392358Y-75563314D01*
X65392360Y-75563316D01*
X65415807Y-75578982D01*
X65453714Y-75604312D01*
X65492744Y-75620478D01*
X65502518Y-75624527D01*
X65553440Y-75663600D01*
X65592458Y-75714448D01*
X65592459Y-75714449D01*
X65685551Y-75807541D01*
X65685555Y-75807544D01*
X65790232Y-75887867D01*
X65790236Y-75887869D01*
X65790243Y-75887875D01*
X65790250Y-75887879D01*
X65904248Y-75953696D01*
X65904249Y-75953697D01*
X65904252Y-75953698D01*
X65904257Y-75953701D01*
X66026171Y-76004200D01*
X66153338Y-76038275D01*
X66284174Y-76055500D01*
X66284181Y-76055500D01*
X66915819Y-76055500D01*
X66915826Y-76055500D01*
X67034316Y-76039900D01*
X67103349Y-76050665D01*
X67155605Y-76097045D01*
X67174500Y-76162839D01*
X67174500Y-77789548D01*
X67154815Y-77856587D01*
X67138181Y-77877229D01*
X66757229Y-78258181D01*
X66695906Y-78291666D01*
X66669548Y-78294500D01*
X66284166Y-78294500D01*
X66153341Y-78311724D01*
X66026170Y-78345800D01*
X65904249Y-78396302D01*
X65904248Y-78396303D01*
X65790250Y-78462120D01*
X65790232Y-78462132D01*
X65685555Y-78542455D01*
X65685545Y-78542464D01*
X65592464Y-78635545D01*
X65592455Y-78635555D01*
X65512132Y-78740232D01*
X65512120Y-78740250D01*
X65446303Y-78854248D01*
X65446302Y-78854249D01*
X65395800Y-78976170D01*
X65361724Y-79103341D01*
X65344500Y-79234166D01*
X65344500Y-79760546D01*
X65338262Y-79781787D01*
X65336685Y-79803871D01*
X65328610Y-79814658D01*
X65324815Y-79827585D01*
X65308084Y-79842081D01*
X65294817Y-79859808D01*
X65282192Y-79864517D01*
X65272011Y-79873340D01*
X65250097Y-79876490D01*
X65229355Y-79884229D01*
X65216190Y-79881366D01*
X65202853Y-79883284D01*
X65182711Y-79874085D01*
X65161081Y-79869382D01*
X65143347Y-79856108D01*
X65139297Y-79854259D01*
X65132825Y-79848233D01*
X65125799Y-79841208D01*
X65092310Y-79779888D01*
X65091883Y-79777841D01*
X65069737Y-79666503D01*
X65029120Y-79568443D01*
X65009397Y-79520827D01*
X65009390Y-79520814D01*
X64921789Y-79389711D01*
X64921786Y-79389707D01*
X64810292Y-79278213D01*
X64810288Y-79278210D01*
X64679185Y-79190609D01*
X64679172Y-79190602D01*
X64533501Y-79130264D01*
X64533489Y-79130261D01*
X64422285Y-79108141D01*
X64405528Y-79099376D01*
X64387049Y-79095356D01*
X64362010Y-79076611D01*
X64360374Y-79075756D01*
X64358795Y-79074205D01*
X64205023Y-78920433D01*
X64171538Y-78859110D01*
X64174317Y-78795864D01*
X64219086Y-78652196D01*
X64225500Y-78581616D01*
X64225500Y-78068384D01*
X64219086Y-77997804D01*
X64168478Y-77835394D01*
X64080472Y-77689815D01*
X64080470Y-77689813D01*
X64080469Y-77689811D01*
X63978339Y-77587681D01*
X63944854Y-77526358D01*
X63949838Y-77456666D01*
X63978339Y-77412319D01*
X64080468Y-77310189D01*
X64080469Y-77310188D01*
X64080472Y-77310185D01*
X64168478Y-77164606D01*
X64219086Y-77002196D01*
X64225500Y-76931616D01*
X64225500Y-76418384D01*
X64219086Y-76347804D01*
X64168478Y-76185394D01*
X64080472Y-76039815D01*
X64080470Y-76039813D01*
X64080469Y-76039811D01*
X63960188Y-75919530D01*
X63939937Y-75907288D01*
X63814606Y-75831522D01*
X63652196Y-75780914D01*
X63652194Y-75780913D01*
X63652192Y-75780913D01*
X63602778Y-75776423D01*
X63581616Y-75774500D01*
X62918384Y-75774500D01*
X62899145Y-75776248D01*
X62847807Y-75780913D01*
X62685393Y-75831522D01*
X62539811Y-75919530D01*
X62539810Y-75919531D01*
X62446161Y-76013181D01*
X62384838Y-76046666D01*
X62358480Y-76049500D01*
X61912231Y-76049500D01*
X61845192Y-76029815D01*
X61824550Y-76013182D01*
X61815290Y-76003922D01*
X61718656Y-75907288D01*
X61634279Y-75855244D01*
X61587556Y-75803297D01*
X61576333Y-75734334D01*
X61604177Y-75670252D01*
X61634281Y-75644167D01*
X61718343Y-75592317D01*
X61842315Y-75468345D01*
X61934356Y-75319124D01*
X61934358Y-75319119D01*
X61989505Y-75152697D01*
X61989506Y-75152690D01*
X61999999Y-75049986D01*
X62000000Y-75049973D01*
X62000000Y-74975000D01*
X60624000Y-74975000D01*
X60556961Y-74955315D01*
X60511206Y-74902511D01*
X60500000Y-74851000D01*
X60500000Y-74725000D01*
X60374000Y-74725000D01*
X60306961Y-74705315D01*
X60261206Y-74652511D01*
X60250000Y-74601000D01*
X60250000Y-74475000D01*
X60750000Y-74475000D01*
X61999999Y-74475000D01*
X61999999Y-74400028D01*
X61999998Y-74400013D01*
X61989505Y-74297302D01*
X61934358Y-74130880D01*
X61934356Y-74130875D01*
X61842315Y-73981654D01*
X61718345Y-73857684D01*
X61569124Y-73765643D01*
X61569119Y-73765641D01*
X61402697Y-73710494D01*
X61402690Y-73710493D01*
X61299986Y-73700000D01*
X60750000Y-73700000D01*
X60750000Y-74475000D01*
X60250000Y-74475000D01*
X60250000Y-73700000D01*
X59700028Y-73700000D01*
X59700012Y-73700001D01*
X59597302Y-73710494D01*
X59430880Y-73765641D01*
X59430875Y-73765643D01*
X59314597Y-73837365D01*
X59247204Y-73855805D01*
X59180541Y-73834882D01*
X59135771Y-73781240D01*
X59125500Y-73731826D01*
X59125500Y-71268760D01*
X59145185Y-71201721D01*
X59197989Y-71155966D01*
X59267147Y-71146022D01*
X59314595Y-71163221D01*
X59357704Y-71189811D01*
X59430657Y-71234809D01*
X59430660Y-71234810D01*
X59430666Y-71234814D01*
X59597203Y-71289999D01*
X59699991Y-71300500D01*
X61300008Y-71300499D01*
X61402797Y-71289999D01*
X61569334Y-71234814D01*
X61718656Y-71142712D01*
X61842712Y-71018656D01*
X61879259Y-70959402D01*
X61931207Y-70912679D01*
X61984798Y-70900500D01*
X62409480Y-70900500D01*
X62430725Y-70906738D01*
G37*
%TD.AperFunction*%
%TA.AperFunction,Conductor*%
G36*
X45615496Y-70515671D02*
G01*
X45616420Y-70514110D01*
X45623135Y-70518081D01*
X45764602Y-70601744D01*
X45793656Y-70610185D01*
X45922426Y-70647597D01*
X45922429Y-70647597D01*
X45922431Y-70647598D01*
X45959306Y-70650500D01*
X46510538Y-70650500D01*
X46534730Y-70652883D01*
X46648428Y-70675500D01*
X46648431Y-70675500D01*
X47498126Y-70675500D01*
X47527566Y-70684144D01*
X47557553Y-70690668D01*
X47562568Y-70694422D01*
X47565165Y-70695185D01*
X47585807Y-70711819D01*
X47586660Y-70712672D01*
X47620145Y-70773995D01*
X47615161Y-70843687D01*
X47586663Y-70888031D01*
X47577429Y-70897265D01*
X47524046Y-70983810D01*
X47472097Y-71030533D01*
X47403134Y-71041754D01*
X47355387Y-71025443D01*
X47310196Y-70998717D01*
X47310193Y-70998716D01*
X47152495Y-70952900D01*
X47152489Y-70952899D01*
X47115649Y-70950000D01*
X46787500Y-70950000D01*
X46787500Y-71500000D01*
X47295000Y-71500000D01*
X47295000Y-71449000D01*
X47314685Y-71381961D01*
X47367489Y-71336206D01*
X47419000Y-71325000D01*
X48276000Y-71325000D01*
X48343039Y-71344685D01*
X48388794Y-71397489D01*
X48400000Y-71449000D01*
X48400000Y-71701000D01*
X48380315Y-71768039D01*
X48327511Y-71813794D01*
X48276000Y-71825000D01*
X47830000Y-71825000D01*
X47830000Y-71876000D01*
X47810315Y-71943039D01*
X47757511Y-71988794D01*
X47706000Y-72000000D01*
X45377705Y-72000000D01*
X45377704Y-72000001D01*
X45377899Y-72002486D01*
X45423718Y-72160198D01*
X45507314Y-72301552D01*
X45507321Y-72301561D01*
X45623438Y-72417678D01*
X45623444Y-72417682D01*
X45656104Y-72436998D01*
X45703787Y-72488068D01*
X45716290Y-72556810D01*
X45696088Y-72612615D01*
X45690611Y-72620812D01*
X45690602Y-72620828D01*
X45630264Y-72766498D01*
X45630261Y-72766510D01*
X45599500Y-72921153D01*
X45599500Y-73078846D01*
X45630261Y-73233489D01*
X45630264Y-73233501D01*
X45690602Y-73379172D01*
X45690609Y-73379185D01*
X45725304Y-73431109D01*
X45746182Y-73497786D01*
X45727698Y-73565167D01*
X45725304Y-73568891D01*
X45690609Y-73620814D01*
X45690602Y-73620827D01*
X45630264Y-73766498D01*
X45630261Y-73766510D01*
X45599500Y-73921153D01*
X45599500Y-74078846D01*
X45630261Y-74233489D01*
X45630264Y-74233501D01*
X45690602Y-74379172D01*
X45690610Y-74379187D01*
X45708933Y-74406608D01*
X45729812Y-74473285D01*
X45711328Y-74540666D01*
X45659350Y-74587356D01*
X45605832Y-74599500D01*
X44496868Y-74599500D01*
X44429829Y-74579815D01*
X44384074Y-74527011D01*
X44373510Y-74462895D01*
X44374999Y-74448317D01*
X44375000Y-74448309D01*
X44375000Y-74425000D01*
X42425597Y-74425000D01*
X42358558Y-74405315D01*
X42337916Y-74388681D01*
X42136819Y-74187584D01*
X42122115Y-74160656D01*
X42105523Y-74134838D01*
X42104631Y-74128637D01*
X42103334Y-74126261D01*
X42100500Y-74099903D01*
X42100500Y-74029060D01*
X42100501Y-74029047D01*
X42100501Y-73860944D01*
X42100501Y-73860943D01*
X42059577Y-73708216D01*
X42054834Y-73700000D01*
X41980524Y-73571290D01*
X41980518Y-73571282D01*
X41973757Y-73564521D01*
X41940272Y-73503198D01*
X41943507Y-73438523D01*
X41957246Y-73396243D01*
X41990500Y-73186287D01*
X41990500Y-72973713D01*
X41957246Y-72763757D01*
X41891557Y-72561588D01*
X41795051Y-72372184D01*
X41795049Y-72372181D01*
X41795048Y-72372179D01*
X41670109Y-72200213D01*
X41519786Y-72049890D01*
X41347820Y-71924951D01*
X41341614Y-71921789D01*
X41339054Y-71920485D01*
X41288259Y-71872512D01*
X41271463Y-71804692D01*
X41293999Y-71738556D01*
X41339054Y-71699515D01*
X41347816Y-71695051D01*
X41417873Y-71644152D01*
X41519786Y-71570109D01*
X41519788Y-71570106D01*
X41519792Y-71570104D01*
X41670104Y-71419792D01*
X41670106Y-71419788D01*
X41670109Y-71419786D01*
X41779834Y-71268760D01*
X41795051Y-71247816D01*
X41878766Y-71083514D01*
X41926740Y-71032718D01*
X41994561Y-71015923D01*
X42060696Y-71038460D01*
X42104148Y-71093175D01*
X42111121Y-71162696D01*
X42110869Y-71163999D01*
X42099500Y-71221158D01*
X42099500Y-71378846D01*
X42130261Y-71533489D01*
X42130264Y-71533501D01*
X42190602Y-71679172D01*
X42190609Y-71679185D01*
X42278210Y-71810288D01*
X42278213Y-71810292D01*
X42389710Y-71921789D01*
X42437650Y-71953821D01*
X42482455Y-72007433D01*
X42491162Y-72076758D01*
X42486465Y-72095927D01*
X42434651Y-72252290D01*
X42424500Y-72351647D01*
X42424500Y-72898337D01*
X42424501Y-72898355D01*
X42434650Y-72997707D01*
X42434651Y-72997710D01*
X42487996Y-73158694D01*
X42488001Y-73158705D01*
X42577029Y-73303040D01*
X42577032Y-73303044D01*
X42586660Y-73312672D01*
X42620145Y-73373995D01*
X42615161Y-73443687D01*
X42586663Y-73488031D01*
X42577428Y-73497265D01*
X42577424Y-73497271D01*
X42488457Y-73641507D01*
X42488452Y-73641518D01*
X42435144Y-73802393D01*
X42425000Y-73901677D01*
X42425000Y-73925000D01*
X44374999Y-73925000D01*
X44374999Y-73901692D01*
X44374998Y-73901677D01*
X44364855Y-73802392D01*
X44311547Y-73641518D01*
X44311542Y-73641507D01*
X44222575Y-73497271D01*
X44222572Y-73497267D01*
X44213339Y-73488034D01*
X44179854Y-73426711D01*
X44184838Y-73357019D01*
X44213343Y-73312668D01*
X44222968Y-73303044D01*
X44312003Y-73158697D01*
X44365349Y-72997708D01*
X44375500Y-72898345D01*
X44375499Y-72351656D01*
X44371714Y-72314607D01*
X44365349Y-72252292D01*
X44365348Y-72252289D01*
X44348090Y-72200208D01*
X44312003Y-72091303D01*
X44311999Y-72091297D01*
X44311998Y-72091294D01*
X44222970Y-71946959D01*
X44222967Y-71946955D01*
X44216909Y-71940897D01*
X44212570Y-71932951D01*
X44205323Y-71927526D01*
X44196088Y-71902766D01*
X44183424Y-71879574D01*
X44184069Y-71870544D01*
X44180906Y-71862062D01*
X44186522Y-71836241D01*
X44188408Y-71809882D01*
X44194226Y-71800827D01*
X44195758Y-71793789D01*
X44216904Y-71765539D01*
X44345627Y-71636816D01*
X44406949Y-71603334D01*
X44433307Y-71600500D01*
X44840686Y-71600500D01*
X44840694Y-71600500D01*
X44877569Y-71597598D01*
X44877571Y-71597597D01*
X44877573Y-71597597D01*
X44919191Y-71585505D01*
X45035398Y-71551744D01*
X45176865Y-71468081D01*
X45176870Y-71468075D01*
X45183031Y-71463298D01*
X45184339Y-71464984D01*
X45236009Y-71436761D01*
X45305701Y-71441735D01*
X45353441Y-71473752D01*
X45377704Y-71500000D01*
X46287500Y-71500000D01*
X46287500Y-70950000D01*
X45959350Y-70950000D01*
X45922510Y-70952899D01*
X45922504Y-70952900D01*
X45764806Y-70998716D01*
X45764803Y-70998717D01*
X45616729Y-71086288D01*
X45615711Y-71084566D01*
X45560455Y-71106257D01*
X45491938Y-71092572D01*
X45441697Y-71044017D01*
X45425500Y-70982742D01*
X45425500Y-70617895D01*
X45445185Y-70550856D01*
X45497989Y-70505101D01*
X45567147Y-70495157D01*
X45615496Y-70515671D01*
G37*
%TD.AperFunction*%
%TA.AperFunction,Conductor*%
G36*
X54032514Y-64484501D02*
G01*
X54032674Y-64483905D01*
X54040524Y-64486008D01*
X54040526Y-64486008D01*
X54040528Y-64486009D01*
X54150599Y-64500500D01*
X54349400Y-64500499D01*
X54362039Y-64498835D01*
X54431073Y-64509600D01*
X54483329Y-64555980D01*
X54502215Y-64623249D01*
X54501164Y-64637952D01*
X54499500Y-64650596D01*
X54499500Y-64849403D01*
X54513989Y-64959468D01*
X54516094Y-64967322D01*
X54512814Y-64968200D01*
X54518581Y-65022073D01*
X54515517Y-65032522D01*
X54516095Y-65032677D01*
X54513990Y-65040529D01*
X54499500Y-65150598D01*
X54499500Y-65349403D01*
X54513989Y-65459468D01*
X54516094Y-65467322D01*
X54512814Y-65468200D01*
X54518581Y-65522073D01*
X54515517Y-65532522D01*
X54516095Y-65532677D01*
X54513990Y-65540529D01*
X54499500Y-65650598D01*
X54499500Y-65849403D01*
X54513989Y-65959468D01*
X54516094Y-65967322D01*
X54512814Y-65968200D01*
X54518581Y-66022073D01*
X54515517Y-66032522D01*
X54516095Y-66032677D01*
X54513990Y-66040529D01*
X54499500Y-66150598D01*
X54499500Y-66349403D01*
X54513989Y-66459468D01*
X54516094Y-66467322D01*
X54512814Y-66468200D01*
X54518581Y-66522073D01*
X54515517Y-66532522D01*
X54516095Y-66532677D01*
X54513990Y-66540529D01*
X54499500Y-66650598D01*
X54499500Y-66849403D01*
X54513989Y-66959468D01*
X54516094Y-66967322D01*
X54512814Y-66968200D01*
X54518581Y-67022073D01*
X54515517Y-67032522D01*
X54516095Y-67032677D01*
X54513990Y-67040529D01*
X54499500Y-67150598D01*
X54499500Y-67349400D01*
X54501165Y-67362045D01*
X54490396Y-67431080D01*
X54444013Y-67483333D01*
X54376743Y-67502215D01*
X54362046Y-67501164D01*
X54349401Y-67499500D01*
X54150596Y-67499500D01*
X54040531Y-67513989D01*
X54032678Y-67516094D01*
X54031802Y-67512824D01*
X53977853Y-67518567D01*
X53967477Y-67515518D01*
X53967323Y-67516095D01*
X53959470Y-67513990D01*
X53849401Y-67499500D01*
X53650596Y-67499500D01*
X53540531Y-67513989D01*
X53532678Y-67516094D01*
X53531802Y-67512824D01*
X53477853Y-67518567D01*
X53467477Y-67515518D01*
X53467323Y-67516095D01*
X53459470Y-67513990D01*
X53349401Y-67499500D01*
X53150596Y-67499500D01*
X53040531Y-67513989D01*
X53032678Y-67516094D01*
X53031802Y-67512824D01*
X52977853Y-67518567D01*
X52967477Y-67515518D01*
X52967323Y-67516095D01*
X52959470Y-67513990D01*
X52849401Y-67499500D01*
X52650596Y-67499500D01*
X52540531Y-67513989D01*
X52532678Y-67516094D01*
X52531802Y-67512824D01*
X52477853Y-67518567D01*
X52467477Y-67515518D01*
X52467323Y-67516095D01*
X52459470Y-67513990D01*
X52349401Y-67499500D01*
X52150596Y-67499500D01*
X52040531Y-67513989D01*
X52032678Y-67516094D01*
X52031802Y-67512824D01*
X51977853Y-67518567D01*
X51967477Y-67515518D01*
X51967323Y-67516095D01*
X51959470Y-67513990D01*
X51849401Y-67499500D01*
X51650598Y-67499500D01*
X51637953Y-67501165D01*
X51568918Y-67490395D01*
X51516665Y-67444012D01*
X51497784Y-67376742D01*
X51498836Y-67362039D01*
X51500500Y-67349401D01*
X51500499Y-67150600D01*
X51486009Y-67040528D01*
X51486008Y-67040525D01*
X51483905Y-67032674D01*
X51487207Y-67031789D01*
X51481392Y-66978075D01*
X51484501Y-66967485D01*
X51483905Y-66967326D01*
X51486008Y-66959475D01*
X51486008Y-66959474D01*
X51486009Y-66959472D01*
X51500500Y-66849401D01*
X51500499Y-66650600D01*
X51486009Y-66540528D01*
X51486008Y-66540525D01*
X51483905Y-66532674D01*
X51487207Y-66531789D01*
X51481392Y-66478075D01*
X51484501Y-66467485D01*
X51483905Y-66467326D01*
X51486008Y-66459475D01*
X51486008Y-66459474D01*
X51486009Y-66459472D01*
X51500500Y-66349401D01*
X51500499Y-66150600D01*
X51500499Y-66150598D01*
X51500499Y-66150596D01*
X51486011Y-66040536D01*
X51483906Y-66032682D01*
X51487007Y-66031850D01*
X51481128Y-65977382D01*
X51484147Y-65967389D01*
X51483418Y-65967194D01*
X51485521Y-65959342D01*
X51496626Y-65875000D01*
X51468506Y-65875000D01*
X51464835Y-65873922D01*
X51461107Y-65874779D01*
X51431574Y-65864155D01*
X51401467Y-65855315D01*
X51397917Y-65852048D01*
X51395361Y-65851129D01*
X51370115Y-65826466D01*
X51369348Y-65825466D01*
X51344167Y-65760292D01*
X51358219Y-65691850D01*
X51369348Y-65674534D01*
X51370115Y-65673534D01*
X51391055Y-65658236D01*
X51407044Y-65641870D01*
X51416404Y-65639718D01*
X51426534Y-65632319D01*
X51468506Y-65625000D01*
X51496626Y-65625000D01*
X51485521Y-65540659D01*
X51483418Y-65532807D01*
X51487041Y-65531835D01*
X51480919Y-65479884D01*
X51484495Y-65467484D01*
X51483905Y-65467326D01*
X51486008Y-65459475D01*
X51486008Y-65459474D01*
X51486009Y-65459472D01*
X51500500Y-65349401D01*
X51500499Y-65150600D01*
X51486009Y-65040528D01*
X51486008Y-65040525D01*
X51483905Y-65032674D01*
X51487207Y-65031789D01*
X51481392Y-64978075D01*
X51484501Y-64967485D01*
X51483905Y-64967326D01*
X51486008Y-64959475D01*
X51486008Y-64959474D01*
X51486009Y-64959472D01*
X51500500Y-64849401D01*
X51500499Y-64650600D01*
X51500498Y-64650596D01*
X51498835Y-64637960D01*
X51509601Y-64568925D01*
X51555981Y-64516669D01*
X51623249Y-64497784D01*
X51637959Y-64498836D01*
X51638945Y-64498965D01*
X51650599Y-64500500D01*
X51849400Y-64500499D01*
X51849401Y-64500499D01*
X51870024Y-64497784D01*
X51959472Y-64486009D01*
X51959475Y-64486007D01*
X51967326Y-64483905D01*
X51968210Y-64487207D01*
X52021925Y-64481392D01*
X52032514Y-64484501D01*
X52032674Y-64483905D01*
X52040524Y-64486008D01*
X52040526Y-64486008D01*
X52040528Y-64486009D01*
X52150599Y-64500500D01*
X52349400Y-64500499D01*
X52349401Y-64500499D01*
X52370024Y-64497784D01*
X52459472Y-64486009D01*
X52459475Y-64486007D01*
X52467326Y-64483905D01*
X52468210Y-64487207D01*
X52521925Y-64481392D01*
X52532514Y-64484501D01*
X52532674Y-64483905D01*
X52540524Y-64486008D01*
X52540526Y-64486008D01*
X52540528Y-64486009D01*
X52650599Y-64500500D01*
X52849400Y-64500499D01*
X52849401Y-64500499D01*
X52870024Y-64497784D01*
X52959472Y-64486009D01*
X52959475Y-64486007D01*
X52967326Y-64483905D01*
X52968210Y-64487207D01*
X53021925Y-64481392D01*
X53032514Y-64484501D01*
X53032674Y-64483905D01*
X53040524Y-64486008D01*
X53040526Y-64486008D01*
X53040528Y-64486009D01*
X53150599Y-64500500D01*
X53349400Y-64500499D01*
X53349401Y-64500499D01*
X53370024Y-64497784D01*
X53459472Y-64486009D01*
X53459475Y-64486007D01*
X53467326Y-64483905D01*
X53468210Y-64487207D01*
X53521925Y-64481392D01*
X53532514Y-64484501D01*
X53532674Y-64483905D01*
X53540524Y-64486008D01*
X53540526Y-64486008D01*
X53540528Y-64486009D01*
X53650599Y-64500500D01*
X53849400Y-64500499D01*
X53849401Y-64500499D01*
X53870024Y-64497784D01*
X53959472Y-64486009D01*
X53959475Y-64486007D01*
X53967326Y-64483905D01*
X53968210Y-64487207D01*
X54021925Y-64481392D01*
X54032514Y-64484501D01*
G37*
%TD.AperFunction*%
%TA.AperFunction,Conductor*%
G36*
X45505703Y-63605384D02*
G01*
X45512181Y-63611416D01*
X45765139Y-63864374D01*
X45765149Y-63864385D01*
X45769479Y-63868715D01*
X45769480Y-63868716D01*
X45825049Y-63924285D01*
X45858533Y-63985606D01*
X45853549Y-64055298D01*
X45830787Y-64090721D01*
X45831905Y-64091605D01*
X45827424Y-64097271D01*
X45738457Y-64241507D01*
X45738452Y-64241518D01*
X45685144Y-64402393D01*
X45675000Y-64501677D01*
X45675000Y-64550000D01*
X46501000Y-64550000D01*
X46568039Y-64569685D01*
X46613794Y-64622489D01*
X46625000Y-64674000D01*
X46625000Y-64800000D01*
X46751000Y-64800000D01*
X46818039Y-64819685D01*
X46863794Y-64872489D01*
X46875000Y-64924000D01*
X46875000Y-66476000D01*
X46855315Y-66543039D01*
X46802511Y-66588794D01*
X46751000Y-66600000D01*
X46499000Y-66600000D01*
X46431961Y-66580315D01*
X46386206Y-66527511D01*
X46375000Y-66476000D01*
X46375000Y-65050000D01*
X45675001Y-65050000D01*
X45675001Y-65098322D01*
X45685144Y-65197607D01*
X45738452Y-65358481D01*
X45738457Y-65358492D01*
X45827424Y-65502728D01*
X45827427Y-65502732D01*
X45937014Y-65612319D01*
X45970499Y-65673642D01*
X45965515Y-65743334D01*
X45937014Y-65787681D01*
X45827427Y-65897267D01*
X45827424Y-65897271D01*
X45738457Y-66041507D01*
X45738452Y-66041518D01*
X45685144Y-66202393D01*
X45675000Y-66301677D01*
X45675000Y-66426403D01*
X45668761Y-66447648D01*
X45667182Y-66469737D01*
X45659109Y-66480520D01*
X45655315Y-66493442D01*
X45638581Y-66507941D01*
X45625310Y-66525670D01*
X45612689Y-66530377D01*
X45602511Y-66539197D01*
X45580593Y-66542348D01*
X45559846Y-66550087D01*
X45546685Y-66547224D01*
X45533353Y-66549141D01*
X45513209Y-66539941D01*
X45491573Y-66535235D01*
X45473847Y-66521966D01*
X45469797Y-66520116D01*
X45463319Y-66514084D01*
X45336819Y-66387584D01*
X45303334Y-66326261D01*
X45300500Y-66299903D01*
X45300500Y-63699097D01*
X45320185Y-63632058D01*
X45372989Y-63586303D01*
X45442147Y-63576359D01*
X45505703Y-63605384D01*
G37*
%TD.AperFunction*%
%TA.AperFunction,Conductor*%
G36*
X70301669Y-59055968D02*
G01*
X70321070Y-59056474D01*
X70347701Y-59069484D01*
X70350086Y-59070185D01*
X70352469Y-59071814D01*
X70352782Y-59071967D01*
X70354376Y-59073051D01*
X70412184Y-59115051D01*
X70427913Y-59123065D01*
X70434385Y-59127467D01*
X70451800Y-59148656D01*
X70471742Y-59167491D01*
X70473666Y-59175261D01*
X70478748Y-59181445D01*
X70481942Y-59208684D01*
X70488536Y-59235312D01*
X70485953Y-59242889D01*
X70486886Y-59250839D01*
X70474847Y-59275480D01*
X70465998Y-59301447D01*
X70459728Y-59306425D01*
X70456215Y-59313617D01*
X70420946Y-59340484D01*
X70412182Y-59344949D01*
X70240213Y-59469890D01*
X70089890Y-59620213D01*
X69964951Y-59792179D01*
X69868444Y-59981585D01*
X69868443Y-59981587D01*
X69868443Y-59981588D01*
X69858125Y-60013344D01*
X69802753Y-60183760D01*
X69769500Y-60393713D01*
X69769500Y-60606286D01*
X69800331Y-60800950D01*
X69802754Y-60816243D01*
X69867925Y-61016819D01*
X69868444Y-61018414D01*
X69964951Y-61207820D01*
X70089890Y-61379786D01*
X70240213Y-61530109D01*
X70412182Y-61655050D01*
X70420946Y-61659516D01*
X70471742Y-61707491D01*
X70488536Y-61775312D01*
X70465998Y-61841447D01*
X70420946Y-61880484D01*
X70412182Y-61884949D01*
X70240213Y-62009890D01*
X70089890Y-62160213D01*
X69964951Y-62332179D01*
X69868444Y-62521585D01*
X69868443Y-62521587D01*
X69868443Y-62521588D01*
X69856950Y-62556961D01*
X69802753Y-62723760D01*
X69788506Y-62813713D01*
X69769500Y-62933713D01*
X69769500Y-63146287D01*
X69772650Y-63166176D01*
X69802753Y-63356241D01*
X69807821Y-63371837D01*
X69809816Y-63441678D01*
X69777571Y-63497837D01*
X68374390Y-64901018D01*
X68313067Y-64934503D01*
X68243375Y-64929519D01*
X68187442Y-64887647D01*
X68183607Y-64882228D01*
X68121789Y-64789710D01*
X68010292Y-64678213D01*
X68010288Y-64678210D01*
X67879185Y-64590609D01*
X67879172Y-64590602D01*
X67733501Y-64530264D01*
X67733489Y-64530261D01*
X67578845Y-64499500D01*
X67578842Y-64499500D01*
X67421158Y-64499500D01*
X67421153Y-64499500D01*
X67327191Y-64518190D01*
X67257599Y-64511963D01*
X67202422Y-64469099D01*
X67179178Y-64403209D01*
X67179000Y-64396573D01*
X67179000Y-64270000D01*
X65406000Y-64270000D01*
X65338961Y-64250315D01*
X65293206Y-64197511D01*
X65282000Y-64146000D01*
X65282000Y-64020000D01*
X65156000Y-64020000D01*
X65088961Y-64000315D01*
X65043206Y-63947511D01*
X65032000Y-63896000D01*
X65032000Y-63770000D01*
X65532000Y-63770000D01*
X67179000Y-63770000D01*
X67179000Y-63603872D01*
X67178999Y-63603855D01*
X67172598Y-63544327D01*
X67172597Y-63544323D01*
X67129335Y-63428334D01*
X67124351Y-63358643D01*
X67129335Y-63341666D01*
X67172597Y-63225676D01*
X67172598Y-63225672D01*
X67178999Y-63166144D01*
X67179000Y-63166127D01*
X67179000Y-63000000D01*
X65532000Y-63000000D01*
X65532000Y-63770000D01*
X65032000Y-63770000D01*
X65032000Y-62874000D01*
X65051685Y-62806961D01*
X65104489Y-62761206D01*
X65156000Y-62750000D01*
X65282000Y-62750000D01*
X65282000Y-62624000D01*
X65301685Y-62556961D01*
X65354489Y-62511206D01*
X65406000Y-62500000D01*
X67179000Y-62500000D01*
X67179000Y-62333872D01*
X67178999Y-62333855D01*
X67172598Y-62274327D01*
X67172597Y-62274323D01*
X67129602Y-62159048D01*
X67124618Y-62089356D01*
X67129597Y-62072394D01*
X67173091Y-61955783D01*
X67179500Y-61896173D01*
X67179499Y-61063828D01*
X67173091Y-61004217D01*
X67171587Y-61000185D01*
X67129602Y-60887617D01*
X67124618Y-60817926D01*
X67129602Y-60800950D01*
X67172597Y-60685676D01*
X67172598Y-60685672D01*
X67178999Y-60626144D01*
X67179000Y-60626127D01*
X67179000Y-60460000D01*
X65406000Y-60460000D01*
X65338961Y-60440315D01*
X65293206Y-60387511D01*
X65282000Y-60336000D01*
X65282000Y-60210000D01*
X65156000Y-60210000D01*
X65100000Y-60193556D01*
X65100000Y-59960000D01*
X65532000Y-59960000D01*
X67179000Y-59960000D01*
X67179000Y-59793872D01*
X67178999Y-59793855D01*
X67172598Y-59734327D01*
X67172596Y-59734320D01*
X67122354Y-59599613D01*
X67122350Y-59599606D01*
X67036190Y-59484512D01*
X67036187Y-59484509D01*
X66921093Y-59398349D01*
X66921086Y-59398345D01*
X66786379Y-59348103D01*
X66786372Y-59348101D01*
X66726844Y-59341700D01*
X65532000Y-59341700D01*
X65532000Y-59960000D01*
X65100000Y-59960000D01*
X65100000Y-59174500D01*
X65119685Y-59107461D01*
X65172489Y-59061706D01*
X65224000Y-59050500D01*
X70283047Y-59050500D01*
X70301669Y-59055968D01*
G37*
%TD.AperFunction*%
%TA.AperFunction,Conductor*%
G36*
X50021128Y-51846875D02*
G01*
X50021657Y-51846819D01*
X50052407Y-51862211D01*
X50083387Y-51877400D01*
X50083828Y-51877939D01*
X50084136Y-51878093D01*
X50105758Y-51904698D01*
X50169528Y-52010185D01*
X50169531Y-52010189D01*
X50272015Y-52112673D01*
X50305500Y-52173996D01*
X50300516Y-52243688D01*
X50272015Y-52288035D01*
X50169928Y-52390121D01*
X50169927Y-52390122D01*
X50081980Y-52535604D01*
X50031409Y-52697893D01*
X50025000Y-52768427D01*
X50025000Y-52775000D01*
X50876000Y-52775000D01*
X50943039Y-52794685D01*
X50988794Y-52847489D01*
X51000000Y-52899000D01*
X51000000Y-53025000D01*
X51126000Y-53025000D01*
X51193039Y-53044685D01*
X51238794Y-53097489D01*
X51250000Y-53149000D01*
X51250000Y-53924999D01*
X51331581Y-53924999D01*
X51402101Y-53918591D01*
X51413604Y-53915007D01*
X51483464Y-53913853D01*
X51542858Y-53950651D01*
X51572929Y-54013718D01*
X51574500Y-54033391D01*
X51574500Y-55870299D01*
X51573062Y-55889129D01*
X51571129Y-55901708D01*
X51555909Y-55942517D01*
X51549500Y-56002127D01*
X51549500Y-56042493D01*
X51548062Y-56051853D01*
X51537096Y-56075264D01*
X51529815Y-56100062D01*
X51522521Y-56106381D01*
X51518426Y-56115126D01*
X51496542Y-56128893D01*
X51477011Y-56145817D01*
X51463938Y-56149404D01*
X51459286Y-56152331D01*
X51453476Y-56152275D01*
X51449865Y-56153266D01*
X51450068Y-56154124D01*
X51442523Y-56155906D01*
X51422319Y-56163442D01*
X51413632Y-56166682D01*
X51370300Y-56174500D01*
X51144723Y-56174500D01*
X51077684Y-56154815D01*
X51041621Y-56119391D01*
X51021789Y-56089711D01*
X51021786Y-56089707D01*
X50910292Y-55978213D01*
X50910288Y-55978210D01*
X50779185Y-55890609D01*
X50779172Y-55890602D01*
X50633501Y-55830264D01*
X50633491Y-55830261D01*
X50584374Y-55820491D01*
X50522463Y-55788106D01*
X50487889Y-55727389D01*
X50491630Y-55657620D01*
X50520883Y-55611194D01*
X50621789Y-55510289D01*
X50709394Y-55379179D01*
X50769737Y-55233497D01*
X50800500Y-55078842D01*
X50800500Y-54921158D01*
X50800500Y-54921155D01*
X50800499Y-54921153D01*
X50777820Y-54807139D01*
X50769737Y-54766503D01*
X50748487Y-54715201D01*
X50709397Y-54620827D01*
X50709390Y-54620814D01*
X50621789Y-54489711D01*
X50621786Y-54489707D01*
X50510292Y-54378213D01*
X50510288Y-54378210D01*
X50379185Y-54290609D01*
X50379172Y-54290602D01*
X50233501Y-54230264D01*
X50233489Y-54230261D01*
X50078845Y-54199500D01*
X50078842Y-54199500D01*
X49985453Y-54199500D01*
X49956012Y-54190855D01*
X49926026Y-54184332D01*
X49921010Y-54180577D01*
X49918414Y-54179815D01*
X49897772Y-54163181D01*
X49786819Y-54052228D01*
X49753334Y-53990905D01*
X49750500Y-53964547D01*
X49750500Y-53668386D01*
X49748530Y-53646705D01*
X49744086Y-53597804D01*
X49693478Y-53435394D01*
X49605472Y-53289815D01*
X49597239Y-53281582D01*
X50025001Y-53281582D01*
X50031408Y-53352102D01*
X50031409Y-53352107D01*
X50081981Y-53514396D01*
X50169927Y-53659877D01*
X50290122Y-53780072D01*
X50435604Y-53868019D01*
X50435603Y-53868019D01*
X50597894Y-53918590D01*
X50597892Y-53918590D01*
X50668418Y-53924999D01*
X50749999Y-53924998D01*
X50750000Y-53924998D01*
X50750000Y-53275000D01*
X50025001Y-53275000D01*
X50025001Y-53281582D01*
X49597239Y-53281582D01*
X49510994Y-53195337D01*
X49510169Y-53194480D01*
X49494531Y-53164500D01*
X49478334Y-53134838D01*
X49478145Y-53133088D01*
X49477855Y-53132531D01*
X49477960Y-53131365D01*
X49475500Y-53108480D01*
X49475500Y-53091519D01*
X49495185Y-53024480D01*
X49511814Y-53003842D01*
X49605472Y-52910185D01*
X49693478Y-52764606D01*
X49744086Y-52602196D01*
X49750500Y-52531616D01*
X49750500Y-52003121D01*
X49770185Y-51936082D01*
X49822989Y-51890327D01*
X49850308Y-51881504D01*
X49895922Y-51872430D01*
X49919913Y-51867658D01*
X49952188Y-51854288D01*
X49986407Y-51850609D01*
X50020652Y-51846642D01*
X50021128Y-51846875D01*
G37*
%TD.AperFunction*%
%TA.AperFunction,Conductor*%
G36*
X49742539Y-48994685D02*
G01*
X49788294Y-49047489D01*
X49799500Y-49099000D01*
X49799500Y-49892870D01*
X49799501Y-49892876D01*
X49802212Y-49918093D01*
X49789805Y-49986852D01*
X49766612Y-50019018D01*
X49761690Y-50023941D01*
X49700370Y-50057433D01*
X49630678Y-50052455D01*
X49574740Y-50010590D01*
X49550317Y-49945128D01*
X49550000Y-49936269D01*
X49550000Y-49475000D01*
X48994000Y-49475000D01*
X48926961Y-49455315D01*
X48881206Y-49402511D01*
X48880410Y-49398854D01*
X48920060Y-49359205D01*
X48959556Y-49290796D01*
X48980000Y-49214496D01*
X48980000Y-48978045D01*
X48994000Y-48975000D01*
X49675500Y-48975000D01*
X49742539Y-48994685D01*
G37*
%TD.AperFunction*%
%TD*%
%TA.AperFunction,Conductor*%
%TO.N,+5V*%
G36*
X55384927Y-50197739D02*
G01*
X55434333Y-50247145D01*
X55449500Y-50306571D01*
X55449500Y-50373918D01*
X55449500Y-50373920D01*
X55449499Y-50373920D01*
X55478340Y-50518907D01*
X55478343Y-50518917D01*
X55534914Y-50655492D01*
X55534915Y-50655494D01*
X55534916Y-50655495D01*
X55567813Y-50704729D01*
X55617048Y-50778416D01*
X55625416Y-50786784D01*
X55631617Y-50795623D01*
X55639492Y-50818907D01*
X55651271Y-50840478D01*
X55653394Y-50853578D01*
X55656553Y-50882957D01*
X55667760Y-50934472D01*
X55701883Y-51036997D01*
X55701886Y-51037003D01*
X55779671Y-51158037D01*
X55779679Y-51158048D01*
X55825423Y-51210840D01*
X55825426Y-51210843D01*
X55825430Y-51210847D01*
X55934164Y-51305067D01*
X55934167Y-51305068D01*
X55934168Y-51305069D01*
X56036242Y-51351686D01*
X56065041Y-51364838D01*
X56132080Y-51384523D01*
X56132084Y-51384524D01*
X56197596Y-51393942D01*
X56261151Y-51422966D01*
X56267631Y-51428999D01*
X56271580Y-51432948D01*
X56271584Y-51432951D01*
X56394498Y-51515080D01*
X56394511Y-51515087D01*
X56529332Y-51570931D01*
X56531087Y-51571658D01*
X56531091Y-51571658D01*
X56531092Y-51571659D01*
X56676079Y-51600500D01*
X56676082Y-51600500D01*
X57754229Y-51600500D01*
X57785713Y-51609744D01*
X57817514Y-51617865D01*
X57819073Y-51619540D01*
X57821268Y-51620185D01*
X57842750Y-51644976D01*
X57865119Y-51669008D01*
X57865525Y-51671260D01*
X57867023Y-51672989D01*
X57871693Y-51705470D01*
X57877517Y-51737769D01*
X57876762Y-51740724D01*
X57876967Y-51742147D01*
X57868785Y-51771966D01*
X57866093Y-51778463D01*
X57854639Y-51799888D01*
X57835920Y-51827903D01*
X57820499Y-51846693D01*
X57796693Y-51870499D01*
X57777903Y-51885920D01*
X57749885Y-51904641D01*
X57728448Y-51916100D01*
X57718193Y-51920347D01*
X57697328Y-51928989D01*
X57674071Y-51936045D01*
X57657340Y-51939373D01*
X57641031Y-51942617D01*
X57616841Y-51945000D01*
X57583159Y-51945000D01*
X57558968Y-51942617D01*
X57533449Y-51937541D01*
X57496204Y-51930132D01*
X57484403Y-51927176D01*
X57441459Y-51914149D01*
X57441453Y-51914148D01*
X57394001Y-51904710D01*
X57316937Y-51897121D01*
X57295396Y-51895000D01*
X57054604Y-51895000D01*
X57054603Y-51895000D01*
X56982663Y-51900144D01*
X56947729Y-51905167D01*
X56947705Y-51905172D01*
X56877345Y-51920472D01*
X56877343Y-51920472D01*
X56871151Y-51923299D01*
X56843859Y-51932109D01*
X56791034Y-51942617D01*
X56766842Y-51945000D01*
X56733159Y-51945000D01*
X56708968Y-51942617D01*
X56683449Y-51937541D01*
X56646204Y-51930132D01*
X56634403Y-51927176D01*
X56591459Y-51914149D01*
X56591453Y-51914148D01*
X56544001Y-51904710D01*
X56466937Y-51897121D01*
X56445396Y-51895000D01*
X56254604Y-51895000D01*
X56254603Y-51895000D01*
X56182663Y-51900144D01*
X56147729Y-51905167D01*
X56147705Y-51905172D01*
X56077345Y-51920472D01*
X56077343Y-51920472D01*
X56071151Y-51923299D01*
X56043859Y-51932109D01*
X55991034Y-51942617D01*
X55966842Y-51945000D01*
X55933159Y-51945000D01*
X55908969Y-51942617D01*
X55875929Y-51936045D01*
X55852670Y-51928989D01*
X55823040Y-51916715D01*
X55823032Y-51916712D01*
X55790764Y-51905167D01*
X55776326Y-51900001D01*
X55771064Y-51898404D01*
X55753079Y-51892948D01*
X55744829Y-51890881D01*
X55727520Y-51885162D01*
X55695230Y-51871788D01*
X55673793Y-51860330D01*
X55653972Y-51847086D01*
X55635188Y-51831670D01*
X55509770Y-51706253D01*
X55509766Y-51706249D01*
X55446193Y-51655018D01*
X55425632Y-51638448D01*
X55425617Y-51638437D01*
X55381283Y-51609945D01*
X55381274Y-51609940D01*
X55284631Y-51561564D01*
X55284632Y-51561564D01*
X55284630Y-51561563D01*
X55284629Y-51561563D01*
X55273137Y-51559063D01*
X55211817Y-51525577D01*
X55178333Y-51464253D01*
X55175500Y-51437898D01*
X55175500Y-51118386D01*
X55171181Y-51070857D01*
X55169086Y-51047804D01*
X55118478Y-50885394D01*
X55030472Y-50739815D01*
X55030470Y-50739813D01*
X55030469Y-50739811D01*
X55026386Y-50734599D01*
X55017707Y-50712803D01*
X55005023Y-50693065D01*
X55002295Y-50674093D01*
X55000540Y-50669685D01*
X55000000Y-50658130D01*
X55000000Y-50469000D01*
X55019685Y-50401961D01*
X55072489Y-50356206D01*
X55124000Y-50345000D01*
X55150000Y-50345000D01*
X55150051Y-50344948D01*
X55151287Y-50340739D01*
X55150316Y-50336276D01*
X55161041Y-50307519D01*
X55169685Y-50278084D01*
X55173581Y-50273898D01*
X55174733Y-50270812D01*
X55199685Y-50245860D01*
X55251190Y-50207303D01*
X55316655Y-50182887D01*
X55384927Y-50197739D01*
G37*
%TD.AperFunction*%
%TD*%
%TA.AperFunction,Conductor*%
%TO.N,+5V*%
G36*
X44133785Y-68616786D02*
G01*
X44178131Y-68645285D01*
X44250561Y-68717716D01*
X44284046Y-68779038D01*
X44279062Y-68848730D01*
X44246769Y-68892684D01*
X44248471Y-68894326D01*
X44242311Y-68900710D01*
X44221228Y-68929944D01*
X44212868Y-68940313D01*
X44211381Y-68941966D01*
X44209341Y-68944080D01*
X44208770Y-68944870D01*
X44208762Y-68944880D01*
X44198690Y-68958839D01*
X44198689Y-68958840D01*
X44175817Y-68990537D01*
X44175773Y-68990604D01*
X44168439Y-69000770D01*
X44165322Y-69006723D01*
X44162179Y-69011572D01*
X44161466Y-69012184D01*
X44158723Y-69016624D01*
X44158163Y-69017400D01*
X44158148Y-69017424D01*
X44127370Y-69076261D01*
X44122672Y-69088200D01*
X44101732Y-69128203D01*
X44101729Y-69128210D01*
X44098773Y-69136582D01*
X44098771Y-69136588D01*
X44097236Y-69142181D01*
X44090251Y-69167624D01*
X44085236Y-69182249D01*
X44072847Y-69212157D01*
X44063152Y-69237459D01*
X44062064Y-69240542D01*
X44050129Y-69279255D01*
X44045019Y-69298545D01*
X44036202Y-69338207D01*
X44036200Y-69338219D01*
X44035817Y-69348908D01*
X44035818Y-69348909D01*
X44035589Y-69355286D01*
X44027109Y-69416122D01*
X44031609Y-69466595D01*
X44031333Y-69474336D01*
X44031059Y-69481994D01*
X44036940Y-69536716D01*
X44036959Y-69536868D01*
X44038530Y-69551478D01*
X44038531Y-69551487D01*
X44039136Y-69553858D01*
X44039701Y-69558269D01*
X44039889Y-69559428D01*
X44045116Y-69581580D01*
X44046208Y-69586205D01*
X44053694Y-69617929D01*
X44058841Y-69631371D01*
X44059456Y-69633470D01*
X44074114Y-69690898D01*
X44081545Y-69708839D01*
X44083424Y-69715248D01*
X44083422Y-69717284D01*
X44086046Y-69725932D01*
X44088281Y-69737168D01*
X44088284Y-69737186D01*
X44092617Y-69758969D01*
X44095000Y-69783161D01*
X44095000Y-69876000D01*
X44075315Y-69943039D01*
X44022511Y-69988794D01*
X43971000Y-70000000D01*
X43684350Y-70000000D01*
X43647510Y-70002899D01*
X43647504Y-70002900D01*
X43489806Y-70048716D01*
X43489803Y-70048717D01*
X43348447Y-70132314D01*
X43348438Y-70132321D01*
X43232321Y-70248438D01*
X43232314Y-70248447D01*
X43148718Y-70389801D01*
X43102899Y-70547513D01*
X43102704Y-70549998D01*
X43102705Y-70550000D01*
X44138500Y-70550000D01*
X44205539Y-70569685D01*
X44251294Y-70622489D01*
X44262500Y-70674000D01*
X44262500Y-70926000D01*
X44242815Y-70993039D01*
X44190011Y-71038794D01*
X44138500Y-71050000D01*
X43102705Y-71050000D01*
X43102704Y-71050001D01*
X43102899Y-71052486D01*
X43148718Y-71210198D01*
X43232314Y-71351552D01*
X43232321Y-71351561D01*
X43344079Y-71463319D01*
X43377564Y-71524642D01*
X43372580Y-71594334D01*
X43330708Y-71650267D01*
X43265244Y-71674684D01*
X43256399Y-71675000D01*
X43101693Y-71675000D01*
X43101676Y-71675001D01*
X43002394Y-71685144D01*
X42980261Y-71692478D01*
X42966437Y-71692953D01*
X42953622Y-71698153D01*
X42932208Y-71694129D01*
X42910433Y-71694878D01*
X42897126Y-71687538D01*
X42884954Y-71685251D01*
X42866921Y-71670876D01*
X42856109Y-71664912D01*
X42850794Y-71659891D01*
X42825529Y-71629660D01*
X42825527Y-71629658D01*
X42718488Y-71533511D01*
X42713421Y-71530125D01*
X42705836Y-71522960D01*
X42705411Y-71522231D01*
X42703305Y-71520500D01*
X42679498Y-71496693D01*
X42664076Y-71477902D01*
X42645358Y-71449888D01*
X42633901Y-71428453D01*
X42621010Y-71397333D01*
X42613954Y-71374075D01*
X42607381Y-71341031D01*
X42605000Y-71316844D01*
X42605000Y-71283096D01*
X42607261Y-71259526D01*
X42607392Y-71258849D01*
X42607935Y-71255999D01*
X42607936Y-71255995D01*
X42614097Y-71112247D01*
X42607124Y-71042726D01*
X42572537Y-70903065D01*
X42500004Y-70778805D01*
X42456552Y-70724090D01*
X42456551Y-70724090D01*
X42450522Y-70716498D01*
X42442589Y-70710904D01*
X42438847Y-70707369D01*
X42403632Y-70647023D01*
X42400000Y-70617230D01*
X42400000Y-70443278D01*
X42419685Y-70376239D01*
X42437902Y-70354042D01*
X42454438Y-70338087D01*
X42454438Y-70338086D01*
X42454445Y-70338080D01*
X42492557Y-70289019D01*
X42493196Y-70288297D01*
X42497309Y-70282904D01*
X42497310Y-70282903D01*
X42568510Y-70157874D01*
X42601601Y-70017851D01*
X42606940Y-69958200D01*
X42607830Y-69948260D01*
X42607830Y-69948258D01*
X42605178Y-69898758D01*
X42605000Y-69892124D01*
X42605000Y-69783154D01*
X42607382Y-69758967D01*
X42613952Y-69725931D01*
X42621012Y-69702659D01*
X42625891Y-69690881D01*
X42643882Y-69639887D01*
X42651350Y-69614458D01*
X42663800Y-69561776D01*
X42668759Y-69422947D01*
X42668937Y-69417988D01*
X42668803Y-69416740D01*
X42661469Y-69348518D01*
X42631508Y-69231124D01*
X42625889Y-69209107D01*
X42625885Y-69209097D01*
X42621006Y-69197316D01*
X42613951Y-69174058D01*
X42607383Y-69141038D01*
X42605000Y-69116847D01*
X42605000Y-69083153D01*
X42607382Y-69058964D01*
X42613956Y-69025914D01*
X42621006Y-69002674D01*
X42633902Y-68971539D01*
X42645351Y-68950119D01*
X42664079Y-68922090D01*
X42679488Y-68903316D01*
X42703314Y-68879489D01*
X42722093Y-68864076D01*
X42750111Y-68845356D01*
X42771545Y-68833900D01*
X42802668Y-68821008D01*
X42825918Y-68813955D01*
X42858970Y-68807381D01*
X42883154Y-68805000D01*
X42916842Y-68805000D01*
X42941024Y-68807381D01*
X42974084Y-68813957D01*
X42997334Y-68821010D01*
X43085733Y-68857626D01*
X43085733Y-68857625D01*
X43111337Y-68868231D01*
X43111564Y-68868207D01*
X43139092Y-68876553D01*
X43151068Y-68881767D01*
X43218447Y-68900255D01*
X43361205Y-68918193D01*
X43503234Y-68895185D01*
X43566249Y-68875457D01*
X43566248Y-68875456D01*
X43568357Y-68874797D01*
X43568366Y-68874794D01*
X43568456Y-68874765D01*
X43568458Y-68874765D01*
X43568494Y-68874753D01*
X43568495Y-68874754D01*
X43569663Y-68874389D01*
X43570120Y-68874245D01*
X43570119Y-68874245D01*
X43570136Y-68874240D01*
X43570137Y-68874239D01*
X43575178Y-68872662D01*
X43578089Y-68872610D01*
X43581474Y-68871208D01*
X43591885Y-68867431D01*
X43595070Y-68866433D01*
X43606442Y-68860866D01*
X43614263Y-68857626D01*
X43614264Y-68857627D01*
X43744981Y-68803481D01*
X43754811Y-68799890D01*
X43792251Y-68787985D01*
X43842369Y-68765635D01*
X43939417Y-68708638D01*
X44002774Y-68645282D01*
X44064094Y-68611801D01*
X44133785Y-68616786D01*
G37*
%TD.AperFunction*%
%TD*%
%TA.AperFunction,Conductor*%
%TO.N,+5V*%
G36*
X43541024Y-50007381D02*
G01*
X43574084Y-50013957D01*
X43597332Y-50021009D01*
X43659104Y-50046596D01*
X43710116Y-50064593D01*
X43735550Y-50072062D01*
X43788230Y-50084511D01*
X43932019Y-50089646D01*
X43932019Y-50089645D01*
X43932020Y-50089646D01*
X43932020Y-50089645D01*
X43985349Y-50083912D01*
X44001481Y-50082178D01*
X44001482Y-50082177D01*
X44001489Y-50082177D01*
X44001495Y-50082175D01*
X44001503Y-50082174D01*
X44076688Y-50062983D01*
X44140897Y-50046596D01*
X44202665Y-50021010D01*
X44225925Y-50013953D01*
X44250354Y-50009094D01*
X44258967Y-50007382D01*
X44283156Y-50005000D01*
X44316842Y-50005000D01*
X44341027Y-50007381D01*
X44374079Y-50013956D01*
X44397325Y-50021006D01*
X44428458Y-50033902D01*
X44449890Y-50045359D01*
X44477898Y-50064074D01*
X44496685Y-50079492D01*
X44520502Y-50103308D01*
X44535926Y-50122101D01*
X44554640Y-50150109D01*
X44566098Y-50171546D01*
X44578988Y-50202665D01*
X44586044Y-50225924D01*
X44590545Y-50248549D01*
X44590562Y-50248633D01*
X44592617Y-50258963D01*
X44595000Y-50283157D01*
X44595000Y-50382164D01*
X44598396Y-50440642D01*
X44598400Y-50440692D01*
X44601722Y-50469187D01*
X44604060Y-50482484D01*
X44611871Y-50526917D01*
X44652137Y-50629259D01*
X44664552Y-50660811D01*
X44697463Y-50718606D01*
X44698452Y-50720458D01*
X44699126Y-50721528D01*
X44748538Y-50785134D01*
X44787392Y-50835150D01*
X44787393Y-50835150D01*
X44787395Y-50835153D01*
X44853688Y-50882956D01*
X44904095Y-50919304D01*
X44966006Y-50951689D01*
X45101689Y-50999556D01*
X45155836Y-51010326D01*
X45174068Y-51013953D01*
X45197327Y-51021008D01*
X45228448Y-51033898D01*
X45249890Y-51045359D01*
X45277898Y-51064074D01*
X45296685Y-51079492D01*
X45320502Y-51103308D01*
X45335925Y-51122100D01*
X45354636Y-51150103D01*
X45366095Y-51171541D01*
X45378288Y-51200977D01*
X45378302Y-51201015D01*
X45378304Y-51201015D01*
X45379003Y-51202704D01*
X45379307Y-51203708D01*
X45381364Y-51209218D01*
X45381365Y-51209221D01*
X45381014Y-51209337D01*
X45386044Y-51225929D01*
X45396099Y-51276478D01*
X45396162Y-51276785D01*
X45397086Y-51281320D01*
X45397488Y-51283245D01*
X45398357Y-51287321D01*
X45398359Y-51287329D01*
X45442128Y-51404678D01*
X45448642Y-51422141D01*
X45482127Y-51483464D01*
X45568351Y-51598645D01*
X45568355Y-51598649D01*
X45568360Y-51598655D01*
X45751849Y-51782144D01*
X45785334Y-51843467D01*
X45780350Y-51913159D01*
X45738478Y-51969092D01*
X45673014Y-51993509D01*
X45604741Y-51978657D01*
X45586792Y-51966721D01*
X45549597Y-51937019D01*
X45549587Y-51937011D01*
X45549581Y-51937007D01*
X45549575Y-51937003D01*
X45549572Y-51937001D01*
X45517371Y-51916711D01*
X45503150Y-51907750D01*
X45503148Y-51907749D01*
X45503145Y-51907747D01*
X45401823Y-51858716D01*
X45260714Y-51830652D01*
X45260703Y-51830650D01*
X45190941Y-51826913D01*
X45190937Y-51826913D01*
X45190936Y-51826913D01*
X45190935Y-51826913D01*
X45119282Y-51833327D01*
X45047628Y-51839741D01*
X45047626Y-51839741D01*
X45047620Y-51839743D01*
X44913740Y-51892423D01*
X44913738Y-51892424D01*
X44853025Y-51926999D01*
X44739402Y-52015269D01*
X44655254Y-52131970D01*
X44655252Y-52131973D01*
X44624287Y-52191172D01*
X44624274Y-52191198D01*
X44622869Y-52193885D01*
X44622857Y-52193907D01*
X44622561Y-52194744D01*
X44620717Y-52198564D01*
X44619211Y-52200227D01*
X44566099Y-52328450D01*
X44554640Y-52349887D01*
X44535920Y-52377903D01*
X44520502Y-52396689D01*
X44520499Y-52396693D01*
X44496693Y-52420499D01*
X44477903Y-52435920D01*
X44449885Y-52454641D01*
X44428446Y-52466100D01*
X44397328Y-52478989D01*
X44374071Y-52486045D01*
X44357340Y-52489373D01*
X44341031Y-52492617D01*
X44316841Y-52495000D01*
X44283159Y-52495000D01*
X44258968Y-52492617D01*
X44225924Y-52486044D01*
X44202665Y-52478988D01*
X44140916Y-52453411D01*
X44140914Y-52453410D01*
X44140899Y-52453404D01*
X44140890Y-52453401D01*
X44140888Y-52453400D01*
X44089871Y-52435401D01*
X44064437Y-52427933D01*
X44011769Y-52415487D01*
X44011760Y-52415486D01*
X43867977Y-52410352D01*
X43867973Y-52410353D01*
X43798523Y-52417820D01*
X43798514Y-52417821D01*
X43798510Y-52417822D01*
X43798505Y-52417823D01*
X43798501Y-52417824D01*
X43659110Y-52453400D01*
X43659107Y-52453401D01*
X43597330Y-52478990D01*
X43574075Y-52486044D01*
X43574072Y-52486045D01*
X43566347Y-52487581D01*
X43541030Y-52492617D01*
X43516842Y-52495000D01*
X43483159Y-52495000D01*
X43458970Y-52492617D01*
X43425924Y-52486044D01*
X43402667Y-52478988D01*
X43371547Y-52466098D01*
X43350107Y-52454638D01*
X43322099Y-52435923D01*
X43303312Y-52420505D01*
X43279495Y-52396689D01*
X43264074Y-52377899D01*
X43245358Y-52349890D01*
X43233901Y-52328455D01*
X43229204Y-52317115D01*
X43221007Y-52297326D01*
X43213954Y-52274075D01*
X43207381Y-52241031D01*
X43205000Y-52216844D01*
X43205000Y-52183151D01*
X43207381Y-52158969D01*
X43213955Y-52125916D01*
X43221005Y-52102676D01*
X43235859Y-52066814D01*
X43240812Y-52056288D01*
X43241043Y-52055848D01*
X43241050Y-52055838D01*
X43298477Y-51923915D01*
X43316963Y-51856536D01*
X43334897Y-51713782D01*
X43311886Y-51571754D01*
X43291010Y-51505076D01*
X43291010Y-51505075D01*
X43257178Y-51434359D01*
X43256676Y-51433254D01*
X43256655Y-51433106D01*
X43255022Y-51429446D01*
X43221008Y-51347327D01*
X43213953Y-51324067D01*
X43207383Y-51291037D01*
X43205000Y-51266846D01*
X43205000Y-51233151D01*
X43207381Y-51208969D01*
X43213955Y-51175916D01*
X43221005Y-51152676D01*
X43235859Y-51116814D01*
X43240812Y-51106288D01*
X43241043Y-51105848D01*
X43241050Y-51105838D01*
X43298477Y-50973915D01*
X43316963Y-50906536D01*
X43334897Y-50763782D01*
X43311886Y-50621754D01*
X43291010Y-50555076D01*
X43291010Y-50555075D01*
X43257178Y-50484359D01*
X43256676Y-50483254D01*
X43256655Y-50483106D01*
X43255022Y-50479446D01*
X43221008Y-50397327D01*
X43213953Y-50374067D01*
X43207383Y-50341037D01*
X43205000Y-50316846D01*
X43205000Y-50283153D01*
X43207382Y-50258964D01*
X43213955Y-50225918D01*
X43221006Y-50202674D01*
X43233902Y-50171539D01*
X43245351Y-50150119D01*
X43264079Y-50122090D01*
X43279488Y-50103316D01*
X43303314Y-50079489D01*
X43322098Y-50064074D01*
X43350111Y-50045356D01*
X43371545Y-50033900D01*
X43402668Y-50021008D01*
X43425918Y-50013955D01*
X43458970Y-50007381D01*
X43483154Y-50005000D01*
X43516842Y-50005000D01*
X43541024Y-50007381D01*
G37*
%TD.AperFunction*%
%TA.AperFunction,Conductor*%
G36*
X45916542Y-51942626D02*
G01*
X45929631Y-51950873D01*
X45970116Y-51980067D01*
X46100993Y-52039838D01*
X46168032Y-52059523D01*
X46168036Y-52059524D01*
X46310452Y-52080000D01*
X46323398Y-52080000D01*
X46395340Y-52074855D01*
X46430275Y-52069832D01*
X46500797Y-52054487D01*
X46528454Y-52041852D01*
X46538380Y-52037828D01*
X46600542Y-52015709D01*
X46624626Y-51999277D01*
X46627462Y-51997402D01*
X46627945Y-51997092D01*
X46628066Y-51997020D01*
X46655642Y-51979294D01*
X46655663Y-51979280D01*
X46669533Y-51970367D01*
X46669534Y-51970368D01*
X46670607Y-51969678D01*
X46671736Y-51969347D01*
X46737636Y-51950000D01*
X47076000Y-51950000D01*
X47143039Y-51969685D01*
X47188794Y-52022489D01*
X47200000Y-52074000D01*
X47200000Y-52326000D01*
X47180315Y-52393039D01*
X47127511Y-52438794D01*
X47076000Y-52450000D01*
X46745245Y-52450000D01*
X46716298Y-52441500D01*
X46686757Y-52435340D01*
X46679354Y-52430652D01*
X46678206Y-52430315D01*
X46677457Y-52429451D01*
X46671417Y-52425626D01*
X46663735Y-52419933D01*
X46663731Y-52419931D01*
X46532863Y-52360164D01*
X46532858Y-52360162D01*
X46532857Y-52360162D01*
X46465818Y-52340477D01*
X46465820Y-52340477D01*
X46465815Y-52340476D01*
X46356494Y-52324758D01*
X46356489Y-52324757D01*
X46323398Y-52320000D01*
X46243325Y-52320000D01*
X46001655Y-52320000D01*
X45934616Y-52300315D01*
X45913975Y-52283682D01*
X45869275Y-52238983D01*
X45869101Y-52238806D01*
X45769434Y-52139139D01*
X45735949Y-52077816D01*
X45740933Y-52008124D01*
X45782805Y-51952191D01*
X45848269Y-51927774D01*
X45916542Y-51942626D01*
G37*
%TD.AperFunction*%
%TD*%
%TA.AperFunction,Conductor*%
%TO.N,+3V3*%
G36*
X50041027Y-71707381D02*
G01*
X50074079Y-71713956D01*
X50097331Y-71721009D01*
X50116869Y-71729102D01*
X50128452Y-71733900D01*
X50149886Y-71745357D01*
X50180090Y-71765538D01*
X50195701Y-71777890D01*
X50199817Y-71781723D01*
X50213265Y-71793804D01*
X50334305Y-71871591D01*
X50334310Y-71871593D01*
X50334315Y-71871596D01*
X50368066Y-71887009D01*
X50420871Y-71932763D01*
X50440556Y-71999802D01*
X50420872Y-72066842D01*
X50368069Y-72112598D01*
X50359901Y-72115981D01*
X50356893Y-72117103D01*
X50356884Y-72117107D01*
X50356881Y-72117109D01*
X50338135Y-72127345D01*
X50295556Y-72150594D01*
X50180387Y-72236806D01*
X50165993Y-72251199D01*
X50161775Y-72255154D01*
X50161777Y-72255156D01*
X50160284Y-72256557D01*
X50160281Y-72256561D01*
X50157651Y-72259031D01*
X50148164Y-72267943D01*
X50124243Y-72291975D01*
X50124231Y-72291989D01*
X50042206Y-72410171D01*
X50042200Y-72410181D01*
X50010942Y-72472656D01*
X50010940Y-72472660D01*
X50010938Y-72472665D01*
X50010935Y-72472673D01*
X50010935Y-72472674D01*
X49965526Y-72609185D01*
X49965525Y-72609188D01*
X49960414Y-72752976D01*
X49960414Y-72752978D01*
X49967874Y-72822261D01*
X49971049Y-72851746D01*
X49972016Y-72855398D01*
X49992617Y-72958960D01*
X49995000Y-72983151D01*
X49995000Y-73016839D01*
X49992616Y-73041035D01*
X49986043Y-73074073D01*
X49978988Y-73097329D01*
X49966097Y-73128451D01*
X49954692Y-73149809D01*
X49954384Y-73150269D01*
X49949377Y-73157912D01*
X49946971Y-73161656D01*
X49942233Y-73169178D01*
X49942233Y-73169179D01*
X49884812Y-73301098D01*
X49884810Y-73301101D01*
X49884810Y-73301104D01*
X49880841Y-73315574D01*
X49866324Y-73368488D01*
X49865420Y-73375201D01*
X49865360Y-73376176D01*
X49848396Y-73511245D01*
X49871412Y-73653263D01*
X49871413Y-73653266D01*
X49871414Y-73653272D01*
X49886512Y-73701490D01*
X49892292Y-73719947D01*
X49954385Y-73849728D01*
X49954643Y-73850114D01*
X49955224Y-73851201D01*
X49956571Y-73853566D01*
X49956507Y-73853602D01*
X49966096Y-73871544D01*
X49978989Y-73902671D01*
X49986045Y-73925929D01*
X49988579Y-73938666D01*
X49992045Y-73956092D01*
X49992617Y-73958964D01*
X49995000Y-73983158D01*
X49995000Y-74016839D01*
X49992617Y-74041030D01*
X49986174Y-74073421D01*
X49986044Y-74074074D01*
X49978988Y-74097332D01*
X49954984Y-74155282D01*
X49950555Y-74164811D01*
X49919036Y-74225727D01*
X49919034Y-74225731D01*
X49899402Y-74276963D01*
X49899398Y-74276974D01*
X49873401Y-74376971D01*
X49871075Y-74385917D01*
X49871075Y-74451210D01*
X49871076Y-74475499D01*
X49851392Y-74542538D01*
X49798589Y-74588294D01*
X49747076Y-74599500D01*
X46358793Y-74599500D01*
X46291754Y-74579815D01*
X46245999Y-74527011D01*
X46237753Y-74473080D01*
X46235390Y-74473123D01*
X46235231Y-74464255D01*
X46212215Y-74322232D01*
X46212214Y-74322230D01*
X46212214Y-74322227D01*
X46191335Y-74255550D01*
X46191334Y-74255547D01*
X46157082Y-74183959D01*
X46154395Y-74177932D01*
X46121008Y-74097329D01*
X46113955Y-74074080D01*
X46107381Y-74041030D01*
X46105000Y-74016844D01*
X46105000Y-73983153D01*
X46107382Y-73958964D01*
X46113956Y-73925914D01*
X46121005Y-73902677D01*
X46133900Y-73871544D01*
X46145318Y-73850212D01*
X46145304Y-73850203D01*
X46145409Y-73850042D01*
X46145427Y-73850008D01*
X46145608Y-73849738D01*
X46150520Y-73842244D01*
X46152914Y-73838520D01*
X46157766Y-73830821D01*
X46215188Y-73698896D01*
X46233672Y-73631515D01*
X46234040Y-73628591D01*
X46251601Y-73488764D01*
X46251601Y-73488762D01*
X46228587Y-73346739D01*
X46208967Y-73284080D01*
X46207708Y-73280058D01*
X46207707Y-73280056D01*
X46207705Y-73280052D01*
X46207679Y-73279988D01*
X46207461Y-73279542D01*
X46145610Y-73150265D01*
X46140713Y-73142937D01*
X46137047Y-73135433D01*
X46136773Y-73133828D01*
X46133899Y-73128451D01*
X46121006Y-73097323D01*
X46113954Y-73074073D01*
X46107381Y-73041030D01*
X46105000Y-73016844D01*
X46105000Y-72983151D01*
X46107382Y-72958964D01*
X46107383Y-72958960D01*
X46113954Y-72925921D01*
X46121003Y-72902681D01*
X46157624Y-72814273D01*
X46157623Y-72814272D01*
X46161207Y-72805621D01*
X46165104Y-72797134D01*
X46171401Y-72784683D01*
X46191603Y-72728878D01*
X46202233Y-72682756D01*
X46210554Y-72646652D01*
X46244791Y-72585746D01*
X46306522Y-72553018D01*
X46331386Y-72550500D01*
X47115686Y-72550500D01*
X47115694Y-72550500D01*
X47152569Y-72547598D01*
X47152571Y-72547597D01*
X47152573Y-72547597D01*
X47280522Y-72510424D01*
X47315117Y-72505500D01*
X47705990Y-72505500D01*
X47706000Y-72505500D01*
X47813456Y-72493947D01*
X47855308Y-72484842D01*
X47920669Y-72488301D01*
X48002292Y-72515349D01*
X48101655Y-72525500D01*
X48698344Y-72525499D01*
X48698352Y-72525498D01*
X48698355Y-72525498D01*
X48762299Y-72518966D01*
X48797708Y-72515349D01*
X48958697Y-72462003D01*
X49103044Y-72372968D01*
X49222968Y-72253044D01*
X49312003Y-72108697D01*
X49365349Y-71947708D01*
X49367479Y-71941281D01*
X49370302Y-71942216D01*
X49397258Y-71892327D01*
X49458431Y-71858570D01*
X49500778Y-71856585D01*
X49503300Y-71856902D01*
X49585645Y-71843559D01*
X49645323Y-71833889D01*
X49645324Y-71833888D01*
X49645328Y-71833888D01*
X49712006Y-71813010D01*
X49712012Y-71813008D01*
X49841802Y-71750910D01*
X49850112Y-71745357D01*
X49871544Y-71733900D01*
X49902674Y-71721006D01*
X49925918Y-71713955D01*
X49958970Y-71707381D01*
X49983154Y-71705000D01*
X50016842Y-71705000D01*
X50041027Y-71707381D01*
G37*
%TD.AperFunction*%
%TA.AperFunction,Conductor*%
G36*
X49955141Y-69213651D02*
G01*
X50011074Y-69255523D01*
X50035491Y-69320987D01*
X50031069Y-69360452D01*
X50031451Y-69360528D01*
X50030557Y-69365018D01*
X50030467Y-69365829D01*
X50030262Y-69366503D01*
X49999500Y-69521153D01*
X49999500Y-69624858D01*
X49995540Y-69638343D01*
X49996409Y-69652373D01*
X49985890Y-69671206D01*
X49979815Y-69691897D01*
X49968514Y-69702318D01*
X49962340Y-69713373D01*
X49943589Y-69725302D01*
X49933884Y-69734253D01*
X49926581Y-69738150D01*
X49921995Y-69739861D01*
X49862195Y-69772513D01*
X49861589Y-69772837D01*
X49861532Y-69772848D01*
X49861156Y-69773045D01*
X49860671Y-69773344D01*
X49745489Y-69859569D01*
X49745477Y-69859580D01*
X49476067Y-70128992D01*
X49457273Y-70144416D01*
X49453835Y-70146713D01*
X49432417Y-70158162D01*
X49428592Y-70159747D01*
X49405320Y-70166809D01*
X49401264Y-70167616D01*
X49377067Y-70170000D01*
X49301871Y-70170000D01*
X49248132Y-70172865D01*
X49248113Y-70172866D01*
X49221935Y-70175665D01*
X49168788Y-70184229D01*
X49033920Y-70234351D01*
X48986997Y-70259902D01*
X48927698Y-70275000D01*
X47879792Y-70275000D01*
X47829740Y-70264450D01*
X47820891Y-70260546D01*
X47799824Y-70247007D01*
X47737565Y-70223784D01*
X47734249Y-70222321D01*
X47734128Y-70222219D01*
X47732774Y-70221658D01*
X47707664Y-70210186D01*
X47707662Y-70210185D01*
X47707659Y-70210184D01*
X47705062Y-70209421D01*
X47705061Y-70209421D01*
X47681033Y-70202362D01*
X47681033Y-70202361D01*
X47676802Y-70201119D01*
X47665016Y-70196723D01*
X47652662Y-70194034D01*
X47648422Y-70192790D01*
X47640533Y-70190474D01*
X47498126Y-70170000D01*
X47416362Y-70170000D01*
X47349323Y-70150315D01*
X47328681Y-70133681D01*
X47295000Y-70100000D01*
X46661500Y-70100000D01*
X46594461Y-70080315D01*
X46548706Y-70027511D01*
X46537500Y-69976000D01*
X46537500Y-69724000D01*
X46557185Y-69656961D01*
X46609989Y-69611206D01*
X46661500Y-69600000D01*
X47706000Y-69600000D01*
X47773039Y-69619685D01*
X47818794Y-69672489D01*
X47830000Y-69724000D01*
X47830000Y-69775000D01*
X49374999Y-69775000D01*
X49374999Y-69751692D01*
X49374998Y-69751677D01*
X49368664Y-69689675D01*
X49372149Y-69670926D01*
X49370600Y-69651920D01*
X49378401Y-69637287D01*
X49381433Y-69620982D01*
X49394502Y-69607093D01*
X49403474Y-69590267D01*
X49422295Y-69577556D01*
X49429314Y-69570098D01*
X49431517Y-69568836D01*
X49442361Y-69562773D01*
X49446828Y-69561577D01*
X49516835Y-69521158D01*
X49583759Y-69482520D01*
X49695563Y-69370716D01*
X49695564Y-69370714D01*
X49824128Y-69242149D01*
X49885449Y-69208667D01*
X49955141Y-69213651D01*
G37*
%TD.AperFunction*%
%TD*%
M02*
