M48
; DRILL file {KiCad 9.0.4} date 2026-02-17T19:37:04-0500
; FORMAT={-:-/ absolute / metric / decimal}
; #@! TF.CreationDate,2026-02-17T19:37:04-05:00
; #@! TF.GenerationSoftware,Kicad,Pcbnew,9.0.4
; #@! TF.FileFunction,Plated,1,4,PTH
FMAT,2
METRIC
; #@! TA.AperFunction,Plated,PTH,ViaDrill
T1C0.300
; #@! TA.AperFunction,Plated,PTH,ComponentDrill
T2C0.600
; #@! TA.AperFunction,Plated,PTH,ComponentDrill
T3C1.000
%
G90
G05
T1
X40.2Y-44.8
X40.2Y-46.4
X40.8Y-45.6
X41.0Y-46.4
X41.2Y-44.8
X41.4Y-47.2
X41.6Y-45.6
X41.8Y-46.4
X42.0Y-44.8
X42.2Y-47.2
X42.4Y-45.6
X42.6Y-46.4
X42.8Y-44.8
X42.9Y-69.1
X42.9Y-69.8
X42.9Y-70.5
X42.9Y-71.3
X43.0Y-47.2
X43.2Y-45.6
X43.4Y-46.4
X43.5Y-50.3
X43.5Y-51.25
X43.5Y-52.2
X43.6Y-44.8
X43.8Y-47.2
X43.8Y-69.1
X43.8Y-69.8
X44.0Y-45.6
X44.2Y-46.4
X44.3Y-50.3
X44.3Y-51.25
X44.3Y-52.2
X44.4Y-44.8
X44.6Y-47.2
X44.8Y-45.6
X44.9Y-72.0
X44.9Y-73.3
X44.9Y-74.0
X45.0Y-46.4
X45.1Y-51.3
X45.2Y-44.8
X45.3Y-65.8
X45.4Y-47.2
X45.6Y-45.6
X45.6Y-63.7
X45.8Y-46.4
X45.9Y-57.4
X46.0Y-44.8
X46.0Y-54.0
X46.0Y-60.6
X46.4Y-73.0
X46.4Y-74.0
X47.5Y-73.0
X47.5Y-74.0
X47.639Y-67.697
X48.1Y-63.5
X48.6Y-73.0
X48.6Y-74.0
X48.8Y-68.0
X49.0Y-63.5
X49.4Y-64.6
X49.4Y-67.0
X49.506Y-59.824
X49.7Y-73.0
X49.7Y-74.0
X49.932Y-58.132
X50.0Y-55.0
X50.0Y-69.4
X50.0Y-72.0
X50.2Y-60.8
X50.4Y-56.6
X50.454Y-59.378
X50.596Y-62.804
X50.8Y-69.6
X51.0Y-54.1
X51.244Y-70.266
X51.4Y-61.8
X51.95Y-65.05
X51.95Y-71.6
X52.0Y-66.775
X52.25Y-50.922
X52.4Y-61.8
X52.648Y-71.148
X52.825Y-52.5
X52.95Y-58.05
X53.3Y-61.8
X53.397Y-71.43
X53.45Y-55.35
X54.025Y-66.85
X54.05Y-65.075
X54.05Y-78.7
X54.2Y-54.2
X54.2Y-61.8
X54.65Y-78.166
X54.742Y-79.842
X54.825Y-69.8
X55.35Y-79.3
X55.383Y-77.433
X55.45Y-68.95
X55.757Y-60.625
X55.95Y-51.65
X56.092Y-78.492
X56.2Y-76.3
X56.249Y-58.465
X56.75Y-51.65
X56.832Y-66.918
X56.875Y-63.225
X57.0Y-80.5
X57.2Y-61.55
X57.525Y-68.45
X57.6Y-51.65
X57.6Y-58.425
X57.6Y-62.575
X57.659Y-64.625
X57.671Y-66.985
X57.8Y-69.4
X57.843Y-66.144
X57.9Y-81.4
X58.0Y-80.6
X58.25Y-64.0
X58.664Y-65.938
X59.0Y-62.2
X59.022Y-67.65
X59.6Y-66.825
X59.7Y-71.9
X59.7Y-72.8
X60.0Y-47.6
X60.0Y-48.4
X60.4Y-66.825
X60.5Y-71.9
X60.5Y-72.8
X60.8Y-47.6
X60.8Y-48.4
X61.3Y-66.825
X61.3Y-71.9
X61.3Y-72.9
X61.4Y-50.8
X61.4Y-52.0
X61.6Y-47.6
X61.6Y-48.4
X62.4Y-47.6
X62.4Y-48.4
X63.386Y-66.423
X64.2Y-73.5
X64.3Y-79.9
X65.008Y-68.692
X66.6Y-66.8
X67.3Y-60.2
X67.4Y-62.8
X67.4Y-64.0
X67.4Y-66.8
X67.4Y-68.8
X67.5Y-65.3
X68.774Y-69.726
X69.1Y-59.5
X69.1Y-60.2
X69.1Y-60.9
X69.1Y-61.6
X69.1Y-62.3
X69.1Y-63.0
X69.35Y-74.05
T3
X40.64Y-50.22
X40.64Y-52.76
X40.64Y-55.3
X40.64Y-57.84
X40.64Y-60.38
X40.64Y-62.92
X40.64Y-65.46
X40.64Y-68.0
X40.64Y-70.54
X40.64Y-73.08
X40.64Y-75.62
X40.64Y-78.16
X40.64Y-80.7
X40.64Y-83.24
X71.12Y-50.34
X71.12Y-52.88
X71.12Y-55.42
X71.12Y-57.96
X71.12Y-60.5
X71.12Y-63.04
X71.12Y-65.58
X71.12Y-68.12
X71.12Y-70.66
X71.12Y-73.2
X71.12Y-75.74
X71.12Y-78.28
X71.12Y-80.82
X71.12Y-83.36
T2
G00X48.68Y-44.825
M15
G01X48.68Y-44.025
M16
G05
G00X48.68Y-49.175
M15
G01X48.68Y-48.075
M16
G05
G00X57.32Y-44.825
M15
G01X57.32Y-44.025
M16
G05
G00X57.32Y-49.175
M15
G01X57.32Y-48.075
M16
G05
M30
