%TF.GenerationSoftware,KiCad,Pcbnew,9.0.7-9.0.7~ubuntu25.10.1*%
%TF.CreationDate,2026-02-16T20:53:07-05:00*%
%TF.ProjectId,QFN_Practice,51464e5f-5072-4616-9374-6963652e6b69,rev?*%
%TF.SameCoordinates,Original*%
%TF.FileFunction,Copper,L2,Inr*%
%TF.FilePolarity,Positive*%
%FSLAX46Y46*%
G04 Gerber Fmt 4.6, Leading zero omitted, Abs format (unit mm)*
G04 Created by KiCad (PCBNEW 9.0.7-9.0.7~ubuntu25.10.1) date 2026-02-16 20:53:07*
%MOMM*%
%LPD*%
G01*
G04 APERTURE LIST*
%TA.AperFunction,ComponentPad*%
%ADD10R,1.700000X1.700000*%
%TD*%
%TA.AperFunction,ComponentPad*%
%ADD11C,1.700000*%
%TD*%
%TA.AperFunction,HeatsinkPad*%
%ADD12O,1.000000X2.100000*%
%TD*%
%TA.AperFunction,HeatsinkPad*%
%ADD13O,1.000000X1.800000*%
%TD*%
%TA.AperFunction,ViaPad*%
%ADD14C,0.600000*%
%TD*%
G04 APERTURE END LIST*
D10*
%TO.N,/P15*%
%TO.C,J3*%
X40640000Y-50220000D03*
D11*
%TO.N,/P16*%
X40640000Y-52760000D03*
%TO.N,/P9*%
X40640000Y-55300000D03*
%TO.N,/P8*%
X40640000Y-57840000D03*
%TO.N,/P7*%
X40640000Y-60380000D03*
%TO.N,/P6*%
X40640000Y-62920000D03*
%TO.N,/P1*%
X40640000Y-65460000D03*
%TO.N,/P14*%
X40640000Y-68000000D03*
%TO.N,/P23*%
X40640000Y-70540000D03*
%TO.N,/P22*%
X40640000Y-73080000D03*
%TO.N,/P25*%
X40640000Y-75620000D03*
%TO.N,/P26*%
X40640000Y-78160000D03*
%TO.N,/P27*%
X40640000Y-80700000D03*
%TO.N,/P28*%
X40640000Y-83240000D03*
%TD*%
D12*
%TO.N,GND*%
%TO.C,J1*%
X57320000Y-48625000D03*
D13*
X57320000Y-44425000D03*
D12*
X48680000Y-48625000D03*
D13*
X48680000Y-44425000D03*
%TD*%
D10*
%TO.N,+5V*%
%TO.C,J4*%
X71120000Y-50340000D03*
D11*
%TO.N,GND*%
X71120000Y-52880000D03*
X71120000Y-55420000D03*
%TO.N,/P2*%
X71120000Y-57960000D03*
%TO.N,unconnected-(J4-Pin_5-Pad5)*%
X71120000Y-60500000D03*
%TO.N,/P17*%
X71120000Y-63040000D03*
%TO.N,/SCL*%
X71120000Y-65580000D03*
%TO.N,/SDA*%
X71120000Y-68120000D03*
%TO.N,/P18*%
X71120000Y-70660000D03*
%TO.N,/TXD_MCU*%
X71120000Y-73200000D03*
%TO.N,/RXD_MCU*%
X71120000Y-75740000D03*
%TO.N,/P19*%
X71120000Y-78280000D03*
%TO.N,/P20*%
X71120000Y-80820000D03*
%TO.N,/P21*%
X71120000Y-83360000D03*
%TD*%
D14*
%TO.N,+5V*%
X57600000Y-51650000D03*
X56750000Y-51650000D03*
X55950000Y-51650000D03*
%TO.N,GND*%
X53450000Y-55350000D03*
X50454199Y-59377685D03*
X54025000Y-66850000D03*
X52000000Y-66775000D03*
X54050000Y-65075000D03*
X51950000Y-65050000D03*
X52950000Y-58050000D03*
X56200000Y-76300000D03*
X57900000Y-81400000D03*
X58000000Y-80600000D03*
X57000000Y-80500000D03*
X69100000Y-60900000D03*
X69100000Y-60200000D03*
X69100000Y-59500000D03*
X45600000Y-63700000D03*
X44900000Y-72000000D03*
X44900000Y-73300000D03*
X44900000Y-74000000D03*
X61300000Y-72900000D03*
X60500000Y-72800000D03*
X59700000Y-72800000D03*
X61300000Y-71900000D03*
X60500000Y-71900000D03*
X59700000Y-71900000D03*
X41400000Y-47200000D03*
X42200000Y-47200000D03*
X43000000Y-47200000D03*
X43800000Y-47200000D03*
X44600000Y-47200000D03*
X45400000Y-47200000D03*
X45800000Y-46400000D03*
X45000000Y-46400000D03*
X44200000Y-46400000D03*
X43400000Y-46400000D03*
X42600000Y-46400000D03*
X41800000Y-46400000D03*
X41000000Y-46400000D03*
X40200000Y-46400000D03*
X40800000Y-45600000D03*
X41600000Y-45600000D03*
X42400000Y-45600000D03*
X43200000Y-45600000D03*
X44000000Y-45600000D03*
X44800000Y-45600000D03*
X45600000Y-45600000D03*
X46000000Y-44800000D03*
X45200000Y-44800000D03*
X44400000Y-44800000D03*
X43600000Y-44800000D03*
X42800000Y-44800000D03*
X42000000Y-44800000D03*
X41200000Y-44800000D03*
X40200000Y-44800000D03*
X60000000Y-48400000D03*
X60800000Y-48400000D03*
X61600000Y-48400000D03*
X62400000Y-48400000D03*
X62400000Y-47600000D03*
X61600000Y-47600000D03*
X60800000Y-47600000D03*
X60000000Y-47600000D03*
%TO.N,/P17*%
X63386183Y-66423001D03*
X55450000Y-68950000D03*
%TO.N,/P18*%
X69350000Y-74050000D03*
X54825000Y-69800000D03*
%TO.N,/P19*%
X56091942Y-78491942D03*
X55383058Y-77433058D03*
%TO.N,/P20*%
X55350000Y-79300000D03*
X54649999Y-78166117D03*
%TO.N,/P21*%
X54741942Y-79841942D03*
X54050000Y-78700000D03*
%TO.N,/P2*%
X57200000Y-61550000D03*
X55757233Y-60625001D03*
%TO.N,/TXD_MCU*%
X59021577Y-67650000D03*
X65008058Y-68691942D03*
%TO.N,/P26*%
X52648289Y-71148290D03*
%TO.N,/P27*%
X53396889Y-71430429D03*
%TO.N,/P28*%
X57800000Y-69400000D03*
%TO.N,/P25*%
X51950000Y-71600000D03*
%TO.N,/P23*%
X51243761Y-70265642D03*
%TO.N,/P14*%
X50800000Y-69600000D03*
%TO.N,/P7*%
X47639067Y-67696560D03*
X49400000Y-67000000D03*
%TO.N,/P8*%
X49400000Y-64600000D03*
X48100000Y-63500000D03*
%TO.N,+3V3*%
X64300000Y-79900000D03*
X49700000Y-74000000D03*
X67500000Y-65300000D03*
X46400000Y-73000000D03*
X48600000Y-73000000D03*
X64200000Y-73500000D03*
X47500000Y-73000000D03*
X47500000Y-74000000D03*
X46400000Y-74000000D03*
X48800000Y-68000000D03*
X49700000Y-73000000D03*
X50000000Y-69400000D03*
X50000000Y-72000000D03*
X49000000Y-63500000D03*
X48600000Y-74000000D03*
%TO.N,GND*%
X67400000Y-64000000D03*
X67400000Y-62800000D03*
X67300000Y-60200000D03*
X46000000Y-54000000D03*
X46000000Y-60600000D03*
X51000000Y-54100000D03*
X45900000Y-57400000D03*
X45300000Y-65800000D03*
X54200000Y-54200000D03*
%TO.N,+5V*%
X43500000Y-50300000D03*
X43800000Y-69800000D03*
X42900000Y-69800000D03*
X42900000Y-69100000D03*
X44300000Y-50300000D03*
X44300000Y-52200000D03*
X43800000Y-69100000D03*
X44300000Y-51250000D03*
X45100000Y-51300000D03*
X43500000Y-52200000D03*
X43500000Y-51250000D03*
X42900000Y-71300000D03*
X42900000Y-70500000D03*
%TO.N,/3v3_CP*%
X50200000Y-60800000D03*
X61400000Y-50800000D03*
X50400000Y-56600000D03*
X61400000Y-52000000D03*
%TO.N,/P28*%
X57843005Y-66144495D03*
%TO.N,/P16*%
X49505630Y-59824373D03*
%TO.N,/P27*%
X54200000Y-61800000D03*
%TO.N,/P26*%
X53300000Y-61800000D03*
%TO.N,/P25*%
X52400000Y-61800000D03*
%TO.N,/P2*%
X50596135Y-62803865D03*
X57600000Y-58425000D03*
%TO.N,/SDA*%
X56875000Y-63225000D03*
X59600000Y-66825000D03*
%TO.N,/SCL*%
X60400000Y-66825000D03*
X67400000Y-66800000D03*
X57600121Y-62575092D03*
X67400000Y-68800000D03*
%TO.N,/RXD_MCU*%
X68774120Y-69725646D03*
X51400000Y-61800000D03*
X61300000Y-66825000D03*
X56249129Y-58465244D03*
X59000000Y-62200000D03*
X66599997Y-66800000D03*
%TO.N,/TXD_MCU*%
X58250000Y-64000094D03*
X57670751Y-66985067D03*
%TO.N,/VBUS_CP*%
X49932058Y-58132058D03*
X50000000Y-55000000D03*
%TO.N,/ISP*%
X57525000Y-68450000D03*
X56832248Y-66917752D03*
%TO.N,/SWCLK*%
X57658883Y-64625001D03*
X58664264Y-65937500D03*
%TO.N,/D+*%
X52825000Y-52500000D03*
X52250000Y-50922238D03*
%TO.N,GND*%
X69100000Y-61600000D03*
X69100000Y-62300000D03*
X69100000Y-63000000D03*
%TD*%
%TA.AperFunction,Conductor*%
%TO.N,GND*%
G36*
X47696322Y-43520185D02*
G01*
X47742077Y-43572989D01*
X47752021Y-43642147D01*
X47743844Y-43671952D01*
X47718430Y-43733306D01*
X47718427Y-43733318D01*
X47680000Y-43926504D01*
X47680000Y-44175000D01*
X48380000Y-44175000D01*
X48380000Y-44675000D01*
X47680000Y-44675000D01*
X47680000Y-44923495D01*
X47718427Y-45116681D01*
X47718430Y-45116693D01*
X47793807Y-45298671D01*
X47793814Y-45298684D01*
X47903248Y-45462462D01*
X47903251Y-45462466D01*
X48042533Y-45601748D01*
X48042537Y-45601751D01*
X48206315Y-45711185D01*
X48206328Y-45711192D01*
X48388308Y-45786569D01*
X48430000Y-45794862D01*
X48430000Y-44991988D01*
X48439940Y-45009205D01*
X48495795Y-45065060D01*
X48564204Y-45104556D01*
X48640504Y-45125000D01*
X48719496Y-45125000D01*
X48795796Y-45104556D01*
X48864205Y-45065060D01*
X48920060Y-45009205D01*
X48930000Y-44991988D01*
X48930000Y-45794862D01*
X48971690Y-45786569D01*
X48971692Y-45786569D01*
X49153671Y-45711192D01*
X49153684Y-45711185D01*
X49317462Y-45601751D01*
X49317466Y-45601748D01*
X49456748Y-45462466D01*
X49456751Y-45462462D01*
X49566185Y-45298684D01*
X49566192Y-45298671D01*
X49641569Y-45116693D01*
X49641572Y-45116681D01*
X49679999Y-44923495D01*
X49680000Y-44923492D01*
X49680000Y-44675000D01*
X48980000Y-44675000D01*
X48980000Y-44175000D01*
X49680000Y-44175000D01*
X49680000Y-43926508D01*
X49679999Y-43926504D01*
X49641572Y-43733318D01*
X49641569Y-43733306D01*
X49616156Y-43671952D01*
X49608687Y-43602483D01*
X49639963Y-43540004D01*
X49700052Y-43504352D01*
X49730717Y-43500500D01*
X56269283Y-43500500D01*
X56336322Y-43520185D01*
X56382077Y-43572989D01*
X56392021Y-43642147D01*
X56383844Y-43671952D01*
X56358430Y-43733306D01*
X56358427Y-43733318D01*
X56320000Y-43926504D01*
X56320000Y-44175000D01*
X57020000Y-44175000D01*
X57020000Y-44675000D01*
X56320000Y-44675000D01*
X56320000Y-44923495D01*
X56358427Y-45116681D01*
X56358430Y-45116693D01*
X56433807Y-45298671D01*
X56433814Y-45298684D01*
X56543248Y-45462462D01*
X56543251Y-45462466D01*
X56682533Y-45601748D01*
X56682537Y-45601751D01*
X56846315Y-45711185D01*
X56846328Y-45711192D01*
X57028308Y-45786569D01*
X57070000Y-45794862D01*
X57070000Y-44991988D01*
X57079940Y-45009205D01*
X57135795Y-45065060D01*
X57204204Y-45104556D01*
X57280504Y-45125000D01*
X57359496Y-45125000D01*
X57435796Y-45104556D01*
X57504205Y-45065060D01*
X57560060Y-45009205D01*
X57570000Y-44991988D01*
X57570000Y-45794862D01*
X57611690Y-45786569D01*
X57611692Y-45786569D01*
X57793671Y-45711192D01*
X57793684Y-45711185D01*
X57957462Y-45601751D01*
X57957466Y-45601748D01*
X58096748Y-45462466D01*
X58096751Y-45462462D01*
X58206185Y-45298684D01*
X58206192Y-45298671D01*
X58281569Y-45116693D01*
X58281572Y-45116681D01*
X58319999Y-44923495D01*
X58320000Y-44923492D01*
X58320000Y-44675000D01*
X57620000Y-44675000D01*
X57620000Y-44175000D01*
X58320000Y-44175000D01*
X58320000Y-43926508D01*
X58319999Y-43926504D01*
X58281572Y-43733318D01*
X58281569Y-43733306D01*
X58256156Y-43671952D01*
X58248687Y-43602483D01*
X58279963Y-43540004D01*
X58340052Y-43504352D01*
X58370717Y-43500500D01*
X72875500Y-43500500D01*
X72942539Y-43520185D01*
X72988294Y-43572989D01*
X72999500Y-43624500D01*
X72999500Y-84875500D01*
X72979815Y-84942539D01*
X72927011Y-84988294D01*
X72875500Y-84999500D01*
X38624500Y-84999500D01*
X38557461Y-84979815D01*
X38511706Y-84927011D01*
X38500500Y-84875500D01*
X38500500Y-49322135D01*
X39289500Y-49322135D01*
X39289500Y-51117870D01*
X39289501Y-51117876D01*
X39295908Y-51177483D01*
X39346202Y-51312328D01*
X39346206Y-51312335D01*
X39432452Y-51427544D01*
X39432455Y-51427547D01*
X39547664Y-51513793D01*
X39547671Y-51513797D01*
X39679082Y-51562810D01*
X39735016Y-51604681D01*
X39759433Y-51670145D01*
X39744582Y-51738418D01*
X39723431Y-51766673D01*
X39609889Y-51880215D01*
X39484951Y-52052179D01*
X39388444Y-52241585D01*
X39322753Y-52443760D01*
X39289500Y-52653713D01*
X39289500Y-52866286D01*
X39312307Y-53010288D01*
X39322754Y-53076243D01*
X39385624Y-53269737D01*
X39388444Y-53278414D01*
X39484951Y-53467820D01*
X39609890Y-53639786D01*
X39760213Y-53790109D01*
X39932182Y-53915050D01*
X39940946Y-53919516D01*
X39991742Y-53967491D01*
X40008536Y-54035312D01*
X39985998Y-54101447D01*
X39940946Y-54140484D01*
X39932182Y-54144949D01*
X39760213Y-54269890D01*
X39609890Y-54420213D01*
X39484951Y-54592179D01*
X39388444Y-54781585D01*
X39322753Y-54983760D01*
X39302285Y-55112993D01*
X39289500Y-55193713D01*
X39289500Y-55406287D01*
X39322754Y-55616243D01*
X39375802Y-55779508D01*
X39388444Y-55818414D01*
X39484951Y-56007820D01*
X39609890Y-56179786D01*
X39760213Y-56330109D01*
X39932182Y-56455050D01*
X39940946Y-56459516D01*
X39991742Y-56507491D01*
X40008536Y-56575312D01*
X39985998Y-56641447D01*
X39940946Y-56680484D01*
X39932182Y-56684949D01*
X39760213Y-56809890D01*
X39609890Y-56960213D01*
X39484951Y-57132179D01*
X39388444Y-57321585D01*
X39322753Y-57523760D01*
X39289500Y-57733713D01*
X39289500Y-57946286D01*
X39306435Y-58053213D01*
X39322754Y-58156243D01*
X39384461Y-58346158D01*
X39388444Y-58358414D01*
X39484951Y-58547820D01*
X39609890Y-58719786D01*
X39760213Y-58870109D01*
X39932182Y-58995050D01*
X39940946Y-58999516D01*
X39991742Y-59047491D01*
X40008536Y-59115312D01*
X39985998Y-59181447D01*
X39940946Y-59220484D01*
X39932182Y-59224949D01*
X39760213Y-59349890D01*
X39609890Y-59500213D01*
X39484951Y-59672179D01*
X39388444Y-59861585D01*
X39322753Y-60063760D01*
X39289500Y-60273713D01*
X39289500Y-60486286D01*
X39322190Y-60692687D01*
X39322754Y-60696243D01*
X39382084Y-60878842D01*
X39388444Y-60898414D01*
X39484951Y-61087820D01*
X39609890Y-61259786D01*
X39760213Y-61410109D01*
X39932182Y-61535050D01*
X39940946Y-61539516D01*
X39991742Y-61587491D01*
X40008536Y-61655312D01*
X39985998Y-61721447D01*
X39940946Y-61760484D01*
X39932182Y-61764949D01*
X39760213Y-61889890D01*
X39609890Y-62040213D01*
X39484951Y-62212179D01*
X39388444Y-62401585D01*
X39388443Y-62401587D01*
X39388443Y-62401588D01*
X39375557Y-62441246D01*
X39322753Y-62603760D01*
X39289500Y-62813713D01*
X39289500Y-63026286D01*
X39322753Y-63236239D01*
X39322753Y-63236241D01*
X39322754Y-63236243D01*
X39382835Y-63421153D01*
X39388444Y-63438414D01*
X39484951Y-63627820D01*
X39609890Y-63799786D01*
X39760213Y-63950109D01*
X39932182Y-64075050D01*
X39940946Y-64079516D01*
X39991742Y-64127491D01*
X40008536Y-64195312D01*
X39985998Y-64261447D01*
X39940946Y-64300484D01*
X39932182Y-64304949D01*
X39760213Y-64429890D01*
X39609890Y-64580213D01*
X39484951Y-64752179D01*
X39388444Y-64941585D01*
X39388443Y-64941587D01*
X39388443Y-64941588D01*
X39361194Y-65025451D01*
X39322753Y-65143760D01*
X39306435Y-65246790D01*
X39289500Y-65353713D01*
X39289500Y-65566287D01*
X39322754Y-65776243D01*
X39375297Y-65937954D01*
X39388444Y-65978414D01*
X39484951Y-66167820D01*
X39609890Y-66339786D01*
X39760213Y-66490109D01*
X39932182Y-66615050D01*
X39940946Y-66619516D01*
X39991742Y-66667491D01*
X40008536Y-66735312D01*
X39985998Y-66801447D01*
X39940946Y-66840484D01*
X39932182Y-66844949D01*
X39760213Y-66969890D01*
X39609890Y-67120213D01*
X39484951Y-67292179D01*
X39388444Y-67481585D01*
X39322753Y-67683760D01*
X39289500Y-67893713D01*
X39289500Y-68106286D01*
X39322203Y-68312769D01*
X39322754Y-68316243D01*
X39385803Y-68510288D01*
X39388444Y-68518414D01*
X39484951Y-68707820D01*
X39609890Y-68879786D01*
X39760213Y-69030109D01*
X39932182Y-69155050D01*
X39940946Y-69159516D01*
X39991742Y-69207491D01*
X40008536Y-69275312D01*
X39985998Y-69341447D01*
X39940946Y-69380484D01*
X39932182Y-69384949D01*
X39760213Y-69509890D01*
X39609890Y-69660213D01*
X39484951Y-69832179D01*
X39388444Y-70021585D01*
X39322753Y-70223760D01*
X39289500Y-70433713D01*
X39289500Y-70646286D01*
X39315214Y-70808642D01*
X39322754Y-70856243D01*
X39381960Y-71038460D01*
X39388444Y-71058414D01*
X39484951Y-71247820D01*
X39609890Y-71419786D01*
X39760213Y-71570109D01*
X39932182Y-71695050D01*
X39940946Y-71699516D01*
X39991742Y-71747491D01*
X40008536Y-71815312D01*
X39985998Y-71881447D01*
X39940946Y-71920484D01*
X39932182Y-71924949D01*
X39760213Y-72049890D01*
X39609890Y-72200213D01*
X39484951Y-72372179D01*
X39388444Y-72561585D01*
X39322753Y-72763760D01*
X39318501Y-72790609D01*
X39289500Y-72973713D01*
X39289500Y-73186287D01*
X39322754Y-73396243D01*
X39382084Y-73578842D01*
X39388444Y-73598414D01*
X39484951Y-73787820D01*
X39609890Y-73959786D01*
X39760213Y-74110109D01*
X39932182Y-74235050D01*
X39940946Y-74239516D01*
X39991742Y-74287491D01*
X40008536Y-74355312D01*
X39985998Y-74421447D01*
X39940946Y-74460484D01*
X39932182Y-74464949D01*
X39760213Y-74589890D01*
X39609890Y-74740213D01*
X39484951Y-74912179D01*
X39388444Y-75101585D01*
X39322753Y-75303760D01*
X39303748Y-75423757D01*
X39289500Y-75513713D01*
X39289500Y-75726287D01*
X39322754Y-75936243D01*
X39361743Y-76056239D01*
X39388444Y-76138414D01*
X39484951Y-76327820D01*
X39609890Y-76499786D01*
X39760213Y-76650109D01*
X39932182Y-76775050D01*
X39940946Y-76779516D01*
X39991742Y-76827491D01*
X40008536Y-76895312D01*
X39985998Y-76961447D01*
X39940946Y-77000484D01*
X39932182Y-77004949D01*
X39760213Y-77129890D01*
X39609890Y-77280213D01*
X39484951Y-77452179D01*
X39388444Y-77641585D01*
X39322753Y-77843760D01*
X39289500Y-78053713D01*
X39289500Y-78266286D01*
X39321210Y-78466498D01*
X39322754Y-78476243D01*
X39369838Y-78621153D01*
X39388444Y-78678414D01*
X39484951Y-78867820D01*
X39609890Y-79039786D01*
X39760213Y-79190109D01*
X39932182Y-79315050D01*
X39940946Y-79319516D01*
X39991742Y-79367491D01*
X40008536Y-79435312D01*
X39985998Y-79501447D01*
X39940946Y-79540484D01*
X39932182Y-79544949D01*
X39760213Y-79669890D01*
X39609890Y-79820213D01*
X39484951Y-79992179D01*
X39388444Y-80181585D01*
X39322753Y-80383760D01*
X39296212Y-80551336D01*
X39289500Y-80593713D01*
X39289500Y-80806287D01*
X39322754Y-81016243D01*
X39361743Y-81136239D01*
X39388444Y-81218414D01*
X39484951Y-81407820D01*
X39609890Y-81579786D01*
X39760213Y-81730109D01*
X39932182Y-81855050D01*
X39940946Y-81859516D01*
X39991742Y-81907491D01*
X40008536Y-81975312D01*
X39985998Y-82041447D01*
X39940946Y-82080484D01*
X39932182Y-82084949D01*
X39760213Y-82209890D01*
X39609890Y-82360213D01*
X39484951Y-82532179D01*
X39388444Y-82721585D01*
X39322753Y-82923760D01*
X39303748Y-83043757D01*
X39289500Y-83133713D01*
X39289500Y-83346287D01*
X39322754Y-83556243D01*
X39361743Y-83676239D01*
X39388444Y-83758414D01*
X39484951Y-83947820D01*
X39609890Y-84119786D01*
X39760213Y-84270109D01*
X39932179Y-84395048D01*
X39932181Y-84395049D01*
X39932184Y-84395051D01*
X40121588Y-84491557D01*
X40323757Y-84557246D01*
X40533713Y-84590500D01*
X40533714Y-84590500D01*
X40746286Y-84590500D01*
X40746287Y-84590500D01*
X40956243Y-84557246D01*
X41158412Y-84491557D01*
X41347816Y-84395051D01*
X41369789Y-84379086D01*
X41519786Y-84270109D01*
X41519788Y-84270106D01*
X41519792Y-84270104D01*
X41670104Y-84119792D01*
X41670106Y-84119788D01*
X41670109Y-84119786D01*
X41795048Y-83947820D01*
X41795047Y-83947820D01*
X41795051Y-83947816D01*
X41891557Y-83758412D01*
X41957246Y-83556243D01*
X41990500Y-83346287D01*
X41990500Y-83133713D01*
X41957246Y-82923757D01*
X41891557Y-82721588D01*
X41795051Y-82532184D01*
X41795049Y-82532181D01*
X41795048Y-82532179D01*
X41670109Y-82360213D01*
X41519786Y-82209890D01*
X41347820Y-82084951D01*
X41347115Y-82084591D01*
X41339054Y-82080485D01*
X41288259Y-82032512D01*
X41271463Y-81964692D01*
X41293999Y-81898556D01*
X41339054Y-81859515D01*
X41347816Y-81855051D01*
X41369789Y-81839086D01*
X41519786Y-81730109D01*
X41519788Y-81730106D01*
X41519792Y-81730104D01*
X41670104Y-81579792D01*
X41670106Y-81579788D01*
X41670109Y-81579786D01*
X41795048Y-81407820D01*
X41795047Y-81407820D01*
X41795051Y-81407816D01*
X41891557Y-81218412D01*
X41957246Y-81016243D01*
X41990500Y-80806287D01*
X41990500Y-80593713D01*
X41957246Y-80383757D01*
X41891557Y-80181588D01*
X41795051Y-79992184D01*
X41795049Y-79992181D01*
X41795048Y-79992179D01*
X41670109Y-79820213D01*
X41519786Y-79669890D01*
X41347820Y-79544951D01*
X41347115Y-79544591D01*
X41339054Y-79540485D01*
X41288259Y-79492512D01*
X41271463Y-79424692D01*
X41293999Y-79358556D01*
X41339054Y-79319515D01*
X41347816Y-79315051D01*
X41398524Y-79278210D01*
X41519786Y-79190109D01*
X41519788Y-79190106D01*
X41519792Y-79190104D01*
X41670104Y-79039792D01*
X41670106Y-79039788D01*
X41670109Y-79039786D01*
X41795048Y-78867820D01*
X41795047Y-78867820D01*
X41795051Y-78867816D01*
X41891557Y-78678412D01*
X41910162Y-78621153D01*
X53249500Y-78621153D01*
X53249500Y-78778846D01*
X53280261Y-78933489D01*
X53280264Y-78933501D01*
X53340602Y-79079172D01*
X53340609Y-79079185D01*
X53428210Y-79210288D01*
X53428213Y-79210292D01*
X53539707Y-79321786D01*
X53539711Y-79321789D01*
X53670814Y-79409390D01*
X53670827Y-79409397D01*
X53743542Y-79439516D01*
X53816503Y-79469737D01*
X53871203Y-79480617D01*
X53933111Y-79513001D01*
X53967686Y-79573716D01*
X53968627Y-79626425D01*
X53941442Y-79763095D01*
X53941442Y-79920788D01*
X53972203Y-80075431D01*
X53972206Y-80075443D01*
X54032544Y-80221114D01*
X54032551Y-80221127D01*
X54120152Y-80352230D01*
X54120155Y-80352234D01*
X54231649Y-80463728D01*
X54231653Y-80463731D01*
X54362756Y-80551332D01*
X54362769Y-80551339D01*
X54502919Y-80609390D01*
X54508445Y-80611679D01*
X54663095Y-80642441D01*
X54663098Y-80642442D01*
X54663100Y-80642442D01*
X54820786Y-80642442D01*
X54820787Y-80642441D01*
X54975439Y-80611679D01*
X55121121Y-80551336D01*
X55252231Y-80463731D01*
X55363731Y-80352231D01*
X55451336Y-80221121D01*
X55482441Y-80146025D01*
X55526280Y-80091624D01*
X55572811Y-80071862D01*
X55583497Y-80069737D01*
X55729179Y-80009394D01*
X55860289Y-79921789D01*
X55960925Y-79821153D01*
X63499500Y-79821153D01*
X63499500Y-79978846D01*
X63530261Y-80133489D01*
X63530264Y-80133501D01*
X63590602Y-80279172D01*
X63590609Y-80279185D01*
X63678210Y-80410288D01*
X63678213Y-80410292D01*
X63789707Y-80521786D01*
X63789711Y-80521789D01*
X63920814Y-80609390D01*
X63920827Y-80609397D01*
X64066498Y-80669735D01*
X64066503Y-80669737D01*
X64221153Y-80700499D01*
X64221156Y-80700500D01*
X64221158Y-80700500D01*
X64378844Y-80700500D01*
X64378845Y-80700499D01*
X64533497Y-80669737D01*
X64673660Y-80611680D01*
X64679172Y-80609397D01*
X64679172Y-80609396D01*
X64679179Y-80609394D01*
X64810289Y-80521789D01*
X64921789Y-80410289D01*
X65009394Y-80279179D01*
X65069737Y-80133497D01*
X65100500Y-79978842D01*
X65100500Y-79821158D01*
X65100500Y-79821155D01*
X65100499Y-79821153D01*
X65098338Y-79810288D01*
X65069737Y-79666503D01*
X65053136Y-79626425D01*
X65009397Y-79520827D01*
X65009390Y-79520814D01*
X64921789Y-79389711D01*
X64921786Y-79389707D01*
X64810292Y-79278213D01*
X64810288Y-79278210D01*
X64679185Y-79190609D01*
X64679172Y-79190602D01*
X64533501Y-79130264D01*
X64533489Y-79130261D01*
X64378845Y-79099500D01*
X64378842Y-79099500D01*
X64221158Y-79099500D01*
X64221155Y-79099500D01*
X64066510Y-79130261D01*
X64066498Y-79130264D01*
X63920827Y-79190602D01*
X63920814Y-79190609D01*
X63789711Y-79278210D01*
X63789707Y-79278213D01*
X63678213Y-79389707D01*
X63678210Y-79389711D01*
X63590609Y-79520814D01*
X63590602Y-79520827D01*
X63530264Y-79666498D01*
X63530261Y-79666510D01*
X63499500Y-79821153D01*
X55960925Y-79821153D01*
X55971789Y-79810289D01*
X56059394Y-79679179D01*
X56119737Y-79533497D01*
X56139319Y-79435051D01*
X56151395Y-79374345D01*
X56183780Y-79312434D01*
X56244496Y-79277860D01*
X56248759Y-79276931D01*
X56325439Y-79261679D01*
X56471121Y-79201336D01*
X56602231Y-79113731D01*
X56713731Y-79002231D01*
X56801336Y-78871121D01*
X56861679Y-78725439D01*
X56892442Y-78570784D01*
X56892442Y-78413100D01*
X56892442Y-78413097D01*
X56892441Y-78413095D01*
X56861679Y-78258445D01*
X56826582Y-78173713D01*
X56801339Y-78112769D01*
X56801332Y-78112756D01*
X56713731Y-77981653D01*
X56713728Y-77981649D01*
X56602234Y-77870155D01*
X56602230Y-77870152D01*
X56471127Y-77782551D01*
X56471114Y-77782544D01*
X56325443Y-77722206D01*
X56325433Y-77722203D01*
X56270334Y-77711243D01*
X56208423Y-77678857D01*
X56173849Y-77618141D01*
X56172909Y-77565435D01*
X56183558Y-77511900D01*
X56183558Y-77354216D01*
X56183558Y-77354213D01*
X56183557Y-77354211D01*
X56181600Y-77344375D01*
X56152795Y-77199561D01*
X56121890Y-77124949D01*
X56092455Y-77053885D01*
X56092448Y-77053872D01*
X56004847Y-76922769D01*
X56004844Y-76922765D01*
X55893350Y-76811271D01*
X55893346Y-76811268D01*
X55762243Y-76723667D01*
X55762230Y-76723660D01*
X55616559Y-76663322D01*
X55616547Y-76663319D01*
X55461903Y-76632558D01*
X55461900Y-76632558D01*
X55304216Y-76632558D01*
X55304213Y-76632558D01*
X55149568Y-76663319D01*
X55149556Y-76663322D01*
X55003885Y-76723660D01*
X55003872Y-76723667D01*
X54872769Y-76811268D01*
X54872765Y-76811271D01*
X54761271Y-76922765D01*
X54761268Y-76922769D01*
X54673667Y-77053872D01*
X54673660Y-77053885D01*
X54613322Y-77199556D01*
X54613319Y-77199566D01*
X54596830Y-77282464D01*
X54564445Y-77344375D01*
X54503729Y-77378949D01*
X54499405Y-77379889D01*
X54416507Y-77396378D01*
X54416497Y-77396381D01*
X54270826Y-77456719D01*
X54270813Y-77456726D01*
X54139710Y-77544327D01*
X54139706Y-77544330D01*
X54028212Y-77655824D01*
X54028209Y-77655828D01*
X53940608Y-77786931D01*
X53940600Y-77786946D01*
X53912412Y-77854997D01*
X53868571Y-77909400D01*
X53822049Y-77929159D01*
X53816511Y-77930260D01*
X53816498Y-77930264D01*
X53670827Y-77990602D01*
X53670814Y-77990609D01*
X53539711Y-78078210D01*
X53539707Y-78078213D01*
X53428213Y-78189707D01*
X53428210Y-78189711D01*
X53340609Y-78320814D01*
X53340602Y-78320827D01*
X53280264Y-78466498D01*
X53280261Y-78466510D01*
X53249500Y-78621153D01*
X41910162Y-78621153D01*
X41957246Y-78476243D01*
X41990500Y-78266287D01*
X41990500Y-78053713D01*
X41957246Y-77843757D01*
X41891557Y-77641588D01*
X41795051Y-77452184D01*
X41795049Y-77452181D01*
X41795048Y-77452179D01*
X41670109Y-77280213D01*
X41519786Y-77129890D01*
X41347820Y-77004951D01*
X41347115Y-77004591D01*
X41339054Y-77000485D01*
X41288259Y-76952512D01*
X41271463Y-76884692D01*
X41293999Y-76818556D01*
X41339054Y-76779515D01*
X41347816Y-76775051D01*
X41418550Y-76723660D01*
X41519786Y-76650109D01*
X41519788Y-76650106D01*
X41519792Y-76650104D01*
X41670104Y-76499792D01*
X41670106Y-76499788D01*
X41670109Y-76499786D01*
X41795048Y-76327820D01*
X41795047Y-76327820D01*
X41795051Y-76327816D01*
X41891557Y-76138412D01*
X41957246Y-75936243D01*
X41990500Y-75726287D01*
X41990500Y-75513713D01*
X41957246Y-75303757D01*
X41891557Y-75101588D01*
X41795051Y-74912184D01*
X41795049Y-74912181D01*
X41795048Y-74912179D01*
X41670109Y-74740213D01*
X41519786Y-74589890D01*
X41347820Y-74464951D01*
X41347115Y-74464591D01*
X41339054Y-74460485D01*
X41288259Y-74412512D01*
X41271463Y-74344692D01*
X41293999Y-74278556D01*
X41339054Y-74239515D01*
X41347816Y-74235051D01*
X41383136Y-74209390D01*
X41519786Y-74110109D01*
X41519788Y-74110106D01*
X41519792Y-74110104D01*
X41670104Y-73959792D01*
X41670106Y-73959788D01*
X41670109Y-73959786D01*
X41795048Y-73787820D01*
X41795047Y-73787820D01*
X41795051Y-73787816D01*
X41891557Y-73598412D01*
X41957246Y-73396243D01*
X41990500Y-73186287D01*
X41990500Y-72973713D01*
X41982175Y-72921153D01*
X45599500Y-72921153D01*
X45599500Y-73078846D01*
X45630261Y-73233489D01*
X45630264Y-73233501D01*
X45690602Y-73379172D01*
X45690609Y-73379185D01*
X45725304Y-73431109D01*
X45746182Y-73497786D01*
X45727698Y-73565167D01*
X45725304Y-73568891D01*
X45690609Y-73620814D01*
X45690602Y-73620827D01*
X45630264Y-73766498D01*
X45630261Y-73766510D01*
X45599500Y-73921153D01*
X45599500Y-74078846D01*
X45630261Y-74233489D01*
X45630264Y-74233501D01*
X45690602Y-74379172D01*
X45690609Y-74379185D01*
X45778210Y-74510288D01*
X45778213Y-74510292D01*
X45889707Y-74621786D01*
X45889711Y-74621789D01*
X46020814Y-74709390D01*
X46020827Y-74709397D01*
X46166498Y-74769735D01*
X46166503Y-74769737D01*
X46321153Y-74800499D01*
X46321156Y-74800500D01*
X46321158Y-74800500D01*
X46478844Y-74800500D01*
X46478845Y-74800499D01*
X46633497Y-74769737D01*
X46779179Y-74709394D01*
X46881111Y-74641284D01*
X46947786Y-74620408D01*
X47015166Y-74638892D01*
X47018847Y-74641257D01*
X47120821Y-74709394D01*
X47120823Y-74709395D01*
X47120827Y-74709397D01*
X47266498Y-74769735D01*
X47266503Y-74769737D01*
X47421153Y-74800499D01*
X47421156Y-74800500D01*
X47421158Y-74800500D01*
X47578844Y-74800500D01*
X47578845Y-74800499D01*
X47733497Y-74769737D01*
X47879179Y-74709394D01*
X47981111Y-74641284D01*
X48047786Y-74620408D01*
X48115166Y-74638892D01*
X48118847Y-74641257D01*
X48220821Y-74709394D01*
X48220823Y-74709395D01*
X48220827Y-74709397D01*
X48366498Y-74769735D01*
X48366503Y-74769737D01*
X48521153Y-74800499D01*
X48521156Y-74800500D01*
X48521158Y-74800500D01*
X48678844Y-74800500D01*
X48678845Y-74800499D01*
X48833497Y-74769737D01*
X48979179Y-74709394D01*
X49081111Y-74641284D01*
X49147786Y-74620408D01*
X49215166Y-74638892D01*
X49218847Y-74641257D01*
X49320821Y-74709394D01*
X49320823Y-74709395D01*
X49320827Y-74709397D01*
X49466498Y-74769735D01*
X49466503Y-74769737D01*
X49621153Y-74800499D01*
X49621156Y-74800500D01*
X49621158Y-74800500D01*
X49778844Y-74800500D01*
X49778845Y-74800499D01*
X49933497Y-74769737D01*
X50079179Y-74709394D01*
X50210289Y-74621789D01*
X50321789Y-74510289D01*
X50409394Y-74379179D01*
X50469737Y-74233497D01*
X50500500Y-74078842D01*
X50500500Y-73921158D01*
X50500500Y-73921155D01*
X50500499Y-73921153D01*
X50497846Y-73907816D01*
X50469737Y-73766503D01*
X50430102Y-73670814D01*
X50409396Y-73620825D01*
X50409394Y-73620822D01*
X50409394Y-73620821D01*
X50374694Y-73568889D01*
X50369603Y-73552632D01*
X50359954Y-73538590D01*
X50359379Y-73519981D01*
X50353816Y-73502215D01*
X50358311Y-73485400D01*
X50357797Y-73468754D01*
X50370072Y-73441406D01*
X50371461Y-73436212D01*
X50373003Y-73433640D01*
X50381347Y-73421153D01*
X63399500Y-73421153D01*
X63399500Y-73578846D01*
X63430261Y-73733489D01*
X63430264Y-73733501D01*
X63490602Y-73879172D01*
X63490609Y-73879185D01*
X63578210Y-74010288D01*
X63578213Y-74010292D01*
X63689707Y-74121786D01*
X63689711Y-74121789D01*
X63820814Y-74209390D01*
X63820827Y-74209397D01*
X63958420Y-74266389D01*
X63966503Y-74269737D01*
X64121153Y-74300499D01*
X64121156Y-74300500D01*
X64121158Y-74300500D01*
X64278844Y-74300500D01*
X64278845Y-74300499D01*
X64433497Y-74269737D01*
X64579179Y-74209394D01*
X64710289Y-74121789D01*
X64821789Y-74010289D01*
X64847938Y-73971153D01*
X68549500Y-73971153D01*
X68549500Y-74128846D01*
X68580261Y-74283489D01*
X68580264Y-74283501D01*
X68640602Y-74429172D01*
X68640609Y-74429185D01*
X68728210Y-74560288D01*
X68728213Y-74560292D01*
X68839707Y-74671786D01*
X68839711Y-74671789D01*
X68970814Y-74759390D01*
X68970827Y-74759397D01*
X69070060Y-74800500D01*
X69116503Y-74819737D01*
X69271153Y-74850499D01*
X69271156Y-74850500D01*
X69271158Y-74850500D01*
X69428844Y-74850500D01*
X69428845Y-74850499D01*
X69583497Y-74819737D01*
X69729179Y-74759394D01*
X69860289Y-74671789D01*
X69971789Y-74560289D01*
X70059394Y-74429179D01*
X70104412Y-74320493D01*
X70118461Y-74303060D01*
X70128571Y-74283073D01*
X70139962Y-74276378D01*
X70148251Y-74266093D01*
X70169500Y-74259020D01*
X70188809Y-74247673D01*
X70202009Y-74248199D01*
X70214545Y-74244027D01*
X70236245Y-74249565D01*
X70258623Y-74250458D01*
X70277050Y-74259979D01*
X70282244Y-74261305D01*
X70290118Y-74266389D01*
X70291022Y-74267022D01*
X70412184Y-74355051D01*
X70428680Y-74363456D01*
X70435796Y-74368441D01*
X70452402Y-74389225D01*
X70471742Y-74407491D01*
X70473873Y-74416098D01*
X70479409Y-74423027D01*
X70482142Y-74449491D01*
X70488536Y-74475312D01*
X70485675Y-74483704D01*
X70486587Y-74492527D01*
X70474578Y-74516267D01*
X70465998Y-74541447D01*
X70458601Y-74547856D01*
X70455051Y-74554875D01*
X70440910Y-74563184D01*
X70420946Y-74580484D01*
X70412182Y-74584949D01*
X70240213Y-74709890D01*
X70089890Y-74860213D01*
X69964951Y-75032179D01*
X69868444Y-75221585D01*
X69802753Y-75423760D01*
X69788506Y-75513713D01*
X69769500Y-75633713D01*
X69769500Y-75846287D01*
X69802754Y-76056243D01*
X69829452Y-76138412D01*
X69868444Y-76258414D01*
X69964951Y-76447820D01*
X70089890Y-76619786D01*
X70240213Y-76770109D01*
X70412182Y-76895050D01*
X70420946Y-76899516D01*
X70471742Y-76947491D01*
X70488536Y-77015312D01*
X70465998Y-77081447D01*
X70420946Y-77120484D01*
X70412182Y-77124949D01*
X70240213Y-77249890D01*
X70089890Y-77400213D01*
X69964951Y-77572179D01*
X69868444Y-77761585D01*
X69802753Y-77963760D01*
X69769500Y-78173713D01*
X69769500Y-78386286D01*
X69798721Y-78570784D01*
X69802754Y-78596243D01*
X69862084Y-78778842D01*
X69868444Y-78798414D01*
X69964951Y-78987820D01*
X70089890Y-79159786D01*
X70240213Y-79310109D01*
X70412182Y-79435050D01*
X70420946Y-79439516D01*
X70471742Y-79487491D01*
X70488536Y-79555312D01*
X70465998Y-79621447D01*
X70420946Y-79660484D01*
X70412182Y-79664949D01*
X70240213Y-79789890D01*
X70089890Y-79940213D01*
X69964951Y-80112179D01*
X69868444Y-80301585D01*
X69802753Y-80503760D01*
X69780788Y-80642441D01*
X69769500Y-80713713D01*
X69769500Y-80926287D01*
X69802754Y-81136243D01*
X69829452Y-81218412D01*
X69868444Y-81338414D01*
X69964951Y-81527820D01*
X70089890Y-81699786D01*
X70240213Y-81850109D01*
X70412182Y-81975050D01*
X70420946Y-81979516D01*
X70471742Y-82027491D01*
X70488536Y-82095312D01*
X70465998Y-82161447D01*
X70420946Y-82200484D01*
X70412182Y-82204949D01*
X70240213Y-82329890D01*
X70089890Y-82480213D01*
X69964951Y-82652179D01*
X69868444Y-82841585D01*
X69802753Y-83043760D01*
X69788506Y-83133713D01*
X69769500Y-83253713D01*
X69769500Y-83466287D01*
X69802754Y-83676243D01*
X69829452Y-83758412D01*
X69868444Y-83878414D01*
X69964951Y-84067820D01*
X70089890Y-84239786D01*
X70240213Y-84390109D01*
X70412179Y-84515048D01*
X70412181Y-84515049D01*
X70412184Y-84515051D01*
X70601588Y-84611557D01*
X70803757Y-84677246D01*
X71013713Y-84710500D01*
X71013714Y-84710500D01*
X71226286Y-84710500D01*
X71226287Y-84710500D01*
X71436243Y-84677246D01*
X71638412Y-84611557D01*
X71827816Y-84515051D01*
X71860156Y-84491555D01*
X71999786Y-84390109D01*
X71999788Y-84390106D01*
X71999792Y-84390104D01*
X72150104Y-84239792D01*
X72150106Y-84239788D01*
X72150109Y-84239786D01*
X72275048Y-84067820D01*
X72275047Y-84067820D01*
X72275051Y-84067816D01*
X72371557Y-83878412D01*
X72437246Y-83676243D01*
X72470500Y-83466287D01*
X72470500Y-83253713D01*
X72437246Y-83043757D01*
X72371557Y-82841588D01*
X72275051Y-82652184D01*
X72275049Y-82652181D01*
X72275048Y-82652179D01*
X72150109Y-82480213D01*
X71999786Y-82329890D01*
X71827820Y-82204951D01*
X71827115Y-82204591D01*
X71819054Y-82200485D01*
X71768259Y-82152512D01*
X71751463Y-82084692D01*
X71773999Y-82018556D01*
X71819054Y-81979515D01*
X71827816Y-81975051D01*
X71920805Y-81907491D01*
X71999786Y-81850109D01*
X71999788Y-81850106D01*
X71999792Y-81850104D01*
X72150104Y-81699792D01*
X72150106Y-81699788D01*
X72150109Y-81699786D01*
X72275048Y-81527820D01*
X72275047Y-81527820D01*
X72275051Y-81527816D01*
X72371557Y-81338412D01*
X72437246Y-81136243D01*
X72470500Y-80926287D01*
X72470500Y-80713713D01*
X72437246Y-80503757D01*
X72371557Y-80301588D01*
X72275051Y-80112184D01*
X72275049Y-80112181D01*
X72275048Y-80112179D01*
X72150109Y-79940213D01*
X71999786Y-79789890D01*
X71827820Y-79664951D01*
X71827115Y-79664591D01*
X71819054Y-79660485D01*
X71768259Y-79612512D01*
X71751463Y-79544692D01*
X71773999Y-79478556D01*
X71819054Y-79439515D01*
X71827816Y-79435051D01*
X71905182Y-79378842D01*
X71999786Y-79310109D01*
X71999788Y-79310106D01*
X71999792Y-79310104D01*
X72150104Y-79159792D01*
X72150106Y-79159788D01*
X72150109Y-79159786D01*
X72275048Y-78987820D01*
X72275047Y-78987820D01*
X72275051Y-78987816D01*
X72371557Y-78798412D01*
X72437246Y-78596243D01*
X72470500Y-78386287D01*
X72470500Y-78173713D01*
X72437246Y-77963757D01*
X72371557Y-77761588D01*
X72275051Y-77572184D01*
X72275049Y-77572181D01*
X72275048Y-77572179D01*
X72150109Y-77400213D01*
X71999786Y-77249890D01*
X71827820Y-77124951D01*
X71827115Y-77124591D01*
X71819054Y-77120485D01*
X71768259Y-77072512D01*
X71751463Y-77004692D01*
X71773999Y-76938556D01*
X71819054Y-76899515D01*
X71827816Y-76895051D01*
X71920805Y-76827491D01*
X71999786Y-76770109D01*
X71999788Y-76770106D01*
X71999792Y-76770104D01*
X72150104Y-76619792D01*
X72150106Y-76619788D01*
X72150109Y-76619786D01*
X72275048Y-76447820D01*
X72275047Y-76447820D01*
X72275051Y-76447816D01*
X72371557Y-76258412D01*
X72437246Y-76056243D01*
X72470500Y-75846287D01*
X72470500Y-75633713D01*
X72437246Y-75423757D01*
X72371557Y-75221588D01*
X72275051Y-75032184D01*
X72275049Y-75032181D01*
X72275048Y-75032179D01*
X72150109Y-74860213D01*
X71999786Y-74709890D01*
X71827820Y-74584951D01*
X71822181Y-74582078D01*
X71819054Y-74580485D01*
X71768259Y-74532512D01*
X71751463Y-74464692D01*
X71773999Y-74398556D01*
X71819054Y-74359515D01*
X71827816Y-74355051D01*
X71926297Y-74283501D01*
X71999786Y-74230109D01*
X71999788Y-74230106D01*
X71999792Y-74230104D01*
X72150104Y-74079792D01*
X72150106Y-74079788D01*
X72150109Y-74079786D01*
X72275048Y-73907820D01*
X72275047Y-73907820D01*
X72275051Y-73907816D01*
X72371557Y-73718412D01*
X72437246Y-73516243D01*
X72470500Y-73306287D01*
X72470500Y-73093713D01*
X72437246Y-72883757D01*
X72371557Y-72681588D01*
X72275051Y-72492184D01*
X72275049Y-72492181D01*
X72275048Y-72492179D01*
X72150109Y-72320213D01*
X71999786Y-72169890D01*
X71827820Y-72044951D01*
X71827115Y-72044591D01*
X71819054Y-72040485D01*
X71768259Y-71992512D01*
X71751463Y-71924692D01*
X71773999Y-71858556D01*
X71819054Y-71819515D01*
X71827816Y-71815051D01*
X71860153Y-71791557D01*
X71999786Y-71690109D01*
X71999788Y-71690106D01*
X71999792Y-71690104D01*
X72150104Y-71539792D01*
X72150106Y-71539788D01*
X72150109Y-71539786D01*
X72275048Y-71367820D01*
X72275047Y-71367820D01*
X72275051Y-71367816D01*
X72371557Y-71178412D01*
X72437246Y-70976243D01*
X72470500Y-70766287D01*
X72470500Y-70553713D01*
X72437246Y-70343757D01*
X72371557Y-70141588D01*
X72275051Y-69952184D01*
X72275049Y-69952181D01*
X72275048Y-69952179D01*
X72150109Y-69780213D01*
X71999786Y-69629890D01*
X71827820Y-69504951D01*
X71827115Y-69504591D01*
X71819054Y-69500485D01*
X71768259Y-69452512D01*
X71751463Y-69384692D01*
X71773999Y-69318556D01*
X71819054Y-69279515D01*
X71827816Y-69275051D01*
X71860153Y-69251557D01*
X71999786Y-69150109D01*
X71999788Y-69150106D01*
X71999792Y-69150104D01*
X72150104Y-68999792D01*
X72150106Y-68999788D01*
X72150109Y-68999786D01*
X72266996Y-68838903D01*
X72275051Y-68827816D01*
X72371557Y-68638412D01*
X72437246Y-68436243D01*
X72470500Y-68226287D01*
X72470500Y-68013713D01*
X72437246Y-67803757D01*
X72371557Y-67601588D01*
X72275051Y-67412184D01*
X72275049Y-67412181D01*
X72275048Y-67412179D01*
X72150109Y-67240213D01*
X71999786Y-67089890D01*
X71827820Y-66964951D01*
X71827115Y-66964591D01*
X71819054Y-66960485D01*
X71768259Y-66912512D01*
X71751463Y-66844692D01*
X71773999Y-66778556D01*
X71819054Y-66739515D01*
X71827816Y-66735051D01*
X71920805Y-66667491D01*
X71999786Y-66610109D01*
X71999788Y-66610106D01*
X71999792Y-66610104D01*
X72150104Y-66459792D01*
X72150106Y-66459788D01*
X72150109Y-66459786D01*
X72275048Y-66287820D01*
X72275047Y-66287820D01*
X72275051Y-66287816D01*
X72371557Y-66098412D01*
X72437246Y-65896243D01*
X72470500Y-65686287D01*
X72470500Y-65473713D01*
X72437246Y-65263757D01*
X72371557Y-65061588D01*
X72275051Y-64872184D01*
X72275049Y-64872181D01*
X72275048Y-64872179D01*
X72150109Y-64700213D01*
X71999786Y-64549890D01*
X71827820Y-64424951D01*
X71827115Y-64424591D01*
X71819054Y-64420485D01*
X71768259Y-64372512D01*
X71751463Y-64304692D01*
X71773999Y-64238556D01*
X71819054Y-64199515D01*
X71827816Y-64195051D01*
X71920805Y-64127491D01*
X71999786Y-64070109D01*
X71999788Y-64070106D01*
X71999792Y-64070104D01*
X72150104Y-63919792D01*
X72150106Y-63919788D01*
X72150109Y-63919786D01*
X72275048Y-63747820D01*
X72275047Y-63747820D01*
X72275051Y-63747816D01*
X72371557Y-63558412D01*
X72437246Y-63356243D01*
X72470500Y-63146287D01*
X72470500Y-62933713D01*
X72437246Y-62723757D01*
X72371557Y-62521588D01*
X72275051Y-62332184D01*
X72275049Y-62332181D01*
X72275048Y-62332179D01*
X72150109Y-62160213D01*
X71999786Y-62009890D01*
X71827820Y-61884951D01*
X71827115Y-61884591D01*
X71819054Y-61880485D01*
X71768259Y-61832512D01*
X71751463Y-61764692D01*
X71773999Y-61698556D01*
X71819054Y-61659515D01*
X71827816Y-61655051D01*
X71920805Y-61587491D01*
X71999786Y-61530109D01*
X71999788Y-61530106D01*
X71999792Y-61530104D01*
X72150104Y-61379792D01*
X72150106Y-61379788D01*
X72150109Y-61379786D01*
X72275048Y-61207820D01*
X72275047Y-61207820D01*
X72275051Y-61207816D01*
X72371557Y-61018412D01*
X72437246Y-60816243D01*
X72470500Y-60606287D01*
X72470500Y-60393713D01*
X72437246Y-60183757D01*
X72371557Y-59981588D01*
X72275051Y-59792184D01*
X72275049Y-59792181D01*
X72275048Y-59792179D01*
X72150109Y-59620213D01*
X71999786Y-59469890D01*
X71827820Y-59344951D01*
X71827115Y-59344591D01*
X71819054Y-59340485D01*
X71768259Y-59292512D01*
X71751463Y-59224692D01*
X71773999Y-59158556D01*
X71819054Y-59119515D01*
X71827816Y-59115051D01*
X71866384Y-59087030D01*
X71999786Y-58990109D01*
X71999788Y-58990106D01*
X71999792Y-58990104D01*
X72150104Y-58839792D01*
X72150106Y-58839788D01*
X72150109Y-58839786D01*
X72275048Y-58667820D01*
X72275047Y-58667820D01*
X72275051Y-58667816D01*
X72371557Y-58478412D01*
X72437246Y-58276243D01*
X72470500Y-58066287D01*
X72470500Y-57853713D01*
X72437246Y-57643757D01*
X72371557Y-57441588D01*
X72275051Y-57252184D01*
X72275049Y-57252181D01*
X72275048Y-57252179D01*
X72150109Y-57080213D01*
X71999786Y-56929890D01*
X71827817Y-56804949D01*
X71818504Y-56800204D01*
X71767707Y-56752230D01*
X71750912Y-56684409D01*
X71773449Y-56618274D01*
X71818507Y-56579232D01*
X71827555Y-56574622D01*
X71881716Y-56535270D01*
X71881717Y-56535270D01*
X71249408Y-55902962D01*
X71312993Y-55885925D01*
X71427007Y-55820099D01*
X71520099Y-55727007D01*
X71585925Y-55612993D01*
X71602962Y-55549408D01*
X72235270Y-56181717D01*
X72235270Y-56181716D01*
X72274622Y-56127554D01*
X72371095Y-55938217D01*
X72436757Y-55736130D01*
X72436757Y-55736127D01*
X72470000Y-55526246D01*
X72470000Y-55313753D01*
X72436757Y-55103872D01*
X72436757Y-55103869D01*
X72371095Y-54901782D01*
X72274624Y-54712449D01*
X72235270Y-54658282D01*
X72235269Y-54658282D01*
X71602962Y-55290590D01*
X71585925Y-55227007D01*
X71520099Y-55112993D01*
X71427007Y-55019901D01*
X71312993Y-54954075D01*
X71249409Y-54937037D01*
X71881716Y-54304728D01*
X71827550Y-54265375D01*
X71817954Y-54260486D01*
X71767157Y-54212512D01*
X71750361Y-54144692D01*
X71772897Y-54078556D01*
X71817954Y-54039514D01*
X71827554Y-54034622D01*
X71881716Y-53995270D01*
X71881717Y-53995270D01*
X71249408Y-53362962D01*
X71312993Y-53345925D01*
X71427007Y-53280099D01*
X71520099Y-53187007D01*
X71585925Y-53072993D01*
X71602962Y-53009408D01*
X72235270Y-53641717D01*
X72235270Y-53641716D01*
X72274622Y-53587554D01*
X72371095Y-53398217D01*
X72436757Y-53196130D01*
X72436757Y-53196127D01*
X72470000Y-52986246D01*
X72470000Y-52773753D01*
X72436757Y-52563872D01*
X72436757Y-52563869D01*
X72371095Y-52361782D01*
X72274624Y-52172449D01*
X72235270Y-52118282D01*
X72235269Y-52118282D01*
X71602962Y-52750590D01*
X71585925Y-52687007D01*
X71520099Y-52572993D01*
X71427007Y-52479901D01*
X71312993Y-52414075D01*
X71249409Y-52397037D01*
X71919627Y-51726818D01*
X71980950Y-51693333D01*
X72007307Y-51690499D01*
X72017872Y-51690499D01*
X72077483Y-51684091D01*
X72212331Y-51633796D01*
X72327546Y-51547546D01*
X72413796Y-51432331D01*
X72464091Y-51297483D01*
X72470500Y-51237873D01*
X72470499Y-49442128D01*
X72464091Y-49382517D01*
X72455396Y-49359205D01*
X72413797Y-49247671D01*
X72413793Y-49247664D01*
X72327547Y-49132455D01*
X72327544Y-49132452D01*
X72212335Y-49046206D01*
X72212328Y-49046202D01*
X72077482Y-48995908D01*
X72077483Y-48995908D01*
X72017883Y-48989501D01*
X72017881Y-48989500D01*
X72017873Y-48989500D01*
X72017864Y-48989500D01*
X70222129Y-48989500D01*
X70222123Y-48989501D01*
X70162516Y-48995908D01*
X70027671Y-49046202D01*
X70027664Y-49046206D01*
X69912455Y-49132452D01*
X69912452Y-49132455D01*
X69826206Y-49247664D01*
X69826202Y-49247671D01*
X69775908Y-49382517D01*
X69772410Y-49415060D01*
X69769501Y-49442123D01*
X69769500Y-49442135D01*
X69769500Y-51237870D01*
X69769501Y-51237876D01*
X69775908Y-51297483D01*
X69826202Y-51432328D01*
X69826206Y-51432335D01*
X69912452Y-51547544D01*
X69912455Y-51547547D01*
X70027664Y-51633793D01*
X70027671Y-51633797D01*
X70032661Y-51635658D01*
X70162517Y-51684091D01*
X70222127Y-51690500D01*
X70232685Y-51690499D01*
X70299723Y-51710179D01*
X70320372Y-51726818D01*
X70990591Y-52397037D01*
X70927007Y-52414075D01*
X70812993Y-52479901D01*
X70719901Y-52572993D01*
X70654075Y-52687007D01*
X70637037Y-52750591D01*
X70004728Y-52118282D01*
X70004727Y-52118282D01*
X69965380Y-52172439D01*
X69868904Y-52361782D01*
X69803242Y-52563869D01*
X69803242Y-52563872D01*
X69770000Y-52773753D01*
X69770000Y-52986246D01*
X69803242Y-53196127D01*
X69803242Y-53196130D01*
X69868904Y-53398217D01*
X69965375Y-53587550D01*
X70004728Y-53641716D01*
X70637037Y-53009408D01*
X70654075Y-53072993D01*
X70719901Y-53187007D01*
X70812993Y-53280099D01*
X70927007Y-53345925D01*
X70990590Y-53362962D01*
X70358282Y-53995269D01*
X70358282Y-53995270D01*
X70412452Y-54034626D01*
X70422048Y-54039516D01*
X70472844Y-54087491D01*
X70489638Y-54155312D01*
X70467100Y-54221447D01*
X70422051Y-54260483D01*
X70412440Y-54265380D01*
X70358282Y-54304727D01*
X70358282Y-54304728D01*
X70990591Y-54937037D01*
X70927007Y-54954075D01*
X70812993Y-55019901D01*
X70719901Y-55112993D01*
X70654075Y-55227007D01*
X70637037Y-55290591D01*
X70004728Y-54658282D01*
X70004727Y-54658282D01*
X69965380Y-54712439D01*
X69868904Y-54901782D01*
X69803242Y-55103869D01*
X69803242Y-55103872D01*
X69770000Y-55313753D01*
X69770000Y-55526246D01*
X69803242Y-55736127D01*
X69803242Y-55736130D01*
X69868904Y-55938217D01*
X69965375Y-56127550D01*
X70004728Y-56181716D01*
X70637037Y-55549408D01*
X70654075Y-55612993D01*
X70719901Y-55727007D01*
X70812993Y-55820099D01*
X70927007Y-55885925D01*
X70990590Y-55902962D01*
X70358282Y-56535269D01*
X70358282Y-56535270D01*
X70412452Y-56574626D01*
X70412451Y-56574626D01*
X70421495Y-56579234D01*
X70472292Y-56627208D01*
X70489087Y-56695029D01*
X70466550Y-56761164D01*
X70421499Y-56800202D01*
X70412182Y-56804949D01*
X70240213Y-56929890D01*
X70089890Y-57080213D01*
X69964951Y-57252179D01*
X69868444Y-57441585D01*
X69802753Y-57643760D01*
X69777499Y-57803210D01*
X69769500Y-57853713D01*
X69769500Y-58066287D01*
X69772633Y-58086065D01*
X69795707Y-58231754D01*
X69802754Y-58276243D01*
X69838545Y-58386397D01*
X69868444Y-58478414D01*
X69964951Y-58667820D01*
X70089890Y-58839786D01*
X70240213Y-58990109D01*
X70412182Y-59115050D01*
X70420946Y-59119516D01*
X70471742Y-59167491D01*
X70488536Y-59235312D01*
X70465998Y-59301447D01*
X70420946Y-59340484D01*
X70412182Y-59344949D01*
X70240213Y-59469890D01*
X70089890Y-59620213D01*
X69964951Y-59792179D01*
X69868444Y-59981585D01*
X69802753Y-60183760D01*
X69769500Y-60393713D01*
X69769500Y-60606286D01*
X69783184Y-60692687D01*
X69802754Y-60816243D01*
X69863816Y-61004173D01*
X69868444Y-61018414D01*
X69964951Y-61207820D01*
X70089890Y-61379786D01*
X70240213Y-61530109D01*
X70412182Y-61655050D01*
X70420946Y-61659516D01*
X70471742Y-61707491D01*
X70488536Y-61775312D01*
X70465998Y-61841447D01*
X70420946Y-61880484D01*
X70412182Y-61884949D01*
X70240213Y-62009890D01*
X70089890Y-62160213D01*
X69964951Y-62332179D01*
X69868444Y-62521585D01*
X69802753Y-62723760D01*
X69769500Y-62933713D01*
X69769500Y-63146286D01*
X69796087Y-63314154D01*
X69802754Y-63356243D01*
X69835978Y-63458497D01*
X69868444Y-63558414D01*
X69964951Y-63747820D01*
X70089890Y-63919786D01*
X70240213Y-64070109D01*
X70412182Y-64195050D01*
X70420946Y-64199516D01*
X70471742Y-64247491D01*
X70488536Y-64315312D01*
X70465998Y-64381447D01*
X70420946Y-64420484D01*
X70412182Y-64424949D01*
X70240213Y-64549890D01*
X70089890Y-64700213D01*
X69964951Y-64872179D01*
X69868444Y-65061585D01*
X69802753Y-65263760D01*
X69769500Y-65473713D01*
X69769500Y-65686287D01*
X69773827Y-65713607D01*
X69796800Y-65858655D01*
X69802754Y-65896243D01*
X69865905Y-66090602D01*
X69868444Y-66098414D01*
X69964951Y-66287820D01*
X70089890Y-66459786D01*
X70240213Y-66610109D01*
X70412182Y-66735050D01*
X70420946Y-66739516D01*
X70471742Y-66787491D01*
X70488536Y-66855312D01*
X70465998Y-66921447D01*
X70420946Y-66960484D01*
X70412182Y-66964949D01*
X70240213Y-67089890D01*
X70089890Y-67240213D01*
X69964951Y-67412179D01*
X69868444Y-67601585D01*
X69868443Y-67601587D01*
X69868443Y-67601588D01*
X69860140Y-67627142D01*
X69802753Y-67803760D01*
X69782751Y-67930049D01*
X69769500Y-68013713D01*
X69769500Y-68226287D01*
X69776706Y-68271786D01*
X69800139Y-68419737D01*
X69802754Y-68436243D01*
X69865795Y-68630263D01*
X69868444Y-68638414D01*
X69964951Y-68827820D01*
X70089890Y-68999786D01*
X70240213Y-69150109D01*
X70412182Y-69275050D01*
X70420946Y-69279516D01*
X70471742Y-69327491D01*
X70488536Y-69395312D01*
X70465998Y-69461447D01*
X70420946Y-69500484D01*
X70412182Y-69504949D01*
X70240213Y-69629890D01*
X70089890Y-69780213D01*
X69964951Y-69952179D01*
X69868444Y-70141585D01*
X69802753Y-70343760D01*
X69778738Y-70495384D01*
X69769500Y-70553713D01*
X69769500Y-70766287D01*
X69775908Y-70806744D01*
X69802562Y-70975036D01*
X69802754Y-70976243D01*
X69832081Y-71066503D01*
X69868444Y-71178414D01*
X69964951Y-71367820D01*
X70089890Y-71539786D01*
X70240213Y-71690109D01*
X70412182Y-71815050D01*
X70420946Y-71819516D01*
X70471742Y-71867491D01*
X70488536Y-71935312D01*
X70465998Y-72001447D01*
X70420946Y-72040484D01*
X70412182Y-72044949D01*
X70240213Y-72169890D01*
X70089890Y-72320213D01*
X69964951Y-72492179D01*
X69868444Y-72681585D01*
X69802753Y-72883760D01*
X69769500Y-73093713D01*
X69769500Y-73171728D01*
X69749815Y-73238767D01*
X69697011Y-73284522D01*
X69627853Y-73294466D01*
X69598052Y-73286291D01*
X69583500Y-73280264D01*
X69583498Y-73280263D01*
X69583497Y-73280263D01*
X69583494Y-73280262D01*
X69583489Y-73280261D01*
X69428845Y-73249500D01*
X69428842Y-73249500D01*
X69271158Y-73249500D01*
X69271155Y-73249500D01*
X69116510Y-73280261D01*
X69116498Y-73280264D01*
X68970827Y-73340602D01*
X68970814Y-73340609D01*
X68839711Y-73428210D01*
X68839707Y-73428213D01*
X68728213Y-73539707D01*
X68728210Y-73539711D01*
X68640609Y-73670814D01*
X68640602Y-73670827D01*
X68580264Y-73816498D01*
X68580261Y-73816510D01*
X68549500Y-73971153D01*
X64847938Y-73971153D01*
X64870537Y-73937331D01*
X64898038Y-73896175D01*
X64898038Y-73896174D01*
X64909394Y-73879179D01*
X64969737Y-73733497D01*
X65000500Y-73578842D01*
X65000500Y-73421158D01*
X65000500Y-73421155D01*
X65000499Y-73421153D01*
X64988163Y-73359138D01*
X64969737Y-73266503D01*
X64962694Y-73249500D01*
X64909397Y-73120827D01*
X64909390Y-73120814D01*
X64821789Y-72989711D01*
X64821786Y-72989707D01*
X64710292Y-72878213D01*
X64710288Y-72878210D01*
X64579185Y-72790609D01*
X64579172Y-72790602D01*
X64433501Y-72730264D01*
X64433489Y-72730261D01*
X64278845Y-72699500D01*
X64278842Y-72699500D01*
X64121158Y-72699500D01*
X64121155Y-72699500D01*
X63966510Y-72730261D01*
X63966498Y-72730264D01*
X63820827Y-72790602D01*
X63820814Y-72790609D01*
X63689711Y-72878210D01*
X63689707Y-72878213D01*
X63578213Y-72989707D01*
X63578210Y-72989711D01*
X63490609Y-73120814D01*
X63490602Y-73120827D01*
X63430264Y-73266498D01*
X63430261Y-73266510D01*
X63399500Y-73421153D01*
X50381347Y-73421153D01*
X50409394Y-73379179D01*
X50469737Y-73233497D01*
X50500500Y-73078842D01*
X50500500Y-72921158D01*
X50500500Y-72921155D01*
X50500499Y-72921153D01*
X50474531Y-72790606D01*
X50469737Y-72766503D01*
X50469732Y-72766492D01*
X50467969Y-72760676D01*
X50469612Y-72760177D01*
X50463009Y-72698856D01*
X50494273Y-72636371D01*
X50506387Y-72624991D01*
X50510284Y-72621792D01*
X50510289Y-72621789D01*
X50621789Y-72510289D01*
X50709394Y-72379179D01*
X50712294Y-72372179D01*
X50723067Y-72346166D01*
X50769737Y-72233497D01*
X50800500Y-72078842D01*
X50800500Y-71921158D01*
X50800500Y-71921155D01*
X50800499Y-71921153D01*
X50789825Y-71867491D01*
X50769737Y-71766503D01*
X50758161Y-71738556D01*
X50709397Y-71620827D01*
X50709390Y-71620814D01*
X50621789Y-71489711D01*
X50621786Y-71489707D01*
X50510292Y-71378213D01*
X50510288Y-71378210D01*
X50379185Y-71290609D01*
X50379172Y-71290602D01*
X50233501Y-71230264D01*
X50233489Y-71230261D01*
X50078845Y-71199500D01*
X50078842Y-71199500D01*
X49921158Y-71199500D01*
X49921155Y-71199500D01*
X49766510Y-71230261D01*
X49766498Y-71230264D01*
X49620827Y-71290602D01*
X49620814Y-71290609D01*
X49489711Y-71378210D01*
X49489707Y-71378213D01*
X49378213Y-71489707D01*
X49378210Y-71489711D01*
X49290609Y-71620814D01*
X49290602Y-71620827D01*
X49230264Y-71766498D01*
X49230261Y-71766510D01*
X49199500Y-71921153D01*
X49199500Y-71921158D01*
X49199500Y-72078842D01*
X49199500Y-72078844D01*
X49199499Y-72078844D01*
X49223447Y-72199232D01*
X49217220Y-72268824D01*
X49174357Y-72324001D01*
X49108467Y-72347246D01*
X49040470Y-72331178D01*
X49032940Y-72326527D01*
X48979183Y-72290608D01*
X48979172Y-72290602D01*
X48833501Y-72230264D01*
X48833489Y-72230261D01*
X48678845Y-72199500D01*
X48678842Y-72199500D01*
X48521158Y-72199500D01*
X48521155Y-72199500D01*
X48366510Y-72230261D01*
X48366498Y-72230264D01*
X48220827Y-72290602D01*
X48220814Y-72290609D01*
X48118891Y-72358713D01*
X48052213Y-72379591D01*
X47984833Y-72361107D01*
X47981109Y-72358713D01*
X47879185Y-72290609D01*
X47879172Y-72290602D01*
X47733501Y-72230264D01*
X47733489Y-72230261D01*
X47578845Y-72199500D01*
X47578842Y-72199500D01*
X47421158Y-72199500D01*
X47421155Y-72199500D01*
X47266510Y-72230261D01*
X47266498Y-72230264D01*
X47120827Y-72290602D01*
X47120814Y-72290609D01*
X47018891Y-72358713D01*
X46952213Y-72379591D01*
X46884833Y-72361107D01*
X46881109Y-72358713D01*
X46779185Y-72290609D01*
X46779172Y-72290602D01*
X46633501Y-72230264D01*
X46633489Y-72230261D01*
X46478845Y-72199500D01*
X46478842Y-72199500D01*
X46321158Y-72199500D01*
X46321155Y-72199500D01*
X46166510Y-72230261D01*
X46166498Y-72230264D01*
X46020827Y-72290602D01*
X46020814Y-72290609D01*
X45889711Y-72378210D01*
X45889707Y-72378213D01*
X45778213Y-72489707D01*
X45778210Y-72489711D01*
X45690609Y-72620814D01*
X45690602Y-72620827D01*
X45630264Y-72766498D01*
X45630261Y-72766510D01*
X45599500Y-72921153D01*
X41982175Y-72921153D01*
X41957246Y-72763757D01*
X41891557Y-72561588D01*
X41795051Y-72372184D01*
X41795049Y-72372181D01*
X41795048Y-72372179D01*
X41670109Y-72200213D01*
X41519786Y-72049890D01*
X41347820Y-71924951D01*
X41341608Y-71921786D01*
X41339054Y-71920485D01*
X41288259Y-71872512D01*
X41271463Y-71804692D01*
X41293999Y-71738556D01*
X41339054Y-71699515D01*
X41347816Y-71695051D01*
X41390667Y-71663918D01*
X41519786Y-71570109D01*
X41519788Y-71570106D01*
X41519792Y-71570104D01*
X41670104Y-71419792D01*
X41670106Y-71419788D01*
X41670109Y-71419786D01*
X41795050Y-71247817D01*
X41803407Y-71231417D01*
X41878766Y-71083514D01*
X41926740Y-71032718D01*
X41994561Y-71015923D01*
X42060696Y-71038460D01*
X42104148Y-71093175D01*
X42111121Y-71162696D01*
X42110869Y-71163999D01*
X42099500Y-71221158D01*
X42099500Y-71378846D01*
X42130261Y-71533489D01*
X42130264Y-71533501D01*
X42190602Y-71679172D01*
X42190609Y-71679185D01*
X42278210Y-71810288D01*
X42278213Y-71810292D01*
X42389707Y-71921786D01*
X42389711Y-71921789D01*
X42520814Y-72009390D01*
X42520827Y-72009397D01*
X42624208Y-72052218D01*
X42666503Y-72069737D01*
X42821153Y-72100499D01*
X42821156Y-72100500D01*
X42821158Y-72100500D01*
X42978844Y-72100500D01*
X42978845Y-72100499D01*
X43133497Y-72069737D01*
X43279179Y-72009394D01*
X43410289Y-71921789D01*
X43521789Y-71810289D01*
X43609394Y-71679179D01*
X43669737Y-71533497D01*
X43700500Y-71378842D01*
X43700500Y-71221158D01*
X43700500Y-71221155D01*
X43700499Y-71221153D01*
X43696192Y-71199500D01*
X43669737Y-71066503D01*
X43669735Y-71066498D01*
X43620425Y-70947451D01*
X43617452Y-70919800D01*
X43611201Y-70892700D01*
X43613474Y-70882803D01*
X43612956Y-70877982D01*
X43618272Y-70858121D01*
X43619279Y-70855313D01*
X43669737Y-70733497D01*
X43678133Y-70691286D01*
X43681242Y-70682622D01*
X43696624Y-70661528D01*
X43708724Y-70638398D01*
X43716879Y-70633753D01*
X43722410Y-70626170D01*
X43746755Y-70616741D01*
X43769439Y-70603824D01*
X43784700Y-70602045D01*
X43787564Y-70600936D01*
X43789979Y-70601429D01*
X43797956Y-70600500D01*
X43878844Y-70600500D01*
X43878845Y-70600499D01*
X44033497Y-70569737D01*
X44179179Y-70509394D01*
X44310289Y-70421789D01*
X44421789Y-70310289D01*
X44509394Y-70179179D01*
X44569737Y-70033497D01*
X44600500Y-69878842D01*
X44600500Y-69721158D01*
X44600500Y-69721155D01*
X44600499Y-69721153D01*
X44582347Y-69629896D01*
X44569737Y-69566503D01*
X44541134Y-69497450D01*
X44533666Y-69427984D01*
X44541133Y-69402552D01*
X44569737Y-69333497D01*
X44572192Y-69321153D01*
X49199500Y-69321153D01*
X49199500Y-69478846D01*
X49230261Y-69633489D01*
X49230264Y-69633501D01*
X49290602Y-69779172D01*
X49290609Y-69779185D01*
X49378210Y-69910288D01*
X49378213Y-69910292D01*
X49489707Y-70021786D01*
X49489711Y-70021789D01*
X49620814Y-70109390D01*
X49620827Y-70109397D01*
X49766498Y-70169735D01*
X49766503Y-70169737D01*
X49921153Y-70200499D01*
X49921156Y-70200500D01*
X49921158Y-70200500D01*
X50078843Y-70200500D01*
X50112334Y-70193837D01*
X50171962Y-70181977D01*
X50241552Y-70188204D01*
X50267600Y-70202246D01*
X50276304Y-70208382D01*
X50289711Y-70221789D01*
X50397237Y-70293636D01*
X50398500Y-70294526D01*
X50419305Y-70320725D01*
X50440749Y-70346384D01*
X50441443Y-70348603D01*
X50441951Y-70349242D01*
X50442095Y-70350685D01*
X50448670Y-70371682D01*
X50474022Y-70499133D01*
X50474025Y-70499143D01*
X50534363Y-70644814D01*
X50534370Y-70644827D01*
X50621971Y-70775930D01*
X50621974Y-70775934D01*
X50733468Y-70887428D01*
X50733472Y-70887431D01*
X50864575Y-70975032D01*
X50864588Y-70975039D01*
X51003840Y-71032718D01*
X51010264Y-71035379D01*
X51145846Y-71062348D01*
X51207757Y-71094732D01*
X51242331Y-71155448D01*
X51238592Y-71225218D01*
X51236216Y-71231417D01*
X51180264Y-71366498D01*
X51180261Y-71366510D01*
X51149500Y-71521153D01*
X51149500Y-71678846D01*
X51180261Y-71833489D01*
X51180264Y-71833501D01*
X51240602Y-71979172D01*
X51240609Y-71979185D01*
X51328210Y-72110288D01*
X51328213Y-72110292D01*
X51439707Y-72221786D01*
X51439711Y-72221789D01*
X51570814Y-72309390D01*
X51570827Y-72309397D01*
X51695668Y-72361107D01*
X51716503Y-72369737D01*
X51871153Y-72400499D01*
X51871156Y-72400500D01*
X51871158Y-72400500D01*
X52028844Y-72400500D01*
X52028845Y-72400499D01*
X52183497Y-72369737D01*
X52303059Y-72320213D01*
X52329172Y-72309397D01*
X52329172Y-72309396D01*
X52329179Y-72309394D01*
X52460289Y-72221789D01*
X52571789Y-72110289D01*
X52637202Y-72012390D01*
X52690812Y-71967588D01*
X52760137Y-71958880D01*
X52823165Y-71989034D01*
X52827965Y-71993583D01*
X52874866Y-72040484D01*
X52886601Y-72052219D01*
X53017703Y-72139819D01*
X53017716Y-72139826D01*
X53161137Y-72199232D01*
X53163392Y-72200166D01*
X53314689Y-72230261D01*
X53318042Y-72230928D01*
X53318045Y-72230929D01*
X53318047Y-72230929D01*
X53475733Y-72230929D01*
X53475734Y-72230928D01*
X53630386Y-72200166D01*
X53776068Y-72139823D01*
X53907178Y-72052218D01*
X54018678Y-71940718D01*
X54106283Y-71809608D01*
X54166626Y-71663926D01*
X54197389Y-71509271D01*
X54197389Y-71351587D01*
X54197389Y-71351584D01*
X54197388Y-71351582D01*
X54166626Y-71196932D01*
X54122214Y-71089711D01*
X54106286Y-71051256D01*
X54106279Y-71051243D01*
X54018678Y-70920140D01*
X54018675Y-70920136D01*
X53907181Y-70808642D01*
X53907177Y-70808639D01*
X53776074Y-70721038D01*
X53776061Y-70721031D01*
X53630390Y-70660693D01*
X53630378Y-70660690D01*
X53475734Y-70629929D01*
X53475731Y-70629929D01*
X53318047Y-70629929D01*
X53313368Y-70629929D01*
X53246329Y-70610244D01*
X53225691Y-70593614D01*
X53158578Y-70526501D01*
X53158577Y-70526500D01*
X53158576Y-70526499D01*
X53027474Y-70438899D01*
X53027461Y-70438892D01*
X52881790Y-70378554D01*
X52881778Y-70378551D01*
X52727134Y-70347790D01*
X52727131Y-70347790D01*
X52569447Y-70347790D01*
X52569444Y-70347790D01*
X52414799Y-70378551D01*
X52414787Y-70378554D01*
X52269116Y-70438892D01*
X52269107Y-70438897D01*
X52236457Y-70460713D01*
X52169779Y-70481589D01*
X52102399Y-70463103D01*
X52055710Y-70411123D01*
X52045067Y-70350576D01*
X52044261Y-70350576D01*
X52044261Y-70345989D01*
X52044166Y-70345449D01*
X52044261Y-70344484D01*
X52044261Y-70186797D01*
X52044260Y-70186795D01*
X52040867Y-70169737D01*
X52013498Y-70032145D01*
X52011765Y-70027961D01*
X51953158Y-69886469D01*
X51953151Y-69886456D01*
X51884663Y-69783957D01*
X51865550Y-69755353D01*
X51865547Y-69755349D01*
X51831351Y-69721153D01*
X54024500Y-69721153D01*
X54024500Y-69878846D01*
X54055261Y-70033489D01*
X54055264Y-70033501D01*
X54115602Y-70179172D01*
X54115609Y-70179185D01*
X54203210Y-70310288D01*
X54203213Y-70310292D01*
X54314707Y-70421786D01*
X54314711Y-70421789D01*
X54445814Y-70509390D01*
X54445827Y-70509397D01*
X54552817Y-70553713D01*
X54591503Y-70569737D01*
X54711520Y-70593610D01*
X54746153Y-70600499D01*
X54746156Y-70600500D01*
X54746158Y-70600500D01*
X54903844Y-70600500D01*
X54903845Y-70600499D01*
X55058497Y-70569737D01*
X55204179Y-70509394D01*
X55335289Y-70421789D01*
X55446789Y-70310289D01*
X55534394Y-70179179D01*
X55594737Y-70033497D01*
X55625500Y-69878842D01*
X55625500Y-69826613D01*
X55645185Y-69759574D01*
X55697989Y-69713819D01*
X55701975Y-69712083D01*
X55829179Y-69659394D01*
X55960289Y-69571789D01*
X56071789Y-69460289D01*
X56159394Y-69329179D01*
X56162719Y-69321153D01*
X56181816Y-69275048D01*
X56219737Y-69183497D01*
X56250500Y-69028842D01*
X56250500Y-68871158D01*
X56250500Y-68871155D01*
X56250499Y-68871153D01*
X56241879Y-68827816D01*
X56219737Y-68716503D01*
X56216791Y-68709390D01*
X56159397Y-68570827D01*
X56159390Y-68570814D01*
X56071789Y-68439711D01*
X56071786Y-68439707D01*
X55960292Y-68328213D01*
X55960288Y-68328210D01*
X55829185Y-68240609D01*
X55829172Y-68240602D01*
X55683501Y-68180264D01*
X55683489Y-68180261D01*
X55528845Y-68149500D01*
X55528842Y-68149500D01*
X55371158Y-68149500D01*
X55371155Y-68149500D01*
X55216510Y-68180261D01*
X55216498Y-68180264D01*
X55070827Y-68240602D01*
X55070814Y-68240609D01*
X54939711Y-68328210D01*
X54939707Y-68328213D01*
X54828213Y-68439707D01*
X54828210Y-68439711D01*
X54740609Y-68570814D01*
X54740602Y-68570827D01*
X54680264Y-68716498D01*
X54680261Y-68716510D01*
X54649500Y-68871153D01*
X54649500Y-68923385D01*
X54629815Y-68990424D01*
X54577011Y-69036179D01*
X54572953Y-69037946D01*
X54445823Y-69090604D01*
X54445814Y-69090609D01*
X54314711Y-69178210D01*
X54314707Y-69178213D01*
X54203213Y-69289707D01*
X54203210Y-69289711D01*
X54115609Y-69420814D01*
X54115602Y-69420827D01*
X54055264Y-69566498D01*
X54055261Y-69566510D01*
X54024500Y-69721153D01*
X51831351Y-69721153D01*
X51754053Y-69643855D01*
X51754049Y-69643852D01*
X51647816Y-69572869D01*
X51603011Y-69519257D01*
X51595090Y-69493958D01*
X51576907Y-69402549D01*
X51569737Y-69366503D01*
X51555658Y-69332512D01*
X51509397Y-69220827D01*
X51509390Y-69220814D01*
X51421789Y-69089711D01*
X51421786Y-69089707D01*
X51310292Y-68978213D01*
X51310288Y-68978210D01*
X51179185Y-68890609D01*
X51179172Y-68890602D01*
X51033501Y-68830264D01*
X51033489Y-68830261D01*
X50878845Y-68799500D01*
X50878842Y-68799500D01*
X50721158Y-68799500D01*
X50721153Y-68799500D01*
X50628037Y-68818022D01*
X50558445Y-68811795D01*
X50516165Y-68784086D01*
X50510292Y-68778213D01*
X50510288Y-68778210D01*
X50379185Y-68690609D01*
X50379172Y-68690602D01*
X50233501Y-68630264D01*
X50233489Y-68630261D01*
X50078845Y-68599500D01*
X50078842Y-68599500D01*
X49921158Y-68599500D01*
X49921155Y-68599500D01*
X49766510Y-68630261D01*
X49766498Y-68630264D01*
X49620827Y-68690602D01*
X49620809Y-68690612D01*
X49530842Y-68750725D01*
X49530826Y-68750738D01*
X49489711Y-68778211D01*
X49429038Y-68838883D01*
X49429016Y-68838903D01*
X49378214Y-68889706D01*
X49378210Y-68889711D01*
X49290609Y-69020814D01*
X49290602Y-69020827D01*
X49230264Y-69166498D01*
X49230261Y-69166510D01*
X49199500Y-69321153D01*
X44572192Y-69321153D01*
X44600500Y-69178842D01*
X44600500Y-69021158D01*
X44600500Y-69021155D01*
X44600499Y-69021153D01*
X44581460Y-68925439D01*
X44569737Y-68866503D01*
X44555231Y-68831482D01*
X44509397Y-68720827D01*
X44509390Y-68720814D01*
X44421789Y-68589711D01*
X44421786Y-68589707D01*
X44310292Y-68478213D01*
X44310288Y-68478210D01*
X44179185Y-68390609D01*
X44179172Y-68390602D01*
X44033501Y-68330264D01*
X44033489Y-68330261D01*
X43878845Y-68299500D01*
X43878842Y-68299500D01*
X43721158Y-68299500D01*
X43721155Y-68299500D01*
X43566510Y-68330261D01*
X43566498Y-68330264D01*
X43420822Y-68390604D01*
X43420820Y-68390605D01*
X43418885Y-68391899D01*
X43417717Y-68392264D01*
X43415451Y-68393476D01*
X43415221Y-68393045D01*
X43352206Y-68412773D01*
X43284827Y-68394285D01*
X43281115Y-68391899D01*
X43279179Y-68390605D01*
X43279177Y-68390604D01*
X43133501Y-68330264D01*
X43133489Y-68330261D01*
X42978845Y-68299500D01*
X42978842Y-68299500D01*
X42821158Y-68299500D01*
X42821155Y-68299500D01*
X42666510Y-68330261D01*
X42666498Y-68330264D01*
X42520827Y-68390602D01*
X42520814Y-68390609D01*
X42389711Y-68478210D01*
X42389707Y-68478213D01*
X42278213Y-68589707D01*
X42278210Y-68589711D01*
X42190609Y-68720814D01*
X42190602Y-68720827D01*
X42130264Y-68866498D01*
X42130261Y-68866510D01*
X42099500Y-69021153D01*
X42099500Y-69178846D01*
X42130260Y-69333488D01*
X42130262Y-69333493D01*
X42130263Y-69333497D01*
X42158864Y-69402547D01*
X42158865Y-69402549D01*
X42166333Y-69472018D01*
X42158865Y-69497447D01*
X42130263Y-69566503D01*
X42130262Y-69566506D01*
X42130260Y-69566511D01*
X42099500Y-69721153D01*
X42099500Y-69878843D01*
X42104343Y-69903193D01*
X42098114Y-69972785D01*
X42055250Y-70027961D01*
X41989360Y-70051204D01*
X41921363Y-70035135D01*
X41872848Y-69984855D01*
X41872240Y-69983677D01*
X41795051Y-69832184D01*
X41795049Y-69832181D01*
X41795048Y-69832179D01*
X41670109Y-69660213D01*
X41519786Y-69509890D01*
X41347820Y-69384951D01*
X41347115Y-69384591D01*
X41339054Y-69380485D01*
X41288259Y-69332512D01*
X41271463Y-69264692D01*
X41293999Y-69198556D01*
X41339054Y-69159515D01*
X41347816Y-69155051D01*
X41403037Y-69114931D01*
X41519786Y-69030109D01*
X41519788Y-69030106D01*
X41519792Y-69030104D01*
X41670104Y-68879792D01*
X41670106Y-68879788D01*
X41670109Y-68879786D01*
X41793902Y-68709397D01*
X41795051Y-68707816D01*
X41891557Y-68518412D01*
X41957246Y-68316243D01*
X41990500Y-68106287D01*
X41990500Y-67893713D01*
X41957246Y-67683757D01*
X41935787Y-67617713D01*
X46838567Y-67617713D01*
X46838567Y-67775406D01*
X46869328Y-67930049D01*
X46869331Y-67930061D01*
X46929669Y-68075732D01*
X46929676Y-68075745D01*
X47017277Y-68206848D01*
X47017280Y-68206852D01*
X47128774Y-68318346D01*
X47128778Y-68318349D01*
X47259881Y-68405950D01*
X47259894Y-68405957D01*
X47341385Y-68439711D01*
X47405570Y-68466297D01*
X47560220Y-68497059D01*
X47560223Y-68497060D01*
X47560225Y-68497060D01*
X47717911Y-68497060D01*
X47717912Y-68497059D01*
X47872564Y-68466297D01*
X47994915Y-68415617D01*
X48064384Y-68408149D01*
X48126863Y-68439424D01*
X48145469Y-68461288D01*
X48178210Y-68510288D01*
X48178213Y-68510292D01*
X48289707Y-68621786D01*
X48289711Y-68621789D01*
X48420814Y-68709390D01*
X48420827Y-68709397D01*
X48541057Y-68759197D01*
X48566503Y-68769737D01*
X48665471Y-68789423D01*
X48721153Y-68800499D01*
X48721156Y-68800500D01*
X48721158Y-68800500D01*
X48878844Y-68800500D01*
X48878845Y-68800499D01*
X49033497Y-68769737D01*
X49151592Y-68720821D01*
X49179172Y-68709397D01*
X49179172Y-68709396D01*
X49179179Y-68709394D01*
X49310289Y-68621789D01*
X49421789Y-68510289D01*
X49509394Y-68379179D01*
X49512719Y-68371153D01*
X49529655Y-68330264D01*
X49569737Y-68233497D01*
X49600500Y-68078842D01*
X49600500Y-67921158D01*
X49595038Y-67893700D01*
X49601264Y-67824110D01*
X49644126Y-67768932D01*
X49669203Y-67754947D01*
X49779173Y-67709397D01*
X49779176Y-67709395D01*
X49779179Y-67709394D01*
X49910289Y-67621789D01*
X50021789Y-67510289D01*
X50109394Y-67379179D01*
X50169737Y-67233497D01*
X50200500Y-67078842D01*
X50200500Y-66921158D01*
X50200500Y-66921155D01*
X50200499Y-66921153D01*
X50192365Y-66880263D01*
X50169737Y-66766503D01*
X50157931Y-66738000D01*
X50109397Y-66620827D01*
X50109390Y-66620814D01*
X50021789Y-66489711D01*
X50021786Y-66489707D01*
X49910292Y-66378213D01*
X49910288Y-66378210D01*
X49779185Y-66290609D01*
X49779172Y-66290602D01*
X49633501Y-66230264D01*
X49633489Y-66230261D01*
X49478845Y-66199500D01*
X49478842Y-66199500D01*
X49321158Y-66199500D01*
X49321155Y-66199500D01*
X49166510Y-66230261D01*
X49166498Y-66230264D01*
X49020827Y-66290602D01*
X49020814Y-66290609D01*
X48889711Y-66378210D01*
X48889707Y-66378213D01*
X48778213Y-66489707D01*
X48778210Y-66489711D01*
X48690609Y-66620814D01*
X48690602Y-66620827D01*
X48630264Y-66766498D01*
X48630261Y-66766510D01*
X48599500Y-66921153D01*
X48599500Y-66921158D01*
X48599500Y-67078842D01*
X48599501Y-67078846D01*
X48604962Y-67106301D01*
X48602131Y-67137928D01*
X48600998Y-67169651D01*
X48599039Y-67172472D01*
X48598733Y-67175892D01*
X48579262Y-67200956D01*
X48561150Y-67227043D01*
X48557157Y-67229411D01*
X48555870Y-67231069D01*
X48530796Y-67245052D01*
X48444151Y-67280941D01*
X48374682Y-67288410D01*
X48312203Y-67257134D01*
X48293597Y-67235271D01*
X48260856Y-67186270D01*
X48149359Y-67074773D01*
X48149355Y-67074770D01*
X48018252Y-66987169D01*
X48018239Y-66987162D01*
X47872568Y-66926824D01*
X47872556Y-66926821D01*
X47717912Y-66896060D01*
X47717909Y-66896060D01*
X47560225Y-66896060D01*
X47560222Y-66896060D01*
X47405577Y-66926821D01*
X47405565Y-66926824D01*
X47259894Y-66987162D01*
X47259881Y-66987169D01*
X47128778Y-67074770D01*
X47128774Y-67074773D01*
X47017280Y-67186267D01*
X47017277Y-67186271D01*
X46929676Y-67317374D01*
X46929669Y-67317387D01*
X46869331Y-67463058D01*
X46869328Y-67463070D01*
X46838567Y-67617713D01*
X41935787Y-67617713D01*
X41891557Y-67481588D01*
X41795051Y-67292184D01*
X41795049Y-67292181D01*
X41795048Y-67292179D01*
X41670109Y-67120213D01*
X41519786Y-66969890D01*
X41347820Y-66844951D01*
X41347115Y-66844591D01*
X41339054Y-66840485D01*
X41288259Y-66792512D01*
X41271463Y-66724692D01*
X41293999Y-66658556D01*
X41339054Y-66619515D01*
X41347816Y-66615051D01*
X41380234Y-66591498D01*
X41519786Y-66490109D01*
X41519788Y-66490106D01*
X41519792Y-66490104D01*
X41670104Y-66339792D01*
X41670106Y-66339788D01*
X41670109Y-66339786D01*
X41787499Y-66178210D01*
X41795051Y-66167816D01*
X41891557Y-65978412D01*
X41957246Y-65776243D01*
X41990500Y-65566287D01*
X41990500Y-65353713D01*
X41957246Y-65143757D01*
X41891557Y-64941588D01*
X41795051Y-64752184D01*
X41795049Y-64752181D01*
X41795048Y-64752179D01*
X41670109Y-64580213D01*
X41519786Y-64429890D01*
X41347820Y-64304951D01*
X41347115Y-64304591D01*
X41339054Y-64300485D01*
X41288259Y-64252512D01*
X41271463Y-64184692D01*
X41293999Y-64118556D01*
X41339054Y-64079515D01*
X41347816Y-64075051D01*
X41436954Y-64010289D01*
X41519786Y-63950109D01*
X41519788Y-63950106D01*
X41519792Y-63950104D01*
X41670104Y-63799792D01*
X41670106Y-63799788D01*
X41670109Y-63799786D01*
X41795048Y-63627820D01*
X41795047Y-63627820D01*
X41795051Y-63627816D01*
X41891557Y-63438412D01*
X41897165Y-63421153D01*
X47299500Y-63421153D01*
X47299500Y-63578846D01*
X47330261Y-63733489D01*
X47330264Y-63733501D01*
X47390602Y-63879172D01*
X47390609Y-63879185D01*
X47478210Y-64010288D01*
X47478213Y-64010292D01*
X47589707Y-64121786D01*
X47589711Y-64121789D01*
X47720814Y-64209390D01*
X47720827Y-64209397D01*
X47846489Y-64261447D01*
X47866503Y-64269737D01*
X47976199Y-64291557D01*
X48021153Y-64300499D01*
X48021156Y-64300500D01*
X48021158Y-64300500D01*
X48178844Y-64300500D01*
X48178845Y-64300499D01*
X48333497Y-64269737D01*
X48464264Y-64215571D01*
X48533733Y-64208103D01*
X48596212Y-64239378D01*
X48631864Y-64299467D01*
X48630505Y-64360339D01*
X48631451Y-64360528D01*
X48630380Y-64365907D01*
X48630376Y-64366129D01*
X48630262Y-64366503D01*
X48599500Y-64521153D01*
X48599500Y-64678846D01*
X48630261Y-64833489D01*
X48630264Y-64833501D01*
X48690602Y-64979172D01*
X48690609Y-64979185D01*
X48778210Y-65110288D01*
X48778213Y-65110292D01*
X48889707Y-65221786D01*
X48889711Y-65221789D01*
X49020814Y-65309390D01*
X49020827Y-65309397D01*
X49166498Y-65369735D01*
X49166503Y-65369737D01*
X49292191Y-65394738D01*
X49321153Y-65400499D01*
X49321156Y-65400500D01*
X49321158Y-65400500D01*
X49478844Y-65400500D01*
X49478845Y-65400499D01*
X49633497Y-65369737D01*
X49746166Y-65323067D01*
X49779172Y-65309397D01*
X49779172Y-65309396D01*
X49779179Y-65309394D01*
X49910289Y-65221789D01*
X50021789Y-65110289D01*
X50109394Y-64979179D01*
X50169737Y-64833497D01*
X50200500Y-64678842D01*
X50200500Y-64521158D01*
X50200500Y-64521155D01*
X50200499Y-64521153D01*
X50198357Y-64510383D01*
X50169737Y-64366503D01*
X50144241Y-64304949D01*
X50109397Y-64220827D01*
X50109390Y-64220814D01*
X50021789Y-64089711D01*
X50021786Y-64089707D01*
X49910292Y-63978213D01*
X49910288Y-63978210D01*
X49805427Y-63908144D01*
X49760622Y-63854532D01*
X49751915Y-63785207D01*
X49759758Y-63757587D01*
X49763804Y-63747820D01*
X49769737Y-63733497D01*
X49800500Y-63578842D01*
X49800500Y-63439671D01*
X49820185Y-63372632D01*
X49872989Y-63326877D01*
X49942147Y-63316933D01*
X50005703Y-63345958D01*
X50012181Y-63351990D01*
X50085842Y-63425651D01*
X50085846Y-63425654D01*
X50216949Y-63513255D01*
X50216962Y-63513262D01*
X50362633Y-63573600D01*
X50362638Y-63573602D01*
X50516323Y-63604172D01*
X50517288Y-63604364D01*
X50517291Y-63604365D01*
X50517293Y-63604365D01*
X50674979Y-63604365D01*
X50674980Y-63604364D01*
X50829632Y-63573602D01*
X50975314Y-63513259D01*
X51106424Y-63425654D01*
X51217924Y-63314154D01*
X51305529Y-63183044D01*
X51365872Y-63037362D01*
X51396635Y-62882707D01*
X51396635Y-62725023D01*
X51396635Y-62718931D01*
X51399489Y-62718931D01*
X51410118Y-62662330D01*
X51458090Y-62611533D01*
X51496413Y-62597005D01*
X51518375Y-62592636D01*
X51633497Y-62569737D01*
X51779179Y-62509394D01*
X51831110Y-62474694D01*
X51897785Y-62453816D01*
X51965165Y-62472300D01*
X51968863Y-62474676D01*
X52020821Y-62509394D01*
X52020823Y-62509395D01*
X52020825Y-62509396D01*
X52166498Y-62569735D01*
X52166503Y-62569737D01*
X52303588Y-62597005D01*
X52321153Y-62600499D01*
X52321156Y-62600500D01*
X52321158Y-62600500D01*
X52478844Y-62600500D01*
X52478845Y-62600499D01*
X52633497Y-62569737D01*
X52764182Y-62515606D01*
X52779172Y-62509397D01*
X52779172Y-62509396D01*
X52779179Y-62509394D01*
X52781110Y-62508103D01*
X52782276Y-62507737D01*
X52784546Y-62506525D01*
X52784776Y-62506955D01*
X52847786Y-62487226D01*
X52915166Y-62505710D01*
X52918850Y-62508077D01*
X52920821Y-62509394D01*
X52920824Y-62509395D01*
X52920827Y-62509397D01*
X53066498Y-62569735D01*
X53066503Y-62569737D01*
X53203588Y-62597005D01*
X53221153Y-62600499D01*
X53221156Y-62600500D01*
X53221158Y-62600500D01*
X53378844Y-62600500D01*
X53378845Y-62600499D01*
X53533497Y-62569737D01*
X53664182Y-62515606D01*
X53679172Y-62509397D01*
X53679172Y-62509396D01*
X53679179Y-62509394D01*
X53681110Y-62508103D01*
X53682276Y-62507737D01*
X53684546Y-62506525D01*
X53684776Y-62506955D01*
X53747786Y-62487226D01*
X53815166Y-62505710D01*
X53818850Y-62508077D01*
X53820821Y-62509394D01*
X53820824Y-62509395D01*
X53820827Y-62509397D01*
X53966498Y-62569735D01*
X53966503Y-62569737D01*
X54103588Y-62597005D01*
X54121153Y-62600499D01*
X54121156Y-62600500D01*
X54121158Y-62600500D01*
X54278844Y-62600500D01*
X54278845Y-62600499D01*
X54433497Y-62569737D01*
X54564182Y-62515606D01*
X54579172Y-62509397D01*
X54579172Y-62509396D01*
X54579179Y-62509394D01*
X54710289Y-62421789D01*
X54821789Y-62310289D01*
X54909394Y-62179179D01*
X54969737Y-62033497D01*
X55000500Y-61878842D01*
X55000500Y-61721158D01*
X55000500Y-61721155D01*
X55000499Y-61721153D01*
X54990014Y-61668443D01*
X54969737Y-61566503D01*
X54917481Y-61440344D01*
X54909397Y-61420827D01*
X54909390Y-61420814D01*
X54821789Y-61289711D01*
X54821786Y-61289707D01*
X54710292Y-61178213D01*
X54710288Y-61178210D01*
X54579185Y-61090609D01*
X54579172Y-61090602D01*
X54433501Y-61030264D01*
X54433489Y-61030261D01*
X54278845Y-60999500D01*
X54278842Y-60999500D01*
X54121158Y-60999500D01*
X54121155Y-60999500D01*
X53966510Y-61030261D01*
X53966498Y-61030264D01*
X53820822Y-61090604D01*
X53820820Y-61090605D01*
X53818885Y-61091899D01*
X53817717Y-61092264D01*
X53815451Y-61093476D01*
X53815221Y-61093045D01*
X53752206Y-61112773D01*
X53684827Y-61094285D01*
X53681115Y-61091899D01*
X53679179Y-61090605D01*
X53679177Y-61090604D01*
X53533501Y-61030264D01*
X53533489Y-61030261D01*
X53378845Y-60999500D01*
X53378842Y-60999500D01*
X53221158Y-60999500D01*
X53221155Y-60999500D01*
X53066510Y-61030261D01*
X53066498Y-61030264D01*
X52920822Y-61090604D01*
X52920820Y-61090605D01*
X52918885Y-61091899D01*
X52917717Y-61092264D01*
X52915451Y-61093476D01*
X52915221Y-61093045D01*
X52852206Y-61112773D01*
X52784827Y-61094285D01*
X52781115Y-61091899D01*
X52779179Y-61090605D01*
X52779177Y-61090604D01*
X52633501Y-61030264D01*
X52633489Y-61030261D01*
X52478845Y-60999500D01*
X52478842Y-60999500D01*
X52321158Y-60999500D01*
X52321155Y-60999500D01*
X52166510Y-61030261D01*
X52166498Y-61030264D01*
X52020827Y-61090602D01*
X52020814Y-61090609D01*
X51968891Y-61125304D01*
X51902214Y-61146182D01*
X51834833Y-61127698D01*
X51831109Y-61125304D01*
X51779185Y-61090609D01*
X51779172Y-61090602D01*
X51633501Y-61030264D01*
X51633489Y-61030261D01*
X51478845Y-60999500D01*
X51478842Y-60999500D01*
X51321158Y-60999500D01*
X51321155Y-60999500D01*
X51166510Y-61030261D01*
X51160676Y-61032031D01*
X51160288Y-61030753D01*
X51097602Y-61037479D01*
X51035130Y-61006190D01*
X50999491Y-60946093D01*
X50998030Y-60891259D01*
X51000500Y-60878842D01*
X51000500Y-60721158D01*
X51000500Y-60721155D01*
X51000499Y-60721153D01*
X50969739Y-60566510D01*
X50969735Y-60566498D01*
X50961308Y-60546154D01*
X54956733Y-60546154D01*
X54956733Y-60703847D01*
X54987494Y-60858490D01*
X54987497Y-60858502D01*
X55047835Y-61004173D01*
X55047842Y-61004186D01*
X55135443Y-61135289D01*
X55135446Y-61135293D01*
X55246940Y-61246787D01*
X55246944Y-61246790D01*
X55378047Y-61334391D01*
X55378060Y-61334398D01*
X55523731Y-61394736D01*
X55523736Y-61394738D01*
X55659715Y-61421786D01*
X55678386Y-61425500D01*
X55678389Y-61425501D01*
X55678391Y-61425501D01*
X55836077Y-61425501D01*
X55836078Y-61425500D01*
X55990730Y-61394738D01*
X56136412Y-61334395D01*
X56222290Y-61277013D01*
X56288965Y-61256136D01*
X56356345Y-61274620D01*
X56403035Y-61326598D01*
X56414212Y-61395568D01*
X56412797Y-61404306D01*
X56399500Y-61471158D01*
X56399500Y-61628846D01*
X56430261Y-61783489D01*
X56430264Y-61783501D01*
X56490602Y-61929172D01*
X56490609Y-61929185D01*
X56578210Y-62060288D01*
X56578213Y-62060292D01*
X56689707Y-62171786D01*
X56689715Y-62171792D01*
X56756665Y-62216527D01*
X56801471Y-62270139D01*
X56810178Y-62339464D01*
X56780024Y-62402491D01*
X56720581Y-62439211D01*
X56711967Y-62441246D01*
X56641508Y-62455261D01*
X56641498Y-62455264D01*
X56495827Y-62515602D01*
X56495814Y-62515609D01*
X56364711Y-62603210D01*
X56364707Y-62603213D01*
X56253213Y-62714707D01*
X56253210Y-62714711D01*
X56165609Y-62845814D01*
X56165602Y-62845827D01*
X56105264Y-62991498D01*
X56105261Y-62991510D01*
X56074500Y-63146153D01*
X56074500Y-63303846D01*
X56105261Y-63458489D01*
X56105264Y-63458501D01*
X56165602Y-63604172D01*
X56165609Y-63604185D01*
X56253210Y-63735288D01*
X56253213Y-63735292D01*
X56364707Y-63846786D01*
X56364711Y-63846789D01*
X56495814Y-63934390D01*
X56495827Y-63934397D01*
X56601603Y-63978210D01*
X56641503Y-63994737D01*
X56796153Y-64025499D01*
X56796156Y-64025500D01*
X56864715Y-64025500D01*
X56931754Y-64045185D01*
X56977509Y-64097989D01*
X56987453Y-64167147D01*
X56967817Y-64218390D01*
X56949495Y-64245810D01*
X56949485Y-64245828D01*
X56889147Y-64391499D01*
X56889144Y-64391511D01*
X56858383Y-64546154D01*
X56858383Y-64703847D01*
X56889144Y-64858490D01*
X56889147Y-64858502D01*
X56949485Y-65004173D01*
X56949492Y-65004186D01*
X57037093Y-65135289D01*
X57037096Y-65135293D01*
X57148590Y-65246787D01*
X57148594Y-65246790D01*
X57279697Y-65334391D01*
X57285074Y-65337265D01*
X57284408Y-65338509D01*
X57333284Y-65377884D01*
X57355359Y-65444174D01*
X57338090Y-65511876D01*
X57319121Y-65536300D01*
X57221215Y-65634206D01*
X57133614Y-65765309D01*
X57133607Y-65765322D01*
X57073269Y-65910993D01*
X57073266Y-65911002D01*
X57051820Y-66018817D01*
X57019434Y-66080727D01*
X56958718Y-66115301D01*
X56917330Y-66116048D01*
X56917153Y-66117849D01*
X56911091Y-66117252D01*
X56911090Y-66117252D01*
X56753406Y-66117252D01*
X56753403Y-66117252D01*
X56598758Y-66148013D01*
X56598746Y-66148016D01*
X56453075Y-66208354D01*
X56453062Y-66208361D01*
X56321959Y-66295962D01*
X56321955Y-66295965D01*
X56210461Y-66407459D01*
X56210458Y-66407463D01*
X56122857Y-66538566D01*
X56122850Y-66538579D01*
X56062512Y-66684250D01*
X56062509Y-66684262D01*
X56031748Y-66838905D01*
X56031748Y-66996598D01*
X56062509Y-67151241D01*
X56062512Y-67151253D01*
X56122850Y-67296924D01*
X56122857Y-67296937D01*
X56210458Y-67428040D01*
X56210461Y-67428044D01*
X56321955Y-67539538D01*
X56321959Y-67539541D01*
X56453062Y-67627142D01*
X56453075Y-67627149D01*
X56586274Y-67682321D01*
X56598751Y-67687489D01*
X56753401Y-67718251D01*
X56753404Y-67718252D01*
X56825307Y-67718252D01*
X56892346Y-67737937D01*
X56938101Y-67790741D01*
X56948045Y-67859899D01*
X56919020Y-67923455D01*
X56912988Y-67929933D01*
X56903213Y-67939707D01*
X56903210Y-67939711D01*
X56815609Y-68070814D01*
X56815602Y-68070827D01*
X56755264Y-68216498D01*
X56755261Y-68216510D01*
X56724500Y-68371153D01*
X56724500Y-68528846D01*
X56755261Y-68683489D01*
X56755264Y-68683501D01*
X56815602Y-68829172D01*
X56815609Y-68829185D01*
X56903210Y-68960288D01*
X56903213Y-68960292D01*
X56996529Y-69053608D01*
X57030014Y-69114931D01*
X57030465Y-69165480D01*
X56999500Y-69321153D01*
X56999500Y-69478846D01*
X57030261Y-69633489D01*
X57030264Y-69633501D01*
X57090602Y-69779172D01*
X57090609Y-69779185D01*
X57178210Y-69910288D01*
X57178213Y-69910292D01*
X57289707Y-70021786D01*
X57289711Y-70021789D01*
X57420814Y-70109390D01*
X57420827Y-70109397D01*
X57566498Y-70169735D01*
X57566503Y-70169737D01*
X57721153Y-70200499D01*
X57721156Y-70200500D01*
X57721158Y-70200500D01*
X57878844Y-70200500D01*
X57878845Y-70200499D01*
X58033497Y-70169737D01*
X58179179Y-70109394D01*
X58310289Y-70021789D01*
X58421789Y-69910289D01*
X58509394Y-69779179D01*
X58569737Y-69633497D01*
X58600500Y-69478842D01*
X58600500Y-69321158D01*
X58600500Y-69321155D01*
X58600499Y-69321153D01*
X58594244Y-69289707D01*
X58569737Y-69166503D01*
X58566842Y-69159514D01*
X58509397Y-69020827D01*
X58509390Y-69020814D01*
X58421789Y-68889711D01*
X58421786Y-68889707D01*
X58328470Y-68796391D01*
X58324665Y-68789423D01*
X58318226Y-68784780D01*
X58308160Y-68759197D01*
X58294985Y-68735068D01*
X58294899Y-68725492D01*
X58292645Y-68719762D01*
X58294534Y-68684519D01*
X58308741Y-68613095D01*
X64207558Y-68613095D01*
X64207558Y-68770788D01*
X64238319Y-68925431D01*
X64238322Y-68925443D01*
X64298660Y-69071114D01*
X64298667Y-69071127D01*
X64386268Y-69202230D01*
X64386271Y-69202234D01*
X64497765Y-69313728D01*
X64497769Y-69313731D01*
X64628872Y-69401332D01*
X64628885Y-69401339D01*
X64771203Y-69460288D01*
X64774561Y-69461679D01*
X64886449Y-69483935D01*
X64929211Y-69492441D01*
X64929214Y-69492442D01*
X64929216Y-69492442D01*
X65086902Y-69492442D01*
X65086903Y-69492441D01*
X65241555Y-69461679D01*
X65384309Y-69402549D01*
X65387230Y-69401339D01*
X65387230Y-69401338D01*
X65387237Y-69401336D01*
X65518347Y-69313731D01*
X65629847Y-69202231D01*
X65717452Y-69071121D01*
X65777795Y-68925439D01*
X65808558Y-68770784D01*
X65808558Y-68721153D01*
X66599500Y-68721153D01*
X66599500Y-68878846D01*
X66630261Y-69033489D01*
X66630264Y-69033501D01*
X66690602Y-69179172D01*
X66690609Y-69179185D01*
X66778210Y-69310288D01*
X66778213Y-69310292D01*
X66889707Y-69421786D01*
X66889711Y-69421789D01*
X67020814Y-69509390D01*
X67020827Y-69509397D01*
X67166498Y-69569735D01*
X67166503Y-69569737D01*
X67321153Y-69600499D01*
X67321156Y-69600500D01*
X67321158Y-69600500D01*
X67478844Y-69600500D01*
X67478845Y-69600499D01*
X67633497Y-69569737D01*
X67779179Y-69509394D01*
X67786028Y-69504817D01*
X67852702Y-69483935D01*
X67920084Y-69502415D01*
X67966778Y-69554390D01*
X67977959Y-69623359D01*
X67976543Y-69632101D01*
X67973620Y-69646796D01*
X67973620Y-69804492D01*
X68004381Y-69959135D01*
X68004384Y-69959147D01*
X68064722Y-70104818D01*
X68064729Y-70104831D01*
X68152330Y-70235934D01*
X68152333Y-70235938D01*
X68263827Y-70347432D01*
X68263831Y-70347435D01*
X68394934Y-70435036D01*
X68394947Y-70435043D01*
X68507321Y-70481589D01*
X68540623Y-70495383D01*
X68695273Y-70526145D01*
X68695276Y-70526146D01*
X68695278Y-70526146D01*
X68852964Y-70526146D01*
X68852965Y-70526145D01*
X69007617Y-70495383D01*
X69120286Y-70448713D01*
X69153292Y-70435043D01*
X69153292Y-70435042D01*
X69153299Y-70435040D01*
X69284409Y-70347435D01*
X69395909Y-70235935D01*
X69483514Y-70104825D01*
X69543857Y-69959143D01*
X69574620Y-69804488D01*
X69574620Y-69646804D01*
X69574620Y-69646801D01*
X69574619Y-69646799D01*
X69559698Y-69571786D01*
X69543857Y-69492149D01*
X69535519Y-69472018D01*
X69483517Y-69346473D01*
X69483510Y-69346460D01*
X69395909Y-69215357D01*
X69395906Y-69215353D01*
X69284412Y-69103859D01*
X69284408Y-69103856D01*
X69153305Y-69016255D01*
X69153292Y-69016248D01*
X69007621Y-68955910D01*
X69007609Y-68955907D01*
X68852965Y-68925146D01*
X68852962Y-68925146D01*
X68695278Y-68925146D01*
X68695275Y-68925146D01*
X68540630Y-68955907D01*
X68540618Y-68955910D01*
X68394947Y-69016248D01*
X68394938Y-69016253D01*
X68388083Y-69020834D01*
X68321405Y-69041710D01*
X68254025Y-69023224D01*
X68207336Y-68971244D01*
X68196161Y-68902274D01*
X68197577Y-68893537D01*
X68200500Y-68878843D01*
X68200500Y-68721155D01*
X68200499Y-68721153D01*
X68193212Y-68684519D01*
X68169737Y-68566503D01*
X68154138Y-68528844D01*
X68109397Y-68420827D01*
X68109390Y-68420814D01*
X68021789Y-68289711D01*
X68021786Y-68289707D01*
X67910292Y-68178213D01*
X67910288Y-68178210D01*
X67779185Y-68090609D01*
X67779172Y-68090602D01*
X67633501Y-68030264D01*
X67633489Y-68030261D01*
X67478845Y-67999500D01*
X67478842Y-67999500D01*
X67321158Y-67999500D01*
X67321155Y-67999500D01*
X67166510Y-68030261D01*
X67166498Y-68030264D01*
X67020827Y-68090602D01*
X67020814Y-68090609D01*
X66889711Y-68178210D01*
X66889707Y-68178213D01*
X66778213Y-68289707D01*
X66778210Y-68289711D01*
X66690609Y-68420814D01*
X66690602Y-68420827D01*
X66630264Y-68566498D01*
X66630261Y-68566510D01*
X66599500Y-68721153D01*
X65808558Y-68721153D01*
X65808558Y-68613100D01*
X65808558Y-68613097D01*
X65808557Y-68613095D01*
X65800147Y-68570814D01*
X65777795Y-68458445D01*
X65756051Y-68405950D01*
X65717455Y-68312769D01*
X65717448Y-68312756D01*
X65629847Y-68181653D01*
X65629844Y-68181649D01*
X65518350Y-68070155D01*
X65518346Y-68070152D01*
X65387243Y-67982551D01*
X65387230Y-67982544D01*
X65241559Y-67922206D01*
X65241547Y-67922203D01*
X65086903Y-67891442D01*
X65086900Y-67891442D01*
X64929216Y-67891442D01*
X64929213Y-67891442D01*
X64774568Y-67922203D01*
X64774556Y-67922206D01*
X64628885Y-67982544D01*
X64628872Y-67982551D01*
X64497769Y-68070152D01*
X64497765Y-68070155D01*
X64386271Y-68181649D01*
X64386268Y-68181653D01*
X64298667Y-68312756D01*
X64298660Y-68312769D01*
X64238322Y-68458440D01*
X64238319Y-68458452D01*
X64207558Y-68613095D01*
X58308741Y-68613095D01*
X58314764Y-68582817D01*
X58314764Y-68582816D01*
X58325500Y-68528844D01*
X58325500Y-68379637D01*
X58345185Y-68312598D01*
X58397989Y-68266843D01*
X58467147Y-68256899D01*
X58518391Y-68276535D01*
X58642391Y-68359390D01*
X58642404Y-68359397D01*
X58760104Y-68408149D01*
X58788080Y-68419737D01*
X58942730Y-68450499D01*
X58942733Y-68450500D01*
X58942735Y-68450500D01*
X59100421Y-68450500D01*
X59100422Y-68450499D01*
X59255074Y-68419737D01*
X59400756Y-68359394D01*
X59531866Y-68271789D01*
X59643366Y-68160289D01*
X59730971Y-68029179D01*
X59791314Y-67883497D01*
X59822077Y-67728842D01*
X59822077Y-67682321D01*
X59827709Y-67663140D01*
X59828423Y-67643161D01*
X59837351Y-67630301D01*
X59841762Y-67615282D01*
X59856869Y-67602191D01*
X59868272Y-67585769D01*
X59892221Y-67571558D01*
X59894566Y-67569527D01*
X59898563Y-67567785D01*
X59952550Y-67545423D01*
X60022018Y-67537956D01*
X60047452Y-67545425D01*
X60144852Y-67585769D01*
X60166503Y-67594737D01*
X60282036Y-67617718D01*
X60321153Y-67625499D01*
X60321156Y-67625500D01*
X60321158Y-67625500D01*
X60478844Y-67625500D01*
X60478845Y-67625499D01*
X60633497Y-67594737D01*
X60779179Y-67534394D01*
X60781110Y-67533103D01*
X60782276Y-67532737D01*
X60784546Y-67531525D01*
X60784776Y-67531955D01*
X60847786Y-67512226D01*
X60915166Y-67530710D01*
X60918850Y-67533077D01*
X60920821Y-67534394D01*
X60920824Y-67534395D01*
X60920827Y-67534397D01*
X61044852Y-67585769D01*
X61066503Y-67594737D01*
X61182036Y-67617718D01*
X61221153Y-67625499D01*
X61221156Y-67625500D01*
X61221158Y-67625500D01*
X61378844Y-67625500D01*
X61378845Y-67625499D01*
X61533497Y-67594737D01*
X61679179Y-67534394D01*
X61810289Y-67446789D01*
X61921789Y-67335289D01*
X62009394Y-67204179D01*
X62069737Y-67058497D01*
X62100500Y-66903842D01*
X62100500Y-66746158D01*
X62100500Y-66746155D01*
X62100499Y-66746153D01*
X62095527Y-66721158D01*
X62069737Y-66591503D01*
X62059380Y-66566498D01*
X62009397Y-66445827D01*
X62009390Y-66445814D01*
X61983427Y-66406958D01*
X61941462Y-66344154D01*
X62585683Y-66344154D01*
X62585683Y-66501847D01*
X62616444Y-66656490D01*
X62616447Y-66656502D01*
X62676785Y-66802173D01*
X62676792Y-66802186D01*
X62764393Y-66933289D01*
X62764396Y-66933293D01*
X62875890Y-67044787D01*
X62875894Y-67044790D01*
X63006997Y-67132391D01*
X63007010Y-67132398D01*
X63137073Y-67186271D01*
X63152686Y-67192738D01*
X63280621Y-67218186D01*
X63307336Y-67223500D01*
X63307339Y-67223501D01*
X63307341Y-67223501D01*
X63465027Y-67223501D01*
X63465028Y-67223500D01*
X63619680Y-67192738D01*
X63765362Y-67132395D01*
X63896472Y-67044790D01*
X64007972Y-66933290D01*
X64095577Y-66802180D01*
X64116540Y-66751570D01*
X64129139Y-66721153D01*
X65799497Y-66721153D01*
X65799497Y-66878846D01*
X65830258Y-67033489D01*
X65830261Y-67033501D01*
X65890599Y-67179172D01*
X65890606Y-67179185D01*
X65978207Y-67310288D01*
X65978210Y-67310292D01*
X66089704Y-67421786D01*
X66089708Y-67421789D01*
X66220811Y-67509390D01*
X66220824Y-67509397D01*
X66365993Y-67569527D01*
X66366500Y-67569737D01*
X66492173Y-67594735D01*
X66521150Y-67600499D01*
X66521153Y-67600500D01*
X66521155Y-67600500D01*
X66678841Y-67600500D01*
X66678842Y-67600499D01*
X66833494Y-67569737D01*
X66952547Y-67520423D01*
X67022014Y-67512955D01*
X67047447Y-67520422D01*
X67166503Y-67569737D01*
X67292176Y-67594735D01*
X67321153Y-67600499D01*
X67321156Y-67600500D01*
X67321158Y-67600500D01*
X67478844Y-67600500D01*
X67478845Y-67600499D01*
X67633497Y-67569737D01*
X67779179Y-67509394D01*
X67910289Y-67421789D01*
X68021789Y-67310289D01*
X68109394Y-67179179D01*
X68169737Y-67033497D01*
X68200500Y-66878842D01*
X68200500Y-66721158D01*
X68200500Y-66721155D01*
X68200499Y-66721153D01*
X68189825Y-66667491D01*
X68169737Y-66566503D01*
X68137929Y-66489711D01*
X68109397Y-66420827D01*
X68109390Y-66420814D01*
X68021789Y-66289711D01*
X68021786Y-66289707D01*
X67905982Y-66173903D01*
X67907296Y-66172588D01*
X67872850Y-66122025D01*
X67870977Y-66052180D01*
X67907161Y-65992410D01*
X67921949Y-65980815D01*
X68010289Y-65921789D01*
X68121789Y-65810289D01*
X68209394Y-65679179D01*
X68269737Y-65533497D01*
X68300500Y-65378842D01*
X68300500Y-65221158D01*
X68300500Y-65221155D01*
X68300499Y-65221153D01*
X68289879Y-65167763D01*
X68269737Y-65066503D01*
X68243922Y-65004180D01*
X68209397Y-64920827D01*
X68209390Y-64920814D01*
X68121789Y-64789711D01*
X68121786Y-64789707D01*
X68010292Y-64678213D01*
X68010288Y-64678210D01*
X67879185Y-64590609D01*
X67879172Y-64590602D01*
X67733501Y-64530264D01*
X67733489Y-64530261D01*
X67578845Y-64499500D01*
X67578842Y-64499500D01*
X67421158Y-64499500D01*
X67421155Y-64499500D01*
X67266510Y-64530261D01*
X67266498Y-64530264D01*
X67120827Y-64590602D01*
X67120814Y-64590609D01*
X66989711Y-64678210D01*
X66989707Y-64678213D01*
X66878213Y-64789707D01*
X66878210Y-64789711D01*
X66790609Y-64920814D01*
X66790602Y-64920827D01*
X66730264Y-65066498D01*
X66730261Y-65066510D01*
X66699500Y-65221153D01*
X66699500Y-65378846D01*
X66730261Y-65533489D01*
X66730264Y-65533501D01*
X66790602Y-65679172D01*
X66790609Y-65679185D01*
X66878210Y-65810288D01*
X66882076Y-65814999D01*
X66880132Y-65816594D01*
X66908345Y-65868262D01*
X66903361Y-65937954D01*
X66861489Y-65993887D01*
X66796025Y-66018304D01*
X66762989Y-66016238D01*
X66678839Y-65999500D01*
X66521155Y-65999500D01*
X66521152Y-65999500D01*
X66366507Y-66030261D01*
X66366495Y-66030264D01*
X66220824Y-66090602D01*
X66220811Y-66090609D01*
X66089708Y-66178210D01*
X66089704Y-66178213D01*
X65978210Y-66289707D01*
X65978207Y-66289711D01*
X65890606Y-66420814D01*
X65890599Y-66420827D01*
X65830261Y-66566498D01*
X65830258Y-66566510D01*
X65799497Y-66721153D01*
X64129139Y-66721153D01*
X64151316Y-66667614D01*
X64153681Y-66661903D01*
X64155920Y-66656498D01*
X64186683Y-66501843D01*
X64186683Y-66344159D01*
X64186683Y-66344156D01*
X64186682Y-66344154D01*
X64180825Y-66314707D01*
X64155920Y-66189504D01*
X64136820Y-66143392D01*
X64095580Y-66043828D01*
X64095573Y-66043815D01*
X64007972Y-65912712D01*
X64007969Y-65912708D01*
X63896475Y-65801214D01*
X63896471Y-65801211D01*
X63765368Y-65713610D01*
X63765355Y-65713603D01*
X63619684Y-65653265D01*
X63619672Y-65653262D01*
X63465028Y-65622501D01*
X63465025Y-65622501D01*
X63307341Y-65622501D01*
X63307338Y-65622501D01*
X63152693Y-65653262D01*
X63152681Y-65653265D01*
X63007010Y-65713603D01*
X63006997Y-65713610D01*
X62875894Y-65801211D01*
X62875890Y-65801214D01*
X62764396Y-65912708D01*
X62764393Y-65912712D01*
X62676792Y-66043815D01*
X62676785Y-66043828D01*
X62616447Y-66189499D01*
X62616444Y-66189511D01*
X62585683Y-66344154D01*
X61941462Y-66344154D01*
X61921789Y-66314711D01*
X61921786Y-66314707D01*
X61810292Y-66203213D01*
X61810288Y-66203210D01*
X61679185Y-66115609D01*
X61679172Y-66115602D01*
X61533501Y-66055264D01*
X61533489Y-66055261D01*
X61378845Y-66024500D01*
X61378842Y-66024500D01*
X61221158Y-66024500D01*
X61221155Y-66024500D01*
X61066510Y-66055261D01*
X61066498Y-66055264D01*
X60920822Y-66115604D01*
X60920820Y-66115605D01*
X60918885Y-66116899D01*
X60917717Y-66117264D01*
X60915451Y-66118476D01*
X60915221Y-66118045D01*
X60852206Y-66137773D01*
X60784827Y-66119285D01*
X60781115Y-66116899D01*
X60779179Y-66115605D01*
X60779177Y-66115604D01*
X60633501Y-66055264D01*
X60633489Y-66055261D01*
X60478845Y-66024500D01*
X60478842Y-66024500D01*
X60321158Y-66024500D01*
X60321155Y-66024500D01*
X60166510Y-66055261D01*
X60166498Y-66055264D01*
X60047452Y-66104574D01*
X59977982Y-66112043D01*
X59952548Y-66104574D01*
X59833501Y-66055264D01*
X59833489Y-66055261D01*
X59678845Y-66024500D01*
X59678842Y-66024500D01*
X59588764Y-66024500D01*
X59521725Y-66004815D01*
X59475970Y-65952011D01*
X59464764Y-65900500D01*
X59464764Y-65858655D01*
X59464763Y-65858653D01*
X59455143Y-65810289D01*
X59434001Y-65704003D01*
X59426663Y-65686287D01*
X59373661Y-65558327D01*
X59373654Y-65558314D01*
X59286053Y-65427211D01*
X59286050Y-65427207D01*
X59174556Y-65315713D01*
X59174552Y-65315710D01*
X59043449Y-65228109D01*
X59043436Y-65228102D01*
X58897765Y-65167764D01*
X58897753Y-65167761D01*
X58743109Y-65137000D01*
X58743106Y-65137000D01*
X58585422Y-65137000D01*
X58585419Y-65137000D01*
X58516353Y-65150738D01*
X58507643Y-65149958D01*
X58499410Y-65152909D01*
X58473374Y-65146892D01*
X58446762Y-65144511D01*
X58439855Y-65139146D01*
X58431335Y-65137177D01*
X58412687Y-65118041D01*
X58391584Y-65101648D01*
X58388674Y-65093400D01*
X58382572Y-65087138D01*
X58377229Y-65060956D01*
X58368340Y-65035758D01*
X58369983Y-65025451D01*
X58368602Y-65018679D01*
X58375759Y-64989243D01*
X58376549Y-64984291D01*
X58377044Y-64983014D01*
X58428620Y-64858498D01*
X58432088Y-64841060D01*
X58435986Y-64831009D01*
X58450968Y-64811524D01*
X58462361Y-64789742D01*
X58473611Y-64782078D01*
X58478577Y-64775621D01*
X58488101Y-64772207D01*
X58504147Y-64761278D01*
X58629172Y-64709491D01*
X58629172Y-64709490D01*
X58629179Y-64709488D01*
X58760289Y-64621883D01*
X58871789Y-64510383D01*
X58959394Y-64379273D01*
X58962195Y-64372512D01*
X58985887Y-64315312D01*
X59019737Y-64233591D01*
X59050500Y-64078936D01*
X59050500Y-63921252D01*
X59050500Y-63921249D01*
X59050499Y-63921247D01*
X59035688Y-63846789D01*
X59019737Y-63766597D01*
X59011958Y-63747816D01*
X58959397Y-63620921D01*
X58959390Y-63620908D01*
X58871789Y-63489805D01*
X58871786Y-63489801D01*
X58760292Y-63378307D01*
X58760288Y-63378304D01*
X58629185Y-63290703D01*
X58629172Y-63290696D01*
X58483501Y-63230358D01*
X58483491Y-63230355D01*
X58349106Y-63203624D01*
X58324972Y-63190999D01*
X58299413Y-63181591D01*
X58294467Y-63175043D01*
X58287195Y-63171239D01*
X58273715Y-63147566D01*
X58257303Y-63125837D01*
X58256682Y-63117655D01*
X58252621Y-63110523D01*
X58254079Y-63083322D01*
X58252020Y-63056168D01*
X58256045Y-63046632D01*
X58256361Y-63040754D01*
X58264212Y-63023046D01*
X58266967Y-63017947D01*
X58309515Y-62954271D01*
X58336181Y-62889893D01*
X58339210Y-62884289D01*
X58359500Y-62863824D01*
X58377575Y-62841395D01*
X58383790Y-62839326D01*
X58388404Y-62834673D01*
X58416533Y-62828427D01*
X58443869Y-62819329D01*
X58450216Y-62820949D01*
X58456613Y-62819529D01*
X58483649Y-62829481D01*
X58511568Y-62836607D01*
X58517187Y-62840148D01*
X58620814Y-62909390D01*
X58620827Y-62909397D01*
X58766498Y-62969735D01*
X58766503Y-62969737D01*
X58875963Y-62991510D01*
X58921153Y-63000499D01*
X58921156Y-63000500D01*
X58921158Y-63000500D01*
X59078844Y-63000500D01*
X59078845Y-63000499D01*
X59233497Y-62969737D01*
X59379179Y-62909394D01*
X59510289Y-62821789D01*
X59621789Y-62710289D01*
X59709394Y-62579179D01*
X59769737Y-62433497D01*
X59800500Y-62278842D01*
X59800500Y-62121158D01*
X59800500Y-62121155D01*
X59800499Y-62121153D01*
X59783189Y-62034129D01*
X59769737Y-61966503D01*
X59764876Y-61954768D01*
X59709397Y-61820827D01*
X59709390Y-61820814D01*
X59621789Y-61689711D01*
X59621786Y-61689707D01*
X59510292Y-61578213D01*
X59510288Y-61578210D01*
X59379185Y-61490609D01*
X59379172Y-61490602D01*
X59233501Y-61430264D01*
X59233489Y-61430261D01*
X59078845Y-61399500D01*
X59078842Y-61399500D01*
X58921158Y-61399500D01*
X58921155Y-61399500D01*
X58766510Y-61430261D01*
X58766498Y-61430264D01*
X58620827Y-61490602D01*
X58620814Y-61490609D01*
X58489711Y-61578210D01*
X58489707Y-61578213D01*
X58378213Y-61689707D01*
X58378210Y-61689711D01*
X58290609Y-61820814D01*
X58290606Y-61820820D01*
X58266385Y-61879295D01*
X58253164Y-61895700D01*
X58244073Y-61914703D01*
X58231682Y-61922357D01*
X58222543Y-61933698D01*
X58202553Y-61940350D01*
X58184630Y-61951423D01*
X58170067Y-61951163D01*
X58156249Y-61955762D01*
X58135837Y-61950552D01*
X58114772Y-61950176D01*
X58092363Y-61939455D01*
X58088550Y-61938482D01*
X58082934Y-61934944D01*
X58052521Y-61914623D01*
X58025316Y-61896445D01*
X57980511Y-61842834D01*
X57971804Y-61773509D01*
X57972584Y-61769184D01*
X57995520Y-61653877D01*
X58000500Y-61628844D01*
X58000500Y-61471155D01*
X58000499Y-61471153D01*
X57990486Y-61420814D01*
X57969737Y-61316503D01*
X57967163Y-61310288D01*
X57909397Y-61170827D01*
X57909390Y-61170814D01*
X57821789Y-61039711D01*
X57821786Y-61039707D01*
X57710292Y-60928213D01*
X57710288Y-60928210D01*
X57579185Y-60840609D01*
X57579172Y-60840602D01*
X57433501Y-60780264D01*
X57433489Y-60780261D01*
X57278845Y-60749500D01*
X57278842Y-60749500D01*
X57121158Y-60749500D01*
X57121155Y-60749500D01*
X56966510Y-60780261D01*
X56966498Y-60780264D01*
X56820827Y-60840602D01*
X56820809Y-60840612D01*
X56734943Y-60897986D01*
X56668266Y-60918864D01*
X56600886Y-60900379D01*
X56554196Y-60848400D01*
X56543020Y-60779430D01*
X56544436Y-60770692D01*
X56557733Y-60703845D01*
X56557733Y-60546156D01*
X56557732Y-60546154D01*
X56555267Y-60533763D01*
X56526970Y-60391504D01*
X56503427Y-60334665D01*
X56466630Y-60245828D01*
X56466623Y-60245815D01*
X56379022Y-60114712D01*
X56379019Y-60114708D01*
X56267525Y-60003214D01*
X56267521Y-60003211D01*
X56136418Y-59915610D01*
X56136405Y-59915603D01*
X55990734Y-59855265D01*
X55990722Y-59855262D01*
X55836078Y-59824501D01*
X55836075Y-59824501D01*
X55678391Y-59824501D01*
X55678388Y-59824501D01*
X55523743Y-59855262D01*
X55523731Y-59855265D01*
X55378060Y-59915603D01*
X55378047Y-59915610D01*
X55246944Y-60003211D01*
X55246940Y-60003214D01*
X55135446Y-60114708D01*
X55135443Y-60114712D01*
X55047842Y-60245815D01*
X55047835Y-60245828D01*
X54987497Y-60391499D01*
X54987494Y-60391511D01*
X54956733Y-60546154D01*
X50961308Y-60546154D01*
X50909397Y-60420827D01*
X50909390Y-60420814D01*
X50821789Y-60289711D01*
X50821786Y-60289707D01*
X50710292Y-60178213D01*
X50710288Y-60178210D01*
X50579185Y-60090609D01*
X50579172Y-60090602D01*
X50433501Y-60030264D01*
X50433493Y-60030262D01*
X50405936Y-60024780D01*
X50344026Y-59992393D01*
X50309453Y-59931677D01*
X50306130Y-59903163D01*
X50306130Y-59745528D01*
X50306129Y-59745526D01*
X50291539Y-59672179D01*
X50275367Y-59590876D01*
X50275365Y-59590871D01*
X50215027Y-59445200D01*
X50215020Y-59445187D01*
X50127419Y-59314084D01*
X50127416Y-59314080D01*
X50015922Y-59202586D01*
X50015918Y-59202583D01*
X49951219Y-59159352D01*
X49906414Y-59105739D01*
X49897707Y-59036414D01*
X49927862Y-58973387D01*
X49987305Y-58936668D01*
X50007971Y-58932846D01*
X50010897Y-58932558D01*
X50010900Y-58932558D01*
X50010903Y-58932557D01*
X50010907Y-58932557D01*
X50073957Y-58920015D01*
X50165555Y-58901795D01*
X50304050Y-58844429D01*
X50311230Y-58841455D01*
X50311230Y-58841454D01*
X50311237Y-58841452D01*
X50442347Y-58753847D01*
X50553847Y-58642347D01*
X50641452Y-58511237D01*
X50644514Y-58503846D01*
X50693162Y-58386397D01*
X55448629Y-58386397D01*
X55448629Y-58544090D01*
X55479390Y-58698733D01*
X55479393Y-58698745D01*
X55539731Y-58844416D01*
X55539738Y-58844429D01*
X55627339Y-58975532D01*
X55627342Y-58975536D01*
X55738836Y-59087030D01*
X55738840Y-59087033D01*
X55869943Y-59174634D01*
X55869956Y-59174641D01*
X56015627Y-59234979D01*
X56015632Y-59234981D01*
X56170282Y-59265743D01*
X56170285Y-59265744D01*
X56170287Y-59265744D01*
X56327973Y-59265744D01*
X56327974Y-59265743D01*
X56482626Y-59234981D01*
X56595295Y-59188311D01*
X56628301Y-59174641D01*
X56628301Y-59174640D01*
X56628308Y-59174638D01*
X56759418Y-59087033D01*
X56857006Y-58989444D01*
X56918327Y-58955961D01*
X56988019Y-58960945D01*
X57032367Y-58989446D01*
X57089707Y-59046786D01*
X57089711Y-59046789D01*
X57220814Y-59134390D01*
X57220827Y-59134397D01*
X57366498Y-59194735D01*
X57366503Y-59194737D01*
X57495941Y-59220484D01*
X57521153Y-59225499D01*
X57521156Y-59225500D01*
X57521158Y-59225500D01*
X57678844Y-59225500D01*
X57678845Y-59225499D01*
X57833497Y-59194737D01*
X57979179Y-59134394D01*
X58110289Y-59046789D01*
X58221789Y-58935289D01*
X58309394Y-58804179D01*
X58369737Y-58658497D01*
X58400500Y-58503842D01*
X58400500Y-58346158D01*
X58400500Y-58346155D01*
X58400499Y-58346153D01*
X58373596Y-58210904D01*
X58369737Y-58191503D01*
X58326066Y-58086071D01*
X58309397Y-58045827D01*
X58309390Y-58045814D01*
X58221789Y-57914711D01*
X58221786Y-57914707D01*
X58110292Y-57803213D01*
X58110288Y-57803210D01*
X57979185Y-57715609D01*
X57979172Y-57715602D01*
X57833501Y-57655264D01*
X57833489Y-57655261D01*
X57678845Y-57624500D01*
X57678842Y-57624500D01*
X57521158Y-57624500D01*
X57521155Y-57624500D01*
X57366510Y-57655261D01*
X57366498Y-57655264D01*
X57220827Y-57715602D01*
X57220814Y-57715609D01*
X57089711Y-57803210D01*
X56992123Y-57900798D01*
X56930800Y-57934282D01*
X56861108Y-57929298D01*
X56816761Y-57900797D01*
X56759421Y-57843457D01*
X56759417Y-57843454D01*
X56628314Y-57755853D01*
X56628301Y-57755846D01*
X56482630Y-57695508D01*
X56482618Y-57695505D01*
X56327974Y-57664744D01*
X56327971Y-57664744D01*
X56170287Y-57664744D01*
X56170284Y-57664744D01*
X56015639Y-57695505D01*
X56015627Y-57695508D01*
X55869956Y-57755846D01*
X55869943Y-57755853D01*
X55738840Y-57843454D01*
X55738836Y-57843457D01*
X55627342Y-57954951D01*
X55627339Y-57954955D01*
X55539738Y-58086058D01*
X55539731Y-58086071D01*
X55479393Y-58231742D01*
X55479390Y-58231754D01*
X55448629Y-58386397D01*
X50693162Y-58386397D01*
X50701793Y-58365559D01*
X50701795Y-58365555D01*
X50711531Y-58316608D01*
X50732558Y-58210902D01*
X50732558Y-58053213D01*
X50732557Y-58053211D01*
X50724980Y-58015120D01*
X50701795Y-57898561D01*
X50701793Y-57898556D01*
X50641455Y-57752885D01*
X50641448Y-57752872D01*
X50553847Y-57621769D01*
X50553844Y-57621765D01*
X50520885Y-57588806D01*
X50487400Y-57527483D01*
X50492384Y-57457791D01*
X50534256Y-57401858D01*
X50584372Y-57379508D01*
X50633497Y-57369737D01*
X50779179Y-57309394D01*
X50910289Y-57221789D01*
X51021789Y-57110289D01*
X51109394Y-56979179D01*
X51169737Y-56833497D01*
X51200500Y-56678842D01*
X51200500Y-56521158D01*
X51200500Y-56521155D01*
X51200499Y-56521153D01*
X51196004Y-56498556D01*
X51169737Y-56366503D01*
X51154660Y-56330104D01*
X51109397Y-56220827D01*
X51109390Y-56220814D01*
X51021789Y-56089711D01*
X51021786Y-56089707D01*
X50910292Y-55978213D01*
X50910288Y-55978210D01*
X50779185Y-55890609D01*
X50779172Y-55890602D01*
X50633501Y-55830264D01*
X50633491Y-55830261D01*
X50584374Y-55820491D01*
X50522463Y-55788106D01*
X50487889Y-55727389D01*
X50491630Y-55657620D01*
X50520883Y-55611194D01*
X50621789Y-55510289D01*
X50709394Y-55379179D01*
X50769737Y-55233497D01*
X50800500Y-55078842D01*
X50800500Y-54921158D01*
X50800500Y-54921155D01*
X50800499Y-54921153D01*
X50796646Y-54901782D01*
X50769737Y-54766503D01*
X50769735Y-54766498D01*
X50709397Y-54620827D01*
X50709390Y-54620814D01*
X50621789Y-54489711D01*
X50621786Y-54489707D01*
X50510292Y-54378213D01*
X50510288Y-54378210D01*
X50379185Y-54290609D01*
X50379172Y-54290602D01*
X50233501Y-54230264D01*
X50233489Y-54230261D01*
X50078845Y-54199500D01*
X50078842Y-54199500D01*
X49921158Y-54199500D01*
X49921155Y-54199500D01*
X49766510Y-54230261D01*
X49766498Y-54230264D01*
X49620827Y-54290602D01*
X49620814Y-54290609D01*
X49489711Y-54378210D01*
X49489707Y-54378213D01*
X49378213Y-54489707D01*
X49378210Y-54489711D01*
X49290609Y-54620814D01*
X49290602Y-54620827D01*
X49230264Y-54766498D01*
X49230261Y-54766510D01*
X49199500Y-54921153D01*
X49199500Y-55078846D01*
X49230261Y-55233489D01*
X49230264Y-55233501D01*
X49290602Y-55379172D01*
X49290609Y-55379185D01*
X49378210Y-55510288D01*
X49378213Y-55510292D01*
X49489707Y-55621786D01*
X49489711Y-55621789D01*
X49620814Y-55709390D01*
X49620827Y-55709397D01*
X49766498Y-55769735D01*
X49766503Y-55769737D01*
X49793423Y-55775091D01*
X49815624Y-55779508D01*
X49877535Y-55811892D01*
X49912109Y-55872608D01*
X49908370Y-55942377D01*
X49879115Y-55988806D01*
X49778210Y-56089711D01*
X49690609Y-56220814D01*
X49690602Y-56220827D01*
X49630264Y-56366498D01*
X49630261Y-56366510D01*
X49599500Y-56521153D01*
X49599500Y-56678846D01*
X49630261Y-56833489D01*
X49630264Y-56833501D01*
X49690602Y-56979172D01*
X49690609Y-56979185D01*
X49778210Y-57110288D01*
X49778213Y-57110292D01*
X49811172Y-57143251D01*
X49844657Y-57204574D01*
X49839673Y-57274266D01*
X49797801Y-57330199D01*
X49747684Y-57352549D01*
X49698565Y-57362319D01*
X49698556Y-57362322D01*
X49552885Y-57422660D01*
X49552872Y-57422667D01*
X49421769Y-57510268D01*
X49421765Y-57510271D01*
X49310271Y-57621765D01*
X49310268Y-57621769D01*
X49222667Y-57752872D01*
X49222660Y-57752885D01*
X49162322Y-57898556D01*
X49162319Y-57898568D01*
X49131558Y-58053211D01*
X49131558Y-58210904D01*
X49162319Y-58365547D01*
X49162322Y-58365559D01*
X49222660Y-58511230D01*
X49222667Y-58511243D01*
X49310268Y-58642346D01*
X49310271Y-58642350D01*
X49421765Y-58753844D01*
X49421769Y-58753847D01*
X49486468Y-58797078D01*
X49531273Y-58850690D01*
X49539980Y-58920015D01*
X49509825Y-58983043D01*
X49450382Y-59019762D01*
X49429731Y-59023583D01*
X49426782Y-59023873D01*
X49272140Y-59054634D01*
X49272128Y-59054637D01*
X49126457Y-59114975D01*
X49126444Y-59114982D01*
X48995341Y-59202583D01*
X48995337Y-59202586D01*
X48883843Y-59314080D01*
X48883840Y-59314084D01*
X48796239Y-59445187D01*
X48796232Y-59445200D01*
X48735894Y-59590871D01*
X48735891Y-59590883D01*
X48705130Y-59745526D01*
X48705130Y-59903219D01*
X48735891Y-60057862D01*
X48735894Y-60057874D01*
X48796232Y-60203545D01*
X48796239Y-60203558D01*
X48883840Y-60334661D01*
X48883843Y-60334665D01*
X48995337Y-60446159D01*
X48995341Y-60446162D01*
X49126444Y-60533763D01*
X49126457Y-60533770D01*
X49205471Y-60566498D01*
X49272133Y-60594110D01*
X49299689Y-60599591D01*
X49361599Y-60631973D01*
X49396176Y-60692687D01*
X49399500Y-60721208D01*
X49399500Y-60878846D01*
X49430261Y-61033489D01*
X49430264Y-61033501D01*
X49490602Y-61179172D01*
X49490609Y-61179185D01*
X49578210Y-61310288D01*
X49578213Y-61310292D01*
X49689707Y-61421786D01*
X49689711Y-61421789D01*
X49820814Y-61509390D01*
X49820827Y-61509397D01*
X49965332Y-61569252D01*
X49966503Y-61569737D01*
X50087420Y-61593789D01*
X50121153Y-61600499D01*
X50121156Y-61600500D01*
X50121158Y-61600500D01*
X50278844Y-61600500D01*
X50278845Y-61600499D01*
X50433497Y-61569737D01*
X50433509Y-61569731D01*
X50439324Y-61567969D01*
X50439713Y-61569252D01*
X50502368Y-61562515D01*
X50564847Y-61593789D01*
X50600501Y-61653877D01*
X50604317Y-61687524D01*
X50604059Y-61698235D01*
X50599500Y-61721158D01*
X50599500Y-61878842D01*
X50599695Y-61879826D01*
X50599494Y-61888221D01*
X50591047Y-61914623D01*
X50585853Y-61941853D01*
X50580550Y-61947434D01*
X50578205Y-61954768D01*
X50556825Y-61972412D01*
X50537734Y-61992511D01*
X50528036Y-61996171D01*
X50524317Y-61999241D01*
X50517864Y-62000011D01*
X50499722Y-62006859D01*
X50362643Y-62034126D01*
X50362633Y-62034129D01*
X50216962Y-62094467D01*
X50216949Y-62094474D01*
X50085846Y-62182075D01*
X50085842Y-62182078D01*
X49974348Y-62293572D01*
X49974345Y-62293576D01*
X49886744Y-62424679D01*
X49886737Y-62424692D01*
X49826399Y-62570363D01*
X49826396Y-62570375D01*
X49795635Y-62725018D01*
X49795635Y-62864194D01*
X49775950Y-62931233D01*
X49723146Y-62976988D01*
X49653988Y-62986932D01*
X49590432Y-62957907D01*
X49583954Y-62951875D01*
X49510292Y-62878213D01*
X49510288Y-62878210D01*
X49379185Y-62790609D01*
X49379172Y-62790602D01*
X49233501Y-62730264D01*
X49233489Y-62730261D01*
X49078845Y-62699500D01*
X49078842Y-62699500D01*
X48921158Y-62699500D01*
X48921155Y-62699500D01*
X48766510Y-62730261D01*
X48766498Y-62730264D01*
X48620822Y-62790604D01*
X48620820Y-62790605D01*
X48618885Y-62791899D01*
X48617717Y-62792264D01*
X48615451Y-62793476D01*
X48615221Y-62793045D01*
X48552206Y-62812773D01*
X48484827Y-62794285D01*
X48481115Y-62791899D01*
X48479179Y-62790605D01*
X48479177Y-62790604D01*
X48333501Y-62730264D01*
X48333489Y-62730261D01*
X48178845Y-62699500D01*
X48178842Y-62699500D01*
X48021158Y-62699500D01*
X48021155Y-62699500D01*
X47866510Y-62730261D01*
X47866498Y-62730264D01*
X47720827Y-62790602D01*
X47720814Y-62790609D01*
X47589711Y-62878210D01*
X47589707Y-62878213D01*
X47478213Y-62989707D01*
X47478210Y-62989711D01*
X47390609Y-63120814D01*
X47390602Y-63120827D01*
X47330264Y-63266498D01*
X47330261Y-63266510D01*
X47299500Y-63421153D01*
X41897165Y-63421153D01*
X41957246Y-63236243D01*
X41990500Y-63026287D01*
X41990500Y-62813713D01*
X41957246Y-62603757D01*
X41891557Y-62401588D01*
X41795051Y-62212184D01*
X41795049Y-62212181D01*
X41795048Y-62212179D01*
X41670109Y-62040213D01*
X41519786Y-61889890D01*
X41347820Y-61764951D01*
X41347115Y-61764591D01*
X41339054Y-61760485D01*
X41288259Y-61712512D01*
X41271463Y-61644692D01*
X41293999Y-61578556D01*
X41339054Y-61539515D01*
X41347816Y-61535051D01*
X41435765Y-61471153D01*
X41519786Y-61410109D01*
X41519788Y-61410106D01*
X41519792Y-61410104D01*
X41670104Y-61259792D01*
X41670106Y-61259788D01*
X41670109Y-61259786D01*
X41791819Y-61092264D01*
X41795051Y-61087816D01*
X41891557Y-60898412D01*
X41957246Y-60696243D01*
X41990500Y-60486287D01*
X41990500Y-60273713D01*
X41957246Y-60063757D01*
X41891557Y-59861588D01*
X41795051Y-59672184D01*
X41795049Y-59672181D01*
X41795048Y-59672179D01*
X41670109Y-59500213D01*
X41519786Y-59349890D01*
X41347820Y-59224951D01*
X41347115Y-59224591D01*
X41339054Y-59220485D01*
X41288259Y-59172512D01*
X41271463Y-59104692D01*
X41293999Y-59038556D01*
X41339054Y-58999515D01*
X41347816Y-58995051D01*
X41430072Y-58935289D01*
X41519786Y-58870109D01*
X41519788Y-58870106D01*
X41519792Y-58870104D01*
X41670104Y-58719792D01*
X41670106Y-58719788D01*
X41670109Y-58719786D01*
X41795048Y-58547820D01*
X41795047Y-58547820D01*
X41795051Y-58547816D01*
X41891557Y-58358412D01*
X41957246Y-58156243D01*
X41990500Y-57946287D01*
X41990500Y-57733713D01*
X41957246Y-57523757D01*
X41891557Y-57321588D01*
X41795051Y-57132184D01*
X41795049Y-57132181D01*
X41795048Y-57132179D01*
X41670109Y-56960213D01*
X41519786Y-56809890D01*
X41347820Y-56684951D01*
X41346756Y-56684409D01*
X41339054Y-56680485D01*
X41288259Y-56632512D01*
X41271463Y-56564692D01*
X41293999Y-56498556D01*
X41339054Y-56459515D01*
X41347816Y-56455051D01*
X41369789Y-56439086D01*
X41519786Y-56330109D01*
X41519788Y-56330106D01*
X41519792Y-56330104D01*
X41670104Y-56179792D01*
X41670106Y-56179788D01*
X41670109Y-56179786D01*
X41795048Y-56007820D01*
X41795047Y-56007820D01*
X41795051Y-56007816D01*
X41891557Y-55818412D01*
X41957246Y-55616243D01*
X41990500Y-55406287D01*
X41990500Y-55193713D01*
X41957246Y-54983757D01*
X41891557Y-54781588D01*
X41795051Y-54592184D01*
X41795049Y-54592181D01*
X41795048Y-54592179D01*
X41670109Y-54420213D01*
X41519786Y-54269890D01*
X41347820Y-54144951D01*
X41347115Y-54144591D01*
X41339054Y-54140485D01*
X41336066Y-54137662D01*
X41332085Y-54136647D01*
X41310884Y-54113880D01*
X41288259Y-54092512D01*
X41287270Y-54088521D01*
X41284470Y-54085514D01*
X41278942Y-54054892D01*
X41271463Y-54024692D01*
X41272788Y-54020802D01*
X41272058Y-54016756D01*
X41283964Y-53988003D01*
X41293999Y-53958556D01*
X41297667Y-53954912D01*
X41298790Y-53952203D01*
X41307598Y-53945052D01*
X41324620Y-53928150D01*
X41331542Y-53923342D01*
X41347816Y-53915051D01*
X41519792Y-53790104D01*
X41670104Y-53639792D01*
X41670106Y-53639788D01*
X41670109Y-53639786D01*
X41795048Y-53467820D01*
X41795047Y-53467820D01*
X41795051Y-53467816D01*
X41891557Y-53278412D01*
X41957246Y-53076243D01*
X41990500Y-52866287D01*
X41990500Y-52653713D01*
X41957246Y-52443757D01*
X41891557Y-52241588D01*
X41795051Y-52052184D01*
X41795049Y-52052181D01*
X41795048Y-52052179D01*
X41670109Y-51880213D01*
X41556569Y-51766673D01*
X41523084Y-51705350D01*
X41528068Y-51635658D01*
X41569940Y-51579725D01*
X41600915Y-51562810D01*
X41732331Y-51513796D01*
X41847546Y-51427546D01*
X41933796Y-51312331D01*
X41984091Y-51177483D01*
X41990500Y-51117873D01*
X41990500Y-50221153D01*
X42699500Y-50221153D01*
X42699500Y-50378846D01*
X42730261Y-50533489D01*
X42730264Y-50533501D01*
X42790602Y-50679171D01*
X42790604Y-50679175D01*
X42790606Y-50679179D01*
X42790609Y-50679184D01*
X42790610Y-50679185D01*
X42808601Y-50706112D01*
X42829477Y-50772790D01*
X42810991Y-50840169D01*
X42808601Y-50843888D01*
X42790610Y-50870814D01*
X42790602Y-50870828D01*
X42730264Y-51016498D01*
X42730261Y-51016510D01*
X42699500Y-51171153D01*
X42699500Y-51328846D01*
X42730261Y-51483489D01*
X42730264Y-51483501D01*
X42790602Y-51629171D01*
X42790604Y-51629175D01*
X42790606Y-51629179D01*
X42790609Y-51629184D01*
X42790610Y-51629185D01*
X42808601Y-51656112D01*
X42829477Y-51722790D01*
X42810991Y-51790169D01*
X42808601Y-51793888D01*
X42790610Y-51820814D01*
X42790602Y-51820828D01*
X42730264Y-51966498D01*
X42730261Y-51966510D01*
X42699500Y-52121153D01*
X42699500Y-52278846D01*
X42730261Y-52433489D01*
X42730264Y-52433501D01*
X42790602Y-52579172D01*
X42790609Y-52579185D01*
X42878210Y-52710288D01*
X42878213Y-52710292D01*
X42989707Y-52821786D01*
X42989711Y-52821789D01*
X43120814Y-52909390D01*
X43120827Y-52909397D01*
X43208776Y-52945826D01*
X43266503Y-52969737D01*
X43421153Y-53000499D01*
X43421156Y-53000500D01*
X43421158Y-53000500D01*
X43578844Y-53000500D01*
X43578845Y-53000499D01*
X43733497Y-52969737D01*
X43852548Y-52920425D01*
X43922017Y-52912956D01*
X43947453Y-52920425D01*
X44066503Y-52969737D01*
X44221153Y-53000499D01*
X44221156Y-53000500D01*
X44221158Y-53000500D01*
X44378844Y-53000500D01*
X44378845Y-53000499D01*
X44533497Y-52969737D01*
X44679179Y-52909394D01*
X44810289Y-52821789D01*
X44921789Y-52710289D01*
X45009394Y-52579179D01*
X45069737Y-52433497D01*
X45100500Y-52278842D01*
X45100500Y-52217847D01*
X45120185Y-52150808D01*
X45172989Y-52105053D01*
X45200309Y-52096230D01*
X45216291Y-52093050D01*
X45333497Y-52069737D01*
X45479179Y-52009394D01*
X45610289Y-51921789D01*
X45721789Y-51810289D01*
X45809394Y-51679179D01*
X45869737Y-51533497D01*
X45900500Y-51378842D01*
X45900500Y-51221158D01*
X45900500Y-51221155D01*
X45900499Y-51221153D01*
X45879955Y-51117872D01*
X45869737Y-51066503D01*
X45853876Y-51028210D01*
X45809397Y-50920827D01*
X45809387Y-50920809D01*
X45799623Y-50906196D01*
X45799622Y-50906195D01*
X45757657Y-50843391D01*
X51449500Y-50843391D01*
X51449500Y-51001084D01*
X51480261Y-51155727D01*
X51480264Y-51155739D01*
X51540602Y-51301410D01*
X51540609Y-51301423D01*
X51628210Y-51432526D01*
X51628213Y-51432530D01*
X51739707Y-51544024D01*
X51739711Y-51544027D01*
X51870814Y-51631628D01*
X51870827Y-51631635D01*
X52016498Y-51691973D01*
X52016503Y-51691975D01*
X52171158Y-51722738D01*
X52171163Y-51722738D01*
X52177218Y-51723335D01*
X52177095Y-51724580D01*
X52237860Y-51742423D01*
X52283615Y-51795227D01*
X52293559Y-51864385D01*
X52264534Y-51927941D01*
X52258502Y-51934419D01*
X52203213Y-51989707D01*
X52203210Y-51989711D01*
X52115609Y-52120814D01*
X52115602Y-52120827D01*
X52055264Y-52266498D01*
X52055261Y-52266510D01*
X52024500Y-52421153D01*
X52024500Y-52578846D01*
X52055261Y-52733489D01*
X52055264Y-52733501D01*
X52115602Y-52879172D01*
X52115609Y-52879185D01*
X52203210Y-53010288D01*
X52203213Y-53010292D01*
X52314707Y-53121786D01*
X52314711Y-53121789D01*
X52445814Y-53209390D01*
X52445827Y-53209397D01*
X52591498Y-53269735D01*
X52591503Y-53269737D01*
X52746153Y-53300499D01*
X52746156Y-53300500D01*
X52746158Y-53300500D01*
X52903844Y-53300500D01*
X52903845Y-53300499D01*
X53058497Y-53269737D01*
X53204179Y-53209394D01*
X53335289Y-53121789D01*
X53446789Y-53010289D01*
X53534394Y-52879179D01*
X53594737Y-52733497D01*
X53625500Y-52578842D01*
X53625500Y-52421158D01*
X53625500Y-52421155D01*
X53625499Y-52421153D01*
X53617148Y-52379172D01*
X53594737Y-52266503D01*
X53555775Y-52172439D01*
X53534397Y-52120827D01*
X53534390Y-52120814D01*
X53446789Y-51989711D01*
X53446786Y-51989707D01*
X53335292Y-51878213D01*
X53335288Y-51878210D01*
X53204185Y-51790609D01*
X53204172Y-51790602D01*
X53058501Y-51730264D01*
X53058489Y-51730261D01*
X52903846Y-51699500D01*
X52897782Y-51698903D01*
X52897904Y-51697657D01*
X52882933Y-51693261D01*
X52860845Y-51691682D01*
X52850061Y-51683609D01*
X52837140Y-51679815D01*
X52822640Y-51663081D01*
X52804912Y-51649810D01*
X52800204Y-51637189D01*
X52791385Y-51627011D01*
X52788233Y-51605093D01*
X52780495Y-51584346D01*
X52783357Y-51571185D01*
X52783352Y-51571153D01*
X55149500Y-51571153D01*
X55149500Y-51728846D01*
X55180261Y-51883489D01*
X55180264Y-51883501D01*
X55240602Y-52029172D01*
X55240609Y-52029185D01*
X55328210Y-52160288D01*
X55328213Y-52160292D01*
X55439707Y-52271786D01*
X55439711Y-52271789D01*
X55570814Y-52359390D01*
X55570827Y-52359397D01*
X55716498Y-52419735D01*
X55716503Y-52419737D01*
X55837259Y-52443757D01*
X55871153Y-52450499D01*
X55871156Y-52450500D01*
X55871158Y-52450500D01*
X56028844Y-52450500D01*
X56028845Y-52450499D01*
X56183497Y-52419737D01*
X56281399Y-52379185D01*
X56302548Y-52370425D01*
X56372017Y-52362956D01*
X56397452Y-52370425D01*
X56516498Y-52419735D01*
X56516503Y-52419737D01*
X56637259Y-52443757D01*
X56671153Y-52450499D01*
X56671156Y-52450500D01*
X56671158Y-52450500D01*
X56828844Y-52450500D01*
X56828845Y-52450499D01*
X56983497Y-52419737D01*
X57048033Y-52393005D01*
X57127548Y-52360070D01*
X57197017Y-52352601D01*
X57222452Y-52360070D01*
X57366498Y-52419735D01*
X57366503Y-52419737D01*
X57487259Y-52443757D01*
X57521153Y-52450499D01*
X57521156Y-52450500D01*
X57521158Y-52450500D01*
X57678844Y-52450500D01*
X57678845Y-52450499D01*
X57833497Y-52419737D01*
X57979179Y-52359394D01*
X58110289Y-52271789D01*
X58221789Y-52160289D01*
X58309394Y-52029179D01*
X58369737Y-51883497D01*
X58400500Y-51728842D01*
X58400500Y-51571158D01*
X58400500Y-51571155D01*
X58400499Y-51571153D01*
X58395103Y-51544024D01*
X58369737Y-51416503D01*
X58354138Y-51378844D01*
X58309397Y-51270827D01*
X58309390Y-51270814D01*
X58221789Y-51139711D01*
X58221786Y-51139707D01*
X58110292Y-51028213D01*
X58110288Y-51028210D01*
X57979185Y-50940609D01*
X57979172Y-50940602D01*
X57833501Y-50880264D01*
X57833489Y-50880261D01*
X57678845Y-50849500D01*
X57678842Y-50849500D01*
X57521158Y-50849500D01*
X57521155Y-50849500D01*
X57366510Y-50880261D01*
X57366498Y-50880264D01*
X57222452Y-50939930D01*
X57152983Y-50947399D01*
X57127548Y-50939930D01*
X56983501Y-50880264D01*
X56983489Y-50880261D01*
X56828845Y-50849500D01*
X56828842Y-50849500D01*
X56671158Y-50849500D01*
X56671155Y-50849500D01*
X56516510Y-50880261D01*
X56516498Y-50880264D01*
X56397452Y-50929574D01*
X56327982Y-50937043D01*
X56302548Y-50929574D01*
X56183501Y-50880264D01*
X56183489Y-50880261D01*
X56028845Y-50849500D01*
X56028842Y-50849500D01*
X55871158Y-50849500D01*
X55871155Y-50849500D01*
X55716510Y-50880261D01*
X55716498Y-50880264D01*
X55570827Y-50940602D01*
X55570814Y-50940609D01*
X55439711Y-51028210D01*
X55439707Y-51028213D01*
X55328213Y-51139707D01*
X55328210Y-51139711D01*
X55240609Y-51270814D01*
X55240602Y-51270827D01*
X55180264Y-51416498D01*
X55180261Y-51416510D01*
X55149500Y-51571153D01*
X52783352Y-51571153D01*
X52781441Y-51557853D01*
X52790640Y-51537709D01*
X52795347Y-51516073D01*
X52808615Y-51498347D01*
X52810466Y-51494297D01*
X52816498Y-51487819D01*
X52826932Y-51477385D01*
X52871786Y-51432530D01*
X52871789Y-51432527D01*
X52959394Y-51301417D01*
X53019737Y-51155735D01*
X53050500Y-51001080D01*
X53050500Y-50843396D01*
X53050500Y-50843393D01*
X53050499Y-50843391D01*
X53029786Y-50739257D01*
X53026185Y-50721153D01*
X60599500Y-50721153D01*
X60599500Y-50878846D01*
X60630261Y-51033489D01*
X60630264Y-51033501D01*
X60690602Y-51179172D01*
X60690609Y-51179185D01*
X60778210Y-51310288D01*
X60778213Y-51310292D01*
X60780240Y-51312319D01*
X60780962Y-51313642D01*
X60782076Y-51314999D01*
X60781818Y-51315210D01*
X60813725Y-51373642D01*
X60808741Y-51443334D01*
X60782001Y-51484939D01*
X60782076Y-51485001D01*
X60781552Y-51485639D01*
X60780240Y-51487681D01*
X60778213Y-51489707D01*
X60778210Y-51489711D01*
X60690609Y-51620814D01*
X60690602Y-51620827D01*
X60630264Y-51766498D01*
X60630261Y-51766510D01*
X60599500Y-51921153D01*
X60599500Y-52078846D01*
X60630261Y-52233489D01*
X60630264Y-52233501D01*
X60690602Y-52379172D01*
X60690609Y-52379185D01*
X60778210Y-52510288D01*
X60778213Y-52510292D01*
X60889707Y-52621786D01*
X60889711Y-52621789D01*
X61020814Y-52709390D01*
X61020827Y-52709397D01*
X61166498Y-52769735D01*
X61166503Y-52769737D01*
X61321153Y-52800499D01*
X61321156Y-52800500D01*
X61321158Y-52800500D01*
X61478844Y-52800500D01*
X61478845Y-52800499D01*
X61633497Y-52769737D01*
X61779179Y-52709394D01*
X61779185Y-52709390D01*
X61844454Y-52665779D01*
X61869480Y-52649056D01*
X61910289Y-52621789D01*
X62021789Y-52510289D01*
X62109394Y-52379179D01*
X62169737Y-52233497D01*
X62200500Y-52078842D01*
X62200500Y-51921158D01*
X62200500Y-51921155D01*
X62200499Y-51921153D01*
X62169737Y-51766503D01*
X62158104Y-51738418D01*
X62109397Y-51620827D01*
X62109390Y-51620814D01*
X62021789Y-51489711D01*
X62019766Y-51487688D01*
X62019043Y-51486365D01*
X62017924Y-51485001D01*
X62018182Y-51484788D01*
X61986276Y-51426368D01*
X61991255Y-51356676D01*
X62017999Y-51315060D01*
X62017924Y-51314999D01*
X62018454Y-51314351D01*
X62019766Y-51312312D01*
X62021789Y-51310289D01*
X62109394Y-51179179D01*
X62112719Y-51171153D01*
X62134786Y-51117876D01*
X62169737Y-51033497D01*
X62200500Y-50878842D01*
X62200500Y-50721158D01*
X62200500Y-50721155D01*
X62200499Y-50721153D01*
X62174531Y-50590606D01*
X62169737Y-50566503D01*
X62156062Y-50533489D01*
X62109397Y-50420827D01*
X62109390Y-50420814D01*
X62021789Y-50289711D01*
X62021786Y-50289707D01*
X61910292Y-50178213D01*
X61910288Y-50178210D01*
X61779185Y-50090609D01*
X61779172Y-50090602D01*
X61633501Y-50030264D01*
X61633489Y-50030261D01*
X61478845Y-49999500D01*
X61478842Y-49999500D01*
X61321158Y-49999500D01*
X61321155Y-49999500D01*
X61166510Y-50030261D01*
X61166498Y-50030264D01*
X61020827Y-50090602D01*
X61020814Y-50090609D01*
X60889711Y-50178210D01*
X60889707Y-50178213D01*
X60778213Y-50289707D01*
X60778210Y-50289711D01*
X60690609Y-50420814D01*
X60690602Y-50420827D01*
X60630264Y-50566498D01*
X60630261Y-50566510D01*
X60599500Y-50721153D01*
X53026185Y-50721153D01*
X53019738Y-50688746D01*
X53019737Y-50688745D01*
X53019737Y-50688741D01*
X52979090Y-50590609D01*
X52959397Y-50543065D01*
X52959390Y-50543052D01*
X52871789Y-50411949D01*
X52871786Y-50411945D01*
X52760292Y-50300451D01*
X52760288Y-50300448D01*
X52629185Y-50212847D01*
X52629172Y-50212840D01*
X52483501Y-50152502D01*
X52483489Y-50152499D01*
X52328845Y-50121738D01*
X52328842Y-50121738D01*
X52171158Y-50121738D01*
X52171155Y-50121738D01*
X52016510Y-50152499D01*
X52016498Y-50152502D01*
X51870827Y-50212840D01*
X51870814Y-50212847D01*
X51739711Y-50300448D01*
X51739707Y-50300451D01*
X51628213Y-50411945D01*
X51628210Y-50411949D01*
X51540609Y-50543052D01*
X51540602Y-50543065D01*
X51480264Y-50688736D01*
X51480261Y-50688748D01*
X51449500Y-50843391D01*
X45757657Y-50843391D01*
X45721789Y-50789711D01*
X45721786Y-50789707D01*
X45610292Y-50678213D01*
X45610288Y-50678210D01*
X45479185Y-50590609D01*
X45479172Y-50590602D01*
X45333501Y-50530264D01*
X45333491Y-50530261D01*
X45200308Y-50503769D01*
X45138397Y-50471384D01*
X45103823Y-50410668D01*
X45100500Y-50382152D01*
X45100500Y-50221155D01*
X45100499Y-50221153D01*
X45086843Y-50152499D01*
X45069737Y-50066503D01*
X45067534Y-50061185D01*
X45009397Y-49920827D01*
X45009390Y-49920814D01*
X44921789Y-49789711D01*
X44921786Y-49789707D01*
X44810292Y-49678213D01*
X44810288Y-49678210D01*
X44679185Y-49590609D01*
X44679172Y-49590602D01*
X44533501Y-49530264D01*
X44533489Y-49530261D01*
X44378845Y-49499500D01*
X44378842Y-49499500D01*
X44221158Y-49499500D01*
X44221155Y-49499500D01*
X44066510Y-49530261D01*
X44066498Y-49530264D01*
X43947452Y-49579574D01*
X43877982Y-49587043D01*
X43852548Y-49579574D01*
X43733501Y-49530264D01*
X43733489Y-49530261D01*
X43578845Y-49499500D01*
X43578842Y-49499500D01*
X43421158Y-49499500D01*
X43421155Y-49499500D01*
X43266510Y-49530261D01*
X43266498Y-49530264D01*
X43120827Y-49590602D01*
X43120814Y-49590609D01*
X42989711Y-49678210D01*
X42989707Y-49678213D01*
X42878213Y-49789707D01*
X42878210Y-49789711D01*
X42790609Y-49920814D01*
X42790602Y-49920827D01*
X42730264Y-50066498D01*
X42730261Y-50066510D01*
X42699500Y-50221153D01*
X41990500Y-50221153D01*
X41990499Y-49322128D01*
X41984091Y-49262517D01*
X41978551Y-49247664D01*
X41933797Y-49127671D01*
X41933793Y-49127664D01*
X41847547Y-49012455D01*
X41847544Y-49012452D01*
X41732335Y-48926206D01*
X41732328Y-48926202D01*
X41597482Y-48875908D01*
X41597483Y-48875908D01*
X41537883Y-48869501D01*
X41537881Y-48869500D01*
X41537873Y-48869500D01*
X41537864Y-48869500D01*
X39742129Y-48869500D01*
X39742123Y-48869501D01*
X39682516Y-48875908D01*
X39547671Y-48926202D01*
X39547664Y-48926206D01*
X39432455Y-49012452D01*
X39432452Y-49012455D01*
X39346206Y-49127664D01*
X39346202Y-49127671D01*
X39295908Y-49262517D01*
X39289501Y-49322116D01*
X39289501Y-49322123D01*
X39289500Y-49322135D01*
X38500500Y-49322135D01*
X38500500Y-47976504D01*
X47680000Y-47976504D01*
X47680000Y-48375000D01*
X48380000Y-48375000D01*
X48380000Y-48875000D01*
X47680000Y-48875000D01*
X47680000Y-49273495D01*
X47718427Y-49466681D01*
X47718430Y-49466693D01*
X47793807Y-49648671D01*
X47793814Y-49648684D01*
X47903248Y-49812462D01*
X47903251Y-49812466D01*
X48042533Y-49951748D01*
X48042537Y-49951751D01*
X48206315Y-50061185D01*
X48206328Y-50061192D01*
X48388308Y-50136569D01*
X48430000Y-50144862D01*
X48430000Y-49341988D01*
X48439940Y-49359205D01*
X48495795Y-49415060D01*
X48564204Y-49454556D01*
X48640504Y-49475000D01*
X48719496Y-49475000D01*
X48795796Y-49454556D01*
X48864205Y-49415060D01*
X48920060Y-49359205D01*
X48930000Y-49341988D01*
X48930000Y-50144862D01*
X48971690Y-50136569D01*
X48971692Y-50136569D01*
X49153671Y-50061192D01*
X49153684Y-50061185D01*
X49317462Y-49951751D01*
X49317466Y-49951748D01*
X49456748Y-49812466D01*
X49456751Y-49812462D01*
X49566185Y-49648684D01*
X49566192Y-49648671D01*
X49641569Y-49466693D01*
X49641572Y-49466681D01*
X49679999Y-49273495D01*
X49680000Y-49273492D01*
X49680000Y-48875000D01*
X48980000Y-48875000D01*
X48980000Y-48375000D01*
X49529763Y-48375000D01*
X49596802Y-48394685D01*
X49637149Y-48436999D01*
X49649485Y-48458365D01*
X49756635Y-48565515D01*
X49887865Y-48641281D01*
X50034234Y-48680500D01*
X50034236Y-48680500D01*
X50185764Y-48680500D01*
X50185766Y-48680500D01*
X50332135Y-48641281D01*
X50463365Y-48565515D01*
X50570515Y-48458365D01*
X50646281Y-48327135D01*
X50685500Y-48180766D01*
X50685500Y-48029234D01*
X55314500Y-48029234D01*
X55314500Y-48180765D01*
X55353719Y-48327136D01*
X55381354Y-48375000D01*
X55429485Y-48458365D01*
X55536635Y-48565515D01*
X55667865Y-48641281D01*
X55814234Y-48680500D01*
X55814236Y-48680500D01*
X55965764Y-48680500D01*
X55965766Y-48680500D01*
X56112135Y-48641281D01*
X56243365Y-48565515D01*
X56350515Y-48458365D01*
X56362850Y-48436999D01*
X56413417Y-48388784D01*
X56470237Y-48375000D01*
X57020000Y-48375000D01*
X57020000Y-48875000D01*
X56320000Y-48875000D01*
X56320000Y-49273495D01*
X56358427Y-49466681D01*
X56358430Y-49466693D01*
X56433807Y-49648671D01*
X56433814Y-49648684D01*
X56543248Y-49812462D01*
X56543251Y-49812466D01*
X56682533Y-49951748D01*
X56682537Y-49951751D01*
X56846315Y-50061185D01*
X56846328Y-50061192D01*
X57028308Y-50136569D01*
X57070000Y-50144862D01*
X57070000Y-49341988D01*
X57079940Y-49359205D01*
X57135795Y-49415060D01*
X57204204Y-49454556D01*
X57280504Y-49475000D01*
X57359496Y-49475000D01*
X57435796Y-49454556D01*
X57504205Y-49415060D01*
X57560060Y-49359205D01*
X57570000Y-49341988D01*
X57570000Y-50144862D01*
X57611690Y-50136569D01*
X57611692Y-50136569D01*
X57793671Y-50061192D01*
X57793684Y-50061185D01*
X57957462Y-49951751D01*
X57957466Y-49951748D01*
X58096748Y-49812466D01*
X58096751Y-49812462D01*
X58206185Y-49648684D01*
X58206192Y-49648671D01*
X58281569Y-49466693D01*
X58281572Y-49466683D01*
X58291924Y-49414643D01*
X58291929Y-49414615D01*
X58320000Y-49273488D01*
X58320000Y-48875000D01*
X57620000Y-48875000D01*
X57620000Y-48375000D01*
X58320000Y-48375000D01*
X58320000Y-47976508D01*
X58319999Y-47976504D01*
X58281572Y-47783318D01*
X58281569Y-47783306D01*
X58206192Y-47601328D01*
X58206185Y-47601315D01*
X58096751Y-47437537D01*
X58096748Y-47437533D01*
X57957466Y-47298251D01*
X57957462Y-47298248D01*
X57793684Y-47188814D01*
X57793671Y-47188807D01*
X57611691Y-47113429D01*
X57611683Y-47113427D01*
X57570000Y-47105135D01*
X57570000Y-47908011D01*
X57560060Y-47890795D01*
X57504205Y-47834940D01*
X57435796Y-47795444D01*
X57359496Y-47775000D01*
X57280504Y-47775000D01*
X57204204Y-47795444D01*
X57135795Y-47834940D01*
X57079940Y-47890795D01*
X57070000Y-47908011D01*
X57070000Y-47105136D01*
X57069999Y-47105135D01*
X57028316Y-47113427D01*
X57028308Y-47113429D01*
X56846328Y-47188807D01*
X56846315Y-47188814D01*
X56682537Y-47298248D01*
X56682533Y-47298251D01*
X56543248Y-47437536D01*
X56433811Y-47601321D01*
X56430949Y-47606676D01*
X56381982Y-47656516D01*
X56313843Y-47671971D01*
X56248165Y-47648134D01*
X56246112Y-47646592D01*
X56243371Y-47644489D01*
X56243366Y-47644486D01*
X56243365Y-47644485D01*
X56168593Y-47601315D01*
X56112136Y-47568719D01*
X56038950Y-47549109D01*
X55965766Y-47529500D01*
X55814234Y-47529500D01*
X55667863Y-47568719D01*
X55536635Y-47644485D01*
X55536632Y-47644487D01*
X55429487Y-47751632D01*
X55429485Y-47751635D01*
X55353719Y-47882863D01*
X55314500Y-48029234D01*
X50685500Y-48029234D01*
X50646281Y-47882865D01*
X50570515Y-47751635D01*
X50463365Y-47644485D01*
X50388593Y-47601315D01*
X50332136Y-47568719D01*
X50258950Y-47549109D01*
X50185766Y-47529500D01*
X50034234Y-47529500D01*
X49887863Y-47568719D01*
X49756626Y-47644490D01*
X49753882Y-47646596D01*
X49751152Y-47647651D01*
X49749597Y-47648549D01*
X49749456Y-47648306D01*
X49688710Y-47671785D01*
X49620267Y-47657741D01*
X49570281Y-47608922D01*
X49569042Y-47606660D01*
X49566187Y-47601318D01*
X49456751Y-47437537D01*
X49456748Y-47437533D01*
X49317466Y-47298251D01*
X49317462Y-47298248D01*
X49153684Y-47188814D01*
X49153671Y-47188807D01*
X48971691Y-47113429D01*
X48971683Y-47113427D01*
X48930000Y-47105135D01*
X48930000Y-47908011D01*
X48920060Y-47890795D01*
X48864205Y-47834940D01*
X48795796Y-47795444D01*
X48719496Y-47775000D01*
X48640504Y-47775000D01*
X48564204Y-47795444D01*
X48495795Y-47834940D01*
X48439940Y-47890795D01*
X48430000Y-47908011D01*
X48430000Y-47105136D01*
X48429999Y-47105135D01*
X48388316Y-47113427D01*
X48388308Y-47113429D01*
X48206328Y-47188807D01*
X48206315Y-47188814D01*
X48042537Y-47298248D01*
X48042533Y-47298251D01*
X47903251Y-47437533D01*
X47903248Y-47437537D01*
X47793814Y-47601315D01*
X47793807Y-47601328D01*
X47718430Y-47783306D01*
X47718427Y-47783318D01*
X47680000Y-47976504D01*
X38500500Y-47976504D01*
X38500500Y-43624500D01*
X38520185Y-43557461D01*
X38572989Y-43511706D01*
X38624500Y-43500500D01*
X47629283Y-43500500D01*
X47696322Y-43520185D01*
G37*
%TD.AperFunction*%
%TD*%
M02*
