%TF.GenerationSoftware,KiCad,Pcbnew,9.0.7-9.0.7~ubuntu25.10.1*%
%TF.CreationDate,2026-02-16T20:53:07-05:00*%
%TF.ProjectId,QFN_Practice,51464e5f-5072-4616-9374-6963652e6b69,rev?*%
%TF.SameCoordinates,Original*%
%TF.FileFunction,Copper,L4,Bot*%
%TF.FilePolarity,Positive*%
%FSLAX46Y46*%
G04 Gerber Fmt 4.6, Leading zero omitted, Abs format (unit mm)*
G04 Created by KiCad (PCBNEW 9.0.7-9.0.7~ubuntu25.10.1) date 2026-02-16 20:53:07*
%MOMM*%
%LPD*%
G01*
G04 APERTURE LIST*
%TA.AperFunction,ComponentPad*%
%ADD10R,1.700000X1.700000*%
%TD*%
%TA.AperFunction,ComponentPad*%
%ADD11C,1.700000*%
%TD*%
%TA.AperFunction,HeatsinkPad*%
%ADD12O,1.000000X2.100000*%
%TD*%
%TA.AperFunction,HeatsinkPad*%
%ADD13O,1.000000X1.800000*%
%TD*%
%TA.AperFunction,ViaPad*%
%ADD14C,0.600000*%
%TD*%
%TA.AperFunction,Conductor*%
%ADD15C,0.250000*%
%TD*%
%TA.AperFunction,Conductor*%
%ADD16C,0.200000*%
%TD*%
%TA.AperFunction,Conductor*%
%ADD17C,0.300000*%
%TD*%
G04 APERTURE END LIST*
D10*
%TO.P,J3,1,Pin_1*%
%TO.N,/P15*%
X40640000Y-50220000D03*
D11*
%TO.P,J3,2,Pin_2*%
%TO.N,/P16*%
X40640000Y-52760000D03*
%TO.P,J3,3,Pin_3*%
%TO.N,/P9*%
X40640000Y-55300000D03*
%TO.P,J3,4,Pin_4*%
%TO.N,/P8*%
X40640000Y-57840000D03*
%TO.P,J3,5,Pin_5*%
%TO.N,/P7*%
X40640000Y-60380000D03*
%TO.P,J3,6,Pin_6*%
%TO.N,/P6*%
X40640000Y-62920000D03*
%TO.P,J3,7,Pin_7*%
%TO.N,/P1*%
X40640000Y-65460000D03*
%TO.P,J3,8,Pin_8*%
%TO.N,/P14*%
X40640000Y-68000000D03*
%TO.P,J3,9,Pin_9*%
%TO.N,/P23*%
X40640000Y-70540000D03*
%TO.P,J3,10,Pin_10*%
%TO.N,/P22*%
X40640000Y-73080000D03*
%TO.P,J3,11,Pin_11*%
%TO.N,/P25*%
X40640000Y-75620000D03*
%TO.P,J3,12,Pin_12*%
%TO.N,/P26*%
X40640000Y-78160000D03*
%TO.P,J3,13,Pin_13*%
%TO.N,/P27*%
X40640000Y-80700000D03*
%TO.P,J3,14,Pin_14*%
%TO.N,/P28*%
X40640000Y-83240000D03*
%TD*%
D12*
%TO.P,J1,S1,SHIELD*%
%TO.N,GND*%
X57320000Y-48625000D03*
D13*
X57320000Y-44425000D03*
D12*
X48680000Y-48625000D03*
D13*
X48680000Y-44425000D03*
%TD*%
D10*
%TO.P,J4,1,Pin_1*%
%TO.N,+5V*%
X71120000Y-50340000D03*
D11*
%TO.P,J4,2,Pin_2*%
%TO.N,GND*%
X71120000Y-52880000D03*
%TO.P,J4,3,Pin_3*%
X71120000Y-55420000D03*
%TO.P,J4,4,Pin_4*%
%TO.N,/P2*%
X71120000Y-57960000D03*
%TO.P,J4,5,Pin_5*%
%TO.N,unconnected-(J4-Pin_5-Pad5)*%
X71120000Y-60500000D03*
%TO.P,J4,6,Pin_6*%
%TO.N,/P17*%
X71120000Y-63040000D03*
%TO.P,J4,7,Pin_7*%
%TO.N,/SCL*%
X71120000Y-65580000D03*
%TO.P,J4,8,Pin_8*%
%TO.N,/SDA*%
X71120000Y-68120000D03*
%TO.P,J4,9,Pin_9*%
%TO.N,/P18*%
X71120000Y-70660000D03*
%TO.P,J4,10,Pin_10*%
%TO.N,/TXD_MCU*%
X71120000Y-73200000D03*
%TO.P,J4,11,Pin_11*%
%TO.N,/RXD_MCU*%
X71120000Y-75740000D03*
%TO.P,J4,12,Pin_12*%
%TO.N,/P19*%
X71120000Y-78280000D03*
%TO.P,J4,13,Pin_13*%
%TO.N,/P20*%
X71120000Y-80820000D03*
%TO.P,J4,14,Pin_14*%
%TO.N,/P21*%
X71120000Y-83360000D03*
%TD*%
D14*
%TO.N,+5V*%
X57600000Y-51650000D03*
X56750000Y-51650000D03*
X55950000Y-51650000D03*
%TO.N,GND*%
X53450000Y-55350000D03*
X50454199Y-59377685D03*
X54025000Y-66850000D03*
X52000000Y-66775000D03*
X54050000Y-65075000D03*
X51950000Y-65050000D03*
X52950000Y-58050000D03*
X56200000Y-76300000D03*
X57900000Y-81400000D03*
X58000000Y-80600000D03*
X57000000Y-80500000D03*
X69100000Y-60900000D03*
X69100000Y-60200000D03*
X69100000Y-59500000D03*
X45600000Y-63700000D03*
X44900000Y-72000000D03*
X44900000Y-73300000D03*
X44900000Y-74000000D03*
X61300000Y-72900000D03*
X60500000Y-72800000D03*
X59700000Y-72800000D03*
X61300000Y-71900000D03*
X60500000Y-71900000D03*
X59700000Y-71900000D03*
X41400000Y-47200000D03*
X42200000Y-47200000D03*
X43000000Y-47200000D03*
X43800000Y-47200000D03*
X44600000Y-47200000D03*
X45400000Y-47200000D03*
X45800000Y-46400000D03*
X45000000Y-46400000D03*
X44200000Y-46400000D03*
X43400000Y-46400000D03*
X42600000Y-46400000D03*
X41800000Y-46400000D03*
X41000000Y-46400000D03*
X40200000Y-46400000D03*
X40800000Y-45600000D03*
X41600000Y-45600000D03*
X42400000Y-45600000D03*
X43200000Y-45600000D03*
X44000000Y-45600000D03*
X44800000Y-45600000D03*
X45600000Y-45600000D03*
X46000000Y-44800000D03*
X45200000Y-44800000D03*
X44400000Y-44800000D03*
X43600000Y-44800000D03*
X42800000Y-44800000D03*
X42000000Y-44800000D03*
X41200000Y-44800000D03*
X40200000Y-44800000D03*
X60000000Y-48400000D03*
X60800000Y-48400000D03*
X61600000Y-48400000D03*
X62400000Y-48400000D03*
X62400000Y-47600000D03*
X61600000Y-47600000D03*
X60800000Y-47600000D03*
X60000000Y-47600000D03*
%TO.N,/P17*%
X63386183Y-66423001D03*
X55450000Y-68950000D03*
%TO.N,/P18*%
X69350000Y-74050000D03*
X54825000Y-69800000D03*
%TO.N,/P19*%
X56091942Y-78491942D03*
X55383058Y-77433058D03*
%TO.N,/P20*%
X55350000Y-79300000D03*
X54649999Y-78166117D03*
%TO.N,/P21*%
X54741942Y-79841942D03*
X54050000Y-78700000D03*
%TO.N,/P2*%
X57200000Y-61550000D03*
X55757233Y-60625001D03*
%TO.N,/TXD_MCU*%
X59021577Y-67650000D03*
X65008058Y-68691942D03*
%TO.N,/P26*%
X52648289Y-71148290D03*
%TO.N,/P27*%
X53396889Y-71430429D03*
%TO.N,/P28*%
X57800000Y-69400000D03*
%TO.N,/P25*%
X51950000Y-71600000D03*
%TO.N,/P23*%
X51243761Y-70265642D03*
%TO.N,/P14*%
X50800000Y-69600000D03*
%TO.N,/P7*%
X47639067Y-67696560D03*
X49400000Y-67000000D03*
%TO.N,/P8*%
X49400000Y-64600000D03*
X48100000Y-63500000D03*
%TO.N,+3V3*%
X64300000Y-79900000D03*
X49700000Y-74000000D03*
X67500000Y-65300000D03*
X46400000Y-73000000D03*
X48600000Y-73000000D03*
X64200000Y-73500000D03*
X47500000Y-73000000D03*
X47500000Y-74000000D03*
X46400000Y-74000000D03*
X48800000Y-68000000D03*
X49700000Y-73000000D03*
X50000000Y-69400000D03*
X50000000Y-72000000D03*
X49000000Y-63500000D03*
X48600000Y-74000000D03*
%TO.N,GND*%
X67400000Y-64000000D03*
X67400000Y-62800000D03*
X67300000Y-60200000D03*
X46000000Y-54000000D03*
X46000000Y-60600000D03*
X51000000Y-54100000D03*
X45900000Y-57400000D03*
X45300000Y-65800000D03*
X54200000Y-54200000D03*
%TO.N,+5V*%
X43500000Y-50300000D03*
X43800000Y-69800000D03*
X42900000Y-69800000D03*
X42900000Y-69100000D03*
X44300000Y-50300000D03*
X44300000Y-52200000D03*
X43800000Y-69100000D03*
X44300000Y-51250000D03*
X45100000Y-51300000D03*
X43500000Y-52200000D03*
X43500000Y-51250000D03*
X42900000Y-71300000D03*
X42900000Y-70500000D03*
%TO.N,/3v3_CP*%
X50200000Y-60800000D03*
X61400000Y-50800000D03*
X50400000Y-56600000D03*
X61400000Y-52000000D03*
%TO.N,/P28*%
X57843005Y-66144495D03*
%TO.N,/P16*%
X49505630Y-59824373D03*
%TO.N,/P27*%
X54200000Y-61800000D03*
%TO.N,/P26*%
X53300000Y-61800000D03*
%TO.N,/P25*%
X52400000Y-61800000D03*
%TO.N,/P2*%
X50596135Y-62803865D03*
X57600000Y-58425000D03*
%TO.N,/SDA*%
X56875000Y-63225000D03*
X59600000Y-66825000D03*
%TO.N,/SCL*%
X60400000Y-66825000D03*
X67400000Y-66800000D03*
X57600121Y-62575092D03*
X67400000Y-68800000D03*
%TO.N,/RXD_MCU*%
X68774120Y-69725646D03*
X51400000Y-61800000D03*
X61300000Y-66825000D03*
X56249129Y-58465244D03*
X59000000Y-62200000D03*
X66599997Y-66800000D03*
%TO.N,/TXD_MCU*%
X58250000Y-64000094D03*
X57670751Y-66985067D03*
%TO.N,/VBUS_CP*%
X49932058Y-58132058D03*
X50000000Y-55000000D03*
%TO.N,/ISP*%
X57525000Y-68450000D03*
X56832248Y-66917752D03*
%TO.N,/SWCLK*%
X57658883Y-64625001D03*
X58664264Y-65937500D03*
%TO.N,/D+*%
X52825000Y-52500000D03*
X52250000Y-50922238D03*
%TO.N,GND*%
X69100000Y-61600000D03*
X69100000Y-62300000D03*
X69100000Y-63000000D03*
%TD*%
D15*
%TO.N,/3v3_CP*%
X50400000Y-56600000D02*
X51200000Y-57400000D01*
X51200000Y-57400000D02*
X61050000Y-57400000D01*
X61050000Y-57400000D02*
X61400000Y-57050000D01*
X61400000Y-57050000D02*
X61400000Y-52000000D01*
%TO.N,/P27*%
X53396889Y-71430429D02*
X53765702Y-71061616D01*
X53765702Y-71061616D02*
X53765702Y-67994596D01*
X54400000Y-67550000D02*
X54750000Y-67200000D01*
X53765702Y-67994596D02*
X54210298Y-67550000D01*
X54210298Y-67550000D02*
X54400000Y-67550000D01*
X54750000Y-67200000D02*
X54750000Y-62350000D01*
X54750000Y-62350000D02*
X54200000Y-61800000D01*
%TO.N,/P26*%
X52648289Y-71148290D02*
X53150000Y-70646579D01*
X53150000Y-70646579D02*
X53150000Y-61950000D01*
X53150000Y-61950000D02*
X53300000Y-61800000D01*
%TO.N,/P25*%
X51950000Y-71600000D02*
X51950000Y-70962695D01*
X51950000Y-70962695D02*
X52700000Y-70212695D01*
X52700000Y-70212695D02*
X52700000Y-62100000D01*
X52700000Y-62100000D02*
X52400000Y-61800000D01*
%TO.N,/P16*%
X42860000Y-52760000D02*
X40640000Y-52760000D01*
X49505630Y-59220332D02*
X49385298Y-59100000D01*
X45274000Y-58474000D02*
X45274000Y-55226000D01*
X45274000Y-55226000D02*
X45300000Y-55200000D01*
X45900000Y-59100000D02*
X45274000Y-58474000D01*
X49505630Y-59824373D02*
X49505630Y-59220332D01*
X45300000Y-55200000D02*
X42860000Y-52760000D01*
X49385298Y-59100000D02*
X45900000Y-59100000D01*
%TO.N,/RXD_MCU*%
X51400000Y-61800000D02*
X52200000Y-61000000D01*
X52200000Y-61000000D02*
X54950000Y-61000000D01*
X54950000Y-61000000D02*
X55200000Y-61250000D01*
X55200000Y-61250000D02*
X56350000Y-61250000D01*
X56775000Y-58991115D02*
X56249129Y-58465244D01*
X56350000Y-61250000D02*
X56775000Y-60825000D01*
X56775000Y-60825000D02*
X56775000Y-58991115D01*
%TO.N,+3V3*%
X48800000Y-68000000D02*
X48800000Y-68200000D01*
X48800000Y-68200000D02*
X50000000Y-69400000D01*
%TO.N,/P28*%
X57843005Y-66144495D02*
X57956995Y-66144495D01*
X58012500Y-66200000D02*
X58025000Y-66200000D01*
X58371577Y-66546577D02*
X58371577Y-68828423D01*
X57956995Y-66144495D02*
X58012500Y-66200000D01*
X58025000Y-66200000D02*
X58371577Y-66546577D01*
X58371577Y-68828423D02*
X57800000Y-69400000D01*
%TO.N,/TXD_MCU*%
X58249906Y-64000000D02*
X58250000Y-64000094D01*
X56900000Y-66023000D02*
X56900000Y-64500000D01*
X56900000Y-64500000D02*
X57400000Y-64000000D01*
X57670751Y-66856125D02*
X56868813Y-66054187D01*
X57670751Y-66985067D02*
X57670751Y-66856125D01*
X56868813Y-66054187D02*
X56900000Y-66023000D01*
X57400000Y-64000000D02*
X58249906Y-64000000D01*
%TO.N,/SWCLK*%
X58000000Y-64675000D02*
X58450000Y-65125000D01*
X58450000Y-65125000D02*
X58450000Y-65600000D01*
X57708882Y-64675000D02*
X58000000Y-64675000D01*
X57658883Y-64625001D02*
X57708882Y-64675000D01*
X58650000Y-65800000D02*
X58650000Y-65923236D01*
X58450000Y-65600000D02*
X58650000Y-65800000D01*
X58650000Y-65923236D02*
X58664264Y-65937500D01*
%TO.N,/D+*%
X52250000Y-50922238D02*
X52327762Y-51000000D01*
X52327762Y-51000000D02*
X52400000Y-51000000D01*
X52400000Y-51000000D02*
X52900000Y-51500000D01*
X52900000Y-51500000D02*
X52900000Y-52425000D01*
X52900000Y-52425000D02*
X52825000Y-52500000D01*
%TO.N,/ISP*%
X57525000Y-68450000D02*
X57525000Y-68275000D01*
X56832248Y-66987784D02*
X56832248Y-66917752D01*
X57525000Y-68275000D02*
X57114496Y-67864496D01*
X57114496Y-67864496D02*
X57114496Y-67270032D01*
X57114496Y-67270032D02*
X56832248Y-66987784D01*
%TO.N,/TXD_MCU*%
X59021577Y-67650000D02*
X58974000Y-67602423D01*
X58974000Y-67602423D02*
X58974000Y-66513062D01*
X58974000Y-66513062D02*
X59290264Y-66196798D01*
X59290264Y-66196798D02*
X59290264Y-65040358D01*
X59290264Y-65040358D02*
X58250000Y-64000094D01*
%TO.N,/SDA*%
X56875000Y-63225000D02*
X58425000Y-63225000D01*
X59949000Y-66390702D02*
X59774000Y-66565702D01*
X58425000Y-63225000D02*
X59949000Y-64749000D01*
X59774000Y-66565702D02*
X59774000Y-66651000D01*
X59949000Y-64749000D02*
X59949000Y-66390702D01*
X59774000Y-66651000D02*
X59600000Y-66825000D01*
%TO.N,/P17*%
X59783184Y-70026000D02*
X63386183Y-66423001D01*
X56526000Y-70026000D02*
X59783184Y-70026000D01*
X55450000Y-68950000D02*
X56526000Y-70026000D01*
%TO.N,/P18*%
X54825000Y-69800000D02*
X55775000Y-70750000D01*
X55775000Y-70750000D02*
X66050000Y-70750000D01*
X66050000Y-70750000D02*
X69350000Y-74050000D01*
D16*
%TO.N,/P19*%
X55383058Y-77783058D02*
X56091942Y-78491942D01*
X55383058Y-77433058D02*
X55383058Y-77783058D01*
%TO.N,/P20*%
X54649999Y-78599999D02*
X55350000Y-79300000D01*
X54649999Y-78166117D02*
X54649999Y-78599999D01*
%TO.N,/P21*%
X54050000Y-79150000D02*
X54741942Y-79841942D01*
X54050000Y-78700000D02*
X54050000Y-79150000D01*
D15*
%TO.N,/P2*%
X57600000Y-58425000D02*
X57600000Y-61150000D01*
X57600000Y-61150000D02*
X57200000Y-61550000D01*
X55681232Y-60549000D02*
X55757233Y-60625001D01*
X51765702Y-60549000D02*
X55681232Y-60549000D01*
X50596135Y-61718567D02*
X51765702Y-60549000D01*
X50596135Y-62803865D02*
X50596135Y-61718567D01*
%TO.N,/TXD_MCU*%
X71120000Y-73200000D02*
X69516116Y-73200000D01*
X69516116Y-73200000D02*
X65008058Y-68691942D01*
D16*
%TO.N,/P14*%
X50800000Y-69600000D02*
X50399000Y-70001000D01*
X50399000Y-70001000D02*
X45550943Y-70001000D01*
X45550943Y-70001000D02*
X43549943Y-68000000D01*
X43549943Y-68000000D02*
X40640000Y-68000000D01*
%TO.N,/P23*%
X50409403Y-71100000D02*
X44700000Y-71100000D01*
X51243761Y-70265642D02*
X50409403Y-71100000D01*
X43300000Y-72500000D02*
X42600000Y-72500000D01*
X44700000Y-71100000D02*
X43300000Y-72500000D01*
X42600000Y-72500000D02*
X40640000Y-70540000D01*
%TO.N,/P7*%
X48335627Y-67000000D02*
X47639067Y-67696560D01*
X49400000Y-67000000D02*
X48335627Y-67000000D01*
%TO.N,/P8*%
X49400000Y-64600000D02*
X49200000Y-64600000D01*
X49200000Y-64600000D02*
X48100000Y-63500000D01*
D15*
%TO.N,/SCL*%
X57600121Y-62575092D02*
X58412902Y-62575092D01*
X67400000Y-68800000D02*
X67400000Y-66800000D01*
X58412902Y-62575092D02*
X60400000Y-64562190D01*
X60400000Y-64562190D02*
X60400000Y-66825000D01*
D17*
%TO.N,/RXD_MCU*%
X61300000Y-64500000D02*
X61300000Y-66825000D01*
X66599997Y-66800000D02*
X66599997Y-68920651D01*
X67404992Y-69725646D02*
X68774120Y-69725646D01*
X66599997Y-68920651D02*
X67404992Y-69725646D01*
X59000000Y-62200000D02*
X61300000Y-64500000D01*
D15*
%TO.N,/VBUS_CP*%
X49774000Y-55226000D02*
X50000000Y-55000000D01*
X49932058Y-58132058D02*
X49774000Y-57974000D01*
X49774000Y-57974000D02*
X49774000Y-55226000D01*
%TD*%
M02*
