%TF.GenerationSoftware,KiCad,Pcbnew,9.0.4*%
%TF.CreationDate,2026-02-17T19:37:03-05:00*%
%TF.ProjectId,QFN_Practice,51464e5f-5072-4616-9374-6963652e6b69,rev?*%
%TF.SameCoordinates,Original*%
%TF.FileFunction,Legend,Top*%
%TF.FilePolarity,Positive*%
%FSLAX46Y46*%
G04 Gerber Fmt 4.6, Leading zero omitted, Abs format (unit mm)*
G04 Created by KiCad (PCBNEW 9.0.4) date 2026-02-17 19:37:03*
%MOMM*%
%LPD*%
G01*
G04 APERTURE LIST*
%ADD10C,0.150000*%
%ADD11C,0.200000*%
%ADD12C,0.120000*%
G04 APERTURE END LIST*
D10*
X57390819Y-63333333D02*
X58105104Y-63333333D01*
X58105104Y-63333333D02*
X58247961Y-63380952D01*
X58247961Y-63380952D02*
X58343200Y-63476190D01*
X58343200Y-63476190D02*
X58390819Y-63619047D01*
X58390819Y-63619047D02*
X58390819Y-63714285D01*
X57486057Y-62904761D02*
X57438438Y-62857142D01*
X57438438Y-62857142D02*
X57390819Y-62761904D01*
X57390819Y-62761904D02*
X57390819Y-62523809D01*
X57390819Y-62523809D02*
X57438438Y-62428571D01*
X57438438Y-62428571D02*
X57486057Y-62380952D01*
X57486057Y-62380952D02*
X57581295Y-62333333D01*
X57581295Y-62333333D02*
X57676533Y-62333333D01*
X57676533Y-62333333D02*
X57819390Y-62380952D01*
X57819390Y-62380952D02*
X58390819Y-62952380D01*
X58390819Y-62952380D02*
X58390819Y-62333333D01*
X67854819Y-75233333D02*
X68569104Y-75233333D01*
X68569104Y-75233333D02*
X68711961Y-75280952D01*
X68711961Y-75280952D02*
X68807200Y-75376190D01*
X68807200Y-75376190D02*
X68854819Y-75519047D01*
X68854819Y-75519047D02*
X68854819Y-75614285D01*
X68854819Y-74757142D02*
X67854819Y-74757142D01*
X67854819Y-74757142D02*
X67854819Y-74376190D01*
X67854819Y-74376190D02*
X67902438Y-74280952D01*
X67902438Y-74280952D02*
X67950057Y-74233333D01*
X67950057Y-74233333D02*
X68045295Y-74185714D01*
X68045295Y-74185714D02*
X68188152Y-74185714D01*
X68188152Y-74185714D02*
X68283390Y-74233333D01*
X68283390Y-74233333D02*
X68331009Y-74280952D01*
X68331009Y-74280952D02*
X68378628Y-74376190D01*
X68378628Y-74376190D02*
X68378628Y-74757142D01*
X68854819Y-73233333D02*
X68854819Y-73804761D01*
X68854819Y-73519047D02*
X67854819Y-73519047D01*
X67854819Y-73519047D02*
X67997676Y-73614285D01*
X67997676Y-73614285D02*
X68092914Y-73709523D01*
X68092914Y-73709523D02*
X68140533Y-73804761D01*
X67854819Y-80783333D02*
X68569104Y-80783333D01*
X68569104Y-80783333D02*
X68711961Y-80830952D01*
X68711961Y-80830952D02*
X68807200Y-80926190D01*
X68807200Y-80926190D02*
X68854819Y-81069047D01*
X68854819Y-81069047D02*
X68854819Y-81164285D01*
X68854819Y-80307142D02*
X67854819Y-80307142D01*
X67854819Y-80307142D02*
X67854819Y-79926190D01*
X67854819Y-79926190D02*
X67902438Y-79830952D01*
X67902438Y-79830952D02*
X67950057Y-79783333D01*
X67950057Y-79783333D02*
X68045295Y-79735714D01*
X68045295Y-79735714D02*
X68188152Y-79735714D01*
X68188152Y-79735714D02*
X68283390Y-79783333D01*
X68283390Y-79783333D02*
X68331009Y-79830952D01*
X68331009Y-79830952D02*
X68378628Y-79926190D01*
X68378628Y-79926190D02*
X68378628Y-80307142D01*
X67950057Y-79354761D02*
X67902438Y-79307142D01*
X67902438Y-79307142D02*
X67854819Y-79211904D01*
X67854819Y-79211904D02*
X67854819Y-78973809D01*
X67854819Y-78973809D02*
X67902438Y-78878571D01*
X67902438Y-78878571D02*
X67950057Y-78830952D01*
X67950057Y-78830952D02*
X68045295Y-78783333D01*
X68045295Y-78783333D02*
X68140533Y-78783333D01*
X68140533Y-78783333D02*
X68283390Y-78830952D01*
X68283390Y-78830952D02*
X68854819Y-79402380D01*
X68854819Y-79402380D02*
X68854819Y-78783333D01*
X63654819Y-73966666D02*
X63178628Y-74299999D01*
X63654819Y-74538094D02*
X62654819Y-74538094D01*
X62654819Y-74538094D02*
X62654819Y-74157142D01*
X62654819Y-74157142D02*
X62702438Y-74061904D01*
X62702438Y-74061904D02*
X62750057Y-74014285D01*
X62750057Y-74014285D02*
X62845295Y-73966666D01*
X62845295Y-73966666D02*
X62988152Y-73966666D01*
X62988152Y-73966666D02*
X63083390Y-74014285D01*
X63083390Y-74014285D02*
X63131009Y-74061904D01*
X63131009Y-74061904D02*
X63178628Y-74157142D01*
X63178628Y-74157142D02*
X63178628Y-74538094D01*
X62750057Y-73585713D02*
X62702438Y-73538094D01*
X62702438Y-73538094D02*
X62654819Y-73442856D01*
X62654819Y-73442856D02*
X62654819Y-73204761D01*
X62654819Y-73204761D02*
X62702438Y-73109523D01*
X62702438Y-73109523D02*
X62750057Y-73061904D01*
X62750057Y-73061904D02*
X62845295Y-73014285D01*
X62845295Y-73014285D02*
X62940533Y-73014285D01*
X62940533Y-73014285D02*
X63083390Y-73061904D01*
X63083390Y-73061904D02*
X63654819Y-73633332D01*
X63654819Y-73633332D02*
X63654819Y-73014285D01*
X45233333Y-57759580D02*
X45185714Y-57807200D01*
X45185714Y-57807200D02*
X45042857Y-57854819D01*
X45042857Y-57854819D02*
X44947619Y-57854819D01*
X44947619Y-57854819D02*
X44804762Y-57807200D01*
X44804762Y-57807200D02*
X44709524Y-57711961D01*
X44709524Y-57711961D02*
X44661905Y-57616723D01*
X44661905Y-57616723D02*
X44614286Y-57426247D01*
X44614286Y-57426247D02*
X44614286Y-57283390D01*
X44614286Y-57283390D02*
X44661905Y-57092914D01*
X44661905Y-57092914D02*
X44709524Y-56997676D01*
X44709524Y-56997676D02*
X44804762Y-56902438D01*
X44804762Y-56902438D02*
X44947619Y-56854819D01*
X44947619Y-56854819D02*
X45042857Y-56854819D01*
X45042857Y-56854819D02*
X45185714Y-56902438D01*
X45185714Y-56902438D02*
X45233333Y-56950057D01*
X46090476Y-57188152D02*
X46090476Y-57854819D01*
X45852381Y-56807200D02*
X45614286Y-57521485D01*
X45614286Y-57521485D02*
X46233333Y-57521485D01*
X68254819Y-68442857D02*
X67778628Y-68776190D01*
X68254819Y-69014285D02*
X67254819Y-69014285D01*
X67254819Y-69014285D02*
X67254819Y-68633333D01*
X67254819Y-68633333D02*
X67302438Y-68538095D01*
X67302438Y-68538095D02*
X67350057Y-68490476D01*
X67350057Y-68490476D02*
X67445295Y-68442857D01*
X67445295Y-68442857D02*
X67588152Y-68442857D01*
X67588152Y-68442857D02*
X67683390Y-68490476D01*
X67683390Y-68490476D02*
X67731009Y-68538095D01*
X67731009Y-68538095D02*
X67778628Y-68633333D01*
X67778628Y-68633333D02*
X67778628Y-69014285D01*
X68254819Y-67490476D02*
X68254819Y-68061904D01*
X68254819Y-67776190D02*
X67254819Y-67776190D01*
X67254819Y-67776190D02*
X67397676Y-67871428D01*
X67397676Y-67871428D02*
X67492914Y-67966666D01*
X67492914Y-67966666D02*
X67540533Y-68061904D01*
X68254819Y-66538095D02*
X68254819Y-67109523D01*
X68254819Y-66823809D02*
X67254819Y-66823809D01*
X67254819Y-66823809D02*
X67397676Y-66919047D01*
X67397676Y-66919047D02*
X67492914Y-67014285D01*
X67492914Y-67014285D02*
X67540533Y-67109523D01*
X58257200Y-73833332D02*
X58304819Y-73690475D01*
X58304819Y-73690475D02*
X58304819Y-73452380D01*
X58304819Y-73452380D02*
X58257200Y-73357142D01*
X58257200Y-73357142D02*
X58209580Y-73309523D01*
X58209580Y-73309523D02*
X58114342Y-73261904D01*
X58114342Y-73261904D02*
X58019104Y-73261904D01*
X58019104Y-73261904D02*
X57923866Y-73309523D01*
X57923866Y-73309523D02*
X57876247Y-73357142D01*
X57876247Y-73357142D02*
X57828628Y-73452380D01*
X57828628Y-73452380D02*
X57781009Y-73642856D01*
X57781009Y-73642856D02*
X57733390Y-73738094D01*
X57733390Y-73738094D02*
X57685771Y-73785713D01*
X57685771Y-73785713D02*
X57590533Y-73833332D01*
X57590533Y-73833332D02*
X57495295Y-73833332D01*
X57495295Y-73833332D02*
X57400057Y-73785713D01*
X57400057Y-73785713D02*
X57352438Y-73738094D01*
X57352438Y-73738094D02*
X57304819Y-73642856D01*
X57304819Y-73642856D02*
X57304819Y-73404761D01*
X57304819Y-73404761D02*
X57352438Y-73261904D01*
X57304819Y-72928570D02*
X58304819Y-72690475D01*
X58304819Y-72690475D02*
X57590533Y-72499999D01*
X57590533Y-72499999D02*
X58304819Y-72309523D01*
X58304819Y-72309523D02*
X57304819Y-72071428D01*
X57304819Y-71785713D02*
X57304819Y-71166666D01*
X57304819Y-71166666D02*
X57685771Y-71499999D01*
X57685771Y-71499999D02*
X57685771Y-71357142D01*
X57685771Y-71357142D02*
X57733390Y-71261904D01*
X57733390Y-71261904D02*
X57781009Y-71214285D01*
X57781009Y-71214285D02*
X57876247Y-71166666D01*
X57876247Y-71166666D02*
X58114342Y-71166666D01*
X58114342Y-71166666D02*
X58209580Y-71214285D01*
X58209580Y-71214285D02*
X58257200Y-71261904D01*
X58257200Y-71261904D02*
X58304819Y-71357142D01*
X58304819Y-71357142D02*
X58304819Y-71642856D01*
X58304819Y-71642856D02*
X58257200Y-71738094D01*
X58257200Y-71738094D02*
X58209580Y-71785713D01*
X45233333Y-59359580D02*
X45185714Y-59407200D01*
X45185714Y-59407200D02*
X45042857Y-59454819D01*
X45042857Y-59454819D02*
X44947619Y-59454819D01*
X44947619Y-59454819D02*
X44804762Y-59407200D01*
X44804762Y-59407200D02*
X44709524Y-59311961D01*
X44709524Y-59311961D02*
X44661905Y-59216723D01*
X44661905Y-59216723D02*
X44614286Y-59026247D01*
X44614286Y-59026247D02*
X44614286Y-58883390D01*
X44614286Y-58883390D02*
X44661905Y-58692914D01*
X44661905Y-58692914D02*
X44709524Y-58597676D01*
X44709524Y-58597676D02*
X44804762Y-58502438D01*
X44804762Y-58502438D02*
X44947619Y-58454819D01*
X44947619Y-58454819D02*
X45042857Y-58454819D01*
X45042857Y-58454819D02*
X45185714Y-58502438D01*
X45185714Y-58502438D02*
X45233333Y-58550057D01*
X46090476Y-58454819D02*
X45900000Y-58454819D01*
X45900000Y-58454819D02*
X45804762Y-58502438D01*
X45804762Y-58502438D02*
X45757143Y-58550057D01*
X45757143Y-58550057D02*
X45661905Y-58692914D01*
X45661905Y-58692914D02*
X45614286Y-58883390D01*
X45614286Y-58883390D02*
X45614286Y-59264342D01*
X45614286Y-59264342D02*
X45661905Y-59359580D01*
X45661905Y-59359580D02*
X45709524Y-59407200D01*
X45709524Y-59407200D02*
X45804762Y-59454819D01*
X45804762Y-59454819D02*
X45995238Y-59454819D01*
X45995238Y-59454819D02*
X46090476Y-59407200D01*
X46090476Y-59407200D02*
X46138095Y-59359580D01*
X46138095Y-59359580D02*
X46185714Y-59264342D01*
X46185714Y-59264342D02*
X46185714Y-59026247D01*
X46185714Y-59026247D02*
X46138095Y-58931009D01*
X46138095Y-58931009D02*
X46090476Y-58883390D01*
X46090476Y-58883390D02*
X45995238Y-58835771D01*
X45995238Y-58835771D02*
X45804762Y-58835771D01*
X45804762Y-58835771D02*
X45709524Y-58883390D01*
X45709524Y-58883390D02*
X45661905Y-58931009D01*
X45661905Y-58931009D02*
X45614286Y-59026247D01*
X50189580Y-70966666D02*
X50237200Y-71014285D01*
X50237200Y-71014285D02*
X50284819Y-71157142D01*
X50284819Y-71157142D02*
X50284819Y-71252380D01*
X50284819Y-71252380D02*
X50237200Y-71395237D01*
X50237200Y-71395237D02*
X50141961Y-71490475D01*
X50141961Y-71490475D02*
X50046723Y-71538094D01*
X50046723Y-71538094D02*
X49856247Y-71585713D01*
X49856247Y-71585713D02*
X49713390Y-71585713D01*
X49713390Y-71585713D02*
X49522914Y-71538094D01*
X49522914Y-71538094D02*
X49427676Y-71490475D01*
X49427676Y-71490475D02*
X49332438Y-71395237D01*
X49332438Y-71395237D02*
X49284819Y-71252380D01*
X49284819Y-71252380D02*
X49284819Y-71157142D01*
X49284819Y-71157142D02*
X49332438Y-71014285D01*
X49332438Y-71014285D02*
X49380057Y-70966666D01*
X49284819Y-70633332D02*
X49284819Y-70014285D01*
X49284819Y-70014285D02*
X49665771Y-70347618D01*
X49665771Y-70347618D02*
X49665771Y-70204761D01*
X49665771Y-70204761D02*
X49713390Y-70109523D01*
X49713390Y-70109523D02*
X49761009Y-70061904D01*
X49761009Y-70061904D02*
X49856247Y-70014285D01*
X49856247Y-70014285D02*
X50094342Y-70014285D01*
X50094342Y-70014285D02*
X50189580Y-70061904D01*
X50189580Y-70061904D02*
X50237200Y-70109523D01*
X50237200Y-70109523D02*
X50284819Y-70204761D01*
X50284819Y-70204761D02*
X50284819Y-70490475D01*
X50284819Y-70490475D02*
X50237200Y-70585713D01*
X50237200Y-70585713D02*
X50189580Y-70633332D01*
X64654819Y-51966666D02*
X64178628Y-52299999D01*
X64654819Y-52538094D02*
X63654819Y-52538094D01*
X63654819Y-52538094D02*
X63654819Y-52157142D01*
X63654819Y-52157142D02*
X63702438Y-52061904D01*
X63702438Y-52061904D02*
X63750057Y-52014285D01*
X63750057Y-52014285D02*
X63845295Y-51966666D01*
X63845295Y-51966666D02*
X63988152Y-51966666D01*
X63988152Y-51966666D02*
X64083390Y-52014285D01*
X64083390Y-52014285D02*
X64131009Y-52061904D01*
X64131009Y-52061904D02*
X64178628Y-52157142D01*
X64178628Y-52157142D02*
X64178628Y-52538094D01*
X64083390Y-51395237D02*
X64035771Y-51490475D01*
X64035771Y-51490475D02*
X63988152Y-51538094D01*
X63988152Y-51538094D02*
X63892914Y-51585713D01*
X63892914Y-51585713D02*
X63845295Y-51585713D01*
X63845295Y-51585713D02*
X63750057Y-51538094D01*
X63750057Y-51538094D02*
X63702438Y-51490475D01*
X63702438Y-51490475D02*
X63654819Y-51395237D01*
X63654819Y-51395237D02*
X63654819Y-51204761D01*
X63654819Y-51204761D02*
X63702438Y-51109523D01*
X63702438Y-51109523D02*
X63750057Y-51061904D01*
X63750057Y-51061904D02*
X63845295Y-51014285D01*
X63845295Y-51014285D02*
X63892914Y-51014285D01*
X63892914Y-51014285D02*
X63988152Y-51061904D01*
X63988152Y-51061904D02*
X64035771Y-51109523D01*
X64035771Y-51109523D02*
X64083390Y-51204761D01*
X64083390Y-51204761D02*
X64083390Y-51395237D01*
X64083390Y-51395237D02*
X64131009Y-51490475D01*
X64131009Y-51490475D02*
X64178628Y-51538094D01*
X64178628Y-51538094D02*
X64273866Y-51585713D01*
X64273866Y-51585713D02*
X64464342Y-51585713D01*
X64464342Y-51585713D02*
X64559580Y-51538094D01*
X64559580Y-51538094D02*
X64607200Y-51490475D01*
X64607200Y-51490475D02*
X64654819Y-51395237D01*
X64654819Y-51395237D02*
X64654819Y-51204761D01*
X64654819Y-51204761D02*
X64607200Y-51109523D01*
X64607200Y-51109523D02*
X64559580Y-51061904D01*
X64559580Y-51061904D02*
X64464342Y-51014285D01*
X64464342Y-51014285D02*
X64273866Y-51014285D01*
X64273866Y-51014285D02*
X64178628Y-51061904D01*
X64178628Y-51061904D02*
X64131009Y-51109523D01*
X64131009Y-51109523D02*
X64083390Y-51204761D01*
X40306666Y-47294819D02*
X40306666Y-48009104D01*
X40306666Y-48009104D02*
X40259047Y-48151961D01*
X40259047Y-48151961D02*
X40163809Y-48247200D01*
X40163809Y-48247200D02*
X40020952Y-48294819D01*
X40020952Y-48294819D02*
X39925714Y-48294819D01*
X40687619Y-47294819D02*
X41306666Y-47294819D01*
X41306666Y-47294819D02*
X40973333Y-47675771D01*
X40973333Y-47675771D02*
X41116190Y-47675771D01*
X41116190Y-47675771D02*
X41211428Y-47723390D01*
X41211428Y-47723390D02*
X41259047Y-47771009D01*
X41259047Y-47771009D02*
X41306666Y-47866247D01*
X41306666Y-47866247D02*
X41306666Y-48104342D01*
X41306666Y-48104342D02*
X41259047Y-48199580D01*
X41259047Y-48199580D02*
X41211428Y-48247200D01*
X41211428Y-48247200D02*
X41116190Y-48294819D01*
X41116190Y-48294819D02*
X40830476Y-48294819D01*
X40830476Y-48294819D02*
X40735238Y-48247200D01*
X40735238Y-48247200D02*
X40687619Y-48199580D01*
X59004819Y-56338094D02*
X58004819Y-56338094D01*
X58004819Y-56338094D02*
X58004819Y-56099999D01*
X58004819Y-56099999D02*
X58052438Y-55957142D01*
X58052438Y-55957142D02*
X58147676Y-55861904D01*
X58147676Y-55861904D02*
X58242914Y-55814285D01*
X58242914Y-55814285D02*
X58433390Y-55766666D01*
X58433390Y-55766666D02*
X58576247Y-55766666D01*
X58576247Y-55766666D02*
X58766723Y-55814285D01*
X58766723Y-55814285D02*
X58861961Y-55861904D01*
X58861961Y-55861904D02*
X58957200Y-55957142D01*
X58957200Y-55957142D02*
X59004819Y-56099999D01*
X59004819Y-56099999D02*
X59004819Y-56338094D01*
X58004819Y-55433332D02*
X58004819Y-54814285D01*
X58004819Y-54814285D02*
X58385771Y-55147618D01*
X58385771Y-55147618D02*
X58385771Y-55004761D01*
X58385771Y-55004761D02*
X58433390Y-54909523D01*
X58433390Y-54909523D02*
X58481009Y-54861904D01*
X58481009Y-54861904D02*
X58576247Y-54814285D01*
X58576247Y-54814285D02*
X58814342Y-54814285D01*
X58814342Y-54814285D02*
X58909580Y-54861904D01*
X58909580Y-54861904D02*
X58957200Y-54909523D01*
X58957200Y-54909523D02*
X59004819Y-55004761D01*
X59004819Y-55004761D02*
X59004819Y-55290475D01*
X59004819Y-55290475D02*
X58957200Y-55385713D01*
X58957200Y-55385713D02*
X58909580Y-55433332D01*
X47233333Y-63359580D02*
X47185714Y-63407200D01*
X47185714Y-63407200D02*
X47042857Y-63454819D01*
X47042857Y-63454819D02*
X46947619Y-63454819D01*
X46947619Y-63454819D02*
X46804762Y-63407200D01*
X46804762Y-63407200D02*
X46709524Y-63311961D01*
X46709524Y-63311961D02*
X46661905Y-63216723D01*
X46661905Y-63216723D02*
X46614286Y-63026247D01*
X46614286Y-63026247D02*
X46614286Y-62883390D01*
X46614286Y-62883390D02*
X46661905Y-62692914D01*
X46661905Y-62692914D02*
X46709524Y-62597676D01*
X46709524Y-62597676D02*
X46804762Y-62502438D01*
X46804762Y-62502438D02*
X46947619Y-62454819D01*
X46947619Y-62454819D02*
X47042857Y-62454819D01*
X47042857Y-62454819D02*
X47185714Y-62502438D01*
X47185714Y-62502438D02*
X47233333Y-62550057D01*
X48185714Y-63454819D02*
X47614286Y-63454819D01*
X47900000Y-63454819D02*
X47900000Y-62454819D01*
X47900000Y-62454819D02*
X47804762Y-62597676D01*
X47804762Y-62597676D02*
X47709524Y-62692914D01*
X47709524Y-62692914D02*
X47614286Y-62740533D01*
X45233333Y-55959580D02*
X45185714Y-56007200D01*
X45185714Y-56007200D02*
X45042857Y-56054819D01*
X45042857Y-56054819D02*
X44947619Y-56054819D01*
X44947619Y-56054819D02*
X44804762Y-56007200D01*
X44804762Y-56007200D02*
X44709524Y-55911961D01*
X44709524Y-55911961D02*
X44661905Y-55816723D01*
X44661905Y-55816723D02*
X44614286Y-55626247D01*
X44614286Y-55626247D02*
X44614286Y-55483390D01*
X44614286Y-55483390D02*
X44661905Y-55292914D01*
X44661905Y-55292914D02*
X44709524Y-55197676D01*
X44709524Y-55197676D02*
X44804762Y-55102438D01*
X44804762Y-55102438D02*
X44947619Y-55054819D01*
X44947619Y-55054819D02*
X45042857Y-55054819D01*
X45042857Y-55054819D02*
X45185714Y-55102438D01*
X45185714Y-55102438D02*
X45233333Y-55150057D01*
X46138095Y-55054819D02*
X45661905Y-55054819D01*
X45661905Y-55054819D02*
X45614286Y-55531009D01*
X45614286Y-55531009D02*
X45661905Y-55483390D01*
X45661905Y-55483390D02*
X45757143Y-55435771D01*
X45757143Y-55435771D02*
X45995238Y-55435771D01*
X45995238Y-55435771D02*
X46090476Y-55483390D01*
X46090476Y-55483390D02*
X46138095Y-55531009D01*
X46138095Y-55531009D02*
X46185714Y-55626247D01*
X46185714Y-55626247D02*
X46185714Y-55864342D01*
X46185714Y-55864342D02*
X46138095Y-55959580D01*
X46138095Y-55959580D02*
X46090476Y-56007200D01*
X46090476Y-56007200D02*
X45995238Y-56054819D01*
X45995238Y-56054819D02*
X45757143Y-56054819D01*
X45757143Y-56054819D02*
X45661905Y-56007200D01*
X45661905Y-56007200D02*
X45614286Y-55959580D01*
X43759580Y-76166666D02*
X43807200Y-76214285D01*
X43807200Y-76214285D02*
X43854819Y-76357142D01*
X43854819Y-76357142D02*
X43854819Y-76452380D01*
X43854819Y-76452380D02*
X43807200Y-76595237D01*
X43807200Y-76595237D02*
X43711961Y-76690475D01*
X43711961Y-76690475D02*
X43616723Y-76738094D01*
X43616723Y-76738094D02*
X43426247Y-76785713D01*
X43426247Y-76785713D02*
X43283390Y-76785713D01*
X43283390Y-76785713D02*
X43092914Y-76738094D01*
X43092914Y-76738094D02*
X42997676Y-76690475D01*
X42997676Y-76690475D02*
X42902438Y-76595237D01*
X42902438Y-76595237D02*
X42854819Y-76452380D01*
X42854819Y-76452380D02*
X42854819Y-76357142D01*
X42854819Y-76357142D02*
X42902438Y-76214285D01*
X42902438Y-76214285D02*
X42950057Y-76166666D01*
X42950057Y-75785713D02*
X42902438Y-75738094D01*
X42902438Y-75738094D02*
X42854819Y-75642856D01*
X42854819Y-75642856D02*
X42854819Y-75404761D01*
X42854819Y-75404761D02*
X42902438Y-75309523D01*
X42902438Y-75309523D02*
X42950057Y-75261904D01*
X42950057Y-75261904D02*
X43045295Y-75214285D01*
X43045295Y-75214285D02*
X43140533Y-75214285D01*
X43140533Y-75214285D02*
X43283390Y-75261904D01*
X43283390Y-75261904D02*
X43854819Y-75833332D01*
X43854819Y-75833332D02*
X43854819Y-75214285D01*
X45258333Y-54654819D02*
X44925000Y-54178628D01*
X44686905Y-54654819D02*
X44686905Y-53654819D01*
X44686905Y-53654819D02*
X45067857Y-53654819D01*
X45067857Y-53654819D02*
X45163095Y-53702438D01*
X45163095Y-53702438D02*
X45210714Y-53750057D01*
X45210714Y-53750057D02*
X45258333Y-53845295D01*
X45258333Y-53845295D02*
X45258333Y-53988152D01*
X45258333Y-53988152D02*
X45210714Y-54083390D01*
X45210714Y-54083390D02*
X45163095Y-54131009D01*
X45163095Y-54131009D02*
X45067857Y-54178628D01*
X45067857Y-54178628D02*
X44686905Y-54178628D01*
X46115476Y-53654819D02*
X45925000Y-53654819D01*
X45925000Y-53654819D02*
X45829762Y-53702438D01*
X45829762Y-53702438D02*
X45782143Y-53750057D01*
X45782143Y-53750057D02*
X45686905Y-53892914D01*
X45686905Y-53892914D02*
X45639286Y-54083390D01*
X45639286Y-54083390D02*
X45639286Y-54464342D01*
X45639286Y-54464342D02*
X45686905Y-54559580D01*
X45686905Y-54559580D02*
X45734524Y-54607200D01*
X45734524Y-54607200D02*
X45829762Y-54654819D01*
X45829762Y-54654819D02*
X46020238Y-54654819D01*
X46020238Y-54654819D02*
X46115476Y-54607200D01*
X46115476Y-54607200D02*
X46163095Y-54559580D01*
X46163095Y-54559580D02*
X46210714Y-54464342D01*
X46210714Y-54464342D02*
X46210714Y-54226247D01*
X46210714Y-54226247D02*
X46163095Y-54131009D01*
X46163095Y-54131009D02*
X46115476Y-54083390D01*
X46115476Y-54083390D02*
X46020238Y-54035771D01*
X46020238Y-54035771D02*
X45829762Y-54035771D01*
X45829762Y-54035771D02*
X45734524Y-54083390D01*
X45734524Y-54083390D02*
X45686905Y-54131009D01*
X45686905Y-54131009D02*
X45639286Y-54226247D01*
X52238095Y-69284819D02*
X52238095Y-70094342D01*
X52238095Y-70094342D02*
X52285714Y-70189580D01*
X52285714Y-70189580D02*
X52333333Y-70237200D01*
X52333333Y-70237200D02*
X52428571Y-70284819D01*
X52428571Y-70284819D02*
X52619047Y-70284819D01*
X52619047Y-70284819D02*
X52714285Y-70237200D01*
X52714285Y-70237200D02*
X52761904Y-70189580D01*
X52761904Y-70189580D02*
X52809523Y-70094342D01*
X52809523Y-70094342D02*
X52809523Y-69284819D01*
X53809523Y-70284819D02*
X53238095Y-70284819D01*
X53523809Y-70284819D02*
X53523809Y-69284819D01*
X53523809Y-69284819D02*
X53428571Y-69427676D01*
X53428571Y-69427676D02*
X53333333Y-69522914D01*
X53333333Y-69522914D02*
X53238095Y-69570533D01*
X66654819Y-68442857D02*
X66178628Y-68776190D01*
X66654819Y-69014285D02*
X65654819Y-69014285D01*
X65654819Y-69014285D02*
X65654819Y-68633333D01*
X65654819Y-68633333D02*
X65702438Y-68538095D01*
X65702438Y-68538095D02*
X65750057Y-68490476D01*
X65750057Y-68490476D02*
X65845295Y-68442857D01*
X65845295Y-68442857D02*
X65988152Y-68442857D01*
X65988152Y-68442857D02*
X66083390Y-68490476D01*
X66083390Y-68490476D02*
X66131009Y-68538095D01*
X66131009Y-68538095D02*
X66178628Y-68633333D01*
X66178628Y-68633333D02*
X66178628Y-69014285D01*
X66654819Y-67490476D02*
X66654819Y-68061904D01*
X66654819Y-67776190D02*
X65654819Y-67776190D01*
X65654819Y-67776190D02*
X65797676Y-67871428D01*
X65797676Y-67871428D02*
X65892914Y-67966666D01*
X65892914Y-67966666D02*
X65940533Y-68061904D01*
X65654819Y-66871428D02*
X65654819Y-66776190D01*
X65654819Y-66776190D02*
X65702438Y-66680952D01*
X65702438Y-66680952D02*
X65750057Y-66633333D01*
X65750057Y-66633333D02*
X65845295Y-66585714D01*
X65845295Y-66585714D02*
X66035771Y-66538095D01*
X66035771Y-66538095D02*
X66273866Y-66538095D01*
X66273866Y-66538095D02*
X66464342Y-66585714D01*
X66464342Y-66585714D02*
X66559580Y-66633333D01*
X66559580Y-66633333D02*
X66607200Y-66680952D01*
X66607200Y-66680952D02*
X66654819Y-66776190D01*
X66654819Y-66776190D02*
X66654819Y-66871428D01*
X66654819Y-66871428D02*
X66607200Y-66966666D01*
X66607200Y-66966666D02*
X66559580Y-67014285D01*
X66559580Y-67014285D02*
X66464342Y-67061904D01*
X66464342Y-67061904D02*
X66273866Y-67109523D01*
X66273866Y-67109523D02*
X66035771Y-67109523D01*
X66035771Y-67109523D02*
X65845295Y-67061904D01*
X65845295Y-67061904D02*
X65750057Y-67014285D01*
X65750057Y-67014285D02*
X65702438Y-66966666D01*
X65702438Y-66966666D02*
X65654819Y-66871428D01*
X45233333Y-61359580D02*
X45185714Y-61407200D01*
X45185714Y-61407200D02*
X45042857Y-61454819D01*
X45042857Y-61454819D02*
X44947619Y-61454819D01*
X44947619Y-61454819D02*
X44804762Y-61407200D01*
X44804762Y-61407200D02*
X44709524Y-61311961D01*
X44709524Y-61311961D02*
X44661905Y-61216723D01*
X44661905Y-61216723D02*
X44614286Y-61026247D01*
X44614286Y-61026247D02*
X44614286Y-60883390D01*
X44614286Y-60883390D02*
X44661905Y-60692914D01*
X44661905Y-60692914D02*
X44709524Y-60597676D01*
X44709524Y-60597676D02*
X44804762Y-60502438D01*
X44804762Y-60502438D02*
X44947619Y-60454819D01*
X44947619Y-60454819D02*
X45042857Y-60454819D01*
X45042857Y-60454819D02*
X45185714Y-60502438D01*
X45185714Y-60502438D02*
X45233333Y-60550057D01*
X45566667Y-60454819D02*
X46233333Y-60454819D01*
X46233333Y-60454819D02*
X45804762Y-61454819D01*
X47233333Y-68559580D02*
X47185714Y-68607200D01*
X47185714Y-68607200D02*
X47042857Y-68654819D01*
X47042857Y-68654819D02*
X46947619Y-68654819D01*
X46947619Y-68654819D02*
X46804762Y-68607200D01*
X46804762Y-68607200D02*
X46709524Y-68511961D01*
X46709524Y-68511961D02*
X46661905Y-68416723D01*
X46661905Y-68416723D02*
X46614286Y-68226247D01*
X46614286Y-68226247D02*
X46614286Y-68083390D01*
X46614286Y-68083390D02*
X46661905Y-67892914D01*
X46661905Y-67892914D02*
X46709524Y-67797676D01*
X46709524Y-67797676D02*
X46804762Y-67702438D01*
X46804762Y-67702438D02*
X46947619Y-67654819D01*
X46947619Y-67654819D02*
X47042857Y-67654819D01*
X47042857Y-67654819D02*
X47185714Y-67702438D01*
X47185714Y-67702438D02*
X47233333Y-67750057D01*
X47804762Y-68083390D02*
X47709524Y-68035771D01*
X47709524Y-68035771D02*
X47661905Y-67988152D01*
X47661905Y-67988152D02*
X47614286Y-67892914D01*
X47614286Y-67892914D02*
X47614286Y-67845295D01*
X47614286Y-67845295D02*
X47661905Y-67750057D01*
X47661905Y-67750057D02*
X47709524Y-67702438D01*
X47709524Y-67702438D02*
X47804762Y-67654819D01*
X47804762Y-67654819D02*
X47995238Y-67654819D01*
X47995238Y-67654819D02*
X48090476Y-67702438D01*
X48090476Y-67702438D02*
X48138095Y-67750057D01*
X48138095Y-67750057D02*
X48185714Y-67845295D01*
X48185714Y-67845295D02*
X48185714Y-67892914D01*
X48185714Y-67892914D02*
X48138095Y-67988152D01*
X48138095Y-67988152D02*
X48090476Y-68035771D01*
X48090476Y-68035771D02*
X47995238Y-68083390D01*
X47995238Y-68083390D02*
X47804762Y-68083390D01*
X47804762Y-68083390D02*
X47709524Y-68131009D01*
X47709524Y-68131009D02*
X47661905Y-68178628D01*
X47661905Y-68178628D02*
X47614286Y-68273866D01*
X47614286Y-68273866D02*
X47614286Y-68464342D01*
X47614286Y-68464342D02*
X47661905Y-68559580D01*
X47661905Y-68559580D02*
X47709524Y-68607200D01*
X47709524Y-68607200D02*
X47804762Y-68654819D01*
X47804762Y-68654819D02*
X47995238Y-68654819D01*
X47995238Y-68654819D02*
X48090476Y-68607200D01*
X48090476Y-68607200D02*
X48138095Y-68559580D01*
X48138095Y-68559580D02*
X48185714Y-68464342D01*
X48185714Y-68464342D02*
X48185714Y-68273866D01*
X48185714Y-68273866D02*
X48138095Y-68178628D01*
X48138095Y-68178628D02*
X48090476Y-68131009D01*
X48090476Y-68131009D02*
X47995238Y-68083390D01*
X55004819Y-71738094D02*
X54004819Y-71738094D01*
X54004819Y-71738094D02*
X54004819Y-71499999D01*
X54004819Y-71499999D02*
X54052438Y-71357142D01*
X54052438Y-71357142D02*
X54147676Y-71261904D01*
X54147676Y-71261904D02*
X54242914Y-71214285D01*
X54242914Y-71214285D02*
X54433390Y-71166666D01*
X54433390Y-71166666D02*
X54576247Y-71166666D01*
X54576247Y-71166666D02*
X54766723Y-71214285D01*
X54766723Y-71214285D02*
X54861961Y-71261904D01*
X54861961Y-71261904D02*
X54957200Y-71357142D01*
X54957200Y-71357142D02*
X55004819Y-71499999D01*
X55004819Y-71499999D02*
X55004819Y-71738094D01*
X54338152Y-70309523D02*
X55004819Y-70309523D01*
X53957200Y-70547618D02*
X54671485Y-70785713D01*
X54671485Y-70785713D02*
X54671485Y-70166666D01*
X64854819Y-56275594D02*
X63854819Y-56275594D01*
X63854819Y-56275594D02*
X63854819Y-56037499D01*
X63854819Y-56037499D02*
X63902438Y-55894642D01*
X63902438Y-55894642D02*
X63997676Y-55799404D01*
X63997676Y-55799404D02*
X64092914Y-55751785D01*
X64092914Y-55751785D02*
X64283390Y-55704166D01*
X64283390Y-55704166D02*
X64426247Y-55704166D01*
X64426247Y-55704166D02*
X64616723Y-55751785D01*
X64616723Y-55751785D02*
X64711961Y-55799404D01*
X64711961Y-55799404D02*
X64807200Y-55894642D01*
X64807200Y-55894642D02*
X64854819Y-56037499D01*
X64854819Y-56037499D02*
X64854819Y-56275594D01*
X63950057Y-55323213D02*
X63902438Y-55275594D01*
X63902438Y-55275594D02*
X63854819Y-55180356D01*
X63854819Y-55180356D02*
X63854819Y-54942261D01*
X63854819Y-54942261D02*
X63902438Y-54847023D01*
X63902438Y-54847023D02*
X63950057Y-54799404D01*
X63950057Y-54799404D02*
X64045295Y-54751785D01*
X64045295Y-54751785D02*
X64140533Y-54751785D01*
X64140533Y-54751785D02*
X64283390Y-54799404D01*
X64283390Y-54799404D02*
X64854819Y-55370832D01*
X64854819Y-55370832D02*
X64854819Y-54751785D01*
X65454819Y-77416666D02*
X64978628Y-77749999D01*
X65454819Y-77988094D02*
X64454819Y-77988094D01*
X64454819Y-77988094D02*
X64454819Y-77607142D01*
X64454819Y-77607142D02*
X64502438Y-77511904D01*
X64502438Y-77511904D02*
X64550057Y-77464285D01*
X64550057Y-77464285D02*
X64645295Y-77416666D01*
X64645295Y-77416666D02*
X64788152Y-77416666D01*
X64788152Y-77416666D02*
X64883390Y-77464285D01*
X64883390Y-77464285D02*
X64931009Y-77511904D01*
X64931009Y-77511904D02*
X64978628Y-77607142D01*
X64978628Y-77607142D02*
X64978628Y-77988094D01*
X65454819Y-76464285D02*
X65454819Y-77035713D01*
X65454819Y-76749999D02*
X64454819Y-76749999D01*
X64454819Y-76749999D02*
X64597676Y-76845237D01*
X64597676Y-76845237D02*
X64692914Y-76940475D01*
X64692914Y-76940475D02*
X64740533Y-77035713D01*
X45258333Y-52654819D02*
X44925000Y-52178628D01*
X44686905Y-52654819D02*
X44686905Y-51654819D01*
X44686905Y-51654819D02*
X45067857Y-51654819D01*
X45067857Y-51654819D02*
X45163095Y-51702438D01*
X45163095Y-51702438D02*
X45210714Y-51750057D01*
X45210714Y-51750057D02*
X45258333Y-51845295D01*
X45258333Y-51845295D02*
X45258333Y-51988152D01*
X45258333Y-51988152D02*
X45210714Y-52083390D01*
X45210714Y-52083390D02*
X45163095Y-52131009D01*
X45163095Y-52131009D02*
X45067857Y-52178628D01*
X45067857Y-52178628D02*
X44686905Y-52178628D01*
X46163095Y-51654819D02*
X45686905Y-51654819D01*
X45686905Y-51654819D02*
X45639286Y-52131009D01*
X45639286Y-52131009D02*
X45686905Y-52083390D01*
X45686905Y-52083390D02*
X45782143Y-52035771D01*
X45782143Y-52035771D02*
X46020238Y-52035771D01*
X46020238Y-52035771D02*
X46115476Y-52083390D01*
X46115476Y-52083390D02*
X46163095Y-52131009D01*
X46163095Y-52131009D02*
X46210714Y-52226247D01*
X46210714Y-52226247D02*
X46210714Y-52464342D01*
X46210714Y-52464342D02*
X46163095Y-52559580D01*
X46163095Y-52559580D02*
X46115476Y-52607200D01*
X46115476Y-52607200D02*
X46020238Y-52654819D01*
X46020238Y-52654819D02*
X45782143Y-52654819D01*
X45782143Y-52654819D02*
X45686905Y-52607200D01*
X45686905Y-52607200D02*
X45639286Y-52559580D01*
X51454819Y-54766666D02*
X50978628Y-55099999D01*
X51454819Y-55338094D02*
X50454819Y-55338094D01*
X50454819Y-55338094D02*
X50454819Y-54957142D01*
X50454819Y-54957142D02*
X50502438Y-54861904D01*
X50502438Y-54861904D02*
X50550057Y-54814285D01*
X50550057Y-54814285D02*
X50645295Y-54766666D01*
X50645295Y-54766666D02*
X50788152Y-54766666D01*
X50788152Y-54766666D02*
X50883390Y-54814285D01*
X50883390Y-54814285D02*
X50931009Y-54861904D01*
X50931009Y-54861904D02*
X50978628Y-54957142D01*
X50978628Y-54957142D02*
X50978628Y-55338094D01*
X50788152Y-53909523D02*
X51454819Y-53909523D01*
X50407200Y-54147618D02*
X51121485Y-54385713D01*
X51121485Y-54385713D02*
X51121485Y-53766666D01*
X44638095Y-72654819D02*
X44638095Y-73464342D01*
X44638095Y-73464342D02*
X44685714Y-73559580D01*
X44685714Y-73559580D02*
X44733333Y-73607200D01*
X44733333Y-73607200D02*
X44828571Y-73654819D01*
X44828571Y-73654819D02*
X45019047Y-73654819D01*
X45019047Y-73654819D02*
X45114285Y-73607200D01*
X45114285Y-73607200D02*
X45161904Y-73559580D01*
X45161904Y-73559580D02*
X45209523Y-73464342D01*
X45209523Y-73464342D02*
X45209523Y-72654819D01*
X45590476Y-72654819D02*
X46209523Y-72654819D01*
X46209523Y-72654819D02*
X45876190Y-73035771D01*
X45876190Y-73035771D02*
X46019047Y-73035771D01*
X46019047Y-73035771D02*
X46114285Y-73083390D01*
X46114285Y-73083390D02*
X46161904Y-73131009D01*
X46161904Y-73131009D02*
X46209523Y-73226247D01*
X46209523Y-73226247D02*
X46209523Y-73464342D01*
X46209523Y-73464342D02*
X46161904Y-73559580D01*
X46161904Y-73559580D02*
X46114285Y-73607200D01*
X46114285Y-73607200D02*
X46019047Y-73654819D01*
X46019047Y-73654819D02*
X45733333Y-73654819D01*
X45733333Y-73654819D02*
X45638095Y-73607200D01*
X45638095Y-73607200D02*
X45590476Y-73559580D01*
X58257200Y-80333332D02*
X58304819Y-80190475D01*
X58304819Y-80190475D02*
X58304819Y-79952380D01*
X58304819Y-79952380D02*
X58257200Y-79857142D01*
X58257200Y-79857142D02*
X58209580Y-79809523D01*
X58209580Y-79809523D02*
X58114342Y-79761904D01*
X58114342Y-79761904D02*
X58019104Y-79761904D01*
X58019104Y-79761904D02*
X57923866Y-79809523D01*
X57923866Y-79809523D02*
X57876247Y-79857142D01*
X57876247Y-79857142D02*
X57828628Y-79952380D01*
X57828628Y-79952380D02*
X57781009Y-80142856D01*
X57781009Y-80142856D02*
X57733390Y-80238094D01*
X57733390Y-80238094D02*
X57685771Y-80285713D01*
X57685771Y-80285713D02*
X57590533Y-80333332D01*
X57590533Y-80333332D02*
X57495295Y-80333332D01*
X57495295Y-80333332D02*
X57400057Y-80285713D01*
X57400057Y-80285713D02*
X57352438Y-80238094D01*
X57352438Y-80238094D02*
X57304819Y-80142856D01*
X57304819Y-80142856D02*
X57304819Y-79904761D01*
X57304819Y-79904761D02*
X57352438Y-79761904D01*
X57304819Y-79428570D02*
X58304819Y-79190475D01*
X58304819Y-79190475D02*
X57590533Y-78999999D01*
X57590533Y-78999999D02*
X58304819Y-78809523D01*
X58304819Y-78809523D02*
X57304819Y-78571428D01*
X58304819Y-77666666D02*
X58304819Y-78238094D01*
X58304819Y-77952380D02*
X57304819Y-77952380D01*
X57304819Y-77952380D02*
X57447676Y-78047618D01*
X57447676Y-78047618D02*
X57542914Y-78142856D01*
X57542914Y-78142856D02*
X57590533Y-78238094D01*
X56154819Y-52366666D02*
X55678628Y-52699999D01*
X56154819Y-52938094D02*
X55154819Y-52938094D01*
X55154819Y-52938094D02*
X55154819Y-52557142D01*
X55154819Y-52557142D02*
X55202438Y-52461904D01*
X55202438Y-52461904D02*
X55250057Y-52414285D01*
X55250057Y-52414285D02*
X55345295Y-52366666D01*
X55345295Y-52366666D02*
X55488152Y-52366666D01*
X55488152Y-52366666D02*
X55583390Y-52414285D01*
X55583390Y-52414285D02*
X55631009Y-52461904D01*
X55631009Y-52461904D02*
X55678628Y-52557142D01*
X55678628Y-52557142D02*
X55678628Y-52938094D01*
X55154819Y-52033332D02*
X55154819Y-51414285D01*
X55154819Y-51414285D02*
X55535771Y-51747618D01*
X55535771Y-51747618D02*
X55535771Y-51604761D01*
X55535771Y-51604761D02*
X55583390Y-51509523D01*
X55583390Y-51509523D02*
X55631009Y-51461904D01*
X55631009Y-51461904D02*
X55726247Y-51414285D01*
X55726247Y-51414285D02*
X55964342Y-51414285D01*
X55964342Y-51414285D02*
X56059580Y-51461904D01*
X56059580Y-51461904D02*
X56107200Y-51509523D01*
X56107200Y-51509523D02*
X56154819Y-51604761D01*
X56154819Y-51604761D02*
X56154819Y-51890475D01*
X56154819Y-51890475D02*
X56107200Y-51985713D01*
X56107200Y-51985713D02*
X56059580Y-52033332D01*
X56654819Y-77166666D02*
X56178628Y-77499999D01*
X56654819Y-77738094D02*
X55654819Y-77738094D01*
X55654819Y-77738094D02*
X55654819Y-77357142D01*
X55654819Y-77357142D02*
X55702438Y-77261904D01*
X55702438Y-77261904D02*
X55750057Y-77214285D01*
X55750057Y-77214285D02*
X55845295Y-77166666D01*
X55845295Y-77166666D02*
X55988152Y-77166666D01*
X55988152Y-77166666D02*
X56083390Y-77214285D01*
X56083390Y-77214285D02*
X56131009Y-77261904D01*
X56131009Y-77261904D02*
X56178628Y-77357142D01*
X56178628Y-77357142D02*
X56178628Y-77738094D01*
X56654819Y-76690475D02*
X56654819Y-76499999D01*
X56654819Y-76499999D02*
X56607200Y-76404761D01*
X56607200Y-76404761D02*
X56559580Y-76357142D01*
X56559580Y-76357142D02*
X56416723Y-76261904D01*
X56416723Y-76261904D02*
X56226247Y-76214285D01*
X56226247Y-76214285D02*
X55845295Y-76214285D01*
X55845295Y-76214285D02*
X55750057Y-76261904D01*
X55750057Y-76261904D02*
X55702438Y-76309523D01*
X55702438Y-76309523D02*
X55654819Y-76404761D01*
X55654819Y-76404761D02*
X55654819Y-76595237D01*
X55654819Y-76595237D02*
X55702438Y-76690475D01*
X55702438Y-76690475D02*
X55750057Y-76738094D01*
X55750057Y-76738094D02*
X55845295Y-76785713D01*
X55845295Y-76785713D02*
X56083390Y-76785713D01*
X56083390Y-76785713D02*
X56178628Y-76738094D01*
X56178628Y-76738094D02*
X56226247Y-76690475D01*
X56226247Y-76690475D02*
X56273866Y-76595237D01*
X56273866Y-76595237D02*
X56273866Y-76404761D01*
X56273866Y-76404761D02*
X56226247Y-76309523D01*
X56226247Y-76309523D02*
X56178628Y-76261904D01*
X56178628Y-76261904D02*
X56083390Y-76214285D01*
X59054819Y-51966666D02*
X58578628Y-52299999D01*
X59054819Y-52538094D02*
X58054819Y-52538094D01*
X58054819Y-52538094D02*
X58054819Y-52157142D01*
X58054819Y-52157142D02*
X58102438Y-52061904D01*
X58102438Y-52061904D02*
X58150057Y-52014285D01*
X58150057Y-52014285D02*
X58245295Y-51966666D01*
X58245295Y-51966666D02*
X58388152Y-51966666D01*
X58388152Y-51966666D02*
X58483390Y-52014285D01*
X58483390Y-52014285D02*
X58531009Y-52061904D01*
X58531009Y-52061904D02*
X58578628Y-52157142D01*
X58578628Y-52157142D02*
X58578628Y-52538094D01*
X58054819Y-51633332D02*
X58054819Y-50966666D01*
X58054819Y-50966666D02*
X59054819Y-51395237D01*
X70786666Y-47414819D02*
X70786666Y-48129104D01*
X70786666Y-48129104D02*
X70739047Y-48271961D01*
X70739047Y-48271961D02*
X70643809Y-48367200D01*
X70643809Y-48367200D02*
X70500952Y-48414819D01*
X70500952Y-48414819D02*
X70405714Y-48414819D01*
X71691428Y-47748152D02*
X71691428Y-48414819D01*
X71453333Y-47367200D02*
X71215238Y-48081485D01*
X71215238Y-48081485D02*
X71834285Y-48081485D01*
X55404819Y-58811904D02*
X56214342Y-58811904D01*
X56214342Y-58811904D02*
X56309580Y-58764285D01*
X56309580Y-58764285D02*
X56357200Y-58716666D01*
X56357200Y-58716666D02*
X56404819Y-58621428D01*
X56404819Y-58621428D02*
X56404819Y-58430952D01*
X56404819Y-58430952D02*
X56357200Y-58335714D01*
X56357200Y-58335714D02*
X56309580Y-58288095D01*
X56309580Y-58288095D02*
X56214342Y-58240476D01*
X56214342Y-58240476D02*
X55404819Y-58240476D01*
X55500057Y-57811904D02*
X55452438Y-57764285D01*
X55452438Y-57764285D02*
X55404819Y-57669047D01*
X55404819Y-57669047D02*
X55404819Y-57430952D01*
X55404819Y-57430952D02*
X55452438Y-57335714D01*
X55452438Y-57335714D02*
X55500057Y-57288095D01*
X55500057Y-57288095D02*
X55595295Y-57240476D01*
X55595295Y-57240476D02*
X55690533Y-57240476D01*
X55690533Y-57240476D02*
X55833390Y-57288095D01*
X55833390Y-57288095D02*
X56404819Y-57859523D01*
X56404819Y-57859523D02*
X56404819Y-57240476D01*
D11*
%TO.C,J2*%
X64964500Y-59495000D02*
X61535500Y-59495000D01*
X64964500Y-66005000D02*
X61535500Y-66005000D01*
X67779000Y-65290000D02*
G75*
G02*
X67579000Y-65290000I-100000J0D01*
G01*
X67579000Y-65290000D02*
G75*
G02*
X67779000Y-65290000I100000J0D01*
G01*
D12*
%TO.C,JP1*%
X65600000Y-75100000D02*
X65600000Y-73700000D01*
X66300000Y-73000000D02*
X66900000Y-73000000D01*
X66900000Y-75800000D02*
X66300000Y-75800000D01*
X67600000Y-73700000D02*
X67600000Y-75100000D01*
X65600000Y-73700000D02*
G75*
G02*
X66300000Y-73000000I699999J1D01*
G01*
X66300000Y-75800000D02*
G75*
G02*
X65600000Y-75100000I0J700000D01*
G01*
X66900000Y-73000000D02*
G75*
G02*
X67600000Y-73700000I1J-699999D01*
G01*
X67600000Y-75100000D02*
G75*
G02*
X66900000Y-75800000I-700000J0D01*
G01*
%TO.C,JP2*%
X65600000Y-80650000D02*
X65600000Y-79250000D01*
X66300000Y-78550000D02*
X66900000Y-78550000D01*
X66900000Y-81350000D02*
X66300000Y-81350000D01*
X67600000Y-79250000D02*
X67600000Y-80650000D01*
X65600000Y-79250000D02*
G75*
G02*
X66300000Y-78550000I699999J1D01*
G01*
X66300000Y-81350000D02*
G75*
G02*
X65600000Y-80650000I0J700000D01*
G01*
X66900000Y-78550000D02*
G75*
G02*
X67600000Y-79250000I1J-699999D01*
G01*
X67600000Y-80650000D02*
G75*
G02*
X66900000Y-81350000I-700000J0D01*
G01*
%TO.C,R2*%
X62727500Y-71237258D02*
X62727500Y-70762742D01*
X63772500Y-71237258D02*
X63772500Y-70762742D01*
%TO.C,C4*%
X48140580Y-56890000D02*
X47859420Y-56890000D01*
X48140580Y-57910000D02*
X47859420Y-57910000D01*
%TO.C,R11*%
X67277500Y-71037258D02*
X67277500Y-70562742D01*
X68322500Y-71037258D02*
X68322500Y-70562742D01*
%TO.C,SW3*%
X58850000Y-70400000D02*
X59240000Y-70400000D01*
X58850000Y-74600000D02*
X58850000Y-70400000D01*
X59240000Y-74600000D02*
X58850000Y-74600000D01*
X61760000Y-74600000D02*
X62150000Y-74600000D01*
X62150000Y-70400000D02*
X61760000Y-70400000D01*
X62150000Y-74600000D02*
X62150000Y-70400000D01*
%TO.C,C6*%
X48140580Y-58490000D02*
X47859420Y-58490000D01*
X48140580Y-59510000D02*
X47859420Y-59510000D01*
%TO.C,C3*%
X47890000Y-70659420D02*
X47890000Y-70940580D01*
X48910000Y-70659420D02*
X48910000Y-70940580D01*
%TO.C,R8*%
X62077500Y-51762742D02*
X62077500Y-52237258D01*
X63122500Y-51762742D02*
X63122500Y-52237258D01*
%TO.C,J3*%
X39260000Y-48840000D02*
X40640000Y-48840000D01*
X39260000Y-50220000D02*
X39260000Y-48840000D01*
X39260000Y-51490000D02*
X39260000Y-84620000D01*
X39260000Y-51490000D02*
X42020000Y-51490000D01*
X39260000Y-84620000D02*
X42020000Y-84620000D01*
X42020000Y-51490000D02*
X42020000Y-84620000D01*
%TO.C,D3*%
X59240000Y-54600000D02*
X59240000Y-57285000D01*
X59240000Y-57285000D02*
X61160000Y-57285000D01*
X61160000Y-57285000D02*
X61160000Y-54600000D01*
%TO.C,C1*%
X47540580Y-64290000D02*
X47259420Y-64290000D01*
X47540580Y-65310000D02*
X47259420Y-65310000D01*
%TO.C,C5*%
X48140580Y-55290000D02*
X47859420Y-55290000D01*
X48140580Y-56310000D02*
X47859420Y-56310000D01*
%TO.C,C2*%
X42890000Y-73259420D02*
X42890000Y-73540580D01*
X43910000Y-73259420D02*
X43910000Y-73540580D01*
%TO.C,R6*%
X47787742Y-53477500D02*
X48262258Y-53477500D01*
X47787742Y-54522500D02*
X48262258Y-54522500D01*
%TO.C,U1*%
X50390000Y-63390000D02*
X50865000Y-63390000D01*
X50390000Y-63865000D02*
X50390000Y-63390000D01*
X50390000Y-68610000D02*
X50390000Y-68135000D01*
X50865000Y-68610000D02*
X50390000Y-68610000D01*
X55135000Y-63390000D02*
X55610000Y-63390000D01*
X55610000Y-63390000D02*
X55610000Y-63865000D01*
X55610000Y-68135000D02*
X55610000Y-68610000D01*
X55610000Y-68610000D02*
X55135000Y-68610000D01*
X56470000Y-67990000D02*
X56140000Y-67750000D01*
X56470000Y-67510000D01*
X56470000Y-67990000D01*
G36*
X56470000Y-67990000D02*
G01*
X56140000Y-67750000D01*
X56470000Y-67510000D01*
X56470000Y-67990000D01*
G37*
%TO.C,R10*%
X65677500Y-71037258D02*
X65677500Y-70562742D01*
X66722500Y-71037258D02*
X66722500Y-70562742D01*
%TO.C,C7*%
X48140580Y-60090000D02*
X47859420Y-60090000D01*
X48140580Y-61110000D02*
X47859420Y-61110000D01*
%TO.C,C8*%
X47540580Y-66090000D02*
X47259420Y-66090000D01*
X47540580Y-67110000D02*
X47259420Y-67110000D01*
%TO.C,D4*%
X55240000Y-70000000D02*
X55240000Y-72685000D01*
X55240000Y-72685000D02*
X57160000Y-72685000D01*
X57160000Y-72685000D02*
X57160000Y-70000000D01*
%TO.C,D2*%
X61640000Y-54537500D02*
X61640000Y-57222500D01*
X61640000Y-57222500D02*
X63560000Y-57222500D01*
X63560000Y-57222500D02*
X63560000Y-54537500D01*
%TO.C,R1*%
X62727500Y-77737258D02*
X62727500Y-77262742D01*
X63772500Y-77737258D02*
X63772500Y-77262742D01*
%TO.C,R5*%
X47787742Y-51677500D02*
X48262258Y-51677500D01*
X47787742Y-52722500D02*
X48262258Y-52722500D01*
%TO.C,R4*%
X50477500Y-51962742D02*
X50477500Y-52437258D01*
X51522500Y-51962742D02*
X51522500Y-52437258D01*
%TO.C,U3*%
X44490000Y-69240000D02*
X46310000Y-69240000D01*
X44490000Y-70240000D02*
X44490000Y-69240000D01*
X44490000Y-72360000D02*
X44490000Y-71360000D01*
X46310000Y-69240000D02*
X46310000Y-69290000D01*
X46310000Y-70410000D02*
X46310000Y-71190000D01*
X46310000Y-72310000D02*
X46310000Y-72360000D01*
X46310000Y-72360000D02*
X44490000Y-72360000D01*
X46850000Y-71180000D02*
X46610000Y-70850000D01*
X47090000Y-70850000D01*
X46850000Y-71180000D01*
G36*
X46850000Y-71180000D02*
G01*
X46610000Y-70850000D01*
X47090000Y-70850000D01*
X46850000Y-71180000D01*
G37*
%TO.C,J1*%
X48420000Y-41715000D02*
X57580000Y-41715000D01*
X48420000Y-43420000D02*
X48420000Y-41715000D01*
X48420000Y-45430000D02*
X48420000Y-47350000D01*
X57580000Y-41715000D02*
X57580000Y-43420000D01*
X57580000Y-47350000D02*
X57580000Y-45430000D01*
%TO.C,SW1*%
X58850000Y-76900000D02*
X59240000Y-76900000D01*
X58850000Y-81100000D02*
X58850000Y-76900000D01*
X59240000Y-81100000D02*
X58850000Y-81100000D01*
X61760000Y-81100000D02*
X62150000Y-81100000D01*
X62150000Y-76900000D02*
X61760000Y-76900000D01*
X62150000Y-81100000D02*
X62150000Y-76900000D01*
%TO.C,R3*%
X53677500Y-51962742D02*
X53677500Y-52437258D01*
X54722500Y-51962742D02*
X54722500Y-52437258D01*
%TO.C,R9*%
X55677500Y-74162742D02*
X55677500Y-74637258D01*
X56722500Y-74162742D02*
X56722500Y-74637258D01*
%TO.C,R7*%
X59677500Y-51762742D02*
X59677500Y-52237258D01*
X60722500Y-51762742D02*
X60722500Y-52237258D01*
%TO.C,J4*%
X69740000Y-48960000D02*
X71120000Y-48960000D01*
X69740000Y-50340000D02*
X69740000Y-48960000D01*
X69740000Y-51610000D02*
X69740000Y-84740000D01*
X69740000Y-51610000D02*
X72500000Y-51610000D01*
X69740000Y-84740000D02*
X72500000Y-84740000D01*
X72500000Y-51610000D02*
X72500000Y-84740000D01*
%TO.C,U2*%
X51290000Y-56390000D02*
X51790000Y-56390000D01*
X51290000Y-56890000D02*
X51290000Y-56390000D01*
X51290000Y-59210000D02*
X51290000Y-59710000D01*
X51290000Y-59710000D02*
X51790000Y-59710000D01*
X54110000Y-56390000D02*
X54360000Y-56390000D01*
X54610000Y-56890000D02*
X54610000Y-56690000D01*
X54610000Y-59210000D02*
X54610000Y-59710000D01*
X54610000Y-59710000D02*
X54110000Y-59710000D01*
X54940000Y-56630000D02*
X54610000Y-56390000D01*
X54940000Y-56150000D01*
X54940000Y-56630000D01*
G36*
X54940000Y-56630000D02*
G01*
X54610000Y-56390000D01*
X54940000Y-56150000D01*
X54940000Y-56630000D01*
G37*
%TD*%
M02*
